M48
; DRILL file {KiCad 7.0.8} date 2024 April 12, Friday 14:19:18
; FORMAT={-:-/ absolute / metric / decimal}
; #@! TF.CreationDate,2024-04-12T14:19:18-07:00
; #@! TF.GenerationSoftware,Kicad,Pcbnew,7.0.8
; #@! TF.FileFunction,Plated,1,4,PTH
FMAT,2
METRIC
; #@! TA.AperFunction,Plated,PTH,ViaDrill
T1C0.400
; #@! TA.AperFunction,Plated,PTH,ComponentDrill
T2C1.000
%
G90
G05
T1
X135.89Y-94.488
X138.43Y-107.696
X139.137Y-106.934
X139.192Y-100.584
X141.986Y-101.6
X143.002Y-100.838
X144.526Y-101.854
X144.715Y-113.219
X145.288Y-105.41
X145.735Y-106.304
X145.796Y-103.378
X146.05Y-110.236
X148.59Y-97.282
X150.622Y-106.426
X150.876Y-93.218
X150.876Y-110.236
X151.13Y-101.346
X151.833Y-105.115
X151.892Y-103.124
X151.892Y-113.792
X151.892Y-115.824
X152.908Y-105.156
X152.908Y-106.172
X152.908Y-115.824
X154.94Y-97.028
X156.21Y-102.108
X156.21Y-107.442
X156.21Y-109.474
X156.464Y-106.426
X156.972Y-112.776
X159.004Y-90.678
X159.004Y-92.71
X160.274Y-84.074
X161.544Y-90.678
X161.971Y-116.759
X162.052Y-106.172
X163.393Y-115.133
X163.576Y-105.156
X163.83Y-84.074
X164.084Y-89.662
X165.1Y-92.71
X165.354Y-87.63
X166.878Y-102.362
X166.878Y-113.03
X167.004Y-95.124
X168.402Y-100.838
X168.656Y-99.06
X168.656Y-101.854
X168.656Y-109.474
X168.656Y-111.506
X168.656Y-112.562
X170.18Y-121.158
X170.688Y-100.584
X171.196Y-111.252
X174.244Y-98.552
X174.244Y-103.124
X174.498Y-116.84
X175.26Y-104.14
X176.276Y-111.506
X176.276Y-112.522
X176.276Y-117.064
X179.832Y-99.06
X179.832Y-102.108
X179.832Y-105.156
X180.086Y-113.792
X182.88Y-89.916
X182.88Y-91.948
X184.404Y-88.646
X184.404Y-93.218
X185.42Y-110.998
X185.674Y-82.55
X185.674Y-112.268
X185.674Y-115.062
X185.928Y-84.328
X186.817Y-94.107
X187.198Y-118.364
X188.214Y-112.014
X189.484Y-118.364
X189.992Y-119.38
X190.651Y-117.983
X191.008Y-115.062
X191.393Y-112.522
X192.278Y-118.364
X192.409Y-112.522
X196.596Y-82.55
X196.85Y-93.218
X196.981Y-86.483
T2
X126.746Y-91.435
X126.746Y-93.975
X126.746Y-99.822
X126.746Y-102.362
X126.746Y-104.902
X126.746Y-107.442
X126.746Y-109.982
X126.746Y-114.554
X137.16Y-112.268
X139.7Y-109.728
X139.7Y-112.268
X166.878Y-84.074
X169.418Y-84.074
X171.958Y-84.074
X174.498Y-84.074
X177.038Y-84.074
X179.578Y-84.074
X182.88Y-107.437
X182.88Y-109.977
X182.88Y-114.554
X182.88Y-117.094
X183.642Y-102.616
X186.182Y-102.616
X188.722Y-102.616
X191.262Y-102.616
X193.802Y-102.616
X196.342Y-102.616
X203.2Y-91.186
X203.2Y-93.726
X203.2Y-100.584
X203.2Y-108.204
X203.2Y-110.744
X203.2Y-113.284
T0
M30
