G04 #@! TF.GenerationSoftware,KiCad,Pcbnew,7.0.8*
G04 #@! TF.CreationDate,2024-04-12T14:18:42-07:00*
G04 #@! TF.ProjectId,2-channel-EEG,322d6368-616e-46e6-956c-2d4545472e6b,rev?*
G04 #@! TF.SameCoordinates,Original*
G04 #@! TF.FileFunction,Paste,Top*
G04 #@! TF.FilePolarity,Positive*
%FSLAX46Y46*%
G04 Gerber Fmt 4.6, Leading zero omitted, Abs format (unit mm)*
G04 Created by KiCad (PCBNEW 7.0.8) date 2024-04-12 14:18:42*
%MOMM*%
%LPD*%
G01*
G04 APERTURE LIST*
G04 Aperture macros list*
%AMRoundRect*
0 Rectangle with rounded corners*
0 $1 Rounding radius*
0 $2 $3 $4 $5 $6 $7 $8 $9 X,Y pos of 4 corners*
0 Add a 4 corners polygon primitive as box body*
4,1,4,$2,$3,$4,$5,$6,$7,$8,$9,$2,$3,0*
0 Add four circle primitives for the rounded corners*
1,1,$1+$1,$2,$3*
1,1,$1+$1,$4,$5*
1,1,$1+$1,$6,$7*
1,1,$1+$1,$8,$9*
0 Add four rect primitives between the rounded corners*
20,1,$1+$1,$2,$3,$4,$5,0*
20,1,$1+$1,$4,$5,$6,$7,0*
20,1,$1+$1,$6,$7,$8,$9,0*
20,1,$1+$1,$8,$9,$2,$3,0*%
G04 Aperture macros list end*
%ADD10RoundRect,0.250000X-0.475000X0.337500X-0.475000X-0.337500X0.475000X-0.337500X0.475000X0.337500X0*%
%ADD11RoundRect,0.200000X0.200000X0.275000X-0.200000X0.275000X-0.200000X-0.275000X0.200000X-0.275000X0*%
%ADD12RoundRect,0.250000X0.350000X0.450000X-0.350000X0.450000X-0.350000X-0.450000X0.350000X-0.450000X0*%
%ADD13RoundRect,0.250000X-0.450000X0.350000X-0.450000X-0.350000X0.450000X-0.350000X0.450000X0.350000X0*%
%ADD14RoundRect,0.100000X-0.712500X-0.100000X0.712500X-0.100000X0.712500X0.100000X-0.712500X0.100000X0*%
%ADD15RoundRect,0.250000X-0.350000X-0.450000X0.350000X-0.450000X0.350000X0.450000X-0.350000X0.450000X0*%
%ADD16RoundRect,0.250000X0.337500X0.475000X-0.337500X0.475000X-0.337500X-0.475000X0.337500X-0.475000X0*%
%ADD17RoundRect,0.100000X-0.100000X0.712500X-0.100000X-0.712500X0.100000X-0.712500X0.100000X0.712500X0*%
%ADD18RoundRect,0.250000X0.475000X-0.337500X0.475000X0.337500X-0.475000X0.337500X-0.475000X-0.337500X0*%
%ADD19RoundRect,0.100000X0.100000X-0.637500X0.100000X0.637500X-0.100000X0.637500X-0.100000X-0.637500X0*%
%ADD20RoundRect,0.250000X0.450000X-0.350000X0.450000X0.350000X-0.450000X0.350000X-0.450000X-0.350000X0*%
%ADD21RoundRect,0.150000X0.150000X-0.875000X0.150000X0.875000X-0.150000X0.875000X-0.150000X-0.875000X0*%
%ADD22RoundRect,0.250000X-0.337500X-0.475000X0.337500X-0.475000X0.337500X0.475000X-0.337500X0.475000X0*%
%ADD23R,2.100000X1.000000*%
%ADD24R,2.500000X1.000000*%
%ADD25R,0.640000X0.700000*%
%ADD26R,1.200000X1.200000*%
%ADD27R,1.500000X1.600000*%
%ADD28R,1.600000X1.500000*%
%ADD29R,1.000000X0.800000*%
%ADD30R,1.000000X0.600000*%
%ADD31RoundRect,0.237500X-0.287500X-0.237500X0.287500X-0.237500X0.287500X0.237500X-0.287500X0.237500X0*%
%ADD32RoundRect,0.100000X0.100000X-0.712500X0.100000X0.712500X-0.100000X0.712500X-0.100000X-0.712500X0*%
G04 APERTURE END LIST*
D10*
X164592000Y-99038500D03*
X164592000Y-101113500D03*
D11*
X159305000Y-109344453D03*
X157655000Y-109344453D03*
D10*
X168402000Y-103102500D03*
X168402000Y-105177500D03*
D12*
X154940000Y-101092000D03*
X152940000Y-101092000D03*
D13*
X143764000Y-105934000D03*
X143764000Y-107934000D03*
D12*
X154924000Y-111506000D03*
X152924000Y-111506000D03*
D14*
X146223500Y-107412000D03*
X146223500Y-108062000D03*
X146223500Y-108712000D03*
X146223500Y-109362000D03*
X150448500Y-109362000D03*
X150448500Y-108712000D03*
X150448500Y-108062000D03*
X150448500Y-107412000D03*
D15*
X172228000Y-118364000D03*
X174228000Y-118364000D03*
D16*
X154961500Y-107442000D03*
X152886500Y-107442000D03*
D11*
X159321000Y-99060000D03*
X157671000Y-99060000D03*
D17*
X174122500Y-100503500D03*
X173472500Y-100503500D03*
X172822500Y-100503500D03*
X172172500Y-100503500D03*
X172172500Y-104728500D03*
X172822500Y-104728500D03*
X173472500Y-104728500D03*
X174122500Y-104728500D03*
D13*
X190754000Y-106188000D03*
X190754000Y-108188000D03*
D10*
X160274000Y-85576500D03*
X160274000Y-87651500D03*
X189484000Y-115040500D03*
X189484000Y-117115500D03*
D18*
X184404000Y-91969500D03*
X184404000Y-89894500D03*
D10*
X189484000Y-110976500D03*
X189484000Y-113051500D03*
X187198000Y-110976500D03*
X187198000Y-113051500D03*
X159258000Y-103356500D03*
X159258000Y-105431500D03*
D19*
X191385000Y-116908500D03*
X192035000Y-116908500D03*
X192685000Y-116908500D03*
X193335000Y-116908500D03*
X193985000Y-116908500D03*
X194635000Y-116908500D03*
X195285000Y-116908500D03*
X195935000Y-116908500D03*
X196585000Y-116908500D03*
X197235000Y-116908500D03*
X197235000Y-111183500D03*
X196585000Y-111183500D03*
X195935000Y-111183500D03*
X195285000Y-111183500D03*
X194635000Y-111183500D03*
X193985000Y-111183500D03*
X193335000Y-111183500D03*
X192685000Y-111183500D03*
X192035000Y-111183500D03*
X191385000Y-111183500D03*
D20*
X170434000Y-115848250D03*
X170434000Y-113848250D03*
D21*
X186817000Y-92280000D03*
X188087000Y-92280000D03*
X189357000Y-92280000D03*
X190627000Y-92280000D03*
X191897000Y-92280000D03*
X193167000Y-92280000D03*
X194437000Y-92280000D03*
X195707000Y-92280000D03*
X195707000Y-82980000D03*
X194437000Y-82980000D03*
X193167000Y-82980000D03*
X191897000Y-82980000D03*
X190627000Y-82980000D03*
X189357000Y-82980000D03*
X188087000Y-82980000D03*
X186817000Y-82980000D03*
D10*
X132334000Y-87354500D03*
X132334000Y-89429500D03*
D14*
X150287500Y-113833000D03*
X150287500Y-114483000D03*
X150287500Y-115133000D03*
X150287500Y-115783000D03*
X154512500Y-115783000D03*
X154512500Y-115133000D03*
X154512500Y-114483000D03*
X154512500Y-113833000D03*
D18*
X184404000Y-84603500D03*
X184404000Y-82528500D03*
D22*
X176254500Y-109982000D03*
X178329500Y-109982000D03*
X176254500Y-105156000D03*
X178329500Y-105156000D03*
D13*
X188468000Y-106188000D03*
X188468000Y-108188000D03*
X186182000Y-106188000D03*
X186182000Y-108188000D03*
D23*
X135920000Y-85598000D03*
X135920000Y-88138000D03*
X135920000Y-93218000D03*
X146020000Y-93218000D03*
X146020000Y-85598000D03*
D18*
X140320000Y-101621500D03*
X140320000Y-99546500D03*
D15*
X152940000Y-109474000D03*
X154940000Y-109474000D03*
D24*
X150920000Y-86908000D03*
X156420000Y-89408000D03*
X150920000Y-91908000D03*
D12*
X159480000Y-111252000D03*
X157480000Y-111252000D03*
D10*
X156972000Y-103356500D03*
X156972000Y-105431500D03*
D12*
X159480000Y-107442000D03*
X157480000Y-107442000D03*
D25*
X148160500Y-103956000D03*
X147220500Y-103956000D03*
X147220500Y-105356000D03*
X148160500Y-105356000D03*
D26*
X171780000Y-96504000D03*
D27*
X168530000Y-95504000D03*
D26*
X171780000Y-94504000D03*
D13*
X195326000Y-106204000D03*
X195326000Y-108204000D03*
X137922000Y-99584000D03*
X137922000Y-101584000D03*
D14*
X161971500Y-103165000D03*
X161971500Y-103815000D03*
X161971500Y-104465000D03*
X161971500Y-105115000D03*
X166196500Y-105115000D03*
X166196500Y-104465000D03*
X166196500Y-103815000D03*
X166196500Y-103165000D03*
D20*
X140462000Y-105632000D03*
X140462000Y-103632000D03*
D14*
X150228500Y-103124000D03*
X150228500Y-103774000D03*
X150228500Y-104424000D03*
X150228500Y-105074000D03*
X154453500Y-105074000D03*
X154453500Y-104424000D03*
X154453500Y-103774000D03*
X154453500Y-103124000D03*
D10*
X163830000Y-85576500D03*
X163830000Y-87651500D03*
X164592000Y-109452500D03*
X164592000Y-111527500D03*
D12*
X159496000Y-97028000D03*
X157496000Y-97028000D03*
D20*
X162052000Y-111506000D03*
X162052000Y-109506000D03*
D18*
X176276000Y-115845500D03*
X176276000Y-113770500D03*
D20*
X162052000Y-101076000D03*
X162052000Y-99076000D03*
D13*
X170434000Y-103140000D03*
X170434000Y-105140000D03*
D18*
X137922000Y-105685500D03*
X137922000Y-103610500D03*
D12*
X178308000Y-107696000D03*
X176308000Y-107696000D03*
D10*
X159258000Y-114064750D03*
X159258000Y-116139750D03*
D17*
X174203000Y-111171500D03*
X173553000Y-111171500D03*
X172903000Y-111171500D03*
X172253000Y-111171500D03*
X172253000Y-115396500D03*
X172903000Y-115396500D03*
X173553000Y-115396500D03*
X174203000Y-115396500D03*
D14*
X161971500Y-113833000D03*
X161971500Y-114483000D03*
X161971500Y-115133000D03*
X161971500Y-115783000D03*
X166196500Y-115783000D03*
X166196500Y-115133000D03*
X166196500Y-114483000D03*
X166196500Y-113833000D03*
D22*
X148742000Y-111689000D03*
X150817000Y-111689000D03*
D26*
X169656000Y-118034000D03*
D28*
X168656000Y-121284000D03*
D26*
X167656000Y-118034000D03*
D13*
X193040000Y-106188000D03*
X193040000Y-108188000D03*
X197612000Y-106188000D03*
X197612000Y-108188000D03*
D10*
X187198000Y-115040500D03*
X187198000Y-117115500D03*
X156972000Y-114064750D03*
X156972000Y-116139750D03*
D15*
X152908000Y-98552000D03*
X154908000Y-98552000D03*
X176546000Y-102108000D03*
X178546000Y-102108000D03*
D10*
X168402000Y-113810750D03*
X168402000Y-115885750D03*
D20*
X135890000Y-105648000D03*
X135890000Y-103648000D03*
X149606000Y-101346000D03*
X149606000Y-99346000D03*
D15*
X172228000Y-107696000D03*
X174228000Y-107696000D03*
D12*
X159512000Y-101092000D03*
X157512000Y-101092000D03*
D10*
X167132000Y-109452500D03*
X167132000Y-111527500D03*
D15*
X144715500Y-111689000D03*
X146715500Y-111689000D03*
D18*
X147066000Y-97303500D03*
X147066000Y-95228500D03*
D29*
X160344000Y-89728000D03*
D30*
X160344000Y-90678000D03*
D29*
X160344000Y-91628000D03*
X162744000Y-91628000D03*
X162744000Y-89728000D03*
D25*
X147906500Y-113792000D03*
X146966500Y-113792000D03*
X146966500Y-115192000D03*
X147906500Y-115192000D03*
D10*
X147320000Y-99292500D03*
X147320000Y-101367500D03*
D12*
X178292000Y-118364000D03*
X176292000Y-118364000D03*
X178546000Y-99060000D03*
X176546000Y-99060000D03*
D16*
X193315500Y-119380000D03*
X191240500Y-119380000D03*
D10*
X178562000Y-113770500D03*
X178562000Y-115845500D03*
X167132000Y-99038500D03*
X167132000Y-101113500D03*
D15*
X163100000Y-93980000D03*
X165100000Y-93980000D03*
D31*
X159161000Y-93980000D03*
X160911000Y-93980000D03*
D32*
X142789000Y-103458500D03*
X143439000Y-103458500D03*
X144089000Y-103458500D03*
X144739000Y-103458500D03*
X144739000Y-99233500D03*
X144089000Y-99233500D03*
X143439000Y-99233500D03*
X142789000Y-99233500D03*
M02*
