G04 #@! TF.GenerationSoftware,KiCad,Pcbnew,7.0.8*
G04 #@! TF.CreationDate,2024-04-12T14:18:42-07:00*
G04 #@! TF.ProjectId,2-channel-EEG,322d6368-616e-46e6-956c-2d4545472e6b,rev?*
G04 #@! TF.SameCoordinates,Original*
G04 #@! TF.FileFunction,Legend,Bot*
G04 #@! TF.FilePolarity,Positive*
%FSLAX46Y46*%
G04 Gerber Fmt 4.6, Leading zero omitted, Abs format (unit mm)*
G04 Created by KiCad (PCBNEW 7.0.8) date 2024-04-12 14:18:42*
%MOMM*%
%LPD*%
G01*
G04 APERTURE LIST*
%ADD10C,0.153000*%
%ADD11R,1.700000X1.700000*%
%ADD12O,1.700000X1.700000*%
G04 APERTURE END LIST*
D10*
X194812676Y-87594996D02*
X194812676Y-88261663D01*
X195050771Y-87214044D02*
X195288866Y-87928329D01*
X195288866Y-87928329D02*
X194669819Y-87928329D01*
X193574581Y-87214044D02*
X194431723Y-88499758D01*
X193336485Y-87261663D02*
X192669819Y-87261663D01*
X192669819Y-87261663D02*
X193098390Y-88261663D01*
X191574581Y-87214044D02*
X192431723Y-88499758D01*
X191288866Y-87356901D02*
X191241247Y-87309282D01*
X191241247Y-87309282D02*
X191146009Y-87261663D01*
X191146009Y-87261663D02*
X190907914Y-87261663D01*
X190907914Y-87261663D02*
X190812676Y-87309282D01*
X190812676Y-87309282D02*
X190765057Y-87356901D01*
X190765057Y-87356901D02*
X190717438Y-87452139D01*
X190717438Y-87452139D02*
X190717438Y-87547377D01*
X190717438Y-87547377D02*
X190765057Y-87690234D01*
X190765057Y-87690234D02*
X191336485Y-88261663D01*
X191336485Y-88261663D02*
X190717438Y-88261663D01*
X190098390Y-87261663D02*
X190003152Y-87261663D01*
X190003152Y-87261663D02*
X189907914Y-87309282D01*
X189907914Y-87309282D02*
X189860295Y-87356901D01*
X189860295Y-87356901D02*
X189812676Y-87452139D01*
X189812676Y-87452139D02*
X189765057Y-87642615D01*
X189765057Y-87642615D02*
X189765057Y-87880710D01*
X189765057Y-87880710D02*
X189812676Y-88071186D01*
X189812676Y-88071186D02*
X189860295Y-88166424D01*
X189860295Y-88166424D02*
X189907914Y-88214044D01*
X189907914Y-88214044D02*
X190003152Y-88261663D01*
X190003152Y-88261663D02*
X190098390Y-88261663D01*
X190098390Y-88261663D02*
X190193628Y-88214044D01*
X190193628Y-88214044D02*
X190241247Y-88166424D01*
X190241247Y-88166424D02*
X190288866Y-88071186D01*
X190288866Y-88071186D02*
X190336485Y-87880710D01*
X190336485Y-87880710D02*
X190336485Y-87642615D01*
X190336485Y-87642615D02*
X190288866Y-87452139D01*
X190288866Y-87452139D02*
X190241247Y-87356901D01*
X190241247Y-87356901D02*
X190193628Y-87309282D01*
X190193628Y-87309282D02*
X190098390Y-87261663D01*
X189384104Y-87356901D02*
X189336485Y-87309282D01*
X189336485Y-87309282D02*
X189241247Y-87261663D01*
X189241247Y-87261663D02*
X189003152Y-87261663D01*
X189003152Y-87261663D02*
X188907914Y-87309282D01*
X188907914Y-87309282D02*
X188860295Y-87356901D01*
X188860295Y-87356901D02*
X188812676Y-87452139D01*
X188812676Y-87452139D02*
X188812676Y-87547377D01*
X188812676Y-87547377D02*
X188860295Y-87690234D01*
X188860295Y-87690234D02*
X189431723Y-88261663D01*
X189431723Y-88261663D02*
X188812676Y-88261663D01*
X187955533Y-87594996D02*
X187955533Y-88261663D01*
X188193628Y-87214044D02*
X188431723Y-87928329D01*
X188431723Y-87928329D02*
X187812676Y-87928329D01*
%LPC*%
D11*
X196342000Y-102616000D03*
D12*
X193802000Y-102616000D03*
X191262000Y-102616000D03*
X188722000Y-102616000D03*
X186182000Y-102616000D03*
X183642000Y-102616000D03*
D11*
X126746000Y-114554000D03*
X203200000Y-100584000D03*
X139700000Y-112268000D03*
D12*
X139700000Y-109728000D03*
X137160000Y-112268000D03*
D11*
X182880000Y-107437000D03*
D12*
X182880000Y-109977000D03*
D11*
X203200000Y-108204000D03*
D12*
X203200000Y-110744000D03*
X203200000Y-113284000D03*
X126746000Y-93975000D03*
D11*
X126746000Y-91435000D03*
X126746000Y-99822000D03*
D12*
X126746000Y-102362000D03*
X126746000Y-104902000D03*
X126746000Y-107442000D03*
X126746000Y-109982000D03*
X203200000Y-91186000D03*
D11*
X203200000Y-93726000D03*
X182880000Y-114554000D03*
D12*
X182880000Y-117094000D03*
D11*
X179578000Y-84074000D03*
D12*
X177038000Y-84074000D03*
X174498000Y-84074000D03*
X171958000Y-84074000D03*
X169418000Y-84074000D03*
X166878000Y-84074000D03*
%LPD*%
M02*
