%TF.GenerationSoftware,KiCad,Pcbnew,7.0.8*%
%TF.CreationDate,2024-04-12T14:19:26-07:00*%
%TF.ProjectId,2-channel-EEG,322d6368-616e-46e6-956c-2d4545472e6b,rev?*%
%TF.SameCoordinates,Original*%
%TF.FileFunction,Drillmap*%
%TF.FilePolarity,Positive*%
%FSLAX45Y45*%
G04 Gerber Fmt 4.5, Leading zero omitted, Abs format (unit mm)*
G04 Created by KiCad (PCBNEW 7.0.8) date 2024-04-12 14:19:26*
%MOMM*%
%LPD*%
G01*
G04 APERTURE LIST*
%ADD10C,0.100000*%
%ADD11C,1.625000*%
%ADD12C,0.200000*%
%ADD13C,0.040000*%
G04 APERTURE END LIST*
D10*
X13408855Y-8029145D02*
X19580255Y-8029145D01*
X19580255Y-12423345D02*
X13408855Y-12423345D01*
X20698255Y-9147145D02*
X20698255Y-11305345D01*
D11*
X20274250Y-8534400D02*
G75*
G03*
X20274250Y-8534400I-81250J0D01*
G01*
D10*
X20698257Y-9147145D02*
G75*
G03*
X19580255Y-8029143I-1118007J-5D01*
G01*
X12290855Y-11305345D02*
X12290855Y-9147145D01*
X13408855Y-8029145D02*
G75*
G03*
X12290855Y-9147145I0J-1118000D01*
G01*
X19580255Y-12423345D02*
G75*
G03*
X20698255Y-11305345I0J1118000D01*
G01*
D11*
X12908250Y-11912600D02*
G75*
G03*
X12908250Y-11912600I-81250J0D01*
G01*
X20274250Y-11887200D02*
G75*
G03*
X20274250Y-11887200I-81250J0D01*
G01*
D10*
X12290855Y-11305345D02*
G75*
G03*
X13408855Y-12423345I1118000J0D01*
G01*
D11*
X12908250Y-8534400D02*
G75*
G03*
X12908250Y-8534400I-81250J0D01*
G01*
D12*
D13*
X13569000Y-9428800D02*
X13609000Y-9468800D01*
X13609000Y-9428800D02*
X13569000Y-9468800D01*
X13823000Y-10749600D02*
X13863000Y-10789600D01*
X13863000Y-10749600D02*
X13823000Y-10789600D01*
X13893675Y-10673400D02*
X13933675Y-10713400D01*
X13933675Y-10673400D02*
X13893675Y-10713400D01*
X13899200Y-10038400D02*
X13939200Y-10078400D01*
X13939200Y-10038400D02*
X13899200Y-10078400D01*
X14178600Y-10140000D02*
X14218600Y-10180000D01*
X14218600Y-10140000D02*
X14178600Y-10180000D01*
X14280200Y-10063800D02*
X14320200Y-10103800D01*
X14320200Y-10063800D02*
X14280200Y-10103800D01*
X14432600Y-10165400D02*
X14472600Y-10205400D01*
X14472600Y-10165400D02*
X14432600Y-10205400D01*
X14451550Y-11301950D02*
X14491550Y-11341950D01*
X14491550Y-11301950D02*
X14451550Y-11341950D01*
X14508800Y-10521000D02*
X14548800Y-10561000D01*
X14548800Y-10521000D02*
X14508800Y-10561000D01*
X14553499Y-10610398D02*
X14593499Y-10650398D01*
X14593499Y-10610398D02*
X14553499Y-10650398D01*
X14559600Y-10317800D02*
X14599600Y-10357800D01*
X14599600Y-10317800D02*
X14559600Y-10357800D01*
X14585000Y-11003600D02*
X14625000Y-11043600D01*
X14625000Y-11003600D02*
X14585000Y-11043600D01*
X14839000Y-9708200D02*
X14879000Y-9748200D01*
X14879000Y-9708200D02*
X14839000Y-9748200D01*
X15042200Y-10622600D02*
X15082200Y-10662600D01*
X15082200Y-10622600D02*
X15042200Y-10662600D01*
X15067600Y-9301800D02*
X15107600Y-9341800D01*
X15107600Y-9301800D02*
X15067600Y-9341800D01*
X15067600Y-11003600D02*
X15107600Y-11043600D01*
X15107600Y-11003600D02*
X15067600Y-11043600D01*
X15093000Y-10114600D02*
X15133000Y-10154600D01*
X15133000Y-10114600D02*
X15093000Y-10154600D01*
X15163300Y-10491500D02*
X15203300Y-10531500D01*
X15203300Y-10491500D02*
X15163300Y-10531500D01*
X15169200Y-10292400D02*
X15209200Y-10332400D01*
X15209200Y-10292400D02*
X15169200Y-10332400D01*
X15169200Y-11359200D02*
X15209200Y-11399200D01*
X15209200Y-11359200D02*
X15169200Y-11399200D01*
X15169200Y-11562400D02*
X15209200Y-11602400D01*
X15209200Y-11562400D02*
X15169200Y-11602400D01*
X15270800Y-10495600D02*
X15310800Y-10535600D01*
X15310800Y-10495600D02*
X15270800Y-10535600D01*
X15270800Y-10597200D02*
X15310800Y-10637200D01*
X15310800Y-10597200D02*
X15270800Y-10637200D01*
X15270800Y-11562400D02*
X15310800Y-11602400D01*
X15310800Y-11562400D02*
X15270800Y-11602400D01*
X15474000Y-9682800D02*
X15514000Y-9722800D01*
X15514000Y-9682800D02*
X15474000Y-9722800D01*
X15601000Y-10190800D02*
X15641000Y-10230800D01*
X15641000Y-10190800D02*
X15601000Y-10230800D01*
X15601000Y-10724200D02*
X15641000Y-10764200D01*
X15641000Y-10724200D02*
X15601000Y-10764200D01*
X15601000Y-10927400D02*
X15641000Y-10967400D01*
X15641000Y-10927400D02*
X15601000Y-10967400D01*
X15626400Y-10622600D02*
X15666400Y-10662600D01*
X15666400Y-10622600D02*
X15626400Y-10662600D01*
X15677200Y-11257600D02*
X15717200Y-11297600D01*
X15717200Y-11257600D02*
X15677200Y-11297600D01*
X15880400Y-9047800D02*
X15920400Y-9087800D01*
X15920400Y-9047800D02*
X15880400Y-9087800D01*
X15880400Y-9251000D02*
X15920400Y-9291000D01*
X15920400Y-9251000D02*
X15880400Y-9291000D01*
X16007400Y-8387400D02*
X16047400Y-8427400D01*
X16047400Y-8387400D02*
X16007400Y-8427400D01*
X16134400Y-9047800D02*
X16174400Y-9087800D01*
X16174400Y-9047800D02*
X16134400Y-9087800D01*
X16177150Y-11655950D02*
X16217150Y-11695950D01*
X16217150Y-11655950D02*
X16177150Y-11695950D01*
X16185200Y-10597200D02*
X16225200Y-10637200D01*
X16225200Y-10597200D02*
X16185200Y-10637200D01*
X16319300Y-11493300D02*
X16359300Y-11533300D01*
X16359300Y-11493300D02*
X16319300Y-11533300D01*
X16337600Y-10495600D02*
X16377600Y-10535600D01*
X16377600Y-10495600D02*
X16337600Y-10535600D01*
X16363000Y-8387400D02*
X16403000Y-8427400D01*
X16403000Y-8387400D02*
X16363000Y-8427400D01*
X16388400Y-8946200D02*
X16428400Y-8986200D01*
X16428400Y-8946200D02*
X16388400Y-8986200D01*
X16490000Y-9251000D02*
X16530000Y-9291000D01*
X16530000Y-9251000D02*
X16490000Y-9291000D01*
X16515400Y-8743000D02*
X16555400Y-8783000D01*
X16555400Y-8743000D02*
X16515400Y-8783000D01*
X16667800Y-10216200D02*
X16707800Y-10256200D01*
X16707800Y-10216200D02*
X16667800Y-10256200D01*
X16667800Y-11283000D02*
X16707800Y-11323000D01*
X16707800Y-11283000D02*
X16667800Y-11323000D01*
X16680400Y-9492400D02*
X16720400Y-9532400D01*
X16720400Y-9492400D02*
X16680400Y-9532400D01*
X16820200Y-10063800D02*
X16860200Y-10103800D01*
X16860200Y-10063800D02*
X16820200Y-10103800D01*
X16845600Y-9886000D02*
X16885600Y-9926000D01*
X16885600Y-9886000D02*
X16845600Y-9926000D01*
X16845600Y-10165400D02*
X16885600Y-10205400D01*
X16885600Y-10165400D02*
X16845600Y-10205400D01*
X16845600Y-10927400D02*
X16885600Y-10967400D01*
X16885600Y-10927400D02*
X16845600Y-10967400D01*
X16845600Y-11130600D02*
X16885600Y-11170600D01*
X16885600Y-11130600D02*
X16845600Y-11170600D01*
X16845600Y-11236225D02*
X16885600Y-11276225D01*
X16885600Y-11236225D02*
X16845600Y-11276225D01*
X16998000Y-12095800D02*
X17038000Y-12135800D01*
X17038000Y-12095800D02*
X16998000Y-12135800D01*
X17048800Y-10038400D02*
X17088800Y-10078400D01*
X17088800Y-10038400D02*
X17048800Y-10078400D01*
X17099600Y-11105200D02*
X17139600Y-11145200D01*
X17139600Y-11105200D02*
X17099600Y-11145200D01*
X17404400Y-9835200D02*
X17444400Y-9875200D01*
X17444400Y-9835200D02*
X17404400Y-9875200D01*
X17404400Y-10292400D02*
X17444400Y-10332400D01*
X17444400Y-10292400D02*
X17404400Y-10332400D01*
X17429800Y-11664000D02*
X17469800Y-11704000D01*
X17469800Y-11664000D02*
X17429800Y-11704000D01*
X17506000Y-10394000D02*
X17546000Y-10434000D01*
X17546000Y-10394000D02*
X17506000Y-10434000D01*
X17607600Y-11130600D02*
X17647600Y-11170600D01*
X17647600Y-11130600D02*
X17607600Y-11170600D01*
X17607600Y-11232200D02*
X17647600Y-11272200D01*
X17647600Y-11232200D02*
X17607600Y-11272200D01*
X17607600Y-11686450D02*
X17647600Y-11726450D01*
X17647600Y-11686450D02*
X17607600Y-11726450D01*
X17963200Y-9886000D02*
X18003200Y-9926000D01*
X18003200Y-9886000D02*
X17963200Y-9926000D01*
X17963200Y-10190800D02*
X18003200Y-10230800D01*
X18003200Y-10190800D02*
X17963200Y-10230800D01*
X17963200Y-10495600D02*
X18003200Y-10535600D01*
X18003200Y-10495600D02*
X17963200Y-10535600D01*
X17988600Y-11359200D02*
X18028600Y-11399200D01*
X18028600Y-11359200D02*
X17988600Y-11399200D01*
X18268000Y-8971600D02*
X18308000Y-9011600D01*
X18308000Y-8971600D02*
X18268000Y-9011600D01*
X18268000Y-9174800D02*
X18308000Y-9214800D01*
X18308000Y-9174800D02*
X18268000Y-9214800D01*
X18420400Y-8844600D02*
X18460400Y-8884600D01*
X18460400Y-8844600D02*
X18420400Y-8884600D01*
X18420400Y-9301800D02*
X18460400Y-9341800D01*
X18460400Y-9301800D02*
X18420400Y-9341800D01*
X18522000Y-11079800D02*
X18562000Y-11119800D01*
X18562000Y-11079800D02*
X18522000Y-11119800D01*
X18547400Y-8235000D02*
X18587400Y-8275000D01*
X18587400Y-8235000D02*
X18547400Y-8275000D01*
X18547400Y-11206800D02*
X18587400Y-11246800D01*
X18587400Y-11206800D02*
X18547400Y-11246800D01*
X18547400Y-11486200D02*
X18587400Y-11526200D01*
X18587400Y-11486200D02*
X18547400Y-11526200D01*
X18572800Y-8412800D02*
X18612800Y-8452800D01*
X18612800Y-8412800D02*
X18572800Y-8452800D01*
X18661700Y-9390700D02*
X18701700Y-9430700D01*
X18701700Y-9390700D02*
X18661700Y-9430700D01*
X18699800Y-11816400D02*
X18739800Y-11856400D01*
X18739800Y-11816400D02*
X18699800Y-11856400D01*
X18801400Y-11181400D02*
X18841400Y-11221400D01*
X18841400Y-11181400D02*
X18801400Y-11221400D01*
X18928400Y-11816400D02*
X18968400Y-11856400D01*
X18968400Y-11816400D02*
X18928400Y-11856400D01*
X18979200Y-11918000D02*
X19019200Y-11958000D01*
X19019200Y-11918000D02*
X18979200Y-11958000D01*
X19045097Y-11778320D02*
X19085097Y-11818320D01*
X19085097Y-11778320D02*
X19045097Y-11818320D01*
X19080800Y-11486200D02*
X19120800Y-11526200D01*
X19120800Y-11486200D02*
X19080800Y-11526200D01*
X19119300Y-11232200D02*
X19159300Y-11272200D01*
X19159300Y-11232200D02*
X19119300Y-11272200D01*
X19207800Y-11816400D02*
X19247800Y-11856400D01*
X19247800Y-11816400D02*
X19207800Y-11856400D01*
X19220900Y-11232200D02*
X19260900Y-11272200D01*
X19260900Y-11232200D02*
X19220900Y-11272200D01*
X19639600Y-8235000D02*
X19679600Y-8275000D01*
X19679600Y-8235000D02*
X19639600Y-8275000D01*
X19665000Y-9301800D02*
X19705000Y-9341800D01*
X19705000Y-9301800D02*
X19665000Y-9341800D01*
X19678130Y-8628270D02*
X19718130Y-8668270D01*
X19718130Y-8628270D02*
X19678130Y-8668270D01*
D10*
X12724600Y-9143500D02*
G75*
G03*
X12724600Y-9143500I-50000J0D01*
G01*
X12724600Y-9397500D02*
G75*
G03*
X12724600Y-9397500I-50000J0D01*
G01*
X12724600Y-9982200D02*
G75*
G03*
X12724600Y-9982200I-50000J0D01*
G01*
X12724600Y-10236200D02*
G75*
G03*
X12724600Y-10236200I-50000J0D01*
G01*
X12724600Y-10490200D02*
G75*
G03*
X12724600Y-10490200I-50000J0D01*
G01*
X12724600Y-10744200D02*
G75*
G03*
X12724600Y-10744200I-50000J0D01*
G01*
X12724600Y-10998200D02*
G75*
G03*
X12724600Y-10998200I-50000J0D01*
G01*
X12724600Y-11455400D02*
G75*
G03*
X12724600Y-11455400I-50000J0D01*
G01*
X13766000Y-11226800D02*
G75*
G03*
X13766000Y-11226800I-50000J0D01*
G01*
X14020000Y-10972800D02*
G75*
G03*
X14020000Y-10972800I-50000J0D01*
G01*
X14020000Y-11226800D02*
G75*
G03*
X14020000Y-11226800I-50000J0D01*
G01*
X16737800Y-8407400D02*
G75*
G03*
X16737800Y-8407400I-50000J0D01*
G01*
X16991800Y-8407400D02*
G75*
G03*
X16991800Y-8407400I-50000J0D01*
G01*
X17245800Y-8407400D02*
G75*
G03*
X17245800Y-8407400I-50000J0D01*
G01*
X17499800Y-8407400D02*
G75*
G03*
X17499800Y-8407400I-50000J0D01*
G01*
X17753800Y-8407400D02*
G75*
G03*
X17753800Y-8407400I-50000J0D01*
G01*
X18007800Y-8407400D02*
G75*
G03*
X18007800Y-8407400I-50000J0D01*
G01*
X18338000Y-10743700D02*
G75*
G03*
X18338000Y-10743700I-50000J0D01*
G01*
X18338000Y-10997700D02*
G75*
G03*
X18338000Y-10997700I-50000J0D01*
G01*
X18338000Y-11455400D02*
G75*
G03*
X18338000Y-11455400I-50000J0D01*
G01*
X18338000Y-11709400D02*
G75*
G03*
X18338000Y-11709400I-50000J0D01*
G01*
X18414200Y-10261600D02*
G75*
G03*
X18414200Y-10261600I-50000J0D01*
G01*
X18668200Y-10261600D02*
G75*
G03*
X18668200Y-10261600I-50000J0D01*
G01*
X18922200Y-10261600D02*
G75*
G03*
X18922200Y-10261600I-50000J0D01*
G01*
X19176200Y-10261600D02*
G75*
G03*
X19176200Y-10261600I-50000J0D01*
G01*
X19430200Y-10261600D02*
G75*
G03*
X19430200Y-10261600I-50000J0D01*
G01*
X19684200Y-10261600D02*
G75*
G03*
X19684200Y-10261600I-50000J0D01*
G01*
X20370000Y-9118600D02*
G75*
G03*
X20370000Y-9118600I-50000J0D01*
G01*
X20370000Y-9372600D02*
G75*
G03*
X20370000Y-9372600I-50000J0D01*
G01*
X20370000Y-10058400D02*
G75*
G03*
X20370000Y-10058400I-50000J0D01*
G01*
X20370000Y-10820400D02*
G75*
G03*
X20370000Y-10820400I-50000J0D01*
G01*
X20370000Y-11074400D02*
G75*
G03*
X20370000Y-11074400I-50000J0D01*
G01*
X20370000Y-11328400D02*
G75*
G03*
X20370000Y-11328400I-50000J0D01*
G01*
D12*
X12546631Y-12739829D02*
X12546631Y-12539829D01*
X12546631Y-12539829D02*
X12594250Y-12539829D01*
X12594250Y-12539829D02*
X12622822Y-12549353D01*
X12622822Y-12549353D02*
X12641869Y-12568401D01*
X12641869Y-12568401D02*
X12651393Y-12587448D01*
X12651393Y-12587448D02*
X12660917Y-12625543D01*
X12660917Y-12625543D02*
X12660917Y-12654115D01*
X12660917Y-12654115D02*
X12651393Y-12692210D01*
X12651393Y-12692210D02*
X12641869Y-12711258D01*
X12641869Y-12711258D02*
X12622822Y-12730305D01*
X12622822Y-12730305D02*
X12594250Y-12739829D01*
X12594250Y-12739829D02*
X12546631Y-12739829D01*
X12746631Y-12739829D02*
X12746631Y-12606496D01*
X12746631Y-12644591D02*
X12756155Y-12625543D01*
X12756155Y-12625543D02*
X12765679Y-12616020D01*
X12765679Y-12616020D02*
X12784727Y-12606496D01*
X12784727Y-12606496D02*
X12803774Y-12606496D01*
X12870441Y-12739829D02*
X12870441Y-12606496D01*
X12870441Y-12539829D02*
X12860917Y-12549353D01*
X12860917Y-12549353D02*
X12870441Y-12558877D01*
X12870441Y-12558877D02*
X12879965Y-12549353D01*
X12879965Y-12549353D02*
X12870441Y-12539829D01*
X12870441Y-12539829D02*
X12870441Y-12558877D01*
X12994250Y-12739829D02*
X12975203Y-12730305D01*
X12975203Y-12730305D02*
X12965679Y-12711258D01*
X12965679Y-12711258D02*
X12965679Y-12539829D01*
X13099012Y-12739829D02*
X13079965Y-12730305D01*
X13079965Y-12730305D02*
X13070441Y-12711258D01*
X13070441Y-12711258D02*
X13070441Y-12539829D01*
X13327584Y-12739829D02*
X13327584Y-12539829D01*
X13327584Y-12539829D02*
X13394250Y-12682686D01*
X13394250Y-12682686D02*
X13460917Y-12539829D01*
X13460917Y-12539829D02*
X13460917Y-12739829D01*
X13641869Y-12739829D02*
X13641869Y-12635067D01*
X13641869Y-12635067D02*
X13632346Y-12616020D01*
X13632346Y-12616020D02*
X13613298Y-12606496D01*
X13613298Y-12606496D02*
X13575203Y-12606496D01*
X13575203Y-12606496D02*
X13556155Y-12616020D01*
X13641869Y-12730305D02*
X13622822Y-12739829D01*
X13622822Y-12739829D02*
X13575203Y-12739829D01*
X13575203Y-12739829D02*
X13556155Y-12730305D01*
X13556155Y-12730305D02*
X13546631Y-12711258D01*
X13546631Y-12711258D02*
X13546631Y-12692210D01*
X13546631Y-12692210D02*
X13556155Y-12673162D01*
X13556155Y-12673162D02*
X13575203Y-12663639D01*
X13575203Y-12663639D02*
X13622822Y-12663639D01*
X13622822Y-12663639D02*
X13641869Y-12654115D01*
X13737108Y-12606496D02*
X13737108Y-12806496D01*
X13737108Y-12616020D02*
X13756155Y-12606496D01*
X13756155Y-12606496D02*
X13794250Y-12606496D01*
X13794250Y-12606496D02*
X13813298Y-12616020D01*
X13813298Y-12616020D02*
X13822822Y-12625543D01*
X13822822Y-12625543D02*
X13832346Y-12644591D01*
X13832346Y-12644591D02*
X13832346Y-12701734D01*
X13832346Y-12701734D02*
X13822822Y-12720781D01*
X13822822Y-12720781D02*
X13813298Y-12730305D01*
X13813298Y-12730305D02*
X13794250Y-12739829D01*
X13794250Y-12739829D02*
X13756155Y-12739829D01*
X13756155Y-12739829D02*
X13737108Y-12730305D01*
X13918060Y-12720781D02*
X13927584Y-12730305D01*
X13927584Y-12730305D02*
X13918060Y-12739829D01*
X13918060Y-12739829D02*
X13908536Y-12730305D01*
X13908536Y-12730305D02*
X13918060Y-12720781D01*
X13918060Y-12720781D02*
X13918060Y-12739829D01*
X13918060Y-12616020D02*
X13927584Y-12625543D01*
X13927584Y-12625543D02*
X13918060Y-12635067D01*
X13918060Y-12635067D02*
X13908536Y-12625543D01*
X13908536Y-12625543D02*
X13918060Y-12616020D01*
X13918060Y-12616020D02*
X13918060Y-12635067D01*
D13*
X12245855Y-13048345D02*
X12285855Y-13088345D01*
X12285855Y-13048345D02*
X12245855Y-13088345D01*
D12*
X12584727Y-12959829D02*
X12603774Y-12959829D01*
X12603774Y-12959829D02*
X12622822Y-12969353D01*
X12622822Y-12969353D02*
X12632346Y-12978877D01*
X12632346Y-12978877D02*
X12641869Y-12997924D01*
X12641869Y-12997924D02*
X12651393Y-13036020D01*
X12651393Y-13036020D02*
X12651393Y-13083639D01*
X12651393Y-13083639D02*
X12641869Y-13121734D01*
X12641869Y-13121734D02*
X12632346Y-13140781D01*
X12632346Y-13140781D02*
X12622822Y-13150305D01*
X12622822Y-13150305D02*
X12603774Y-13159829D01*
X12603774Y-13159829D02*
X12584727Y-13159829D01*
X12584727Y-13159829D02*
X12565679Y-13150305D01*
X12565679Y-13150305D02*
X12556155Y-13140781D01*
X12556155Y-13140781D02*
X12546631Y-13121734D01*
X12546631Y-13121734D02*
X12537108Y-13083639D01*
X12537108Y-13083639D02*
X12537108Y-13036020D01*
X12537108Y-13036020D02*
X12546631Y-12997924D01*
X12546631Y-12997924D02*
X12556155Y-12978877D01*
X12556155Y-12978877D02*
X12565679Y-12969353D01*
X12565679Y-12969353D02*
X12584727Y-12959829D01*
X12737108Y-13140781D02*
X12746631Y-13150305D01*
X12746631Y-13150305D02*
X12737108Y-13159829D01*
X12737108Y-13159829D02*
X12727584Y-13150305D01*
X12727584Y-13150305D02*
X12737108Y-13140781D01*
X12737108Y-13140781D02*
X12737108Y-13159829D01*
X12918060Y-13026496D02*
X12918060Y-13159829D01*
X12870441Y-12950305D02*
X12822822Y-13093162D01*
X12822822Y-13093162D02*
X12946631Y-13093162D01*
X13060917Y-12959829D02*
X13079965Y-12959829D01*
X13079965Y-12959829D02*
X13099012Y-12969353D01*
X13099012Y-12969353D02*
X13108536Y-12978877D01*
X13108536Y-12978877D02*
X13118060Y-12997924D01*
X13118060Y-12997924D02*
X13127584Y-13036020D01*
X13127584Y-13036020D02*
X13127584Y-13083639D01*
X13127584Y-13083639D02*
X13118060Y-13121734D01*
X13118060Y-13121734D02*
X13108536Y-13140781D01*
X13108536Y-13140781D02*
X13099012Y-13150305D01*
X13099012Y-13150305D02*
X13079965Y-13159829D01*
X13079965Y-13159829D02*
X13060917Y-13159829D01*
X13060917Y-13159829D02*
X13041869Y-13150305D01*
X13041869Y-13150305D02*
X13032346Y-13140781D01*
X13032346Y-13140781D02*
X13022822Y-13121734D01*
X13022822Y-13121734D02*
X13013298Y-13083639D01*
X13013298Y-13083639D02*
X13013298Y-13036020D01*
X13013298Y-13036020D02*
X13022822Y-12997924D01*
X13022822Y-12997924D02*
X13032346Y-12978877D01*
X13032346Y-12978877D02*
X13041869Y-12969353D01*
X13041869Y-12969353D02*
X13060917Y-12959829D01*
X13251393Y-12959829D02*
X13270441Y-12959829D01*
X13270441Y-12959829D02*
X13289489Y-12969353D01*
X13289489Y-12969353D02*
X13299012Y-12978877D01*
X13299012Y-12978877D02*
X13308536Y-12997924D01*
X13308536Y-12997924D02*
X13318060Y-13036020D01*
X13318060Y-13036020D02*
X13318060Y-13083639D01*
X13318060Y-13083639D02*
X13308536Y-13121734D01*
X13308536Y-13121734D02*
X13299012Y-13140781D01*
X13299012Y-13140781D02*
X13289489Y-13150305D01*
X13289489Y-13150305D02*
X13270441Y-13159829D01*
X13270441Y-13159829D02*
X13251393Y-13159829D01*
X13251393Y-13159829D02*
X13232346Y-13150305D01*
X13232346Y-13150305D02*
X13222822Y-13140781D01*
X13222822Y-13140781D02*
X13213298Y-13121734D01*
X13213298Y-13121734D02*
X13203774Y-13083639D01*
X13203774Y-13083639D02*
X13203774Y-13036020D01*
X13203774Y-13036020D02*
X13213298Y-12997924D01*
X13213298Y-12997924D02*
X13222822Y-12978877D01*
X13222822Y-12978877D02*
X13232346Y-12969353D01*
X13232346Y-12969353D02*
X13251393Y-12959829D01*
X13403774Y-13159829D02*
X13403774Y-13026496D01*
X13403774Y-13045543D02*
X13413298Y-13036020D01*
X13413298Y-13036020D02*
X13432346Y-13026496D01*
X13432346Y-13026496D02*
X13460917Y-13026496D01*
X13460917Y-13026496D02*
X13479965Y-13036020D01*
X13479965Y-13036020D02*
X13489489Y-13055067D01*
X13489489Y-13055067D02*
X13489489Y-13159829D01*
X13489489Y-13055067D02*
X13499012Y-13036020D01*
X13499012Y-13036020D02*
X13518060Y-13026496D01*
X13518060Y-13026496D02*
X13546631Y-13026496D01*
X13546631Y-13026496D02*
X13565679Y-13036020D01*
X13565679Y-13036020D02*
X13575203Y-13055067D01*
X13575203Y-13055067D02*
X13575203Y-13159829D01*
X13670441Y-13159829D02*
X13670441Y-13026496D01*
X13670441Y-13045543D02*
X13679965Y-13036020D01*
X13679965Y-13036020D02*
X13699012Y-13026496D01*
X13699012Y-13026496D02*
X13727584Y-13026496D01*
X13727584Y-13026496D02*
X13746631Y-13036020D01*
X13746631Y-13036020D02*
X13756155Y-13055067D01*
X13756155Y-13055067D02*
X13756155Y-13159829D01*
X13756155Y-13055067D02*
X13765679Y-13036020D01*
X13765679Y-13036020D02*
X13784727Y-13026496D01*
X13784727Y-13026496D02*
X13813298Y-13026496D01*
X13813298Y-13026496D02*
X13832346Y-13036020D01*
X13832346Y-13036020D02*
X13841870Y-13055067D01*
X13841870Y-13055067D02*
X13841870Y-13159829D01*
X14232346Y-12950305D02*
X14060917Y-13207448D01*
X14489489Y-12959829D02*
X14508536Y-12959829D01*
X14508536Y-12959829D02*
X14527584Y-12969353D01*
X14527584Y-12969353D02*
X14537108Y-12978877D01*
X14537108Y-12978877D02*
X14546632Y-12997924D01*
X14546632Y-12997924D02*
X14556155Y-13036020D01*
X14556155Y-13036020D02*
X14556155Y-13083639D01*
X14556155Y-13083639D02*
X14546632Y-13121734D01*
X14546632Y-13121734D02*
X14537108Y-13140781D01*
X14537108Y-13140781D02*
X14527584Y-13150305D01*
X14527584Y-13150305D02*
X14508536Y-13159829D01*
X14508536Y-13159829D02*
X14489489Y-13159829D01*
X14489489Y-13159829D02*
X14470441Y-13150305D01*
X14470441Y-13150305D02*
X14460917Y-13140781D01*
X14460917Y-13140781D02*
X14451393Y-13121734D01*
X14451393Y-13121734D02*
X14441870Y-13083639D01*
X14441870Y-13083639D02*
X14441870Y-13036020D01*
X14441870Y-13036020D02*
X14451393Y-12997924D01*
X14451393Y-12997924D02*
X14460917Y-12978877D01*
X14460917Y-12978877D02*
X14470441Y-12969353D01*
X14470441Y-12969353D02*
X14489489Y-12959829D01*
X14641870Y-13140781D02*
X14651393Y-13150305D01*
X14651393Y-13150305D02*
X14641870Y-13159829D01*
X14641870Y-13159829D02*
X14632346Y-13150305D01*
X14632346Y-13150305D02*
X14641870Y-13140781D01*
X14641870Y-13140781D02*
X14641870Y-13159829D01*
X14775203Y-12959829D02*
X14794251Y-12959829D01*
X14794251Y-12959829D02*
X14813298Y-12969353D01*
X14813298Y-12969353D02*
X14822822Y-12978877D01*
X14822822Y-12978877D02*
X14832346Y-12997924D01*
X14832346Y-12997924D02*
X14841870Y-13036020D01*
X14841870Y-13036020D02*
X14841870Y-13083639D01*
X14841870Y-13083639D02*
X14832346Y-13121734D01*
X14832346Y-13121734D02*
X14822822Y-13140781D01*
X14822822Y-13140781D02*
X14813298Y-13150305D01*
X14813298Y-13150305D02*
X14794251Y-13159829D01*
X14794251Y-13159829D02*
X14775203Y-13159829D01*
X14775203Y-13159829D02*
X14756155Y-13150305D01*
X14756155Y-13150305D02*
X14746632Y-13140781D01*
X14746632Y-13140781D02*
X14737108Y-13121734D01*
X14737108Y-13121734D02*
X14727584Y-13083639D01*
X14727584Y-13083639D02*
X14727584Y-13036020D01*
X14727584Y-13036020D02*
X14737108Y-12997924D01*
X14737108Y-12997924D02*
X14746632Y-12978877D01*
X14746632Y-12978877D02*
X14756155Y-12969353D01*
X14756155Y-12969353D02*
X14775203Y-12959829D01*
X15032346Y-13159829D02*
X14918060Y-13159829D01*
X14975203Y-13159829D02*
X14975203Y-12959829D01*
X14975203Y-12959829D02*
X14956155Y-12988401D01*
X14956155Y-12988401D02*
X14937108Y-13007448D01*
X14937108Y-13007448D02*
X14918060Y-13016972D01*
X15213298Y-12959829D02*
X15118060Y-12959829D01*
X15118060Y-12959829D02*
X15108536Y-13055067D01*
X15108536Y-13055067D02*
X15118060Y-13045543D01*
X15118060Y-13045543D02*
X15137108Y-13036020D01*
X15137108Y-13036020D02*
X15184727Y-13036020D01*
X15184727Y-13036020D02*
X15203774Y-13045543D01*
X15203774Y-13045543D02*
X15213298Y-13055067D01*
X15213298Y-13055067D02*
X15222822Y-13074115D01*
X15222822Y-13074115D02*
X15222822Y-13121734D01*
X15222822Y-13121734D02*
X15213298Y-13140781D01*
X15213298Y-13140781D02*
X15203774Y-13150305D01*
X15203774Y-13150305D02*
X15184727Y-13159829D01*
X15184727Y-13159829D02*
X15137108Y-13159829D01*
X15137108Y-13159829D02*
X15118060Y-13150305D01*
X15118060Y-13150305D02*
X15108536Y-13140781D01*
X15289489Y-12959829D02*
X15422822Y-12959829D01*
X15422822Y-12959829D02*
X15337108Y-13159829D01*
X15489489Y-12959829D02*
X15489489Y-12997924D01*
X15565679Y-12959829D02*
X15565679Y-12997924D01*
X15860917Y-13236020D02*
X15851394Y-13226496D01*
X15851394Y-13226496D02*
X15832346Y-13197924D01*
X15832346Y-13197924D02*
X15822822Y-13178877D01*
X15822822Y-13178877D02*
X15813298Y-13150305D01*
X15813298Y-13150305D02*
X15803775Y-13102686D01*
X15803775Y-13102686D02*
X15803775Y-13064591D01*
X15803775Y-13064591D02*
X15813298Y-13016972D01*
X15813298Y-13016972D02*
X15822822Y-12988401D01*
X15822822Y-12988401D02*
X15832346Y-12969353D01*
X15832346Y-12969353D02*
X15851394Y-12940781D01*
X15851394Y-12940781D02*
X15860917Y-12931258D01*
X15965679Y-13045543D02*
X15946632Y-13036020D01*
X15946632Y-13036020D02*
X15937108Y-13026496D01*
X15937108Y-13026496D02*
X15927584Y-13007448D01*
X15927584Y-13007448D02*
X15927584Y-12997924D01*
X15927584Y-12997924D02*
X15937108Y-12978877D01*
X15937108Y-12978877D02*
X15946632Y-12969353D01*
X15946632Y-12969353D02*
X15965679Y-12959829D01*
X15965679Y-12959829D02*
X16003775Y-12959829D01*
X16003775Y-12959829D02*
X16022822Y-12969353D01*
X16022822Y-12969353D02*
X16032346Y-12978877D01*
X16032346Y-12978877D02*
X16041870Y-12997924D01*
X16041870Y-12997924D02*
X16041870Y-13007448D01*
X16041870Y-13007448D02*
X16032346Y-13026496D01*
X16032346Y-13026496D02*
X16022822Y-13036020D01*
X16022822Y-13036020D02*
X16003775Y-13045543D01*
X16003775Y-13045543D02*
X15965679Y-13045543D01*
X15965679Y-13045543D02*
X15946632Y-13055067D01*
X15946632Y-13055067D02*
X15937108Y-13064591D01*
X15937108Y-13064591D02*
X15927584Y-13083639D01*
X15927584Y-13083639D02*
X15927584Y-13121734D01*
X15927584Y-13121734D02*
X15937108Y-13140781D01*
X15937108Y-13140781D02*
X15946632Y-13150305D01*
X15946632Y-13150305D02*
X15965679Y-13159829D01*
X15965679Y-13159829D02*
X16003775Y-13159829D01*
X16003775Y-13159829D02*
X16022822Y-13150305D01*
X16022822Y-13150305D02*
X16032346Y-13140781D01*
X16032346Y-13140781D02*
X16041870Y-13121734D01*
X16041870Y-13121734D02*
X16041870Y-13083639D01*
X16041870Y-13083639D02*
X16032346Y-13064591D01*
X16032346Y-13064591D02*
X16022822Y-13055067D01*
X16022822Y-13055067D02*
X16003775Y-13045543D01*
X16108536Y-12959829D02*
X16241870Y-12959829D01*
X16241870Y-12959829D02*
X16156155Y-13159829D01*
X16470441Y-13159829D02*
X16470441Y-12959829D01*
X16556156Y-13159829D02*
X16556156Y-13055067D01*
X16556156Y-13055067D02*
X16546632Y-13036020D01*
X16546632Y-13036020D02*
X16527584Y-13026496D01*
X16527584Y-13026496D02*
X16499013Y-13026496D01*
X16499013Y-13026496D02*
X16479965Y-13036020D01*
X16479965Y-13036020D02*
X16470441Y-13045543D01*
X16679965Y-13159829D02*
X16660917Y-13150305D01*
X16660917Y-13150305D02*
X16651394Y-13140781D01*
X16651394Y-13140781D02*
X16641870Y-13121734D01*
X16641870Y-13121734D02*
X16641870Y-13064591D01*
X16641870Y-13064591D02*
X16651394Y-13045543D01*
X16651394Y-13045543D02*
X16660917Y-13036020D01*
X16660917Y-13036020D02*
X16679965Y-13026496D01*
X16679965Y-13026496D02*
X16708537Y-13026496D01*
X16708537Y-13026496D02*
X16727584Y-13036020D01*
X16727584Y-13036020D02*
X16737108Y-13045543D01*
X16737108Y-13045543D02*
X16746632Y-13064591D01*
X16746632Y-13064591D02*
X16746632Y-13121734D01*
X16746632Y-13121734D02*
X16737108Y-13140781D01*
X16737108Y-13140781D02*
X16727584Y-13150305D01*
X16727584Y-13150305D02*
X16708537Y-13159829D01*
X16708537Y-13159829D02*
X16679965Y-13159829D01*
X16860918Y-13159829D02*
X16841870Y-13150305D01*
X16841870Y-13150305D02*
X16832346Y-13131258D01*
X16832346Y-13131258D02*
X16832346Y-12959829D01*
X17013299Y-13150305D02*
X16994251Y-13159829D01*
X16994251Y-13159829D02*
X16956156Y-13159829D01*
X16956156Y-13159829D02*
X16937108Y-13150305D01*
X16937108Y-13150305D02*
X16927584Y-13131258D01*
X16927584Y-13131258D02*
X16927584Y-13055067D01*
X16927584Y-13055067D02*
X16937108Y-13036020D01*
X16937108Y-13036020D02*
X16956156Y-13026496D01*
X16956156Y-13026496D02*
X16994251Y-13026496D01*
X16994251Y-13026496D02*
X17013299Y-13036020D01*
X17013299Y-13036020D02*
X17022822Y-13055067D01*
X17022822Y-13055067D02*
X17022822Y-13074115D01*
X17022822Y-13074115D02*
X16927584Y-13093162D01*
X17099013Y-13150305D02*
X17118060Y-13159829D01*
X17118060Y-13159829D02*
X17156156Y-13159829D01*
X17156156Y-13159829D02*
X17175203Y-13150305D01*
X17175203Y-13150305D02*
X17184727Y-13131258D01*
X17184727Y-13131258D02*
X17184727Y-13121734D01*
X17184727Y-13121734D02*
X17175203Y-13102686D01*
X17175203Y-13102686D02*
X17156156Y-13093162D01*
X17156156Y-13093162D02*
X17127584Y-13093162D01*
X17127584Y-13093162D02*
X17108537Y-13083639D01*
X17108537Y-13083639D02*
X17099013Y-13064591D01*
X17099013Y-13064591D02*
X17099013Y-13055067D01*
X17099013Y-13055067D02*
X17108537Y-13036020D01*
X17108537Y-13036020D02*
X17127584Y-13026496D01*
X17127584Y-13026496D02*
X17156156Y-13026496D01*
X17156156Y-13026496D02*
X17175203Y-13036020D01*
X17251394Y-13236020D02*
X17260918Y-13226496D01*
X17260918Y-13226496D02*
X17279965Y-13197924D01*
X17279965Y-13197924D02*
X17289489Y-13178877D01*
X17289489Y-13178877D02*
X17299013Y-13150305D01*
X17299013Y-13150305D02*
X17308537Y-13102686D01*
X17308537Y-13102686D02*
X17308537Y-13064591D01*
X17308537Y-13064591D02*
X17299013Y-13016972D01*
X17299013Y-13016972D02*
X17289489Y-12988401D01*
X17289489Y-12988401D02*
X17279965Y-12969353D01*
X17279965Y-12969353D02*
X17260918Y-12940781D01*
X17260918Y-12940781D02*
X17251394Y-12931258D01*
D10*
X12285855Y-13332345D02*
G75*
G03*
X12285855Y-13332345I-50000J0D01*
G01*
D12*
X12651393Y-13423829D02*
X12537108Y-13423829D01*
X12594250Y-13423829D02*
X12594250Y-13223829D01*
X12594250Y-13223829D02*
X12575203Y-13252401D01*
X12575203Y-13252401D02*
X12556155Y-13271448D01*
X12556155Y-13271448D02*
X12537108Y-13280972D01*
X12737108Y-13404781D02*
X12746631Y-13414305D01*
X12746631Y-13414305D02*
X12737108Y-13423829D01*
X12737108Y-13423829D02*
X12727584Y-13414305D01*
X12727584Y-13414305D02*
X12737108Y-13404781D01*
X12737108Y-13404781D02*
X12737108Y-13423829D01*
X12870441Y-13223829D02*
X12889489Y-13223829D01*
X12889489Y-13223829D02*
X12908536Y-13233353D01*
X12908536Y-13233353D02*
X12918060Y-13242877D01*
X12918060Y-13242877D02*
X12927584Y-13261924D01*
X12927584Y-13261924D02*
X12937108Y-13300020D01*
X12937108Y-13300020D02*
X12937108Y-13347639D01*
X12937108Y-13347639D02*
X12927584Y-13385734D01*
X12927584Y-13385734D02*
X12918060Y-13404781D01*
X12918060Y-13404781D02*
X12908536Y-13414305D01*
X12908536Y-13414305D02*
X12889489Y-13423829D01*
X12889489Y-13423829D02*
X12870441Y-13423829D01*
X12870441Y-13423829D02*
X12851393Y-13414305D01*
X12851393Y-13414305D02*
X12841869Y-13404781D01*
X12841869Y-13404781D02*
X12832346Y-13385734D01*
X12832346Y-13385734D02*
X12822822Y-13347639D01*
X12822822Y-13347639D02*
X12822822Y-13300020D01*
X12822822Y-13300020D02*
X12832346Y-13261924D01*
X12832346Y-13261924D02*
X12841869Y-13242877D01*
X12841869Y-13242877D02*
X12851393Y-13233353D01*
X12851393Y-13233353D02*
X12870441Y-13223829D01*
X13060917Y-13223829D02*
X13079965Y-13223829D01*
X13079965Y-13223829D02*
X13099012Y-13233353D01*
X13099012Y-13233353D02*
X13108536Y-13242877D01*
X13108536Y-13242877D02*
X13118060Y-13261924D01*
X13118060Y-13261924D02*
X13127584Y-13300020D01*
X13127584Y-13300020D02*
X13127584Y-13347639D01*
X13127584Y-13347639D02*
X13118060Y-13385734D01*
X13118060Y-13385734D02*
X13108536Y-13404781D01*
X13108536Y-13404781D02*
X13099012Y-13414305D01*
X13099012Y-13414305D02*
X13079965Y-13423829D01*
X13079965Y-13423829D02*
X13060917Y-13423829D01*
X13060917Y-13423829D02*
X13041869Y-13414305D01*
X13041869Y-13414305D02*
X13032346Y-13404781D01*
X13032346Y-13404781D02*
X13022822Y-13385734D01*
X13022822Y-13385734D02*
X13013298Y-13347639D01*
X13013298Y-13347639D02*
X13013298Y-13300020D01*
X13013298Y-13300020D02*
X13022822Y-13261924D01*
X13022822Y-13261924D02*
X13032346Y-13242877D01*
X13032346Y-13242877D02*
X13041869Y-13233353D01*
X13041869Y-13233353D02*
X13060917Y-13223829D01*
X13251393Y-13223829D02*
X13270441Y-13223829D01*
X13270441Y-13223829D02*
X13289489Y-13233353D01*
X13289489Y-13233353D02*
X13299012Y-13242877D01*
X13299012Y-13242877D02*
X13308536Y-13261924D01*
X13308536Y-13261924D02*
X13318060Y-13300020D01*
X13318060Y-13300020D02*
X13318060Y-13347639D01*
X13318060Y-13347639D02*
X13308536Y-13385734D01*
X13308536Y-13385734D02*
X13299012Y-13404781D01*
X13299012Y-13404781D02*
X13289489Y-13414305D01*
X13289489Y-13414305D02*
X13270441Y-13423829D01*
X13270441Y-13423829D02*
X13251393Y-13423829D01*
X13251393Y-13423829D02*
X13232346Y-13414305D01*
X13232346Y-13414305D02*
X13222822Y-13404781D01*
X13222822Y-13404781D02*
X13213298Y-13385734D01*
X13213298Y-13385734D02*
X13203774Y-13347639D01*
X13203774Y-13347639D02*
X13203774Y-13300020D01*
X13203774Y-13300020D02*
X13213298Y-13261924D01*
X13213298Y-13261924D02*
X13222822Y-13242877D01*
X13222822Y-13242877D02*
X13232346Y-13233353D01*
X13232346Y-13233353D02*
X13251393Y-13223829D01*
X13403774Y-13423829D02*
X13403774Y-13290496D01*
X13403774Y-13309543D02*
X13413298Y-13300020D01*
X13413298Y-13300020D02*
X13432346Y-13290496D01*
X13432346Y-13290496D02*
X13460917Y-13290496D01*
X13460917Y-13290496D02*
X13479965Y-13300020D01*
X13479965Y-13300020D02*
X13489489Y-13319067D01*
X13489489Y-13319067D02*
X13489489Y-13423829D01*
X13489489Y-13319067D02*
X13499012Y-13300020D01*
X13499012Y-13300020D02*
X13518060Y-13290496D01*
X13518060Y-13290496D02*
X13546631Y-13290496D01*
X13546631Y-13290496D02*
X13565679Y-13300020D01*
X13565679Y-13300020D02*
X13575203Y-13319067D01*
X13575203Y-13319067D02*
X13575203Y-13423829D01*
X13670441Y-13423829D02*
X13670441Y-13290496D01*
X13670441Y-13309543D02*
X13679965Y-13300020D01*
X13679965Y-13300020D02*
X13699012Y-13290496D01*
X13699012Y-13290496D02*
X13727584Y-13290496D01*
X13727584Y-13290496D02*
X13746631Y-13300020D01*
X13746631Y-13300020D02*
X13756155Y-13319067D01*
X13756155Y-13319067D02*
X13756155Y-13423829D01*
X13756155Y-13319067D02*
X13765679Y-13300020D01*
X13765679Y-13300020D02*
X13784727Y-13290496D01*
X13784727Y-13290496D02*
X13813298Y-13290496D01*
X13813298Y-13290496D02*
X13832346Y-13300020D01*
X13832346Y-13300020D02*
X13841870Y-13319067D01*
X13841870Y-13319067D02*
X13841870Y-13423829D01*
X14232346Y-13214305D02*
X14060917Y-13471448D01*
X14489489Y-13223829D02*
X14508536Y-13223829D01*
X14508536Y-13223829D02*
X14527584Y-13233353D01*
X14527584Y-13233353D02*
X14537108Y-13242877D01*
X14537108Y-13242877D02*
X14546632Y-13261924D01*
X14546632Y-13261924D02*
X14556155Y-13300020D01*
X14556155Y-13300020D02*
X14556155Y-13347639D01*
X14556155Y-13347639D02*
X14546632Y-13385734D01*
X14546632Y-13385734D02*
X14537108Y-13404781D01*
X14537108Y-13404781D02*
X14527584Y-13414305D01*
X14527584Y-13414305D02*
X14508536Y-13423829D01*
X14508536Y-13423829D02*
X14489489Y-13423829D01*
X14489489Y-13423829D02*
X14470441Y-13414305D01*
X14470441Y-13414305D02*
X14460917Y-13404781D01*
X14460917Y-13404781D02*
X14451393Y-13385734D01*
X14451393Y-13385734D02*
X14441870Y-13347639D01*
X14441870Y-13347639D02*
X14441870Y-13300020D01*
X14441870Y-13300020D02*
X14451393Y-13261924D01*
X14451393Y-13261924D02*
X14460917Y-13242877D01*
X14460917Y-13242877D02*
X14470441Y-13233353D01*
X14470441Y-13233353D02*
X14489489Y-13223829D01*
X14641870Y-13404781D02*
X14651393Y-13414305D01*
X14651393Y-13414305D02*
X14641870Y-13423829D01*
X14641870Y-13423829D02*
X14632346Y-13414305D01*
X14632346Y-13414305D02*
X14641870Y-13404781D01*
X14641870Y-13404781D02*
X14641870Y-13423829D01*
X14775203Y-13223829D02*
X14794251Y-13223829D01*
X14794251Y-13223829D02*
X14813298Y-13233353D01*
X14813298Y-13233353D02*
X14822822Y-13242877D01*
X14822822Y-13242877D02*
X14832346Y-13261924D01*
X14832346Y-13261924D02*
X14841870Y-13300020D01*
X14841870Y-13300020D02*
X14841870Y-13347639D01*
X14841870Y-13347639D02*
X14832346Y-13385734D01*
X14832346Y-13385734D02*
X14822822Y-13404781D01*
X14822822Y-13404781D02*
X14813298Y-13414305D01*
X14813298Y-13414305D02*
X14794251Y-13423829D01*
X14794251Y-13423829D02*
X14775203Y-13423829D01*
X14775203Y-13423829D02*
X14756155Y-13414305D01*
X14756155Y-13414305D02*
X14746632Y-13404781D01*
X14746632Y-13404781D02*
X14737108Y-13385734D01*
X14737108Y-13385734D02*
X14727584Y-13347639D01*
X14727584Y-13347639D02*
X14727584Y-13300020D01*
X14727584Y-13300020D02*
X14737108Y-13261924D01*
X14737108Y-13261924D02*
X14746632Y-13242877D01*
X14746632Y-13242877D02*
X14756155Y-13233353D01*
X14756155Y-13233353D02*
X14775203Y-13223829D01*
X14908536Y-13223829D02*
X15032346Y-13223829D01*
X15032346Y-13223829D02*
X14965679Y-13300020D01*
X14965679Y-13300020D02*
X14994251Y-13300020D01*
X14994251Y-13300020D02*
X15013298Y-13309543D01*
X15013298Y-13309543D02*
X15022822Y-13319067D01*
X15022822Y-13319067D02*
X15032346Y-13338115D01*
X15032346Y-13338115D02*
X15032346Y-13385734D01*
X15032346Y-13385734D02*
X15022822Y-13404781D01*
X15022822Y-13404781D02*
X15013298Y-13414305D01*
X15013298Y-13414305D02*
X14994251Y-13423829D01*
X14994251Y-13423829D02*
X14937108Y-13423829D01*
X14937108Y-13423829D02*
X14918060Y-13414305D01*
X14918060Y-13414305D02*
X14908536Y-13404781D01*
X15127584Y-13423829D02*
X15165679Y-13423829D01*
X15165679Y-13423829D02*
X15184727Y-13414305D01*
X15184727Y-13414305D02*
X15194251Y-13404781D01*
X15194251Y-13404781D02*
X15213298Y-13376210D01*
X15213298Y-13376210D02*
X15222822Y-13338115D01*
X15222822Y-13338115D02*
X15222822Y-13261924D01*
X15222822Y-13261924D02*
X15213298Y-13242877D01*
X15213298Y-13242877D02*
X15203774Y-13233353D01*
X15203774Y-13233353D02*
X15184727Y-13223829D01*
X15184727Y-13223829D02*
X15146632Y-13223829D01*
X15146632Y-13223829D02*
X15127584Y-13233353D01*
X15127584Y-13233353D02*
X15118060Y-13242877D01*
X15118060Y-13242877D02*
X15108536Y-13261924D01*
X15108536Y-13261924D02*
X15108536Y-13309543D01*
X15108536Y-13309543D02*
X15118060Y-13328591D01*
X15118060Y-13328591D02*
X15127584Y-13338115D01*
X15127584Y-13338115D02*
X15146632Y-13347639D01*
X15146632Y-13347639D02*
X15184727Y-13347639D01*
X15184727Y-13347639D02*
X15203774Y-13338115D01*
X15203774Y-13338115D02*
X15213298Y-13328591D01*
X15213298Y-13328591D02*
X15222822Y-13309543D01*
X15394251Y-13290496D02*
X15394251Y-13423829D01*
X15346632Y-13214305D02*
X15299013Y-13357162D01*
X15299013Y-13357162D02*
X15422822Y-13357162D01*
X15489489Y-13223829D02*
X15489489Y-13261924D01*
X15565679Y-13223829D02*
X15565679Y-13261924D01*
X15860917Y-13500020D02*
X15851394Y-13490496D01*
X15851394Y-13490496D02*
X15832346Y-13461924D01*
X15832346Y-13461924D02*
X15822822Y-13442877D01*
X15822822Y-13442877D02*
X15813298Y-13414305D01*
X15813298Y-13414305D02*
X15803775Y-13366686D01*
X15803775Y-13366686D02*
X15803775Y-13328591D01*
X15803775Y-13328591D02*
X15813298Y-13280972D01*
X15813298Y-13280972D02*
X15822822Y-13252401D01*
X15822822Y-13252401D02*
X15832346Y-13233353D01*
X15832346Y-13233353D02*
X15851394Y-13204781D01*
X15851394Y-13204781D02*
X15860917Y-13195258D01*
X15918060Y-13223829D02*
X16041870Y-13223829D01*
X16041870Y-13223829D02*
X15975203Y-13300020D01*
X15975203Y-13300020D02*
X16003775Y-13300020D01*
X16003775Y-13300020D02*
X16022822Y-13309543D01*
X16022822Y-13309543D02*
X16032346Y-13319067D01*
X16032346Y-13319067D02*
X16041870Y-13338115D01*
X16041870Y-13338115D02*
X16041870Y-13385734D01*
X16041870Y-13385734D02*
X16032346Y-13404781D01*
X16032346Y-13404781D02*
X16022822Y-13414305D01*
X16022822Y-13414305D02*
X16003775Y-13423829D01*
X16003775Y-13423829D02*
X15946632Y-13423829D01*
X15946632Y-13423829D02*
X15927584Y-13414305D01*
X15927584Y-13414305D02*
X15918060Y-13404781D01*
X16108536Y-13223829D02*
X16232346Y-13223829D01*
X16232346Y-13223829D02*
X16165679Y-13300020D01*
X16165679Y-13300020D02*
X16194251Y-13300020D01*
X16194251Y-13300020D02*
X16213298Y-13309543D01*
X16213298Y-13309543D02*
X16222822Y-13319067D01*
X16222822Y-13319067D02*
X16232346Y-13338115D01*
X16232346Y-13338115D02*
X16232346Y-13385734D01*
X16232346Y-13385734D02*
X16222822Y-13404781D01*
X16222822Y-13404781D02*
X16213298Y-13414305D01*
X16213298Y-13414305D02*
X16194251Y-13423829D01*
X16194251Y-13423829D02*
X16137108Y-13423829D01*
X16137108Y-13423829D02*
X16118060Y-13414305D01*
X16118060Y-13414305D02*
X16108536Y-13404781D01*
X16470441Y-13423829D02*
X16470441Y-13223829D01*
X16556156Y-13423829D02*
X16556156Y-13319067D01*
X16556156Y-13319067D02*
X16546632Y-13300020D01*
X16546632Y-13300020D02*
X16527584Y-13290496D01*
X16527584Y-13290496D02*
X16499013Y-13290496D01*
X16499013Y-13290496D02*
X16479965Y-13300020D01*
X16479965Y-13300020D02*
X16470441Y-13309543D01*
X16679965Y-13423829D02*
X16660917Y-13414305D01*
X16660917Y-13414305D02*
X16651394Y-13404781D01*
X16651394Y-13404781D02*
X16641870Y-13385734D01*
X16641870Y-13385734D02*
X16641870Y-13328591D01*
X16641870Y-13328591D02*
X16651394Y-13309543D01*
X16651394Y-13309543D02*
X16660917Y-13300020D01*
X16660917Y-13300020D02*
X16679965Y-13290496D01*
X16679965Y-13290496D02*
X16708537Y-13290496D01*
X16708537Y-13290496D02*
X16727584Y-13300020D01*
X16727584Y-13300020D02*
X16737108Y-13309543D01*
X16737108Y-13309543D02*
X16746632Y-13328591D01*
X16746632Y-13328591D02*
X16746632Y-13385734D01*
X16746632Y-13385734D02*
X16737108Y-13404781D01*
X16737108Y-13404781D02*
X16727584Y-13414305D01*
X16727584Y-13414305D02*
X16708537Y-13423829D01*
X16708537Y-13423829D02*
X16679965Y-13423829D01*
X16860918Y-13423829D02*
X16841870Y-13414305D01*
X16841870Y-13414305D02*
X16832346Y-13395258D01*
X16832346Y-13395258D02*
X16832346Y-13223829D01*
X17013299Y-13414305D02*
X16994251Y-13423829D01*
X16994251Y-13423829D02*
X16956156Y-13423829D01*
X16956156Y-13423829D02*
X16937108Y-13414305D01*
X16937108Y-13414305D02*
X16927584Y-13395258D01*
X16927584Y-13395258D02*
X16927584Y-13319067D01*
X16927584Y-13319067D02*
X16937108Y-13300020D01*
X16937108Y-13300020D02*
X16956156Y-13290496D01*
X16956156Y-13290496D02*
X16994251Y-13290496D01*
X16994251Y-13290496D02*
X17013299Y-13300020D01*
X17013299Y-13300020D02*
X17022822Y-13319067D01*
X17022822Y-13319067D02*
X17022822Y-13338115D01*
X17022822Y-13338115D02*
X16927584Y-13357162D01*
X17099013Y-13414305D02*
X17118060Y-13423829D01*
X17118060Y-13423829D02*
X17156156Y-13423829D01*
X17156156Y-13423829D02*
X17175203Y-13414305D01*
X17175203Y-13414305D02*
X17184727Y-13395258D01*
X17184727Y-13395258D02*
X17184727Y-13385734D01*
X17184727Y-13385734D02*
X17175203Y-13366686D01*
X17175203Y-13366686D02*
X17156156Y-13357162D01*
X17156156Y-13357162D02*
X17127584Y-13357162D01*
X17127584Y-13357162D02*
X17108537Y-13347639D01*
X17108537Y-13347639D02*
X17099013Y-13328591D01*
X17099013Y-13328591D02*
X17099013Y-13319067D01*
X17099013Y-13319067D02*
X17108537Y-13300020D01*
X17108537Y-13300020D02*
X17127584Y-13290496D01*
X17127584Y-13290496D02*
X17156156Y-13290496D01*
X17156156Y-13290496D02*
X17175203Y-13300020D01*
X17251394Y-13500020D02*
X17260918Y-13490496D01*
X17260918Y-13490496D02*
X17279965Y-13461924D01*
X17279965Y-13461924D02*
X17289489Y-13442877D01*
X17289489Y-13442877D02*
X17299013Y-13414305D01*
X17299013Y-13414305D02*
X17308537Y-13366686D01*
X17308537Y-13366686D02*
X17308537Y-13328591D01*
X17308537Y-13328591D02*
X17299013Y-13280972D01*
X17299013Y-13280972D02*
X17289489Y-13252401D01*
X17289489Y-13252401D02*
X17279965Y-13233353D01*
X17279965Y-13233353D02*
X17260918Y-13204781D01*
X17260918Y-13204781D02*
X17251394Y-13195258D01*
M02*
