G04 #@! TF.GenerationSoftware,KiCad,Pcbnew,7.0.8*
G04 #@! TF.CreationDate,2024-04-12T14:18:42-07:00*
G04 #@! TF.ProjectId,2-channel-EEG,322d6368-616e-46e6-956c-2d4545472e6b,rev?*
G04 #@! TF.SameCoordinates,Original*
G04 #@! TF.FileFunction,Copper,L3,Inr*
G04 #@! TF.FilePolarity,Positive*
%FSLAX46Y46*%
G04 Gerber Fmt 4.6, Leading zero omitted, Abs format (unit mm)*
G04 Created by KiCad (PCBNEW 7.0.8) date 2024-04-12 14:18:42*
%MOMM*%
%LPD*%
G01*
G04 APERTURE LIST*
G04 #@! TA.AperFunction,ComponentPad*
%ADD10R,1.700000X1.700000*%
G04 #@! TD*
G04 #@! TA.AperFunction,ComponentPad*
%ADD11O,1.700000X1.700000*%
G04 #@! TD*
G04 #@! TA.AperFunction,ViaPad*
%ADD12C,0.800000*%
G04 #@! TD*
G04 APERTURE END LIST*
D10*
X196342000Y-102616000D03*
D11*
X193802000Y-102616000D03*
X191262000Y-102616000D03*
X188722000Y-102616000D03*
X186182000Y-102616000D03*
X183642000Y-102616000D03*
D10*
X126746000Y-114554000D03*
X203200000Y-100584000D03*
X139700000Y-112268000D03*
D11*
X139700000Y-109728000D03*
X137160000Y-112268000D03*
D10*
X182880000Y-107437000D03*
D11*
X182880000Y-109977000D03*
D10*
X203200000Y-108204000D03*
D11*
X203200000Y-110744000D03*
X203200000Y-113284000D03*
X126746000Y-93975000D03*
D10*
X126746000Y-91435000D03*
X126746000Y-99822000D03*
D11*
X126746000Y-102362000D03*
X126746000Y-104902000D03*
X126746000Y-107442000D03*
X126746000Y-109982000D03*
X203200000Y-91186000D03*
D10*
X203200000Y-93726000D03*
X182880000Y-114554000D03*
D11*
X182880000Y-117094000D03*
D10*
X179578000Y-84074000D03*
D11*
X177038000Y-84074000D03*
X174498000Y-84074000D03*
X171958000Y-84074000D03*
X169418000Y-84074000D03*
X166878000Y-84074000D03*
D12*
X185674000Y-82550000D03*
X196596000Y-82550000D03*
X156210000Y-107442000D03*
X163830000Y-84074000D03*
X150876000Y-110236000D03*
X156210000Y-102108000D03*
X191008000Y-115062000D03*
X145796000Y-103378000D03*
X179832000Y-105156000D03*
X151833000Y-105115000D03*
X160274000Y-84074000D03*
X159004000Y-92710000D03*
X188214000Y-112014000D03*
X141986000Y-101600000D03*
X196850000Y-93218000D03*
X161971500Y-116759500D03*
X146050000Y-110236000D03*
X162052000Y-106172000D03*
X185674000Y-115062000D03*
X150876000Y-93218000D03*
X135890000Y-94488000D03*
X170688000Y-100584000D03*
X185420000Y-110998000D03*
X156972000Y-112776000D03*
X168656000Y-99060000D03*
X189992000Y-119380000D03*
X151892000Y-115824000D03*
X151892000Y-113792000D03*
X179832000Y-99060000D03*
X159004000Y-90678000D03*
X192409000Y-112522000D03*
X148590000Y-97282000D03*
X192278000Y-118364000D03*
X161544000Y-90678000D03*
X151892000Y-103124000D03*
X176276000Y-112522000D03*
X168656000Y-109474000D03*
X184404000Y-88646000D03*
X182880000Y-89916000D03*
X171196000Y-111252000D03*
X156464000Y-106426000D03*
X139192000Y-100584000D03*
X184404000Y-93218000D03*
X165354000Y-87630000D03*
X166878000Y-113030000D03*
X143002000Y-100838000D03*
X191393000Y-112522000D03*
X168656000Y-111506000D03*
X182880000Y-91948000D03*
X174498000Y-116840000D03*
X165100000Y-92710000D03*
X168402000Y-100838000D03*
X189484000Y-118364000D03*
X176276000Y-117064500D03*
X166878000Y-102362000D03*
X152908000Y-106172000D03*
X186817000Y-94107000D03*
X152908000Y-115824000D03*
X187198000Y-118364000D03*
X179832000Y-102108000D03*
X175260000Y-104140000D03*
X150622000Y-106426000D03*
X185674000Y-112268000D03*
X164084000Y-89662000D03*
X190650973Y-117983198D03*
X174244000Y-103124000D03*
X152908000Y-105156000D03*
X176276000Y-111506000D03*
X144715500Y-113219500D03*
X163576000Y-105156000D03*
X167004000Y-95124000D03*
X180086000Y-113792000D03*
X168656000Y-101854000D03*
X163393000Y-115133000D03*
X144526000Y-101854000D03*
X168656000Y-112562250D03*
X156210000Y-109474000D03*
X174244000Y-98552000D03*
X151130000Y-101346000D03*
X170180000Y-121158000D03*
X154940000Y-97028000D03*
X145288000Y-105410000D03*
X139136755Y-106934000D03*
X145734991Y-106303982D03*
X138430000Y-107696000D03*
X185928000Y-84328000D03*
X196981299Y-86482701D03*
G04 #@! TA.AperFunction,Conductor*
G36*
X196433337Y-80610292D02*
G01*
X196436937Y-80610501D01*
X197063809Y-80665348D01*
X197067340Y-80665761D01*
X197531532Y-80733756D01*
X197689975Y-80756966D01*
X197693503Y-80757587D01*
X198309764Y-80884837D01*
X198313244Y-80885661D01*
X198695606Y-80988116D01*
X198921081Y-81048533D01*
X198924537Y-81049568D01*
X199521840Y-81247494D01*
X199525230Y-81248728D01*
X200110019Y-81481051D01*
X200113329Y-81482479D01*
X200683618Y-81748410D01*
X200686839Y-81750028D01*
X201240717Y-82048677D01*
X201243826Y-82050472D01*
X201779392Y-82380814D01*
X201782393Y-82382789D01*
X202297856Y-82743721D01*
X202300750Y-82745875D01*
X202794338Y-83136155D01*
X202797101Y-83138474D01*
X203267169Y-83556797D01*
X203269775Y-83559255D01*
X203714743Y-84004223D01*
X203717202Y-84006830D01*
X204135525Y-84476898D01*
X204137844Y-84479661D01*
X204528124Y-84973249D01*
X204530278Y-84976143D01*
X204891210Y-85491606D01*
X204893190Y-85494615D01*
X205174375Y-85950486D01*
X205223518Y-86030158D01*
X205225322Y-86033282D01*
X205523971Y-86587160D01*
X205525590Y-86590383D01*
X205791519Y-87160668D01*
X205792948Y-87163980D01*
X206025271Y-87748769D01*
X206026505Y-87752159D01*
X206224431Y-88349462D01*
X206225466Y-88352918D01*
X206388333Y-88960734D01*
X206389164Y-88964244D01*
X206516407Y-89580472D01*
X206517033Y-89584024D01*
X206608236Y-90206643D01*
X206608655Y-90210226D01*
X206663497Y-90837061D01*
X206663707Y-90840662D01*
X206682046Y-91470802D01*
X206682046Y-113053454D01*
X206663690Y-113684247D01*
X206663480Y-113687848D01*
X206608640Y-114314680D01*
X206608221Y-114318263D01*
X206517020Y-114940881D01*
X206516394Y-114944434D01*
X206389154Y-115560661D01*
X206388322Y-115564171D01*
X206225457Y-116171989D01*
X206224422Y-116175445D01*
X206026498Y-116772747D01*
X206025264Y-116776136D01*
X205792942Y-117360926D01*
X205791513Y-117364238D01*
X205525582Y-117934529D01*
X205523963Y-117937753D01*
X205225322Y-118491616D01*
X205223518Y-118494740D01*
X204893184Y-119030294D01*
X204891201Y-119033308D01*
X204530274Y-119548765D01*
X204528120Y-119551659D01*
X204137851Y-120045233D01*
X204135532Y-120047996D01*
X203717200Y-120518073D01*
X203714725Y-120520697D01*
X203269791Y-120965630D01*
X203267167Y-120968105D01*
X202797100Y-121386428D01*
X202794337Y-121388747D01*
X202300740Y-121779032D01*
X202297847Y-121781186D01*
X201782400Y-122142105D01*
X201779386Y-122144088D01*
X201243834Y-122474422D01*
X201240710Y-122476226D01*
X200686846Y-122774866D01*
X200683622Y-122776485D01*
X200113325Y-123042419D01*
X200110013Y-123043848D01*
X199525235Y-123276164D01*
X199521846Y-123277398D01*
X198924538Y-123475324D01*
X198921082Y-123476359D01*
X198313264Y-123639224D01*
X198309754Y-123640055D01*
X197845316Y-123735954D01*
X197693515Y-123767298D01*
X197689972Y-123767923D01*
X197067358Y-123859121D01*
X197063775Y-123859540D01*
X196436941Y-123914381D01*
X196433340Y-123914591D01*
X195937344Y-123929023D01*
X195802546Y-123932946D01*
X195802282Y-123932954D01*
X134088546Y-123932954D01*
X133457752Y-123914598D01*
X133454151Y-123914388D01*
X132890989Y-123865118D01*
X132827315Y-123859547D01*
X132823735Y-123859129D01*
X132201117Y-123767928D01*
X132197564Y-123767302D01*
X132063231Y-123739564D01*
X131581327Y-123640059D01*
X131577827Y-123639230D01*
X130970009Y-123476365D01*
X130966554Y-123475330D01*
X130369250Y-123277406D01*
X130365861Y-123276172D01*
X129781072Y-123043850D01*
X129777760Y-123042421D01*
X129207468Y-122776490D01*
X129204254Y-122774876D01*
X128650381Y-122476230D01*
X128647257Y-122474426D01*
X128575344Y-122430070D01*
X128111685Y-122144080D01*
X128108689Y-122142109D01*
X127593243Y-121781190D01*
X127590350Y-121779036D01*
X127096753Y-121388750D01*
X127093990Y-121386431D01*
X126623923Y-120968108D01*
X126621316Y-120965649D01*
X126176349Y-120520682D01*
X126173891Y-120518076D01*
X125755568Y-120048009D01*
X125753249Y-120045246D01*
X125362963Y-119551649D01*
X125360809Y-119548756D01*
X125082458Y-119151230D01*
X125064794Y-119126003D01*
X126439381Y-119126003D01*
X126459827Y-119398839D01*
X126459827Y-119398840D01*
X126520706Y-119665570D01*
X126520708Y-119665579D01*
X126520710Y-119665584D01*
X126620669Y-119920276D01*
X126757472Y-120157224D01*
X126824394Y-120241142D01*
X126928064Y-120371141D01*
X127117399Y-120546817D01*
X127128628Y-120557236D01*
X127354691Y-120711363D01*
X127354696Y-120711365D01*
X127354697Y-120711366D01*
X127354698Y-120711367D01*
X127485618Y-120774414D01*
X127601196Y-120830073D01*
X127601197Y-120830073D01*
X127601200Y-120830075D01*
X127862649Y-120910722D01*
X127862650Y-120910722D01*
X127862653Y-120910723D01*
X128133190Y-120951499D01*
X128133195Y-120951499D01*
X128133198Y-120951500D01*
X128133199Y-120951500D01*
X128406801Y-120951500D01*
X128406802Y-120951500D01*
X128406809Y-120951499D01*
X128677346Y-120910723D01*
X128677347Y-120910722D01*
X128677351Y-120910722D01*
X128938800Y-120830075D01*
X129185310Y-120711363D01*
X129411372Y-120557236D01*
X129611939Y-120371137D01*
X129782528Y-120157224D01*
X129919331Y-119920276D01*
X130019290Y-119665584D01*
X130080172Y-119398840D01*
X130089709Y-119271582D01*
X130100619Y-119126003D01*
X130100619Y-119125996D01*
X130080172Y-118853160D01*
X130080172Y-118853159D01*
X130019293Y-118586429D01*
X130019292Y-118586428D01*
X130019290Y-118586416D01*
X129919331Y-118331724D01*
X129782528Y-118094776D01*
X129611939Y-117880863D01*
X129611938Y-117880862D01*
X129611935Y-117880858D01*
X129411372Y-117694764D01*
X129185310Y-117540637D01*
X129185306Y-117540635D01*
X129185303Y-117540633D01*
X129185302Y-117540632D01*
X128938802Y-117421926D01*
X128938804Y-117421926D01*
X128677352Y-117341278D01*
X128677346Y-117341276D01*
X128406809Y-117300500D01*
X128406802Y-117300500D01*
X128133198Y-117300500D01*
X128133190Y-117300500D01*
X127862653Y-117341276D01*
X127862647Y-117341278D01*
X127601196Y-117421926D01*
X127354698Y-117540632D01*
X127354697Y-117540633D01*
X127128627Y-117694764D01*
X126928064Y-117880858D01*
X126757472Y-118094776D01*
X126620669Y-118331723D01*
X126520712Y-118586410D01*
X126520706Y-118586429D01*
X126459827Y-118853159D01*
X126459827Y-118853160D01*
X126439381Y-119125996D01*
X126439381Y-119126003D01*
X125064794Y-119126003D01*
X124999888Y-119033307D01*
X124997924Y-119030323D01*
X124667569Y-118494735D01*
X124665769Y-118491618D01*
X124632040Y-118429063D01*
X124367116Y-117937731D01*
X124365516Y-117934545D01*
X124099578Y-117364239D01*
X124098149Y-117360927D01*
X124070652Y-117291714D01*
X123934008Y-116947759D01*
X123865827Y-116776138D01*
X123864593Y-116772749D01*
X123864592Y-116772747D01*
X123860202Y-116759500D01*
X161066040Y-116759500D01*
X161085826Y-116947756D01*
X161085827Y-116947759D01*
X161144318Y-117127777D01*
X161144321Y-117127784D01*
X161238967Y-117291716D01*
X161349423Y-117414389D01*
X161365629Y-117432388D01*
X161518765Y-117543648D01*
X161518770Y-117543651D01*
X161691692Y-117620642D01*
X161691697Y-117620644D01*
X161876854Y-117660000D01*
X161876855Y-117660000D01*
X162066144Y-117660000D01*
X162066146Y-117660000D01*
X162251303Y-117620644D01*
X162424230Y-117543651D01*
X162577371Y-117432388D01*
X162704033Y-117291716D01*
X162798679Y-117127784D01*
X162857174Y-116947756D01*
X162868499Y-116840000D01*
X173592540Y-116840000D01*
X173612326Y-117028256D01*
X173612327Y-117028259D01*
X173670818Y-117208277D01*
X173670821Y-117208284D01*
X173765467Y-117372216D01*
X173883095Y-117502855D01*
X173892129Y-117512888D01*
X174045265Y-117624148D01*
X174045270Y-117624151D01*
X174218192Y-117701142D01*
X174218197Y-117701144D01*
X174403354Y-117740500D01*
X174403355Y-117740500D01*
X174592644Y-117740500D01*
X174592646Y-117740500D01*
X174777803Y-117701144D01*
X174950730Y-117624151D01*
X175103871Y-117512888D01*
X175230533Y-117372216D01*
X175230535Y-117372212D01*
X175232763Y-117369738D01*
X175292249Y-117333089D01*
X175362106Y-117334419D01*
X175420155Y-117373306D01*
X175442843Y-117414389D01*
X175448817Y-117432776D01*
X175448821Y-117432784D01*
X175543467Y-117596716D01*
X175670129Y-117737388D01*
X175823265Y-117848648D01*
X175823270Y-117848651D01*
X175996192Y-117925642D01*
X175996197Y-117925644D01*
X176181354Y-117965000D01*
X176181355Y-117965000D01*
X176370644Y-117965000D01*
X176370646Y-117965000D01*
X176555803Y-117925644D01*
X176728730Y-117848651D01*
X176881871Y-117737388D01*
X177008533Y-117596716D01*
X177103179Y-117432784D01*
X177161674Y-117252756D01*
X177178360Y-117094000D01*
X181524341Y-117094000D01*
X181544936Y-117329403D01*
X181544938Y-117329413D01*
X181606094Y-117557655D01*
X181606096Y-117557659D01*
X181606097Y-117557663D01*
X181678876Y-117713738D01*
X181705965Y-117771830D01*
X181705967Y-117771834D01*
X181782307Y-117880858D01*
X181841505Y-117965401D01*
X182008599Y-118132495D01*
X182070359Y-118175740D01*
X182202165Y-118268032D01*
X182202167Y-118268033D01*
X182202170Y-118268035D01*
X182416337Y-118367903D01*
X182644592Y-118429063D01*
X182832918Y-118445539D01*
X182879999Y-118449659D01*
X182880000Y-118449659D01*
X182880001Y-118449659D01*
X182919234Y-118446226D01*
X183115408Y-118429063D01*
X183343663Y-118367903D01*
X183352033Y-118364000D01*
X186292540Y-118364000D01*
X186312326Y-118552256D01*
X186312327Y-118552259D01*
X186370818Y-118732277D01*
X186370821Y-118732284D01*
X186465467Y-118896216D01*
X186569464Y-119011716D01*
X186592129Y-119036888D01*
X186745265Y-119148148D01*
X186745270Y-119148151D01*
X186918192Y-119225142D01*
X186918197Y-119225144D01*
X187103354Y-119264500D01*
X187103355Y-119264500D01*
X187292644Y-119264500D01*
X187292646Y-119264500D01*
X187477803Y-119225144D01*
X187650730Y-119148151D01*
X187803871Y-119036888D01*
X187930533Y-118896216D01*
X188025179Y-118732284D01*
X188083674Y-118552256D01*
X188103460Y-118364000D01*
X188578540Y-118364000D01*
X188598326Y-118552256D01*
X188598327Y-118552259D01*
X188656818Y-118732277D01*
X188656821Y-118732284D01*
X188751467Y-118896216D01*
X188878129Y-119036888D01*
X189031270Y-119148151D01*
X189031280Y-119148155D01*
X189036605Y-119151230D01*
X189084824Y-119201794D01*
X189098052Y-119270400D01*
X189097934Y-119271582D01*
X189086540Y-119379999D01*
X189086540Y-119380000D01*
X189106326Y-119568256D01*
X189106327Y-119568259D01*
X189164818Y-119748277D01*
X189164821Y-119748284D01*
X189259467Y-119912216D01*
X189380522Y-120046661D01*
X189386129Y-120052888D01*
X189539265Y-120164148D01*
X189539270Y-120164151D01*
X189712192Y-120241142D01*
X189712197Y-120241144D01*
X189897354Y-120280500D01*
X189897355Y-120280500D01*
X190086644Y-120280500D01*
X190086646Y-120280500D01*
X190271803Y-120241144D01*
X190444730Y-120164151D01*
X190597871Y-120052888D01*
X190724533Y-119912216D01*
X190819179Y-119748284D01*
X190877674Y-119568256D01*
X190897460Y-119380000D01*
X190877674Y-119191744D01*
X190819179Y-119011716D01*
X190818075Y-119008318D01*
X190816080Y-118938477D01*
X190852160Y-118878644D01*
X190910224Y-118848710D01*
X190930776Y-118844342D01*
X191103703Y-118767349D01*
X191255672Y-118656936D01*
X191321473Y-118633459D01*
X191389527Y-118649284D01*
X191438222Y-118699390D01*
X191446483Y-118718936D01*
X191450817Y-118732276D01*
X191450821Y-118732284D01*
X191545467Y-118896216D01*
X191649464Y-119011716D01*
X191672129Y-119036888D01*
X191825265Y-119148148D01*
X191825270Y-119148151D01*
X191998192Y-119225142D01*
X191998197Y-119225144D01*
X192183354Y-119264500D01*
X192183355Y-119264500D01*
X192372644Y-119264500D01*
X192372646Y-119264500D01*
X192557803Y-119225144D01*
X192730730Y-119148151D01*
X192883871Y-119036888D01*
X193010533Y-118896216D01*
X193024512Y-118872003D01*
X200099381Y-118872003D01*
X200119827Y-119144839D01*
X200119827Y-119144840D01*
X200180706Y-119411570D01*
X200180708Y-119411579D01*
X200180710Y-119411584D01*
X200280669Y-119666276D01*
X200417472Y-119903224D01*
X200555257Y-120076002D01*
X200588064Y-120117141D01*
X200764124Y-120280500D01*
X200788628Y-120303236D01*
X201014691Y-120457363D01*
X201014696Y-120457365D01*
X201014697Y-120457366D01*
X201014698Y-120457367D01*
X201140757Y-120518073D01*
X201261196Y-120576073D01*
X201261197Y-120576073D01*
X201261200Y-120576075D01*
X201522649Y-120656722D01*
X201522650Y-120656722D01*
X201522653Y-120656723D01*
X201793190Y-120697499D01*
X201793195Y-120697499D01*
X201793198Y-120697500D01*
X201793199Y-120697500D01*
X202066801Y-120697500D01*
X202066802Y-120697500D01*
X202066809Y-120697499D01*
X202337346Y-120656723D01*
X202337347Y-120656722D01*
X202337351Y-120656722D01*
X202598800Y-120576075D01*
X202793585Y-120482272D01*
X202845302Y-120457367D01*
X202845302Y-120457366D01*
X202845310Y-120457363D01*
X203071372Y-120303236D01*
X203227023Y-120158812D01*
X203271935Y-120117141D01*
X203271935Y-120117139D01*
X203271939Y-120117137D01*
X203442528Y-119903224D01*
X203579331Y-119666276D01*
X203679290Y-119411584D01*
X203740172Y-119144840D01*
X203748756Y-119030294D01*
X203760619Y-118872003D01*
X203760619Y-118871996D01*
X203740172Y-118599160D01*
X203740172Y-118599159D01*
X203679293Y-118332429D01*
X203679292Y-118332428D01*
X203679290Y-118332416D01*
X203579331Y-118077724D01*
X203442528Y-117840776D01*
X203271939Y-117626863D01*
X203271938Y-117626862D01*
X203271935Y-117626858D01*
X203071372Y-117440764D01*
X202845310Y-117286637D01*
X202845306Y-117286635D01*
X202845303Y-117286633D01*
X202845302Y-117286632D01*
X202598802Y-117167926D01*
X202598804Y-117167926D01*
X202337352Y-117087278D01*
X202337346Y-117087276D01*
X202066809Y-117046500D01*
X202066802Y-117046500D01*
X201793198Y-117046500D01*
X201793190Y-117046500D01*
X201522653Y-117087276D01*
X201522647Y-117087278D01*
X201261196Y-117167926D01*
X201014698Y-117286632D01*
X201014697Y-117286633D01*
X201014691Y-117286636D01*
X201014691Y-117286637D01*
X200994358Y-117300500D01*
X200788627Y-117440764D01*
X200588064Y-117626858D01*
X200417472Y-117840776D01*
X200280669Y-118077723D01*
X200180712Y-118332410D01*
X200180706Y-118332429D01*
X200119827Y-118599159D01*
X200119827Y-118599160D01*
X200099381Y-118871996D01*
X200099381Y-118872003D01*
X193024512Y-118872003D01*
X193105179Y-118732284D01*
X193163674Y-118552256D01*
X193183460Y-118364000D01*
X193163674Y-118175744D01*
X193105179Y-117995716D01*
X193010533Y-117831784D01*
X192883871Y-117691112D01*
X192797360Y-117628258D01*
X192730734Y-117579851D01*
X192730729Y-117579848D01*
X192557807Y-117502857D01*
X192557802Y-117502855D01*
X192412001Y-117471865D01*
X192372646Y-117463500D01*
X192183354Y-117463500D01*
X192150897Y-117470398D01*
X191998197Y-117502855D01*
X191998192Y-117502857D01*
X191825270Y-117579848D01*
X191825265Y-117579851D01*
X191673304Y-117690258D01*
X191607498Y-117713738D01*
X191539444Y-117697912D01*
X191490749Y-117647807D01*
X191482488Y-117628258D01*
X191478154Y-117614919D01*
X191478151Y-117614913D01*
X191457907Y-117579849D01*
X191383506Y-117450982D01*
X191256844Y-117310310D01*
X191243342Y-117300500D01*
X191103707Y-117199049D01*
X191103702Y-117199046D01*
X190930780Y-117122055D01*
X190930775Y-117122053D01*
X190767157Y-117087276D01*
X190745619Y-117082698D01*
X190556327Y-117082698D01*
X190534789Y-117087276D01*
X190371170Y-117122053D01*
X190371165Y-117122055D01*
X190198243Y-117199046D01*
X190198238Y-117199049D01*
X190045102Y-117310309D01*
X189918438Y-117450983D01*
X189914618Y-117456242D01*
X189913481Y-117455416D01*
X189868244Y-117498545D01*
X189799636Y-117511764D01*
X189770253Y-117504041D01*
X189769986Y-117504865D01*
X189763801Y-117502855D01*
X189628624Y-117474123D01*
X189578646Y-117463500D01*
X189389354Y-117463500D01*
X189356897Y-117470398D01*
X189204197Y-117502855D01*
X189204192Y-117502857D01*
X189031270Y-117579848D01*
X189031265Y-117579851D01*
X188878129Y-117691111D01*
X188751466Y-117831785D01*
X188656821Y-117995715D01*
X188656818Y-117995722D01*
X188598327Y-118175740D01*
X188598326Y-118175744D01*
X188578540Y-118364000D01*
X188103460Y-118364000D01*
X188083674Y-118175744D01*
X188025179Y-117995716D01*
X187930533Y-117831784D01*
X187803871Y-117691112D01*
X187717360Y-117628258D01*
X187650734Y-117579851D01*
X187650729Y-117579848D01*
X187477807Y-117502857D01*
X187477802Y-117502855D01*
X187332001Y-117471865D01*
X187292646Y-117463500D01*
X187103354Y-117463500D01*
X187070897Y-117470398D01*
X186918197Y-117502855D01*
X186918192Y-117502857D01*
X186745270Y-117579848D01*
X186745265Y-117579851D01*
X186592129Y-117691111D01*
X186465466Y-117831785D01*
X186370821Y-117995715D01*
X186370818Y-117995722D01*
X186312327Y-118175740D01*
X186312326Y-118175744D01*
X186292540Y-118364000D01*
X183352033Y-118364000D01*
X183557830Y-118268035D01*
X183751401Y-118132495D01*
X183918495Y-117965401D01*
X184054035Y-117771830D01*
X184153903Y-117557663D01*
X184215063Y-117329408D01*
X184235659Y-117094000D01*
X184215063Y-116858592D01*
X184153903Y-116630337D01*
X184054035Y-116416171D01*
X184036561Y-116391216D01*
X183918496Y-116222600D01*
X183859896Y-116164000D01*
X183796567Y-116100671D01*
X183763084Y-116039351D01*
X183768068Y-115969659D01*
X183809939Y-115913725D01*
X183840915Y-115896810D01*
X183972331Y-115847796D01*
X184087546Y-115761546D01*
X184173796Y-115646331D01*
X184224091Y-115511483D01*
X184230500Y-115451873D01*
X184230500Y-115062000D01*
X184768540Y-115062000D01*
X184788326Y-115250256D01*
X184788327Y-115250259D01*
X184846818Y-115430277D01*
X184846821Y-115430284D01*
X184941467Y-115594216D01*
X185068129Y-115734888D01*
X185221265Y-115846148D01*
X185221270Y-115846151D01*
X185394192Y-115923142D01*
X185394197Y-115923144D01*
X185579354Y-115962500D01*
X185579355Y-115962500D01*
X185768644Y-115962500D01*
X185768646Y-115962500D01*
X185953803Y-115923144D01*
X186126730Y-115846151D01*
X186279871Y-115734888D01*
X186406533Y-115594216D01*
X186501179Y-115430284D01*
X186559674Y-115250256D01*
X186579460Y-115062000D01*
X190102540Y-115062000D01*
X190122326Y-115250256D01*
X190122327Y-115250259D01*
X190180818Y-115430277D01*
X190180821Y-115430284D01*
X190275467Y-115594216D01*
X190402129Y-115734888D01*
X190555265Y-115846148D01*
X190555270Y-115846151D01*
X190728192Y-115923142D01*
X190728197Y-115923144D01*
X190913354Y-115962500D01*
X190913355Y-115962500D01*
X191102644Y-115962500D01*
X191102646Y-115962500D01*
X191287803Y-115923144D01*
X191460730Y-115846151D01*
X191613871Y-115734888D01*
X191740533Y-115594216D01*
X191835179Y-115430284D01*
X191893674Y-115250256D01*
X191913460Y-115062000D01*
X191893674Y-114873744D01*
X191835179Y-114693716D01*
X191740533Y-114529784D01*
X191613871Y-114389112D01*
X191613870Y-114389111D01*
X191460734Y-114277851D01*
X191460729Y-114277848D01*
X191287807Y-114200857D01*
X191287802Y-114200855D01*
X191142001Y-114169865D01*
X191102646Y-114161500D01*
X190913354Y-114161500D01*
X190880897Y-114168398D01*
X190728197Y-114200855D01*
X190728192Y-114200857D01*
X190555270Y-114277848D01*
X190555265Y-114277851D01*
X190402129Y-114389111D01*
X190275466Y-114529785D01*
X190180821Y-114693715D01*
X190180818Y-114693722D01*
X190122327Y-114873740D01*
X190122326Y-114873744D01*
X190102540Y-115062000D01*
X186579460Y-115062000D01*
X186559674Y-114873744D01*
X186501179Y-114693716D01*
X186406533Y-114529784D01*
X186279871Y-114389112D01*
X186279870Y-114389111D01*
X186126734Y-114277851D01*
X186126729Y-114277848D01*
X185953807Y-114200857D01*
X185953802Y-114200855D01*
X185808001Y-114169865D01*
X185768646Y-114161500D01*
X185579354Y-114161500D01*
X185546897Y-114168398D01*
X185394197Y-114200855D01*
X185394192Y-114200857D01*
X185221270Y-114277848D01*
X185221265Y-114277851D01*
X185068129Y-114389111D01*
X184941466Y-114529785D01*
X184846821Y-114693715D01*
X184846818Y-114693722D01*
X184788327Y-114873740D01*
X184788326Y-114873744D01*
X184768540Y-115062000D01*
X184230500Y-115062000D01*
X184230499Y-113656128D01*
X184224319Y-113598634D01*
X184224091Y-113596516D01*
X184173797Y-113461671D01*
X184173793Y-113461664D01*
X184087547Y-113346455D01*
X184087544Y-113346452D01*
X183972335Y-113260206D01*
X183972328Y-113260202D01*
X183837482Y-113209908D01*
X183837483Y-113209908D01*
X183777883Y-113203501D01*
X183777881Y-113203500D01*
X183777873Y-113203500D01*
X183777864Y-113203500D01*
X181982129Y-113203500D01*
X181982123Y-113203501D01*
X181922516Y-113209908D01*
X181787671Y-113260202D01*
X181787664Y-113260206D01*
X181672455Y-113346452D01*
X181672452Y-113346455D01*
X181586206Y-113461664D01*
X181586202Y-113461671D01*
X181535908Y-113596517D01*
X181533545Y-113618500D01*
X181529501Y-113656123D01*
X181529500Y-113656135D01*
X181529500Y-115451870D01*
X181529501Y-115451876D01*
X181535908Y-115511483D01*
X181586202Y-115646328D01*
X181586206Y-115646335D01*
X181672452Y-115761544D01*
X181672455Y-115761547D01*
X181787664Y-115847793D01*
X181787671Y-115847797D01*
X181919081Y-115896810D01*
X181975015Y-115938681D01*
X181999432Y-116004145D01*
X181984580Y-116072418D01*
X181963430Y-116100673D01*
X181841503Y-116222600D01*
X181705965Y-116416169D01*
X181705964Y-116416171D01*
X181606098Y-116630335D01*
X181606094Y-116630344D01*
X181544938Y-116858586D01*
X181544936Y-116858596D01*
X181524341Y-117093999D01*
X181524341Y-117094000D01*
X177178360Y-117094000D01*
X177181460Y-117064500D01*
X177161674Y-116876244D01*
X177103179Y-116696216D01*
X177008533Y-116532284D01*
X176881871Y-116391612D01*
X176881867Y-116391609D01*
X176728734Y-116280351D01*
X176728729Y-116280348D01*
X176555807Y-116203357D01*
X176555802Y-116203355D01*
X176408232Y-116171989D01*
X176370646Y-116164000D01*
X176181354Y-116164000D01*
X176148897Y-116170898D01*
X175996197Y-116203355D01*
X175996192Y-116203357D01*
X175823270Y-116280348D01*
X175823265Y-116280351D01*
X175670132Y-116391609D01*
X175670129Y-116391611D01*
X175670129Y-116391612D01*
X175575338Y-116496888D01*
X175541236Y-116534762D01*
X175481749Y-116571410D01*
X175411892Y-116570079D01*
X175353844Y-116531192D01*
X175331155Y-116490107D01*
X175325181Y-116471722D01*
X175325180Y-116471721D01*
X175325179Y-116471716D01*
X175230533Y-116307784D01*
X175103871Y-116167112D01*
X175012427Y-116100674D01*
X174950734Y-116055851D01*
X174950729Y-116055848D01*
X174777807Y-115978857D01*
X174777802Y-115978855D01*
X174632001Y-115947865D01*
X174592646Y-115939500D01*
X174403354Y-115939500D01*
X174370897Y-115946398D01*
X174218197Y-115978855D01*
X174218192Y-115978857D01*
X174045270Y-116055848D01*
X174045265Y-116055851D01*
X173892129Y-116167111D01*
X173765466Y-116307785D01*
X173670821Y-116471715D01*
X173670818Y-116471722D01*
X173619279Y-116630344D01*
X173612326Y-116651744D01*
X173592540Y-116840000D01*
X162868499Y-116840000D01*
X162876960Y-116759500D01*
X162857174Y-116571244D01*
X162798679Y-116391216D01*
X162704033Y-116227284D01*
X162577371Y-116086612D01*
X162557835Y-116072418D01*
X162424234Y-115975351D01*
X162424229Y-115975348D01*
X162251307Y-115898357D01*
X162251302Y-115898355D01*
X162105501Y-115867365D01*
X162066146Y-115859000D01*
X161876854Y-115859000D01*
X161844397Y-115865898D01*
X161691697Y-115898355D01*
X161691692Y-115898357D01*
X161518770Y-115975348D01*
X161518765Y-115975351D01*
X161365629Y-116086611D01*
X161238966Y-116227285D01*
X161144321Y-116391215D01*
X161144318Y-116391222D01*
X161085827Y-116571240D01*
X161085826Y-116571244D01*
X161066040Y-116759500D01*
X123860202Y-116759500D01*
X123764842Y-116471715D01*
X123666669Y-116175445D01*
X123665634Y-116171990D01*
X123613884Y-115978856D01*
X123502766Y-115564160D01*
X123501945Y-115560697D01*
X123479469Y-115451844D01*
X125396000Y-115451844D01*
X125402401Y-115511372D01*
X125402403Y-115511379D01*
X125452645Y-115646086D01*
X125452649Y-115646093D01*
X125538809Y-115761187D01*
X125538812Y-115761190D01*
X125653906Y-115847350D01*
X125653913Y-115847354D01*
X125788620Y-115897596D01*
X125788627Y-115897598D01*
X125848155Y-115903999D01*
X125848172Y-115904000D01*
X126496000Y-115904000D01*
X126496000Y-114989501D01*
X126603685Y-115038680D01*
X126710237Y-115054000D01*
X126781763Y-115054000D01*
X126888315Y-115038680D01*
X126996000Y-114989501D01*
X126996000Y-115904000D01*
X127643828Y-115904000D01*
X127643844Y-115903999D01*
X127703372Y-115897598D01*
X127703379Y-115897596D01*
X127838086Y-115847354D01*
X127838093Y-115847350D01*
X127869284Y-115824000D01*
X150986540Y-115824000D01*
X151006326Y-116012256D01*
X151006327Y-116012259D01*
X151064818Y-116192277D01*
X151064821Y-116192284D01*
X151159467Y-116356216D01*
X151280023Y-116490107D01*
X151286129Y-116496888D01*
X151439265Y-116608148D01*
X151439270Y-116608151D01*
X151612192Y-116685142D01*
X151612197Y-116685144D01*
X151797354Y-116724500D01*
X151797355Y-116724500D01*
X151986644Y-116724500D01*
X151986646Y-116724500D01*
X152171803Y-116685144D01*
X152344730Y-116608151D01*
X152344734Y-116608148D01*
X152349563Y-116605998D01*
X152418813Y-116596712D01*
X152450437Y-116605998D01*
X152455265Y-116608148D01*
X152455270Y-116608151D01*
X152628197Y-116685144D01*
X152813354Y-116724500D01*
X152813355Y-116724500D01*
X153002644Y-116724500D01*
X153002646Y-116724500D01*
X153187803Y-116685144D01*
X153360730Y-116608151D01*
X153513871Y-116496888D01*
X153640533Y-116356216D01*
X153735179Y-116192284D01*
X153793674Y-116012256D01*
X153813460Y-115824000D01*
X153793674Y-115635744D01*
X153735179Y-115455716D01*
X153640533Y-115291784D01*
X153513871Y-115151112D01*
X153513870Y-115151111D01*
X153360734Y-115039851D01*
X153360729Y-115039848D01*
X153187807Y-114962857D01*
X153187802Y-114962855D01*
X153029886Y-114929290D01*
X153002646Y-114923500D01*
X152813354Y-114923500D01*
X152786114Y-114929290D01*
X152628197Y-114962855D01*
X152628192Y-114962857D01*
X152450436Y-115042001D01*
X152381186Y-115051286D01*
X152349564Y-115042001D01*
X152171807Y-114962857D01*
X152171802Y-114962855D01*
X152048509Y-114936649D01*
X152013884Y-114929289D01*
X151952403Y-114896098D01*
X151918627Y-114834935D01*
X151923279Y-114765220D01*
X151964883Y-114709088D01*
X152013884Y-114686710D01*
X152171803Y-114653144D01*
X152344730Y-114576151D01*
X152497871Y-114464888D01*
X152624533Y-114324216D01*
X152719179Y-114160284D01*
X152777674Y-113980256D01*
X152797460Y-113792000D01*
X152777674Y-113603744D01*
X152719179Y-113423716D01*
X152624533Y-113259784D01*
X152497871Y-113119112D01*
X152497870Y-113119111D01*
X152344734Y-113007851D01*
X152344729Y-113007848D01*
X152171807Y-112930857D01*
X152171802Y-112930855D01*
X152026001Y-112899865D01*
X151986646Y-112891500D01*
X151797354Y-112891500D01*
X151764897Y-112898398D01*
X151612197Y-112930855D01*
X151612192Y-112930857D01*
X151439270Y-113007848D01*
X151439265Y-113007851D01*
X151286129Y-113119111D01*
X151159466Y-113259785D01*
X151064821Y-113423715D01*
X151064818Y-113423722D01*
X151007986Y-113598634D01*
X151006326Y-113603744D01*
X150986540Y-113792000D01*
X151006326Y-113980256D01*
X151006327Y-113980259D01*
X151064818Y-114160277D01*
X151064821Y-114160284D01*
X151159467Y-114324216D01*
X151217899Y-114389111D01*
X151286129Y-114464888D01*
X151439265Y-114576148D01*
X151439270Y-114576151D01*
X151612192Y-114653142D01*
X151612197Y-114653144D01*
X151770114Y-114686710D01*
X151831596Y-114719902D01*
X151865372Y-114781065D01*
X151860720Y-114850780D01*
X151819115Y-114906912D01*
X151770114Y-114929290D01*
X151612197Y-114962855D01*
X151612192Y-114962857D01*
X151439270Y-115039848D01*
X151439265Y-115039851D01*
X151286129Y-115151111D01*
X151159466Y-115291785D01*
X151064821Y-115455715D01*
X151064818Y-115455722D01*
X151029581Y-115564172D01*
X151006326Y-115635744D01*
X150986540Y-115824000D01*
X127869284Y-115824000D01*
X127953187Y-115761190D01*
X127953190Y-115761187D01*
X128039350Y-115646093D01*
X128039354Y-115646086D01*
X128089596Y-115511379D01*
X128089598Y-115511372D01*
X128095999Y-115451844D01*
X128096000Y-115451827D01*
X128096000Y-114804000D01*
X127179686Y-114804000D01*
X127205493Y-114763844D01*
X127246000Y-114625889D01*
X127246000Y-114482111D01*
X127205493Y-114344156D01*
X127179686Y-114304000D01*
X128096000Y-114304000D01*
X128096000Y-113656172D01*
X128095999Y-113656155D01*
X128089598Y-113596627D01*
X128089596Y-113596620D01*
X128039354Y-113461913D01*
X128039350Y-113461906D01*
X127953190Y-113346812D01*
X127953187Y-113346809D01*
X127838093Y-113260649D01*
X127838086Y-113260645D01*
X127703379Y-113210403D01*
X127703372Y-113210401D01*
X127643844Y-113204000D01*
X126996000Y-113204000D01*
X126996000Y-114118498D01*
X126888315Y-114069320D01*
X126781763Y-114054000D01*
X126710237Y-114054000D01*
X126603685Y-114069320D01*
X126496000Y-114118498D01*
X126496000Y-113204000D01*
X125848155Y-113204000D01*
X125788627Y-113210401D01*
X125788620Y-113210403D01*
X125653913Y-113260645D01*
X125653906Y-113260649D01*
X125538812Y-113346809D01*
X125538809Y-113346812D01*
X125452649Y-113461906D01*
X125452645Y-113461913D01*
X125402403Y-113596620D01*
X125402401Y-113596627D01*
X125396000Y-113656155D01*
X125396000Y-114304000D01*
X126312314Y-114304000D01*
X126286507Y-114344156D01*
X126246000Y-114482111D01*
X126246000Y-114625889D01*
X126286507Y-114763844D01*
X126312314Y-114804000D01*
X125396000Y-114804000D01*
X125396000Y-115451844D01*
X123479469Y-115451844D01*
X123374692Y-114944411D01*
X123374071Y-114940882D01*
X123313854Y-114529785D01*
X123282868Y-114318254D01*
X123282454Y-114314714D01*
X123227610Y-113687841D01*
X123227401Y-113684246D01*
X123209046Y-113053454D01*
X123209046Y-112518000D01*
X135829364Y-112518000D01*
X135886567Y-112731486D01*
X135886570Y-112731492D01*
X135986399Y-112945578D01*
X136121894Y-113139082D01*
X136288917Y-113306105D01*
X136482421Y-113441600D01*
X136696507Y-113541429D01*
X136696516Y-113541433D01*
X136910000Y-113598634D01*
X136910000Y-112703501D01*
X137017685Y-112752680D01*
X137124237Y-112768000D01*
X137195763Y-112768000D01*
X137302315Y-112752680D01*
X137410000Y-112703501D01*
X137410000Y-113598633D01*
X137623483Y-113541433D01*
X137623492Y-113541429D01*
X137837578Y-113441600D01*
X138031078Y-113306108D01*
X138153133Y-113184053D01*
X138214456Y-113150568D01*
X138284148Y-113155552D01*
X138340082Y-113197423D01*
X138356997Y-113228401D01*
X138406202Y-113360328D01*
X138406206Y-113360335D01*
X138492452Y-113475544D01*
X138492455Y-113475547D01*
X138607664Y-113561793D01*
X138607671Y-113561797D01*
X138742517Y-113612091D01*
X138742516Y-113612091D01*
X138749444Y-113612835D01*
X138802127Y-113618500D01*
X140597872Y-113618499D01*
X140657483Y-113612091D01*
X140792331Y-113561796D01*
X140907546Y-113475546D01*
X140993796Y-113360331D01*
X141044091Y-113225483D01*
X141050500Y-113165873D01*
X141050500Y-112776000D01*
X156066540Y-112776000D01*
X156086326Y-112964256D01*
X156086327Y-112964259D01*
X156144818Y-113144277D01*
X156144821Y-113144284D01*
X156239467Y-113308216D01*
X156359567Y-113441600D01*
X156366129Y-113448888D01*
X156519265Y-113560148D01*
X156519270Y-113560151D01*
X156692192Y-113637142D01*
X156692197Y-113637144D01*
X156877354Y-113676500D01*
X156877355Y-113676500D01*
X157066644Y-113676500D01*
X157066646Y-113676500D01*
X157251803Y-113637144D01*
X157424730Y-113560151D01*
X157577871Y-113448888D01*
X157704533Y-113308216D01*
X157799179Y-113144284D01*
X157836312Y-113030000D01*
X165972540Y-113030000D01*
X165992326Y-113218256D01*
X165992327Y-113218259D01*
X166050818Y-113398277D01*
X166050821Y-113398284D01*
X166145467Y-113562216D01*
X166230066Y-113656172D01*
X166272129Y-113702888D01*
X166425265Y-113814148D01*
X166425270Y-113814151D01*
X166598192Y-113891142D01*
X166598197Y-113891144D01*
X166783354Y-113930500D01*
X166783355Y-113930500D01*
X166972644Y-113930500D01*
X166972646Y-113930500D01*
X167157803Y-113891144D01*
X167330730Y-113814151D01*
X167483871Y-113702888D01*
X167610533Y-113562216D01*
X167705179Y-113398284D01*
X167763674Y-113218256D01*
X167783460Y-113030000D01*
X167763674Y-112841744D01*
X167705179Y-112661716D01*
X167624514Y-112522000D01*
X175370540Y-112522000D01*
X175390326Y-112710256D01*
X175390327Y-112710259D01*
X175448818Y-112890277D01*
X175448821Y-112890284D01*
X175543467Y-113054216D01*
X175601899Y-113119111D01*
X175670129Y-113194888D01*
X175823265Y-113306148D01*
X175823270Y-113306151D01*
X175996192Y-113383142D01*
X175996197Y-113383144D01*
X176181354Y-113422500D01*
X176181355Y-113422500D01*
X176370644Y-113422500D01*
X176370646Y-113422500D01*
X176555803Y-113383144D01*
X176728730Y-113306151D01*
X176881871Y-113194888D01*
X177008533Y-113054216D01*
X177103179Y-112890284D01*
X177161674Y-112710256D01*
X177181460Y-112522000D01*
X177161674Y-112333744D01*
X177103179Y-112153716D01*
X177008533Y-111989784D01*
X176881871Y-111849112D01*
X176849708Y-111825744D01*
X176728734Y-111737851D01*
X176728729Y-111737848D01*
X176555807Y-111660857D01*
X176555802Y-111660855D01*
X176410001Y-111629865D01*
X176370646Y-111621500D01*
X176181354Y-111621500D01*
X176148897Y-111628398D01*
X175996197Y-111660855D01*
X175996192Y-111660857D01*
X175823270Y-111737848D01*
X175823265Y-111737851D01*
X175670129Y-111849111D01*
X175543466Y-111989785D01*
X175448821Y-112153715D01*
X175448818Y-112153722D01*
X175404491Y-112290148D01*
X175390326Y-112333744D01*
X175370540Y-112522000D01*
X167624514Y-112522000D01*
X167610533Y-112497784D01*
X167483871Y-112357112D01*
X167483870Y-112357111D01*
X167330734Y-112245851D01*
X167330729Y-112245848D01*
X167157807Y-112168857D01*
X167157802Y-112168855D01*
X167012001Y-112137865D01*
X166972646Y-112129500D01*
X166783354Y-112129500D01*
X166750897Y-112136398D01*
X166598197Y-112168855D01*
X166598192Y-112168857D01*
X166425270Y-112245848D01*
X166425265Y-112245851D01*
X166272129Y-112357111D01*
X166145466Y-112497785D01*
X166050821Y-112661715D01*
X166050818Y-112661722D01*
X165999279Y-112820344D01*
X165992326Y-112841744D01*
X165972540Y-113030000D01*
X157836312Y-113030000D01*
X157857674Y-112964256D01*
X157877460Y-112776000D01*
X157857674Y-112587744D01*
X157799179Y-112407716D01*
X157704533Y-112243784D01*
X157577871Y-112103112D01*
X157545708Y-112079744D01*
X157424734Y-111991851D01*
X157424729Y-111991848D01*
X157251807Y-111914857D01*
X157251802Y-111914855D01*
X157106001Y-111883865D01*
X157066646Y-111875500D01*
X156877354Y-111875500D01*
X156844897Y-111882398D01*
X156692197Y-111914855D01*
X156692192Y-111914857D01*
X156519270Y-111991848D01*
X156519265Y-111991851D01*
X156366129Y-112103111D01*
X156239466Y-112243785D01*
X156144821Y-112407715D01*
X156144818Y-112407722D01*
X156099820Y-112546214D01*
X156086326Y-112587744D01*
X156066540Y-112776000D01*
X141050500Y-112776000D01*
X141050499Y-111506000D01*
X167750540Y-111506000D01*
X167770326Y-111694256D01*
X167770327Y-111694259D01*
X167828818Y-111874277D01*
X167828821Y-111874284D01*
X167923467Y-112038216D01*
X168041095Y-112168855D01*
X168050129Y-112178888D01*
X168203265Y-112290148D01*
X168203270Y-112290151D01*
X168376192Y-112367142D01*
X168376197Y-112367144D01*
X168561354Y-112406500D01*
X168561355Y-112406500D01*
X168750644Y-112406500D01*
X168750646Y-112406500D01*
X168935803Y-112367144D01*
X169108730Y-112290151D01*
X169261871Y-112178888D01*
X169388533Y-112038216D01*
X169483179Y-111874284D01*
X169541674Y-111694256D01*
X169561460Y-111506000D01*
X169541674Y-111317744D01*
X169520312Y-111252000D01*
X170290540Y-111252000D01*
X170310326Y-111440256D01*
X170310327Y-111440259D01*
X170368818Y-111620277D01*
X170368821Y-111620284D01*
X170463467Y-111784216D01*
X170578907Y-111912425D01*
X170590129Y-111924888D01*
X170743265Y-112036148D01*
X170743270Y-112036151D01*
X170916192Y-112113142D01*
X170916197Y-112113144D01*
X171101354Y-112152500D01*
X171101355Y-112152500D01*
X171290644Y-112152500D01*
X171290646Y-112152500D01*
X171475803Y-112113144D01*
X171648730Y-112036151D01*
X171801871Y-111924888D01*
X171928533Y-111784216D01*
X172023179Y-111620284D01*
X172081674Y-111440256D01*
X172101460Y-111252000D01*
X172081674Y-111063744D01*
X172023179Y-110883716D01*
X171928533Y-110719784D01*
X171801871Y-110579112D01*
X171801870Y-110579111D01*
X171648734Y-110467851D01*
X171648729Y-110467848D01*
X171475807Y-110390857D01*
X171475802Y-110390855D01*
X171330001Y-110359865D01*
X171290646Y-110351500D01*
X171101354Y-110351500D01*
X171068897Y-110358398D01*
X170916197Y-110390855D01*
X170916192Y-110390857D01*
X170743270Y-110467848D01*
X170743265Y-110467851D01*
X170590129Y-110579111D01*
X170463466Y-110719785D01*
X170368821Y-110883715D01*
X170368818Y-110883722D01*
X170310327Y-111063740D01*
X170310326Y-111063744D01*
X170290540Y-111252000D01*
X169520312Y-111252000D01*
X169483179Y-111137716D01*
X169388533Y-110973784D01*
X169261871Y-110833112D01*
X169229708Y-110809744D01*
X169108734Y-110721851D01*
X169108729Y-110721848D01*
X168935807Y-110644857D01*
X168935802Y-110644855D01*
X168812509Y-110618649D01*
X168777884Y-110611289D01*
X168716403Y-110578098D01*
X168682627Y-110516935D01*
X168687279Y-110447220D01*
X168728883Y-110391088D01*
X168777884Y-110368710D01*
X168935803Y-110335144D01*
X169108730Y-110258151D01*
X169261871Y-110146888D01*
X169388533Y-110006216D01*
X169405401Y-109977000D01*
X181524341Y-109977000D01*
X181544936Y-110212403D01*
X181544938Y-110212413D01*
X181606094Y-110440655D01*
X181606096Y-110440659D01*
X181606097Y-110440663D01*
X181682392Y-110604277D01*
X181705965Y-110654830D01*
X181705967Y-110654834D01*
X181784154Y-110766495D01*
X181841505Y-110848401D01*
X182008599Y-111015495D01*
X182077500Y-111063740D01*
X182202165Y-111151032D01*
X182202167Y-111151033D01*
X182202170Y-111151035D01*
X182416337Y-111250903D01*
X182644592Y-111312063D01*
X182832918Y-111328539D01*
X182879999Y-111332659D01*
X182880000Y-111332659D01*
X182880001Y-111332659D01*
X182919234Y-111329226D01*
X183115408Y-111312063D01*
X183343663Y-111250903D01*
X183557830Y-111151035D01*
X183751401Y-111015495D01*
X183768896Y-110998000D01*
X184514540Y-110998000D01*
X184534326Y-111186256D01*
X184534327Y-111186259D01*
X184592818Y-111366277D01*
X184592820Y-111366282D01*
X184592821Y-111366284D01*
X184687467Y-111530216D01*
X184729036Y-111576383D01*
X184814123Y-111670883D01*
X184814128Y-111670887D01*
X184814129Y-111670888D01*
X184839905Y-111689615D01*
X184882571Y-111744944D01*
X184888551Y-111814557D01*
X184874408Y-111851932D01*
X184846820Y-111899715D01*
X184801819Y-112038216D01*
X184788326Y-112079744D01*
X184768540Y-112268000D01*
X184788326Y-112456256D01*
X184788327Y-112456259D01*
X184846818Y-112636277D01*
X184846821Y-112636284D01*
X184941467Y-112800216D01*
X185008931Y-112875142D01*
X185068129Y-112940888D01*
X185221265Y-113052148D01*
X185221270Y-113052151D01*
X185394192Y-113129142D01*
X185394197Y-113129144D01*
X185579354Y-113168500D01*
X185579355Y-113168500D01*
X185768644Y-113168500D01*
X185768646Y-113168500D01*
X185953803Y-113129144D01*
X186126730Y-113052151D01*
X186279871Y-112940888D01*
X186406533Y-112800216D01*
X186501179Y-112636284D01*
X186559674Y-112456256D01*
X186579460Y-112268000D01*
X186559674Y-112079744D01*
X186538312Y-112014000D01*
X187308540Y-112014000D01*
X187328326Y-112202256D01*
X187328327Y-112202259D01*
X187386818Y-112382277D01*
X187386821Y-112382284D01*
X187481467Y-112546216D01*
X187608129Y-112686888D01*
X187761265Y-112798148D01*
X187761270Y-112798151D01*
X187934192Y-112875142D01*
X187934197Y-112875144D01*
X188119354Y-112914500D01*
X188119355Y-112914500D01*
X188308644Y-112914500D01*
X188308646Y-112914500D01*
X188493803Y-112875144D01*
X188666730Y-112798151D01*
X188819871Y-112686888D01*
X188946533Y-112546216D01*
X188960514Y-112522000D01*
X190487540Y-112522000D01*
X190507326Y-112710256D01*
X190507327Y-112710259D01*
X190565818Y-112890277D01*
X190565821Y-112890284D01*
X190660467Y-113054216D01*
X190718899Y-113119111D01*
X190787129Y-113194888D01*
X190940265Y-113306148D01*
X190940270Y-113306151D01*
X191113192Y-113383142D01*
X191113197Y-113383144D01*
X191298354Y-113422500D01*
X191298355Y-113422500D01*
X191487644Y-113422500D01*
X191487646Y-113422500D01*
X191672803Y-113383144D01*
X191845730Y-113306151D01*
X191845734Y-113306148D01*
X191850563Y-113303998D01*
X191919813Y-113294712D01*
X191951437Y-113303998D01*
X191956265Y-113306148D01*
X191956270Y-113306151D01*
X192129197Y-113383144D01*
X192314354Y-113422500D01*
X192314355Y-113422500D01*
X192503644Y-113422500D01*
X192503646Y-113422500D01*
X192688803Y-113383144D01*
X192861730Y-113306151D01*
X192892218Y-113284000D01*
X201844341Y-113284000D01*
X201864936Y-113519403D01*
X201864938Y-113519413D01*
X201926094Y-113747655D01*
X201926096Y-113747659D01*
X201926097Y-113747663D01*
X202011356Y-113930500D01*
X202025965Y-113961830D01*
X202025967Y-113961834D01*
X202065839Y-114018776D01*
X202161505Y-114155401D01*
X202328599Y-114322495D01*
X202423736Y-114389111D01*
X202522165Y-114458032D01*
X202522167Y-114458033D01*
X202522170Y-114458035D01*
X202736337Y-114557903D01*
X202964592Y-114619063D01*
X203152918Y-114635539D01*
X203199999Y-114639659D01*
X203200000Y-114639659D01*
X203200001Y-114639659D01*
X203239234Y-114636226D01*
X203435408Y-114619063D01*
X203663663Y-114557903D01*
X203877830Y-114458035D01*
X204071401Y-114322495D01*
X204238495Y-114155401D01*
X204374035Y-113961830D01*
X204473903Y-113747663D01*
X204535063Y-113519408D01*
X204555659Y-113284000D01*
X204535063Y-113048592D01*
X204473903Y-112820337D01*
X204374035Y-112606171D01*
X204368873Y-112598798D01*
X204238494Y-112412597D01*
X204071402Y-112245506D01*
X204071396Y-112245501D01*
X203885842Y-112115575D01*
X203842217Y-112060998D01*
X203835023Y-111991500D01*
X203866546Y-111929145D01*
X203885842Y-111912425D01*
X203940323Y-111874277D01*
X204071401Y-111782495D01*
X204238495Y-111615401D01*
X204374035Y-111421830D01*
X204473903Y-111207663D01*
X204535063Y-110979408D01*
X204555659Y-110744000D01*
X204535063Y-110508592D01*
X204473903Y-110280337D01*
X204374035Y-110066171D01*
X204361132Y-110047744D01*
X204238496Y-109872600D01*
X204208173Y-109842277D01*
X204116179Y-109750283D01*
X204082696Y-109688963D01*
X204087680Y-109619271D01*
X204129551Y-109563337D01*
X204160529Y-109546422D01*
X204292086Y-109497354D01*
X204292093Y-109497350D01*
X204407187Y-109411190D01*
X204407190Y-109411187D01*
X204493350Y-109296093D01*
X204493354Y-109296086D01*
X204543596Y-109161379D01*
X204543598Y-109161372D01*
X204549999Y-109101844D01*
X204550000Y-109101827D01*
X204550000Y-108454000D01*
X203633686Y-108454000D01*
X203659493Y-108413844D01*
X203700000Y-108275889D01*
X203700000Y-108132111D01*
X203659493Y-107994156D01*
X203633686Y-107954000D01*
X204550000Y-107954000D01*
X204550000Y-107306172D01*
X204549999Y-107306155D01*
X204543598Y-107246627D01*
X204543596Y-107246620D01*
X204493354Y-107111913D01*
X204493350Y-107111906D01*
X204407190Y-106996812D01*
X204407187Y-106996809D01*
X204292093Y-106910649D01*
X204292086Y-106910645D01*
X204157379Y-106860403D01*
X204157372Y-106860401D01*
X204097844Y-106854000D01*
X203450000Y-106854000D01*
X203450000Y-107768498D01*
X203342315Y-107719320D01*
X203235763Y-107704000D01*
X203164237Y-107704000D01*
X203057685Y-107719320D01*
X202950000Y-107768498D01*
X202950000Y-106854000D01*
X202302155Y-106854000D01*
X202242627Y-106860401D01*
X202242620Y-106860403D01*
X202107913Y-106910645D01*
X202107906Y-106910649D01*
X201992812Y-106996809D01*
X201992809Y-106996812D01*
X201906649Y-107111906D01*
X201906645Y-107111913D01*
X201856403Y-107246620D01*
X201856401Y-107246627D01*
X201850000Y-107306155D01*
X201850000Y-107954000D01*
X202766314Y-107954000D01*
X202740507Y-107994156D01*
X202700000Y-108132111D01*
X202700000Y-108275889D01*
X202740507Y-108413844D01*
X202766314Y-108454000D01*
X201850000Y-108454000D01*
X201850000Y-109101844D01*
X201856401Y-109161372D01*
X201856403Y-109161379D01*
X201906645Y-109296086D01*
X201906649Y-109296093D01*
X201992809Y-109411187D01*
X201992812Y-109411190D01*
X202107906Y-109497350D01*
X202107913Y-109497354D01*
X202239470Y-109546421D01*
X202295403Y-109588292D01*
X202319821Y-109653756D01*
X202304970Y-109722029D01*
X202283819Y-109750284D01*
X202161503Y-109872600D01*
X202025965Y-110066169D01*
X202025964Y-110066171D01*
X201926098Y-110280335D01*
X201926094Y-110280344D01*
X201864938Y-110508586D01*
X201864936Y-110508596D01*
X201844341Y-110743999D01*
X201844341Y-110744000D01*
X201864936Y-110979403D01*
X201864938Y-110979413D01*
X201926094Y-111207655D01*
X201926096Y-111207659D01*
X201926097Y-111207663D01*
X202001856Y-111370128D01*
X202025965Y-111421830D01*
X202025967Y-111421834D01*
X202101856Y-111530214D01*
X202147298Y-111595112D01*
X202161501Y-111615395D01*
X202161506Y-111615402D01*
X202328597Y-111782493D01*
X202328603Y-111782498D01*
X202514158Y-111912425D01*
X202557783Y-111967002D01*
X202564977Y-112036500D01*
X202533454Y-112098855D01*
X202514158Y-112115575D01*
X202328597Y-112245505D01*
X202161505Y-112412597D01*
X202025965Y-112606169D01*
X202025964Y-112606171D01*
X201926098Y-112820335D01*
X201926094Y-112820344D01*
X201864938Y-113048586D01*
X201864936Y-113048596D01*
X201844341Y-113283999D01*
X201844341Y-113284000D01*
X192892218Y-113284000D01*
X193014871Y-113194888D01*
X193141533Y-113054216D01*
X193236179Y-112890284D01*
X193294674Y-112710256D01*
X193314460Y-112522000D01*
X193294674Y-112333744D01*
X193236179Y-112153716D01*
X193141533Y-111989784D01*
X193014871Y-111849112D01*
X192982708Y-111825744D01*
X192861734Y-111737851D01*
X192861729Y-111737848D01*
X192688807Y-111660857D01*
X192688802Y-111660855D01*
X192543001Y-111629865D01*
X192503646Y-111621500D01*
X192314354Y-111621500D01*
X192281897Y-111628398D01*
X192129197Y-111660855D01*
X192129192Y-111660857D01*
X191951436Y-111740001D01*
X191882186Y-111749286D01*
X191850564Y-111740001D01*
X191672807Y-111660857D01*
X191672802Y-111660855D01*
X191527001Y-111629865D01*
X191487646Y-111621500D01*
X191298354Y-111621500D01*
X191265897Y-111628398D01*
X191113197Y-111660855D01*
X191113192Y-111660857D01*
X190940270Y-111737848D01*
X190940265Y-111737851D01*
X190787129Y-111849111D01*
X190660466Y-111989785D01*
X190565821Y-112153715D01*
X190565818Y-112153722D01*
X190521491Y-112290148D01*
X190507326Y-112333744D01*
X190487540Y-112522000D01*
X188960514Y-112522000D01*
X189041179Y-112382284D01*
X189099674Y-112202256D01*
X189119460Y-112014000D01*
X189099674Y-111825744D01*
X189041179Y-111645716D01*
X188946533Y-111481784D01*
X188819871Y-111341112D01*
X188819870Y-111341111D01*
X188666734Y-111229851D01*
X188666729Y-111229848D01*
X188493807Y-111152857D01*
X188493802Y-111152855D01*
X188348001Y-111121865D01*
X188308646Y-111113500D01*
X188119354Y-111113500D01*
X188086897Y-111120398D01*
X187934197Y-111152855D01*
X187934192Y-111152857D01*
X187761270Y-111229848D01*
X187761265Y-111229851D01*
X187608129Y-111341111D01*
X187481466Y-111481785D01*
X187386821Y-111645715D01*
X187386818Y-111645722D01*
X187342110Y-111783320D01*
X187328326Y-111825744D01*
X187308540Y-112014000D01*
X186538312Y-112014000D01*
X186501179Y-111899716D01*
X186406533Y-111735784D01*
X186348096Y-111670883D01*
X186279876Y-111595116D01*
X186279869Y-111595110D01*
X186254093Y-111576383D01*
X186211427Y-111521053D01*
X186205448Y-111451440D01*
X186219588Y-111414071D01*
X186247179Y-111366284D01*
X186305674Y-111186256D01*
X186325460Y-110998000D01*
X186305674Y-110809744D01*
X186247179Y-110629716D01*
X186152533Y-110465784D01*
X186025871Y-110325112D01*
X186025870Y-110325111D01*
X185872734Y-110213851D01*
X185872729Y-110213848D01*
X185699807Y-110136857D01*
X185699802Y-110136855D01*
X185554001Y-110105865D01*
X185514646Y-110097500D01*
X185325354Y-110097500D01*
X185292897Y-110104398D01*
X185140197Y-110136855D01*
X185140192Y-110136857D01*
X184967270Y-110213848D01*
X184967265Y-110213851D01*
X184814129Y-110325111D01*
X184687466Y-110465785D01*
X184592821Y-110629715D01*
X184592818Y-110629722D01*
X184534327Y-110809740D01*
X184534326Y-110809744D01*
X184514540Y-110998000D01*
X183768896Y-110998000D01*
X183918495Y-110848401D01*
X184054035Y-110654830D01*
X184153903Y-110440663D01*
X184215063Y-110212408D01*
X184235659Y-109977000D01*
X184215063Y-109741592D01*
X184153903Y-109513337D01*
X184054035Y-109299171D01*
X184044633Y-109285744D01*
X183918496Y-109105600D01*
X183863065Y-109050169D01*
X183796567Y-108983671D01*
X183763084Y-108922351D01*
X183768068Y-108852659D01*
X183809939Y-108796725D01*
X183840915Y-108779810D01*
X183972331Y-108730796D01*
X184087546Y-108644546D01*
X184173796Y-108529331D01*
X184224091Y-108394483D01*
X184230500Y-108334873D01*
X184230499Y-106539128D01*
X184224091Y-106479517D01*
X184204130Y-106426000D01*
X184173797Y-106344671D01*
X184173793Y-106344664D01*
X184087547Y-106229455D01*
X184087544Y-106229452D01*
X183972335Y-106143206D01*
X183972328Y-106143202D01*
X183837482Y-106092908D01*
X183837483Y-106092908D01*
X183777883Y-106086501D01*
X183777881Y-106086500D01*
X183777873Y-106086500D01*
X183777864Y-106086500D01*
X181982129Y-106086500D01*
X181982123Y-106086501D01*
X181922516Y-106092908D01*
X181787671Y-106143202D01*
X181787664Y-106143206D01*
X181672455Y-106229452D01*
X181672452Y-106229455D01*
X181586206Y-106344664D01*
X181586202Y-106344671D01*
X181535908Y-106479517D01*
X181529501Y-106539116D01*
X181529501Y-106539123D01*
X181529500Y-106539135D01*
X181529500Y-108334870D01*
X181529501Y-108334876D01*
X181535908Y-108394483D01*
X181586202Y-108529328D01*
X181586206Y-108529335D01*
X181672452Y-108644544D01*
X181672455Y-108644547D01*
X181787664Y-108730793D01*
X181787671Y-108730797D01*
X181919081Y-108779810D01*
X181975015Y-108821681D01*
X181999432Y-108887145D01*
X181984580Y-108955418D01*
X181963430Y-108983673D01*
X181841503Y-109105600D01*
X181705965Y-109299169D01*
X181705964Y-109299171D01*
X181606098Y-109513335D01*
X181606094Y-109513344D01*
X181544938Y-109741586D01*
X181544936Y-109741596D01*
X181524341Y-109976999D01*
X181524341Y-109977000D01*
X169405401Y-109977000D01*
X169483179Y-109842284D01*
X169541674Y-109662256D01*
X169561460Y-109474000D01*
X169541674Y-109285744D01*
X169483179Y-109105716D01*
X169388533Y-108941784D01*
X169261871Y-108801112D01*
X169243136Y-108787500D01*
X169108734Y-108689851D01*
X169108729Y-108689848D01*
X168935807Y-108612857D01*
X168935802Y-108612855D01*
X168789220Y-108581699D01*
X168750646Y-108573500D01*
X168561354Y-108573500D01*
X168528897Y-108580398D01*
X168376197Y-108612855D01*
X168376192Y-108612857D01*
X168203270Y-108689848D01*
X168203265Y-108689851D01*
X168050129Y-108801111D01*
X167923466Y-108941785D01*
X167828821Y-109105715D01*
X167828818Y-109105722D01*
X167777279Y-109264344D01*
X167770326Y-109285744D01*
X167750540Y-109474000D01*
X167770326Y-109662256D01*
X167770327Y-109662259D01*
X167828818Y-109842277D01*
X167828821Y-109842284D01*
X167923467Y-110006216D01*
X167977451Y-110066171D01*
X168050129Y-110146888D01*
X168203265Y-110258148D01*
X168203270Y-110258151D01*
X168376192Y-110335142D01*
X168376197Y-110335144D01*
X168534114Y-110368710D01*
X168595596Y-110401902D01*
X168629372Y-110463065D01*
X168624720Y-110532780D01*
X168583115Y-110588912D01*
X168534114Y-110611290D01*
X168376197Y-110644855D01*
X168376192Y-110644857D01*
X168203270Y-110721848D01*
X168203265Y-110721851D01*
X168050129Y-110833111D01*
X167923466Y-110973785D01*
X167828821Y-111137715D01*
X167828818Y-111137722D01*
X167772172Y-111312063D01*
X167770326Y-111317744D01*
X167750540Y-111506000D01*
X141050499Y-111506000D01*
X141050499Y-111370128D01*
X141044795Y-111317063D01*
X141044091Y-111310516D01*
X140993797Y-111175671D01*
X140993793Y-111175664D01*
X140907547Y-111060455D01*
X140907544Y-111060452D01*
X140792335Y-110974206D01*
X140792328Y-110974202D01*
X140660917Y-110925189D01*
X140604983Y-110883318D01*
X140580566Y-110817853D01*
X140595418Y-110749580D01*
X140616563Y-110721332D01*
X140738495Y-110599401D01*
X140874035Y-110405830D01*
X140953228Y-110236000D01*
X145144540Y-110236000D01*
X145164326Y-110424256D01*
X145164327Y-110424259D01*
X145222818Y-110604277D01*
X145222821Y-110604284D01*
X145317467Y-110768216D01*
X145437959Y-110902035D01*
X145444129Y-110908888D01*
X145597265Y-111020148D01*
X145597270Y-111020151D01*
X145770192Y-111097142D01*
X145770197Y-111097144D01*
X145955354Y-111136500D01*
X145955355Y-111136500D01*
X146144644Y-111136500D01*
X146144646Y-111136500D01*
X146329803Y-111097144D01*
X146502730Y-111020151D01*
X146655871Y-110908888D01*
X146782533Y-110768216D01*
X146877179Y-110604284D01*
X146935674Y-110424256D01*
X146955460Y-110236000D01*
X149970540Y-110236000D01*
X149990326Y-110424256D01*
X149990327Y-110424259D01*
X150048818Y-110604277D01*
X150048821Y-110604284D01*
X150143467Y-110768216D01*
X150263959Y-110902035D01*
X150270129Y-110908888D01*
X150423265Y-111020148D01*
X150423270Y-111020151D01*
X150596192Y-111097142D01*
X150596197Y-111097144D01*
X150781354Y-111136500D01*
X150781355Y-111136500D01*
X150970644Y-111136500D01*
X150970646Y-111136500D01*
X151155803Y-111097144D01*
X151328730Y-111020151D01*
X151481871Y-110908888D01*
X151608533Y-110768216D01*
X151703179Y-110604284D01*
X151761674Y-110424256D01*
X151781460Y-110236000D01*
X151761674Y-110047744D01*
X151703179Y-109867716D01*
X151608533Y-109703784D01*
X151481871Y-109563112D01*
X151481870Y-109563111D01*
X151328734Y-109451851D01*
X151328729Y-109451848D01*
X151155807Y-109374857D01*
X151155802Y-109374855D01*
X151010001Y-109343865D01*
X150970646Y-109335500D01*
X150781354Y-109335500D01*
X150748897Y-109342398D01*
X150596197Y-109374855D01*
X150596192Y-109374857D01*
X150423270Y-109451848D01*
X150423265Y-109451851D01*
X150270129Y-109563111D01*
X150143466Y-109703785D01*
X150048821Y-109867715D01*
X150048818Y-109867722D01*
X150003820Y-110006214D01*
X149990326Y-110047744D01*
X149970540Y-110236000D01*
X146955460Y-110236000D01*
X146935674Y-110047744D01*
X146877179Y-109867716D01*
X146782533Y-109703784D01*
X146655871Y-109563112D01*
X146655870Y-109563111D01*
X146502734Y-109451851D01*
X146502729Y-109451848D01*
X146329807Y-109374857D01*
X146329802Y-109374855D01*
X146184001Y-109343865D01*
X146144646Y-109335500D01*
X145955354Y-109335500D01*
X145922897Y-109342398D01*
X145770197Y-109374855D01*
X145770192Y-109374857D01*
X145597270Y-109451848D01*
X145597265Y-109451851D01*
X145444129Y-109563111D01*
X145317466Y-109703785D01*
X145222821Y-109867715D01*
X145222818Y-109867722D01*
X145177820Y-110006214D01*
X145164326Y-110047744D01*
X145144540Y-110236000D01*
X140953228Y-110236000D01*
X140973903Y-110191663D01*
X141035063Y-109963408D01*
X141055659Y-109728000D01*
X141035063Y-109492592D01*
X140973903Y-109264337D01*
X140874035Y-109050171D01*
X140827474Y-108983674D01*
X140738494Y-108856597D01*
X140571402Y-108689506D01*
X140571395Y-108689501D01*
X140377834Y-108553967D01*
X140377830Y-108553965D01*
X140324996Y-108529328D01*
X140163663Y-108454097D01*
X140163659Y-108454096D01*
X140163655Y-108454094D01*
X139935413Y-108392938D01*
X139935403Y-108392936D01*
X139700001Y-108372341D01*
X139699999Y-108372341D01*
X139464596Y-108392936D01*
X139464586Y-108392938D01*
X139275361Y-108443640D01*
X139205511Y-108441977D01*
X139147649Y-108402814D01*
X139120145Y-108338585D01*
X139131732Y-108269683D01*
X139151115Y-108240896D01*
X139162533Y-108228216D01*
X139257179Y-108064284D01*
X139315674Y-107884256D01*
X139315674Y-107884251D01*
X139317168Y-107879655D01*
X139356605Y-107821979D01*
X139409321Y-107796682D01*
X139416558Y-107795144D01*
X139416562Y-107795142D01*
X139416563Y-107795142D01*
X139474813Y-107769206D01*
X139589485Y-107718151D01*
X139742626Y-107606888D01*
X139869288Y-107466216D01*
X139883269Y-107442000D01*
X155304540Y-107442000D01*
X155324326Y-107630256D01*
X155324327Y-107630259D01*
X155382818Y-107810277D01*
X155382821Y-107810284D01*
X155477467Y-107974216D01*
X155558557Y-108064275D01*
X155604129Y-108114888D01*
X155757265Y-108226148D01*
X155757270Y-108226151D01*
X155930192Y-108303142D01*
X155930197Y-108303144D01*
X156115354Y-108342500D01*
X156115355Y-108342500D01*
X156304644Y-108342500D01*
X156304646Y-108342500D01*
X156489803Y-108303144D01*
X156662730Y-108226151D01*
X156815871Y-108114888D01*
X156942533Y-107974216D01*
X157037179Y-107810284D01*
X157095674Y-107630256D01*
X157115460Y-107442000D01*
X157095674Y-107253744D01*
X157073981Y-107186980D01*
X157071986Y-107117139D01*
X157099759Y-107065693D01*
X157196533Y-106958216D01*
X157291179Y-106794284D01*
X157349674Y-106614256D01*
X157369460Y-106426000D01*
X157349674Y-106237744D01*
X157328312Y-106172000D01*
X161146540Y-106172000D01*
X161166326Y-106360256D01*
X161166327Y-106360259D01*
X161224818Y-106540277D01*
X161224821Y-106540284D01*
X161319467Y-106704216D01*
X161446129Y-106844888D01*
X161599265Y-106956148D01*
X161599270Y-106956151D01*
X161772192Y-107033142D01*
X161772197Y-107033144D01*
X161957354Y-107072500D01*
X161957355Y-107072500D01*
X162146644Y-107072500D01*
X162146646Y-107072500D01*
X162331803Y-107033144D01*
X162504730Y-106956151D01*
X162657871Y-106844888D01*
X162784533Y-106704216D01*
X162879179Y-106540284D01*
X162937674Y-106360256D01*
X162957460Y-106172000D01*
X162937674Y-105983744D01*
X162879179Y-105803716D01*
X162784533Y-105639784D01*
X162657871Y-105499112D01*
X162604363Y-105460236D01*
X162504734Y-105387851D01*
X162504729Y-105387848D01*
X162331807Y-105310857D01*
X162331802Y-105310855D01*
X162186001Y-105279865D01*
X162146646Y-105271500D01*
X161957354Y-105271500D01*
X161924897Y-105278398D01*
X161772197Y-105310855D01*
X161772192Y-105310857D01*
X161599270Y-105387848D01*
X161599265Y-105387851D01*
X161446129Y-105499111D01*
X161319466Y-105639785D01*
X161224821Y-105803715D01*
X161224818Y-105803722D01*
X161179820Y-105942214D01*
X161166326Y-105983744D01*
X161146540Y-106172000D01*
X157328312Y-106172000D01*
X157291179Y-106057716D01*
X157196533Y-105893784D01*
X157069871Y-105753112D01*
X157069870Y-105753111D01*
X156916734Y-105641851D01*
X156916729Y-105641848D01*
X156743807Y-105564857D01*
X156743802Y-105564855D01*
X156598001Y-105533865D01*
X156558646Y-105525500D01*
X156369354Y-105525500D01*
X156336897Y-105532398D01*
X156184197Y-105564855D01*
X156184192Y-105564857D01*
X156011270Y-105641848D01*
X156011265Y-105641851D01*
X155858129Y-105753111D01*
X155731466Y-105893785D01*
X155636821Y-106057715D01*
X155636818Y-106057722D01*
X155581019Y-106229455D01*
X155578326Y-106237744D01*
X155558540Y-106426000D01*
X155578326Y-106614256D01*
X155578326Y-106614258D01*
X155578327Y-106614260D01*
X155600018Y-106681020D01*
X155602013Y-106750861D01*
X155574237Y-106802309D01*
X155477466Y-106909784D01*
X155382821Y-107073715D01*
X155382818Y-107073722D01*
X155326638Y-107246627D01*
X155324326Y-107253744D01*
X155304540Y-107442000D01*
X139883269Y-107442000D01*
X139963934Y-107302284D01*
X140022429Y-107122256D01*
X140042215Y-106934000D01*
X140022429Y-106745744D01*
X139963934Y-106565716D01*
X139869288Y-106401784D01*
X139742626Y-106261112D01*
X139710460Y-106237742D01*
X139589489Y-106149851D01*
X139589484Y-106149848D01*
X139416562Y-106072857D01*
X139416557Y-106072855D01*
X139239328Y-106035185D01*
X139231401Y-106033500D01*
X139042109Y-106033500D01*
X139034182Y-106035185D01*
X138856952Y-106072855D01*
X138856947Y-106072857D01*
X138684025Y-106149848D01*
X138684020Y-106149851D01*
X138530884Y-106261111D01*
X138404221Y-106401785D01*
X138309576Y-106565715D01*
X138309573Y-106565722D01*
X138249586Y-106750344D01*
X138210148Y-106808020D01*
X138157445Y-106833314D01*
X138150203Y-106834853D01*
X138150192Y-106834857D01*
X137977270Y-106911848D01*
X137977265Y-106911851D01*
X137824129Y-107023111D01*
X137697466Y-107163785D01*
X137602821Y-107327715D01*
X137602818Y-107327722D01*
X137557820Y-107466214D01*
X137544326Y-107507744D01*
X137524540Y-107696000D01*
X137544326Y-107884256D01*
X137544327Y-107884259D01*
X137602818Y-108064277D01*
X137602821Y-108064284D01*
X137697467Y-108228216D01*
X137793511Y-108334883D01*
X137824129Y-108368888D01*
X137977265Y-108480148D01*
X137977270Y-108480151D01*
X138150192Y-108557142D01*
X138150197Y-108557144D01*
X138335354Y-108596500D01*
X138335355Y-108596500D01*
X138524644Y-108596500D01*
X138524646Y-108596500D01*
X138619288Y-108576383D01*
X138688953Y-108581699D01*
X138744686Y-108623836D01*
X138768792Y-108689415D01*
X138753615Y-108757617D01*
X138732749Y-108785354D01*
X138661503Y-108856600D01*
X138525965Y-109050169D01*
X138525964Y-109050171D01*
X138426098Y-109264335D01*
X138426094Y-109264344D01*
X138364938Y-109492586D01*
X138364936Y-109492596D01*
X138344341Y-109727999D01*
X138344341Y-109728000D01*
X138364936Y-109963403D01*
X138364938Y-109963413D01*
X138426094Y-110191655D01*
X138426096Y-110191659D01*
X138426097Y-110191663D01*
X138518983Y-110390857D01*
X138525965Y-110405830D01*
X138525967Y-110405834D01*
X138614856Y-110532780D01*
X138661501Y-110599396D01*
X138661506Y-110599402D01*
X138783430Y-110721326D01*
X138816915Y-110782649D01*
X138811931Y-110852341D01*
X138770059Y-110908274D01*
X138739083Y-110925189D01*
X138607669Y-110974203D01*
X138607664Y-110974206D01*
X138492455Y-111060452D01*
X138492452Y-111060455D01*
X138406206Y-111175664D01*
X138406202Y-111175671D01*
X138356997Y-111307598D01*
X138315126Y-111363532D01*
X138249661Y-111387949D01*
X138181388Y-111373097D01*
X138153134Y-111351946D01*
X138031082Y-111229894D01*
X137837578Y-111094399D01*
X137623492Y-110994570D01*
X137623486Y-110994567D01*
X137410000Y-110937364D01*
X137410000Y-111832498D01*
X137302315Y-111783320D01*
X137195763Y-111768000D01*
X137124237Y-111768000D01*
X137017685Y-111783320D01*
X136910000Y-111832498D01*
X136910000Y-110937364D01*
X136909999Y-110937364D01*
X136696513Y-110994567D01*
X136696507Y-110994570D01*
X136482422Y-111094399D01*
X136482420Y-111094400D01*
X136288926Y-111229886D01*
X136288920Y-111229891D01*
X136121891Y-111396920D01*
X136121886Y-111396926D01*
X135986400Y-111590420D01*
X135986399Y-111590422D01*
X135886570Y-111804507D01*
X135886567Y-111804513D01*
X135829364Y-112017999D01*
X135829364Y-112018000D01*
X136726314Y-112018000D01*
X136700507Y-112058156D01*
X136660000Y-112196111D01*
X136660000Y-112339889D01*
X136700507Y-112477844D01*
X136726314Y-112518000D01*
X135829364Y-112518000D01*
X123209046Y-112518000D01*
X123209046Y-109982000D01*
X125390341Y-109982000D01*
X125410936Y-110217403D01*
X125410938Y-110217413D01*
X125472094Y-110445655D01*
X125472096Y-110445659D01*
X125472097Y-110445663D01*
X125564983Y-110644857D01*
X125571965Y-110659830D01*
X125571967Y-110659834D01*
X125647856Y-110768214D01*
X125707505Y-110853401D01*
X125874599Y-111020495D01*
X125931668Y-111060455D01*
X126068165Y-111156032D01*
X126068167Y-111156033D01*
X126068170Y-111156035D01*
X126282337Y-111255903D01*
X126510592Y-111317063D01*
X126688851Y-111332659D01*
X126745999Y-111337659D01*
X126746000Y-111337659D01*
X126746001Y-111337659D01*
X126803149Y-111332659D01*
X126981408Y-111317063D01*
X127209663Y-111255903D01*
X127423830Y-111156035D01*
X127617401Y-111020495D01*
X127784495Y-110853401D01*
X127920035Y-110659830D01*
X128019903Y-110445663D01*
X128081063Y-110217408D01*
X128101659Y-109982000D01*
X128101221Y-109976999D01*
X128097539Y-109934918D01*
X128081063Y-109746592D01*
X128019903Y-109518337D01*
X127920035Y-109304171D01*
X127907133Y-109285744D01*
X127784494Y-109110597D01*
X127617402Y-108943506D01*
X127617396Y-108943501D01*
X127431842Y-108813575D01*
X127388217Y-108758998D01*
X127381023Y-108689500D01*
X127412546Y-108627145D01*
X127431842Y-108610425D01*
X127547660Y-108529328D01*
X127617401Y-108480495D01*
X127784495Y-108313401D01*
X127920035Y-108119830D01*
X128019903Y-107905663D01*
X128081063Y-107677408D01*
X128101659Y-107442000D01*
X128081063Y-107206592D01*
X128024853Y-106996812D01*
X128019905Y-106978344D01*
X128019904Y-106978343D01*
X128019903Y-106978337D01*
X127920035Y-106764171D01*
X127913406Y-106754703D01*
X127784494Y-106570597D01*
X127617402Y-106403506D01*
X127617396Y-106403501D01*
X127431842Y-106273575D01*
X127388217Y-106218998D01*
X127381023Y-106149500D01*
X127412546Y-106087145D01*
X127431842Y-106070425D01*
X127484576Y-106033500D01*
X127617401Y-105940495D01*
X127784495Y-105773401D01*
X127920035Y-105579830D01*
X127999228Y-105410000D01*
X144382540Y-105410000D01*
X144402326Y-105598256D01*
X144402327Y-105598259D01*
X144460818Y-105778277D01*
X144460821Y-105778284D01*
X144555467Y-105942216D01*
X144670907Y-106070425D01*
X144682129Y-106082888D01*
X144782743Y-106155988D01*
X144825409Y-106211317D01*
X144833179Y-106269265D01*
X144829531Y-106303980D01*
X144829531Y-106303982D01*
X144849317Y-106492238D01*
X144849318Y-106492241D01*
X144907809Y-106672259D01*
X144907812Y-106672266D01*
X145002458Y-106836198D01*
X145112320Y-106958212D01*
X145129120Y-106976870D01*
X145282256Y-107088130D01*
X145282261Y-107088133D01*
X145455183Y-107165124D01*
X145455188Y-107165126D01*
X145640345Y-107204482D01*
X145640346Y-107204482D01*
X145829635Y-107204482D01*
X145829637Y-107204482D01*
X146014794Y-107165126D01*
X146187721Y-107088133D01*
X146340862Y-106976870D01*
X146467524Y-106836198D01*
X146562170Y-106672266D01*
X146620665Y-106492238D01*
X146627627Y-106426000D01*
X149716540Y-106426000D01*
X149736326Y-106614256D01*
X149736327Y-106614259D01*
X149794818Y-106794277D01*
X149794821Y-106794284D01*
X149889467Y-106958216D01*
X150006442Y-107088130D01*
X150016129Y-107098888D01*
X150169265Y-107210148D01*
X150169270Y-107210151D01*
X150342192Y-107287142D01*
X150342197Y-107287144D01*
X150527354Y-107326500D01*
X150527355Y-107326500D01*
X150716644Y-107326500D01*
X150716646Y-107326500D01*
X150901803Y-107287144D01*
X151074730Y-107210151D01*
X151227871Y-107098888D01*
X151354533Y-106958216D01*
X151449179Y-106794284D01*
X151507674Y-106614256D01*
X151527460Y-106426000D01*
X151507674Y-106237744D01*
X151479359Y-106150602D01*
X151477365Y-106080764D01*
X151513445Y-106020931D01*
X151576146Y-105990102D01*
X151623070Y-105990995D01*
X151738354Y-106015500D01*
X151738355Y-106015500D01*
X151881273Y-106015500D01*
X151948312Y-106035185D01*
X151994067Y-106087989D01*
X152004593Y-106152459D01*
X152002540Y-106172000D01*
X152022326Y-106360256D01*
X152022327Y-106360259D01*
X152080818Y-106540277D01*
X152080821Y-106540284D01*
X152175467Y-106704216D01*
X152302129Y-106844888D01*
X152455265Y-106956148D01*
X152455270Y-106956151D01*
X152628192Y-107033142D01*
X152628197Y-107033144D01*
X152813354Y-107072500D01*
X152813355Y-107072500D01*
X153002644Y-107072500D01*
X153002646Y-107072500D01*
X153187803Y-107033144D01*
X153360730Y-106956151D01*
X153513871Y-106844888D01*
X153640533Y-106704216D01*
X153735179Y-106540284D01*
X153793674Y-106360256D01*
X153813460Y-106172000D01*
X153793674Y-105983744D01*
X153735179Y-105803716D01*
X153690308Y-105725997D01*
X153673836Y-105658100D01*
X153690308Y-105602002D01*
X153735179Y-105524284D01*
X153793674Y-105344256D01*
X153813460Y-105156000D01*
X178926540Y-105156000D01*
X178946326Y-105344256D01*
X178946327Y-105344259D01*
X179004818Y-105524277D01*
X179004821Y-105524284D01*
X179099467Y-105688216D01*
X179226129Y-105828888D01*
X179379265Y-105940148D01*
X179379270Y-105940151D01*
X179552192Y-106017142D01*
X179552197Y-106017144D01*
X179737354Y-106056500D01*
X179737355Y-106056500D01*
X179926644Y-106056500D01*
X179926646Y-106056500D01*
X180111803Y-106017144D01*
X180284730Y-105940151D01*
X180437871Y-105828888D01*
X180564533Y-105688216D01*
X180659179Y-105524284D01*
X180717674Y-105344256D01*
X180737460Y-105156000D01*
X180717674Y-104967744D01*
X180659179Y-104787716D01*
X180564533Y-104623784D01*
X180437871Y-104483112D01*
X180437870Y-104483111D01*
X180284734Y-104371851D01*
X180284729Y-104371848D01*
X180111807Y-104294857D01*
X180111802Y-104294855D01*
X179966001Y-104263865D01*
X179926646Y-104255500D01*
X179737354Y-104255500D01*
X179704897Y-104262398D01*
X179552197Y-104294855D01*
X179552192Y-104294857D01*
X179379270Y-104371848D01*
X179379265Y-104371851D01*
X179226129Y-104483111D01*
X179099466Y-104623785D01*
X179004821Y-104787715D01*
X179004818Y-104787722D01*
X178946327Y-104967740D01*
X178946326Y-104967744D01*
X178926540Y-105156000D01*
X153813460Y-105156000D01*
X153793674Y-104967744D01*
X153735179Y-104787716D01*
X153640533Y-104623784D01*
X153513871Y-104483112D01*
X153513870Y-104483111D01*
X153360734Y-104371851D01*
X153360729Y-104371848D01*
X153187807Y-104294857D01*
X153187802Y-104294855D01*
X153042001Y-104263865D01*
X153002646Y-104255500D01*
X152813354Y-104255500D01*
X152780897Y-104262398D01*
X152628197Y-104294855D01*
X152628192Y-104294857D01*
X152450541Y-104373954D01*
X152381291Y-104383239D01*
X152327220Y-104360993D01*
X152285730Y-104330849D01*
X152285729Y-104330848D01*
X152112807Y-104253857D01*
X152112802Y-104253855D01*
X152080832Y-104247060D01*
X152019350Y-104213867D01*
X151985574Y-104152704D01*
X151990226Y-104082990D01*
X152031831Y-104026857D01*
X152080833Y-104004480D01*
X152171803Y-103985144D01*
X152344730Y-103908151D01*
X152497871Y-103796888D01*
X152624533Y-103656216D01*
X152719179Y-103492284D01*
X152777674Y-103312256D01*
X152797460Y-103124000D01*
X152777674Y-102935744D01*
X152719179Y-102755716D01*
X152624533Y-102591784D01*
X152497871Y-102451112D01*
X152497870Y-102451111D01*
X152344734Y-102339851D01*
X152344729Y-102339848D01*
X152171807Y-102262857D01*
X152171802Y-102262855D01*
X152026001Y-102231865D01*
X151986646Y-102223500D01*
X151797354Y-102223500D01*
X151764897Y-102230398D01*
X151612197Y-102262855D01*
X151612192Y-102262857D01*
X151439270Y-102339848D01*
X151439265Y-102339851D01*
X151286129Y-102451111D01*
X151159466Y-102591785D01*
X151064821Y-102755715D01*
X151064818Y-102755722D01*
X151020491Y-102892148D01*
X151006326Y-102935744D01*
X150986540Y-103124000D01*
X151006326Y-103312256D01*
X151006327Y-103312259D01*
X151064818Y-103492277D01*
X151064821Y-103492284D01*
X151159467Y-103656216D01*
X151279956Y-103790032D01*
X151286129Y-103796888D01*
X151439265Y-103908148D01*
X151439270Y-103908151D01*
X151612192Y-103985142D01*
X151612193Y-103985142D01*
X151612197Y-103985144D01*
X151644167Y-103991939D01*
X151705647Y-104025130D01*
X151739425Y-104086292D01*
X151734773Y-104156007D01*
X151693170Y-104212140D01*
X151644168Y-104234519D01*
X151553196Y-104253856D01*
X151553192Y-104253857D01*
X151380270Y-104330848D01*
X151380265Y-104330851D01*
X151227129Y-104442111D01*
X151100466Y-104582785D01*
X151005821Y-104746715D01*
X151005818Y-104746722D01*
X150947327Y-104926740D01*
X150947326Y-104926744D01*
X150927540Y-105115000D01*
X150947326Y-105303256D01*
X150947327Y-105303259D01*
X150975639Y-105390395D01*
X150977634Y-105460236D01*
X150941554Y-105520069D01*
X150878853Y-105550897D01*
X150831928Y-105550003D01*
X150716647Y-105525500D01*
X150716646Y-105525500D01*
X150527354Y-105525500D01*
X150494897Y-105532398D01*
X150342197Y-105564855D01*
X150342192Y-105564857D01*
X150169270Y-105641848D01*
X150169265Y-105641851D01*
X150016129Y-105753111D01*
X149889466Y-105893785D01*
X149794821Y-106057715D01*
X149794818Y-106057722D01*
X149739019Y-106229455D01*
X149736326Y-106237744D01*
X149716540Y-106426000D01*
X146627627Y-106426000D01*
X146640451Y-106303982D01*
X146620665Y-106115726D01*
X146562170Y-105935698D01*
X146467524Y-105771766D01*
X146340862Y-105631094D01*
X146300817Y-105602000D01*
X146240247Y-105557993D01*
X146197581Y-105502663D01*
X146189811Y-105444715D01*
X146193460Y-105410000D01*
X146173674Y-105221744D01*
X146115179Y-105041716D01*
X146020533Y-104877784D01*
X145893871Y-104737112D01*
X145893870Y-104737111D01*
X145740734Y-104625851D01*
X145740729Y-104625848D01*
X145567807Y-104548857D01*
X145567802Y-104548855D01*
X145422001Y-104517865D01*
X145382646Y-104509500D01*
X145193354Y-104509500D01*
X145160897Y-104516398D01*
X145008197Y-104548855D01*
X145008192Y-104548857D01*
X144835270Y-104625848D01*
X144835265Y-104625851D01*
X144682129Y-104737111D01*
X144555466Y-104877785D01*
X144460821Y-105041715D01*
X144460818Y-105041722D01*
X144402327Y-105221740D01*
X144402326Y-105221744D01*
X144382540Y-105410000D01*
X127999228Y-105410000D01*
X128019903Y-105365663D01*
X128081063Y-105137408D01*
X128101659Y-104902000D01*
X128081063Y-104666592D01*
X128031900Y-104483111D01*
X128019905Y-104438344D01*
X128019904Y-104438343D01*
X128019903Y-104438337D01*
X127920035Y-104224171D01*
X127913264Y-104214500D01*
X127784494Y-104030597D01*
X127617402Y-103863506D01*
X127617396Y-103863501D01*
X127431842Y-103733575D01*
X127388217Y-103678998D01*
X127381023Y-103609500D01*
X127412546Y-103547145D01*
X127431842Y-103530425D01*
X127455493Y-103513864D01*
X127617401Y-103400495D01*
X127639896Y-103378000D01*
X144890540Y-103378000D01*
X144910326Y-103566256D01*
X144910327Y-103566259D01*
X144968818Y-103746277D01*
X144968821Y-103746284D01*
X145063467Y-103910216D01*
X145118791Y-103971659D01*
X145190129Y-104050888D01*
X145343265Y-104162148D01*
X145343270Y-104162151D01*
X145516192Y-104239142D01*
X145516197Y-104239144D01*
X145701354Y-104278500D01*
X145701355Y-104278500D01*
X145890644Y-104278500D01*
X145890646Y-104278500D01*
X146075803Y-104239144D01*
X146248730Y-104162151D01*
X146401871Y-104050888D01*
X146528533Y-103910216D01*
X146623179Y-103746284D01*
X146681674Y-103566256D01*
X146701460Y-103378000D01*
X146681674Y-103189744D01*
X146623179Y-103009716D01*
X146528533Y-102845784D01*
X146401871Y-102705112D01*
X146401870Y-102705111D01*
X146248734Y-102593851D01*
X146248729Y-102593848D01*
X146075807Y-102516857D01*
X146075802Y-102516855D01*
X145930001Y-102485865D01*
X145890646Y-102477500D01*
X145701354Y-102477500D01*
X145668897Y-102484398D01*
X145516197Y-102516855D01*
X145516192Y-102516857D01*
X145343270Y-102593848D01*
X145343265Y-102593851D01*
X145190129Y-102705111D01*
X145063466Y-102845785D01*
X144968821Y-103009715D01*
X144968818Y-103009722D01*
X144924491Y-103146148D01*
X144910326Y-103189744D01*
X144890540Y-103378000D01*
X127639896Y-103378000D01*
X127784495Y-103233401D01*
X127920035Y-103039830D01*
X128019903Y-102825663D01*
X128081063Y-102597408D01*
X128101659Y-102362000D01*
X128081063Y-102126592D01*
X128029593Y-101934500D01*
X128019905Y-101898344D01*
X128019904Y-101898343D01*
X128019903Y-101898337D01*
X127920035Y-101684171D01*
X127914548Y-101676335D01*
X127861098Y-101600000D01*
X141080540Y-101600000D01*
X141100326Y-101788256D01*
X141100327Y-101788259D01*
X141158818Y-101968277D01*
X141158821Y-101968284D01*
X141253467Y-102132216D01*
X141335660Y-102223500D01*
X141380129Y-102272888D01*
X141533265Y-102384148D01*
X141533270Y-102384151D01*
X141706192Y-102461142D01*
X141706197Y-102461144D01*
X141891354Y-102500500D01*
X141891355Y-102500500D01*
X142080644Y-102500500D01*
X142080646Y-102500500D01*
X142265803Y-102461144D01*
X142438730Y-102384151D01*
X142591871Y-102272888D01*
X142718533Y-102132216D01*
X142732514Y-102108000D01*
X155304540Y-102108000D01*
X155324326Y-102296256D01*
X155324327Y-102296259D01*
X155382818Y-102476277D01*
X155382821Y-102476284D01*
X155477467Y-102640216D01*
X155604129Y-102780888D01*
X155757265Y-102892148D01*
X155757270Y-102892151D01*
X155930192Y-102969142D01*
X155930197Y-102969144D01*
X156115354Y-103008500D01*
X156115355Y-103008500D01*
X156304644Y-103008500D01*
X156304646Y-103008500D01*
X156489803Y-102969144D01*
X156662730Y-102892151D01*
X156815871Y-102780888D01*
X156942533Y-102640216D01*
X157037179Y-102476284D01*
X157074312Y-102362000D01*
X165972540Y-102362000D01*
X165992326Y-102550256D01*
X165992327Y-102550259D01*
X166050818Y-102730277D01*
X166050821Y-102730284D01*
X166145467Y-102894216D01*
X166272129Y-103034888D01*
X166425265Y-103146148D01*
X166425270Y-103146151D01*
X166598192Y-103223142D01*
X166598197Y-103223144D01*
X166783354Y-103262500D01*
X166783355Y-103262500D01*
X166972644Y-103262500D01*
X166972646Y-103262500D01*
X167157803Y-103223144D01*
X167330730Y-103146151D01*
X167361218Y-103124000D01*
X173338540Y-103124000D01*
X173358326Y-103312256D01*
X173358327Y-103312259D01*
X173416818Y-103492277D01*
X173416821Y-103492284D01*
X173511467Y-103656216D01*
X173631956Y-103790032D01*
X173638129Y-103796888D01*
X173791265Y-103908148D01*
X173791270Y-103908151D01*
X173964192Y-103985142D01*
X173964197Y-103985144D01*
X174149354Y-104024500D01*
X174149355Y-104024500D01*
X174230750Y-104024500D01*
X174297789Y-104044185D01*
X174343544Y-104096989D01*
X174354071Y-104135538D01*
X174354540Y-104140000D01*
X174374326Y-104328256D01*
X174374327Y-104328259D01*
X174432818Y-104508277D01*
X174432821Y-104508284D01*
X174527467Y-104672216D01*
X174654129Y-104812888D01*
X174807265Y-104924148D01*
X174807270Y-104924151D01*
X174980192Y-105001142D01*
X174980197Y-105001144D01*
X175165354Y-105040500D01*
X175165355Y-105040500D01*
X175354644Y-105040500D01*
X175354646Y-105040500D01*
X175539803Y-105001144D01*
X175712730Y-104924151D01*
X175865871Y-104812888D01*
X175992533Y-104672216D01*
X176087179Y-104508284D01*
X176145674Y-104328256D01*
X176165460Y-104140000D01*
X176145674Y-103951744D01*
X176087179Y-103771716D01*
X175992533Y-103607784D01*
X175865871Y-103467112D01*
X175865870Y-103467111D01*
X175712734Y-103355851D01*
X175712729Y-103355848D01*
X175539807Y-103278857D01*
X175539802Y-103278855D01*
X175383316Y-103245594D01*
X175354646Y-103239500D01*
X175273250Y-103239500D01*
X175206211Y-103219815D01*
X175160456Y-103167011D01*
X175149929Y-103128462D01*
X175149460Y-103124000D01*
X175129674Y-102935744D01*
X175071179Y-102755716D01*
X174976533Y-102591784D01*
X174849871Y-102451112D01*
X174849870Y-102451111D01*
X174696734Y-102339851D01*
X174696729Y-102339848D01*
X174523807Y-102262857D01*
X174523802Y-102262855D01*
X174378001Y-102231865D01*
X174338646Y-102223500D01*
X174149354Y-102223500D01*
X174116897Y-102230398D01*
X173964197Y-102262855D01*
X173964192Y-102262857D01*
X173791270Y-102339848D01*
X173791265Y-102339851D01*
X173638129Y-102451111D01*
X173511466Y-102591785D01*
X173416821Y-102755715D01*
X173416818Y-102755722D01*
X173372491Y-102892148D01*
X173358326Y-102935744D01*
X173338540Y-103124000D01*
X167361218Y-103124000D01*
X167483871Y-103034888D01*
X167610533Y-102894216D01*
X167705179Y-102730284D01*
X167763674Y-102550256D01*
X167783460Y-102362000D01*
X167763674Y-102173744D01*
X167742312Y-102108000D01*
X178926540Y-102108000D01*
X178946326Y-102296256D01*
X178946327Y-102296259D01*
X179004818Y-102476277D01*
X179004821Y-102476284D01*
X179099467Y-102640216D01*
X179226129Y-102780888D01*
X179379265Y-102892148D01*
X179379270Y-102892151D01*
X179552192Y-102969142D01*
X179552197Y-102969144D01*
X179737354Y-103008500D01*
X179737355Y-103008500D01*
X179926644Y-103008500D01*
X179926646Y-103008500D01*
X180111803Y-102969144D01*
X180284730Y-102892151D01*
X180437871Y-102780888D01*
X180564533Y-102640216D01*
X180578514Y-102616000D01*
X182286341Y-102616000D01*
X182306936Y-102851403D01*
X182306938Y-102851413D01*
X182368094Y-103079655D01*
X182368096Y-103079659D01*
X182368097Y-103079663D01*
X182460983Y-103278857D01*
X182467965Y-103293830D01*
X182467967Y-103293834D01*
X182542655Y-103400498D01*
X182603505Y-103487401D01*
X182770599Y-103654495D01*
X182859658Y-103716855D01*
X182964165Y-103790032D01*
X182964167Y-103790033D01*
X182964170Y-103790035D01*
X183178337Y-103889903D01*
X183406592Y-103951063D01*
X183583034Y-103966500D01*
X183641999Y-103971659D01*
X183642000Y-103971659D01*
X183642001Y-103971659D01*
X183700966Y-103966500D01*
X183877408Y-103951063D01*
X184105663Y-103889903D01*
X184319830Y-103790035D01*
X184513401Y-103654495D01*
X184680495Y-103487401D01*
X184810425Y-103301842D01*
X184865002Y-103258217D01*
X184934500Y-103251023D01*
X184996855Y-103282546D01*
X185013575Y-103301842D01*
X185143500Y-103487395D01*
X185143505Y-103487401D01*
X185310599Y-103654495D01*
X185399658Y-103716855D01*
X185504165Y-103790032D01*
X185504167Y-103790033D01*
X185504170Y-103790035D01*
X185718337Y-103889903D01*
X185946592Y-103951063D01*
X186123034Y-103966500D01*
X186181999Y-103971659D01*
X186182000Y-103971659D01*
X186182001Y-103971659D01*
X186240966Y-103966500D01*
X186417408Y-103951063D01*
X186645663Y-103889903D01*
X186859830Y-103790035D01*
X187053401Y-103654495D01*
X187220495Y-103487401D01*
X187350425Y-103301842D01*
X187405002Y-103258217D01*
X187474500Y-103251023D01*
X187536855Y-103282546D01*
X187553575Y-103301842D01*
X187683500Y-103487395D01*
X187683505Y-103487401D01*
X187850599Y-103654495D01*
X187939658Y-103716855D01*
X188044165Y-103790032D01*
X188044167Y-103790033D01*
X188044170Y-103790035D01*
X188258337Y-103889903D01*
X188486592Y-103951063D01*
X188663034Y-103966500D01*
X188721999Y-103971659D01*
X188722000Y-103971659D01*
X188722001Y-103971659D01*
X188780966Y-103966500D01*
X188957408Y-103951063D01*
X189185663Y-103889903D01*
X189399830Y-103790035D01*
X189593401Y-103654495D01*
X189760495Y-103487401D01*
X189890425Y-103301842D01*
X189945002Y-103258217D01*
X190014500Y-103251023D01*
X190076855Y-103282546D01*
X190093575Y-103301842D01*
X190223500Y-103487395D01*
X190223505Y-103487401D01*
X190390599Y-103654495D01*
X190479658Y-103716855D01*
X190584165Y-103790032D01*
X190584167Y-103790033D01*
X190584170Y-103790035D01*
X190798337Y-103889903D01*
X191026592Y-103951063D01*
X191203034Y-103966500D01*
X191261999Y-103971659D01*
X191262000Y-103971659D01*
X191262001Y-103971659D01*
X191320966Y-103966500D01*
X191497408Y-103951063D01*
X191725663Y-103889903D01*
X191939830Y-103790035D01*
X192133401Y-103654495D01*
X192300495Y-103487401D01*
X192430425Y-103301842D01*
X192485002Y-103258217D01*
X192554500Y-103251023D01*
X192616855Y-103282546D01*
X192633575Y-103301842D01*
X192763500Y-103487395D01*
X192763505Y-103487401D01*
X192930599Y-103654495D01*
X193019658Y-103716855D01*
X193124165Y-103790032D01*
X193124167Y-103790033D01*
X193124170Y-103790035D01*
X193338337Y-103889903D01*
X193566592Y-103951063D01*
X193743034Y-103966500D01*
X193801999Y-103971659D01*
X193802000Y-103971659D01*
X193802001Y-103971659D01*
X193860966Y-103966500D01*
X194037408Y-103951063D01*
X194265663Y-103889903D01*
X194479830Y-103790035D01*
X194673401Y-103654495D01*
X194795329Y-103532566D01*
X194856648Y-103499084D01*
X194926340Y-103504068D01*
X194982274Y-103545939D01*
X194999189Y-103576917D01*
X195048202Y-103708328D01*
X195048206Y-103708335D01*
X195134452Y-103823544D01*
X195134455Y-103823547D01*
X195249664Y-103909793D01*
X195249671Y-103909797D01*
X195384517Y-103960091D01*
X195384516Y-103960091D01*
X195391444Y-103960835D01*
X195444127Y-103966500D01*
X197239872Y-103966499D01*
X197299483Y-103960091D01*
X197434331Y-103909796D01*
X197549546Y-103823546D01*
X197635796Y-103708331D01*
X197686091Y-103573483D01*
X197692500Y-103513873D01*
X197692499Y-101718128D01*
X197686091Y-101658517D01*
X197684810Y-101655083D01*
X197635797Y-101523671D01*
X197635793Y-101523664D01*
X197604506Y-101481870D01*
X201849500Y-101481870D01*
X201849501Y-101481876D01*
X201855908Y-101541483D01*
X201906202Y-101676328D01*
X201906206Y-101676335D01*
X201992452Y-101791544D01*
X201992455Y-101791547D01*
X202107664Y-101877793D01*
X202107671Y-101877797D01*
X202242517Y-101928091D01*
X202242516Y-101928091D01*
X202249444Y-101928835D01*
X202302127Y-101934500D01*
X204097872Y-101934499D01*
X204157483Y-101928091D01*
X204292331Y-101877796D01*
X204407546Y-101791546D01*
X204493796Y-101676331D01*
X204544091Y-101541483D01*
X204550500Y-101481873D01*
X204550499Y-99686128D01*
X204544091Y-99626517D01*
X204493796Y-99491669D01*
X204493795Y-99491668D01*
X204493793Y-99491664D01*
X204407547Y-99376455D01*
X204407544Y-99376452D01*
X204292335Y-99290206D01*
X204292328Y-99290202D01*
X204157482Y-99239908D01*
X204157483Y-99239908D01*
X204097883Y-99233501D01*
X204097881Y-99233500D01*
X204097873Y-99233500D01*
X204097864Y-99233500D01*
X202302129Y-99233500D01*
X202302123Y-99233501D01*
X202242516Y-99239908D01*
X202107671Y-99290202D01*
X202107664Y-99290206D01*
X201992455Y-99376452D01*
X201992452Y-99376455D01*
X201906206Y-99491664D01*
X201906202Y-99491671D01*
X201855908Y-99626517D01*
X201849782Y-99683500D01*
X201849501Y-99686123D01*
X201849500Y-99686135D01*
X201849500Y-101481870D01*
X197604506Y-101481870D01*
X197549547Y-101408455D01*
X197549544Y-101408452D01*
X197434335Y-101322206D01*
X197434328Y-101322202D01*
X197299482Y-101271908D01*
X197299483Y-101271908D01*
X197239883Y-101265501D01*
X197239881Y-101265500D01*
X197239873Y-101265500D01*
X197239864Y-101265500D01*
X195444129Y-101265500D01*
X195444123Y-101265501D01*
X195384516Y-101271908D01*
X195249671Y-101322202D01*
X195249664Y-101322206D01*
X195134455Y-101408452D01*
X195134452Y-101408455D01*
X195048206Y-101523664D01*
X195048203Y-101523669D01*
X194999189Y-101655083D01*
X194957317Y-101711016D01*
X194891853Y-101735433D01*
X194823580Y-101720581D01*
X194795326Y-101699430D01*
X194673402Y-101577506D01*
X194673395Y-101577501D01*
X194670944Y-101575785D01*
X194596518Y-101523671D01*
X194479834Y-101441967D01*
X194479830Y-101441965D01*
X194415012Y-101411740D01*
X194265663Y-101342097D01*
X194265659Y-101342096D01*
X194265655Y-101342094D01*
X194037413Y-101280938D01*
X194037403Y-101280936D01*
X193802001Y-101260341D01*
X193801999Y-101260341D01*
X193566596Y-101280936D01*
X193566586Y-101280938D01*
X193338344Y-101342094D01*
X193338335Y-101342098D01*
X193124171Y-101441964D01*
X193124169Y-101441965D01*
X192930597Y-101577505D01*
X192763505Y-101744597D01*
X192633575Y-101930158D01*
X192578998Y-101973783D01*
X192509500Y-101980977D01*
X192447145Y-101949454D01*
X192430425Y-101930158D01*
X192300494Y-101744597D01*
X192133402Y-101577506D01*
X192133395Y-101577501D01*
X192130944Y-101575785D01*
X192056518Y-101523671D01*
X191939834Y-101441967D01*
X191939830Y-101441965D01*
X191875012Y-101411740D01*
X191725663Y-101342097D01*
X191725659Y-101342096D01*
X191725655Y-101342094D01*
X191497413Y-101280938D01*
X191497403Y-101280936D01*
X191262001Y-101260341D01*
X191261999Y-101260341D01*
X191026596Y-101280936D01*
X191026586Y-101280938D01*
X190798344Y-101342094D01*
X190798335Y-101342098D01*
X190584171Y-101441964D01*
X190584169Y-101441965D01*
X190390597Y-101577505D01*
X190223505Y-101744597D01*
X190093575Y-101930158D01*
X190038998Y-101973783D01*
X189969500Y-101980977D01*
X189907145Y-101949454D01*
X189890425Y-101930158D01*
X189760494Y-101744597D01*
X189593402Y-101577506D01*
X189593395Y-101577501D01*
X189590944Y-101575785D01*
X189516518Y-101523671D01*
X189399834Y-101441967D01*
X189399830Y-101441965D01*
X189335012Y-101411740D01*
X189185663Y-101342097D01*
X189185659Y-101342096D01*
X189185655Y-101342094D01*
X188957413Y-101280938D01*
X188957403Y-101280936D01*
X188722001Y-101260341D01*
X188721999Y-101260341D01*
X188486596Y-101280936D01*
X188486586Y-101280938D01*
X188258344Y-101342094D01*
X188258335Y-101342098D01*
X188044171Y-101441964D01*
X188044169Y-101441965D01*
X187850597Y-101577505D01*
X187683505Y-101744597D01*
X187553575Y-101930158D01*
X187498998Y-101973783D01*
X187429500Y-101980977D01*
X187367145Y-101949454D01*
X187350425Y-101930158D01*
X187220494Y-101744597D01*
X187053402Y-101577506D01*
X187053395Y-101577501D01*
X187050944Y-101575785D01*
X186976518Y-101523671D01*
X186859834Y-101441967D01*
X186859830Y-101441965D01*
X186795012Y-101411740D01*
X186645663Y-101342097D01*
X186645659Y-101342096D01*
X186645655Y-101342094D01*
X186417413Y-101280938D01*
X186417403Y-101280936D01*
X186182001Y-101260341D01*
X186181999Y-101260341D01*
X185946596Y-101280936D01*
X185946586Y-101280938D01*
X185718344Y-101342094D01*
X185718335Y-101342098D01*
X185504171Y-101441964D01*
X185504169Y-101441965D01*
X185310597Y-101577505D01*
X185143505Y-101744597D01*
X185013575Y-101930158D01*
X184958998Y-101973783D01*
X184889500Y-101980977D01*
X184827145Y-101949454D01*
X184810425Y-101930158D01*
X184680494Y-101744597D01*
X184513402Y-101577506D01*
X184513395Y-101577501D01*
X184510944Y-101575785D01*
X184436518Y-101523671D01*
X184319834Y-101441967D01*
X184319830Y-101441965D01*
X184255012Y-101411740D01*
X184105663Y-101342097D01*
X184105659Y-101342096D01*
X184105655Y-101342094D01*
X183877413Y-101280938D01*
X183877403Y-101280936D01*
X183642001Y-101260341D01*
X183641999Y-101260341D01*
X183406596Y-101280936D01*
X183406586Y-101280938D01*
X183178344Y-101342094D01*
X183178335Y-101342098D01*
X182964171Y-101441964D01*
X182964169Y-101441965D01*
X182770597Y-101577505D01*
X182603505Y-101744597D01*
X182467965Y-101938169D01*
X182467964Y-101938171D01*
X182368098Y-102152335D01*
X182368094Y-102152344D01*
X182306938Y-102380586D01*
X182306936Y-102380596D01*
X182286341Y-102615999D01*
X182286341Y-102616000D01*
X180578514Y-102616000D01*
X180659179Y-102476284D01*
X180717674Y-102296256D01*
X180737460Y-102108000D01*
X180717674Y-101919744D01*
X180659179Y-101739716D01*
X180564533Y-101575784D01*
X180437871Y-101435112D01*
X180405708Y-101411744D01*
X180284734Y-101323851D01*
X180284729Y-101323848D01*
X180111807Y-101246857D01*
X180111802Y-101246855D01*
X179966001Y-101215865D01*
X179926646Y-101207500D01*
X179737354Y-101207500D01*
X179704897Y-101214398D01*
X179552197Y-101246855D01*
X179552192Y-101246857D01*
X179379270Y-101323848D01*
X179379265Y-101323851D01*
X179226129Y-101435111D01*
X179099466Y-101575785D01*
X179004821Y-101739715D01*
X179004818Y-101739722D01*
X178953279Y-101898344D01*
X178946326Y-101919744D01*
X178926540Y-102108000D01*
X167742312Y-102108000D01*
X167705179Y-101993716D01*
X167610533Y-101829784D01*
X167483871Y-101689112D01*
X167483870Y-101689111D01*
X167330734Y-101577851D01*
X167330729Y-101577848D01*
X167157807Y-101500857D01*
X167157802Y-101500855D01*
X167012001Y-101469865D01*
X166972646Y-101461500D01*
X166783354Y-101461500D01*
X166750897Y-101468398D01*
X166598197Y-101500855D01*
X166598192Y-101500857D01*
X166425270Y-101577848D01*
X166425265Y-101577851D01*
X166272129Y-101689111D01*
X166145466Y-101829785D01*
X166050821Y-101993715D01*
X166050818Y-101993722D01*
X165999279Y-102152344D01*
X165992326Y-102173744D01*
X165972540Y-102362000D01*
X157074312Y-102362000D01*
X157095674Y-102296256D01*
X157115460Y-102108000D01*
X157095674Y-101919744D01*
X157037179Y-101739716D01*
X156942533Y-101575784D01*
X156815871Y-101435112D01*
X156783708Y-101411744D01*
X156662734Y-101323851D01*
X156662729Y-101323848D01*
X156489807Y-101246857D01*
X156489802Y-101246855D01*
X156344001Y-101215865D01*
X156304646Y-101207500D01*
X156115354Y-101207500D01*
X156082897Y-101214398D01*
X155930197Y-101246855D01*
X155930192Y-101246857D01*
X155757270Y-101323848D01*
X155757265Y-101323851D01*
X155604129Y-101435111D01*
X155477466Y-101575785D01*
X155382821Y-101739715D01*
X155382818Y-101739722D01*
X155331279Y-101898344D01*
X155324326Y-101919744D01*
X155304540Y-102108000D01*
X142732514Y-102108000D01*
X142813179Y-101968284D01*
X142860001Y-101824182D01*
X142899439Y-101766506D01*
X142963797Y-101739308D01*
X142977932Y-101738500D01*
X143096644Y-101738500D01*
X143096646Y-101738500D01*
X143281803Y-101699144D01*
X143454730Y-101622151D01*
X143607871Y-101510888D01*
X143734533Y-101370216D01*
X143829179Y-101206284D01*
X143887674Y-101026256D01*
X143907460Y-100838000D01*
X167496540Y-100838000D01*
X167516326Y-101026256D01*
X167516327Y-101026259D01*
X167574818Y-101206277D01*
X167574821Y-101206284D01*
X167669467Y-101370216D01*
X167770013Y-101481883D01*
X167796129Y-101510888D01*
X167949265Y-101622148D01*
X167949270Y-101622151D01*
X168122192Y-101699142D01*
X168122197Y-101699144D01*
X168307354Y-101738500D01*
X168307355Y-101738500D01*
X168496644Y-101738500D01*
X168496646Y-101738500D01*
X168681803Y-101699144D01*
X168854730Y-101622151D01*
X169007871Y-101510888D01*
X169134533Y-101370216D01*
X169229179Y-101206284D01*
X169287674Y-101026256D01*
X169307460Y-100838000D01*
X169287674Y-100649744D01*
X169266312Y-100584000D01*
X169782540Y-100584000D01*
X169802326Y-100772256D01*
X169802327Y-100772259D01*
X169860818Y-100952277D01*
X169860821Y-100952284D01*
X169955467Y-101116216D01*
X170064815Y-101237659D01*
X170082129Y-101256888D01*
X170235265Y-101368148D01*
X170235270Y-101368151D01*
X170408192Y-101445142D01*
X170408197Y-101445144D01*
X170593354Y-101484500D01*
X170593355Y-101484500D01*
X170782644Y-101484500D01*
X170782646Y-101484500D01*
X170967803Y-101445144D01*
X171140730Y-101368151D01*
X171293871Y-101256888D01*
X171420533Y-101116216D01*
X171515179Y-100952284D01*
X171573674Y-100772256D01*
X171593460Y-100584000D01*
X171573674Y-100395744D01*
X171515179Y-100215716D01*
X171420533Y-100051784D01*
X171293871Y-99911112D01*
X171287647Y-99906590D01*
X171140734Y-99799851D01*
X171140729Y-99799848D01*
X170967807Y-99722857D01*
X170967802Y-99722855D01*
X170822001Y-99691865D01*
X170782646Y-99683500D01*
X170593354Y-99683500D01*
X170560897Y-99690398D01*
X170408197Y-99722855D01*
X170408192Y-99722857D01*
X170235270Y-99799848D01*
X170235265Y-99799851D01*
X170082129Y-99911111D01*
X169955466Y-100051785D01*
X169860821Y-100215715D01*
X169860818Y-100215722D01*
X169802327Y-100395740D01*
X169802326Y-100395744D01*
X169782540Y-100584000D01*
X169266312Y-100584000D01*
X169229179Y-100469716D01*
X169134533Y-100305784D01*
X169007871Y-100165112D01*
X168946037Y-100120187D01*
X168903373Y-100064858D01*
X168897394Y-99995244D01*
X168930000Y-99933450D01*
X168968481Y-99906594D01*
X169108730Y-99844151D01*
X169261871Y-99732888D01*
X169388533Y-99592216D01*
X169483179Y-99428284D01*
X169541674Y-99248256D01*
X169561460Y-99060000D01*
X178926540Y-99060000D01*
X178946326Y-99248256D01*
X178946327Y-99248259D01*
X179004818Y-99428277D01*
X179004821Y-99428284D01*
X179099467Y-99592216D01*
X179217095Y-99722855D01*
X179226129Y-99732888D01*
X179379265Y-99844148D01*
X179379270Y-99844151D01*
X179552192Y-99921142D01*
X179552197Y-99921144D01*
X179737354Y-99960500D01*
X179737355Y-99960500D01*
X179926644Y-99960500D01*
X179926646Y-99960500D01*
X180111803Y-99921144D01*
X180284730Y-99844151D01*
X180437871Y-99732888D01*
X180564533Y-99592216D01*
X180659179Y-99428284D01*
X180717674Y-99248256D01*
X180737460Y-99060000D01*
X180717674Y-98871744D01*
X180659179Y-98691716D01*
X180564533Y-98527784D01*
X180437871Y-98387112D01*
X180437870Y-98387111D01*
X180284734Y-98275851D01*
X180284729Y-98275848D01*
X180111807Y-98198857D01*
X180111802Y-98198855D01*
X179966001Y-98167865D01*
X179926646Y-98159500D01*
X179737354Y-98159500D01*
X179704897Y-98166398D01*
X179552197Y-98198855D01*
X179552192Y-98198857D01*
X179379270Y-98275848D01*
X179379265Y-98275851D01*
X179226129Y-98387111D01*
X179099466Y-98527785D01*
X179004821Y-98691715D01*
X179004818Y-98691722D01*
X178948674Y-98864517D01*
X178946326Y-98871744D01*
X178926540Y-99060000D01*
X169561460Y-99060000D01*
X169541674Y-98871744D01*
X169483179Y-98691716D01*
X169388533Y-98527784D01*
X169261871Y-98387112D01*
X169261870Y-98387111D01*
X169108734Y-98275851D01*
X169108729Y-98275848D01*
X168935807Y-98198857D01*
X168935802Y-98198855D01*
X168790001Y-98167865D01*
X168750646Y-98159500D01*
X168561354Y-98159500D01*
X168528897Y-98166398D01*
X168376197Y-98198855D01*
X168376192Y-98198857D01*
X168203270Y-98275848D01*
X168203265Y-98275851D01*
X168050129Y-98387111D01*
X167923466Y-98527785D01*
X167828821Y-98691715D01*
X167828818Y-98691722D01*
X167772674Y-98864517D01*
X167770326Y-98871744D01*
X167750540Y-99060000D01*
X167770326Y-99248256D01*
X167770327Y-99248259D01*
X167828818Y-99428277D01*
X167828821Y-99428284D01*
X167923467Y-99592216D01*
X168041095Y-99722855D01*
X168050129Y-99732888D01*
X168111960Y-99777811D01*
X168154626Y-99833141D01*
X168160605Y-99902754D01*
X168127999Y-99964549D01*
X168089512Y-99991408D01*
X167949267Y-100053850D01*
X167949265Y-100053851D01*
X167796129Y-100165111D01*
X167669466Y-100305785D01*
X167574821Y-100469715D01*
X167574818Y-100469722D01*
X167527999Y-100613818D01*
X167516326Y-100649744D01*
X167496540Y-100838000D01*
X143907460Y-100838000D01*
X143887674Y-100649744D01*
X143829179Y-100469716D01*
X143734533Y-100305784D01*
X143607871Y-100165112D01*
X143607870Y-100165111D01*
X143454734Y-100053851D01*
X143454729Y-100053848D01*
X143281807Y-99976857D01*
X143281802Y-99976855D01*
X143136001Y-99945865D01*
X143096646Y-99937500D01*
X142907354Y-99937500D01*
X142874897Y-99944398D01*
X142722197Y-99976855D01*
X142722192Y-99976857D01*
X142549270Y-100053848D01*
X142549265Y-100053851D01*
X142396129Y-100165111D01*
X142269466Y-100305785D01*
X142174821Y-100469715D01*
X142174818Y-100469722D01*
X142127999Y-100613818D01*
X142088561Y-100671494D01*
X142024203Y-100698692D01*
X142010068Y-100699500D01*
X141891354Y-100699500D01*
X141858897Y-100706398D01*
X141706197Y-100738855D01*
X141706192Y-100738857D01*
X141533270Y-100815848D01*
X141533265Y-100815851D01*
X141380129Y-100927111D01*
X141253466Y-101067785D01*
X141158821Y-101231715D01*
X141158818Y-101231722D01*
X141100327Y-101411740D01*
X141100326Y-101411744D01*
X141080540Y-101600000D01*
X127861098Y-101600000D01*
X127784496Y-101490600D01*
X127729007Y-101435111D01*
X127662567Y-101368671D01*
X127629084Y-101307351D01*
X127634068Y-101237659D01*
X127675939Y-101181725D01*
X127706915Y-101164810D01*
X127838331Y-101115796D01*
X127953546Y-101029546D01*
X128039796Y-100914331D01*
X128090091Y-100779483D01*
X128096500Y-100719873D01*
X128096500Y-100584000D01*
X138286540Y-100584000D01*
X138306326Y-100772256D01*
X138306327Y-100772259D01*
X138364818Y-100952277D01*
X138364821Y-100952284D01*
X138459467Y-101116216D01*
X138568815Y-101237659D01*
X138586129Y-101256888D01*
X138739265Y-101368148D01*
X138739270Y-101368151D01*
X138912192Y-101445142D01*
X138912197Y-101445144D01*
X139097354Y-101484500D01*
X139097355Y-101484500D01*
X139286644Y-101484500D01*
X139286646Y-101484500D01*
X139471803Y-101445144D01*
X139644730Y-101368151D01*
X139797871Y-101256888D01*
X139924533Y-101116216D01*
X140019179Y-100952284D01*
X140077674Y-100772256D01*
X140097460Y-100584000D01*
X140077674Y-100395744D01*
X140019179Y-100215716D01*
X139924533Y-100051784D01*
X139797871Y-99911112D01*
X139791647Y-99906590D01*
X139644734Y-99799851D01*
X139644729Y-99799848D01*
X139471807Y-99722857D01*
X139471802Y-99722855D01*
X139326001Y-99691865D01*
X139286646Y-99683500D01*
X139097354Y-99683500D01*
X139064897Y-99690398D01*
X138912197Y-99722855D01*
X138912192Y-99722857D01*
X138739270Y-99799848D01*
X138739265Y-99799851D01*
X138586129Y-99911111D01*
X138459466Y-100051785D01*
X138364821Y-100215715D01*
X138364818Y-100215722D01*
X138306327Y-100395740D01*
X138306326Y-100395744D01*
X138286540Y-100584000D01*
X128096500Y-100584000D01*
X128096499Y-98924128D01*
X128090091Y-98864517D01*
X128039796Y-98729669D01*
X128039795Y-98729668D01*
X128039793Y-98729664D01*
X127953547Y-98614455D01*
X127953544Y-98614452D01*
X127838335Y-98528206D01*
X127838328Y-98528202D01*
X127703482Y-98477908D01*
X127703483Y-98477908D01*
X127643883Y-98471501D01*
X127643881Y-98471500D01*
X127643873Y-98471500D01*
X127643864Y-98471500D01*
X125848129Y-98471500D01*
X125848123Y-98471501D01*
X125788516Y-98477908D01*
X125653671Y-98528202D01*
X125653664Y-98528206D01*
X125538455Y-98614452D01*
X125538452Y-98614455D01*
X125452206Y-98729664D01*
X125452202Y-98729671D01*
X125401908Y-98864517D01*
X125395501Y-98924116D01*
X125395501Y-98924123D01*
X125395500Y-98924135D01*
X125395500Y-100719870D01*
X125395501Y-100719876D01*
X125401908Y-100779483D01*
X125452202Y-100914328D01*
X125452206Y-100914335D01*
X125538452Y-101029544D01*
X125538455Y-101029547D01*
X125653664Y-101115793D01*
X125653671Y-101115797D01*
X125785081Y-101164810D01*
X125841015Y-101206681D01*
X125865432Y-101272145D01*
X125850580Y-101340418D01*
X125829430Y-101368673D01*
X125707503Y-101490600D01*
X125571965Y-101684169D01*
X125571964Y-101684171D01*
X125472098Y-101898335D01*
X125472094Y-101898344D01*
X125410938Y-102126586D01*
X125410936Y-102126596D01*
X125390341Y-102361999D01*
X125390341Y-102362000D01*
X125410936Y-102597403D01*
X125410938Y-102597413D01*
X125472094Y-102825655D01*
X125472096Y-102825659D01*
X125472097Y-102825663D01*
X125557356Y-103008500D01*
X125571965Y-103039830D01*
X125571967Y-103039834D01*
X125707501Y-103233395D01*
X125707506Y-103233402D01*
X125874597Y-103400493D01*
X125874603Y-103400498D01*
X126060158Y-103530425D01*
X126103783Y-103585002D01*
X126110977Y-103654500D01*
X126079454Y-103716855D01*
X126060158Y-103733575D01*
X125874597Y-103863505D01*
X125707505Y-104030597D01*
X125571965Y-104224169D01*
X125571964Y-104224171D01*
X125472098Y-104438335D01*
X125472094Y-104438344D01*
X125410938Y-104666586D01*
X125410936Y-104666596D01*
X125390341Y-104901999D01*
X125390341Y-104902000D01*
X125410936Y-105137403D01*
X125410938Y-105137413D01*
X125472094Y-105365655D01*
X125472096Y-105365659D01*
X125472097Y-105365663D01*
X125564983Y-105564857D01*
X125571965Y-105579830D01*
X125571967Y-105579834D01*
X125646143Y-105685767D01*
X125693298Y-105753112D01*
X125707501Y-105773395D01*
X125707506Y-105773402D01*
X125874597Y-105940493D01*
X125874603Y-105940498D01*
X126060158Y-106070425D01*
X126103783Y-106125002D01*
X126110977Y-106194500D01*
X126079454Y-106256855D01*
X126060158Y-106273575D01*
X125874597Y-106403505D01*
X125707505Y-106570597D01*
X125571965Y-106764169D01*
X125571964Y-106764171D01*
X125472098Y-106978335D01*
X125472094Y-106978344D01*
X125410938Y-107206586D01*
X125410936Y-107206596D01*
X125390341Y-107441999D01*
X125390341Y-107442000D01*
X125410936Y-107677403D01*
X125410938Y-107677413D01*
X125472094Y-107905655D01*
X125472096Y-107905659D01*
X125472097Y-107905663D01*
X125569661Y-108114888D01*
X125571965Y-108119830D01*
X125571967Y-108119834D01*
X125707501Y-108313395D01*
X125707506Y-108313402D01*
X125874597Y-108480493D01*
X125874603Y-108480498D01*
X126060158Y-108610425D01*
X126103783Y-108665002D01*
X126110977Y-108734500D01*
X126079454Y-108796855D01*
X126060158Y-108813575D01*
X125874597Y-108943505D01*
X125707505Y-109110597D01*
X125571965Y-109304169D01*
X125571964Y-109304171D01*
X125503101Y-109451849D01*
X125474430Y-109513335D01*
X125472098Y-109518335D01*
X125472094Y-109518344D01*
X125410938Y-109746586D01*
X125410936Y-109746596D01*
X125390341Y-109981999D01*
X125390341Y-109982000D01*
X123209046Y-109982000D01*
X123209046Y-97282000D01*
X147684540Y-97282000D01*
X147704326Y-97470256D01*
X147704327Y-97470259D01*
X147762818Y-97650277D01*
X147762821Y-97650284D01*
X147857467Y-97814216D01*
X147984129Y-97954888D01*
X148137265Y-98066148D01*
X148137270Y-98066151D01*
X148310192Y-98143142D01*
X148310197Y-98143144D01*
X148495354Y-98182500D01*
X148495355Y-98182500D01*
X148684644Y-98182500D01*
X148684646Y-98182500D01*
X148869803Y-98143144D01*
X149042730Y-98066151D01*
X149195871Y-97954888D01*
X149322533Y-97814216D01*
X149417179Y-97650284D01*
X149475674Y-97470256D01*
X149495460Y-97282000D01*
X149475674Y-97093744D01*
X149417179Y-96913716D01*
X149322533Y-96749784D01*
X149195871Y-96609112D01*
X149195870Y-96609111D01*
X149042734Y-96497851D01*
X149042729Y-96497848D01*
X148869807Y-96420857D01*
X148869802Y-96420855D01*
X148724001Y-96389865D01*
X148684646Y-96381500D01*
X148495354Y-96381500D01*
X148462897Y-96388398D01*
X148310197Y-96420855D01*
X148310192Y-96420857D01*
X148137270Y-96497848D01*
X148137265Y-96497851D01*
X147984129Y-96609111D01*
X147857466Y-96749785D01*
X147762821Y-96913715D01*
X147762818Y-96913722D01*
X147704327Y-97093740D01*
X147704326Y-97093744D01*
X147684540Y-97282000D01*
X123209046Y-97282000D01*
X123209046Y-93975000D01*
X125390341Y-93975000D01*
X125410936Y-94210403D01*
X125410938Y-94210413D01*
X125472094Y-94438655D01*
X125472096Y-94438659D01*
X125472097Y-94438663D01*
X125558467Y-94623883D01*
X125571965Y-94652830D01*
X125571967Y-94652834D01*
X125593428Y-94683483D01*
X125707505Y-94846401D01*
X125874599Y-95013495D01*
X125964577Y-95076498D01*
X126068165Y-95149032D01*
X126068167Y-95149033D01*
X126068170Y-95149035D01*
X126282337Y-95248903D01*
X126510592Y-95310063D01*
X126698918Y-95326539D01*
X126745999Y-95330659D01*
X126746000Y-95330659D01*
X126746001Y-95330659D01*
X126785234Y-95327226D01*
X126981408Y-95310063D01*
X127209663Y-95248903D01*
X127423830Y-95149035D01*
X127617401Y-95013495D01*
X127784495Y-94846401D01*
X127920035Y-94652830D01*
X127996897Y-94488000D01*
X134984540Y-94488000D01*
X135004326Y-94676256D01*
X135004327Y-94676259D01*
X135062818Y-94856277D01*
X135062821Y-94856284D01*
X135157467Y-95020216D01*
X135284129Y-95160888D01*
X135437265Y-95272148D01*
X135437270Y-95272151D01*
X135610192Y-95349142D01*
X135610197Y-95349144D01*
X135795354Y-95388500D01*
X135795355Y-95388500D01*
X135984644Y-95388500D01*
X135984646Y-95388500D01*
X136169803Y-95349144D01*
X136342730Y-95272151D01*
X136495871Y-95160888D01*
X136622533Y-95020216D01*
X136717179Y-94856284D01*
X136775674Y-94676256D01*
X136795460Y-94488000D01*
X136775674Y-94299744D01*
X136717179Y-94119716D01*
X136622533Y-93955784D01*
X136495871Y-93815112D01*
X136495870Y-93815111D01*
X136342734Y-93703851D01*
X136342729Y-93703848D01*
X136169807Y-93626857D01*
X136169802Y-93626855D01*
X136024001Y-93595865D01*
X135984646Y-93587500D01*
X135795354Y-93587500D01*
X135762897Y-93594398D01*
X135610197Y-93626855D01*
X135610192Y-93626857D01*
X135437270Y-93703848D01*
X135437265Y-93703851D01*
X135284129Y-93815111D01*
X135157466Y-93955785D01*
X135062821Y-94119715D01*
X135062818Y-94119722D01*
X135005784Y-94295256D01*
X135004326Y-94299744D01*
X134984540Y-94488000D01*
X127996897Y-94488000D01*
X128019903Y-94438663D01*
X128081063Y-94210408D01*
X128101659Y-93975000D01*
X128081063Y-93739592D01*
X128019903Y-93511337D01*
X127920035Y-93297171D01*
X127884103Y-93245855D01*
X127864599Y-93218000D01*
X149970540Y-93218000D01*
X149990326Y-93406256D01*
X149990327Y-93406259D01*
X150048818Y-93586277D01*
X150048821Y-93586284D01*
X150143467Y-93750216D01*
X150201899Y-93815111D01*
X150270129Y-93890888D01*
X150423265Y-94002148D01*
X150423270Y-94002151D01*
X150596192Y-94079142D01*
X150596197Y-94079144D01*
X150781354Y-94118500D01*
X150781355Y-94118500D01*
X150970644Y-94118500D01*
X150970646Y-94118500D01*
X151155803Y-94079144D01*
X151328730Y-94002151D01*
X151481871Y-93890888D01*
X151608533Y-93750216D01*
X151703179Y-93586284D01*
X151761674Y-93406256D01*
X151781460Y-93218000D01*
X151761674Y-93029744D01*
X151703179Y-92849716D01*
X151622514Y-92710000D01*
X158098540Y-92710000D01*
X158118326Y-92898256D01*
X158118327Y-92898259D01*
X158176818Y-93078277D01*
X158176821Y-93078284D01*
X158271467Y-93242216D01*
X158398129Y-93382888D01*
X158551265Y-93494148D01*
X158551270Y-93494151D01*
X158724192Y-93571142D01*
X158724197Y-93571144D01*
X158909354Y-93610500D01*
X158909355Y-93610500D01*
X159098644Y-93610500D01*
X159098646Y-93610500D01*
X159283803Y-93571144D01*
X159456730Y-93494151D01*
X159609871Y-93382888D01*
X159736533Y-93242216D01*
X159831179Y-93078284D01*
X159889674Y-92898256D01*
X159909460Y-92710000D01*
X164194540Y-92710000D01*
X164214326Y-92898256D01*
X164214327Y-92898259D01*
X164272818Y-93078277D01*
X164272821Y-93078284D01*
X164367467Y-93242216D01*
X164494129Y-93382888D01*
X164647265Y-93494148D01*
X164647270Y-93494151D01*
X164820192Y-93571142D01*
X164820197Y-93571144D01*
X165005354Y-93610500D01*
X165005355Y-93610500D01*
X165194644Y-93610500D01*
X165194646Y-93610500D01*
X165379803Y-93571144D01*
X165552730Y-93494151D01*
X165705871Y-93382888D01*
X165832533Y-93242216D01*
X165927179Y-93078284D01*
X165985674Y-92898256D01*
X166005460Y-92710000D01*
X165985674Y-92521744D01*
X165927179Y-92341716D01*
X165832533Y-92177784D01*
X165705871Y-92037112D01*
X165705870Y-92037111D01*
X165583219Y-91948000D01*
X181974540Y-91948000D01*
X181994326Y-92136256D01*
X181994327Y-92136259D01*
X182052818Y-92316277D01*
X182052821Y-92316284D01*
X182147467Y-92480216D01*
X182205899Y-92545111D01*
X182274129Y-92620888D01*
X182427265Y-92732148D01*
X182427270Y-92732151D01*
X182600192Y-92809142D01*
X182600197Y-92809144D01*
X182785354Y-92848500D01*
X182785355Y-92848500D01*
X182974644Y-92848500D01*
X182974646Y-92848500D01*
X183159803Y-92809144D01*
X183332730Y-92732151D01*
X183398154Y-92684617D01*
X183463960Y-92661138D01*
X183532014Y-92676963D01*
X183580709Y-92727069D01*
X183594584Y-92795547D01*
X183579422Y-92843768D01*
X183579462Y-92843786D01*
X183579310Y-92844126D01*
X183578428Y-92846933D01*
X183576821Y-92849715D01*
X183576818Y-92849722D01*
X183518327Y-93029740D01*
X183518326Y-93029744D01*
X183498540Y-93218000D01*
X183518326Y-93406256D01*
X183518327Y-93406259D01*
X183576818Y-93586277D01*
X183576821Y-93586284D01*
X183671467Y-93750216D01*
X183729899Y-93815111D01*
X183798129Y-93890888D01*
X183951265Y-94002148D01*
X183951270Y-94002151D01*
X184124192Y-94079142D01*
X184124197Y-94079144D01*
X184309354Y-94118500D01*
X184309355Y-94118500D01*
X184498644Y-94118500D01*
X184498646Y-94118500D01*
X184552750Y-94107000D01*
X185911540Y-94107000D01*
X185931326Y-94295256D01*
X185931327Y-94295259D01*
X185989818Y-94475277D01*
X185989821Y-94475284D01*
X186084467Y-94639216D01*
X186211129Y-94779888D01*
X186364265Y-94891148D01*
X186364270Y-94891151D01*
X186537192Y-94968142D01*
X186537197Y-94968144D01*
X186722354Y-95007500D01*
X186722355Y-95007500D01*
X186911644Y-95007500D01*
X186911646Y-95007500D01*
X187096803Y-94968144D01*
X187269730Y-94891151D01*
X187422871Y-94779888D01*
X187549533Y-94639216D01*
X187644179Y-94475284D01*
X187702674Y-94295256D01*
X187722460Y-94107000D01*
X187702674Y-93918744D01*
X187644179Y-93738716D01*
X187549533Y-93574784D01*
X187422871Y-93434112D01*
X187422870Y-93434111D01*
X187269734Y-93322851D01*
X187269729Y-93322848D01*
X187096807Y-93245857D01*
X187096802Y-93245855D01*
X186965750Y-93218000D01*
X195944540Y-93218000D01*
X195964326Y-93406256D01*
X195964327Y-93406259D01*
X196022818Y-93586277D01*
X196022821Y-93586284D01*
X196117467Y-93750216D01*
X196175899Y-93815111D01*
X196244129Y-93890888D01*
X196397265Y-94002148D01*
X196397270Y-94002151D01*
X196570192Y-94079142D01*
X196570197Y-94079144D01*
X196755354Y-94118500D01*
X196755355Y-94118500D01*
X196944644Y-94118500D01*
X196944646Y-94118500D01*
X197129803Y-94079144D01*
X197302730Y-94002151D01*
X197455871Y-93890888D01*
X197582533Y-93750216D01*
X197677179Y-93586284D01*
X197735674Y-93406256D01*
X197755460Y-93218000D01*
X197735674Y-93029744D01*
X197677179Y-92849716D01*
X197582533Y-92685784D01*
X197455871Y-92545112D01*
X197431403Y-92527335D01*
X197302734Y-92433851D01*
X197302729Y-92433848D01*
X197129807Y-92356857D01*
X197129802Y-92356855D01*
X196966908Y-92322232D01*
X196944646Y-92317500D01*
X196755354Y-92317500D01*
X196733092Y-92322232D01*
X196570197Y-92356855D01*
X196570192Y-92356857D01*
X196397270Y-92433848D01*
X196397265Y-92433851D01*
X196244129Y-92545111D01*
X196117466Y-92685785D01*
X196022821Y-92849715D01*
X196022818Y-92849722D01*
X195964327Y-93029740D01*
X195964326Y-93029744D01*
X195944540Y-93218000D01*
X186965750Y-93218000D01*
X186951001Y-93214865D01*
X186911646Y-93206500D01*
X186722354Y-93206500D01*
X186689897Y-93213398D01*
X186537197Y-93245855D01*
X186537192Y-93245857D01*
X186364270Y-93322848D01*
X186364265Y-93322851D01*
X186211129Y-93434111D01*
X186084466Y-93574785D01*
X185989821Y-93738715D01*
X185989818Y-93738722D01*
X185964998Y-93815112D01*
X185931326Y-93918744D01*
X185911540Y-94107000D01*
X184552750Y-94107000D01*
X184683803Y-94079144D01*
X184856730Y-94002151D01*
X185009871Y-93890888D01*
X185136533Y-93750216D01*
X185231179Y-93586284D01*
X185289674Y-93406256D01*
X185309460Y-93218000D01*
X185289674Y-93029744D01*
X185231179Y-92849716D01*
X185136533Y-92685784D01*
X185009871Y-92545112D01*
X184985403Y-92527335D01*
X184856734Y-92433851D01*
X184856729Y-92433848D01*
X184683807Y-92356857D01*
X184683802Y-92356855D01*
X184520908Y-92322232D01*
X184498646Y-92317500D01*
X184309354Y-92317500D01*
X184287092Y-92322232D01*
X184124197Y-92356855D01*
X184124192Y-92356857D01*
X183951270Y-92433848D01*
X183951266Y-92433851D01*
X183885844Y-92481382D01*
X183820037Y-92504861D01*
X183751984Y-92489035D01*
X183703290Y-92438928D01*
X183689415Y-92370450D01*
X183704579Y-92322232D01*
X183704538Y-92322214D01*
X183704698Y-92321852D01*
X183705578Y-92319056D01*
X183707179Y-92316284D01*
X183765674Y-92136256D01*
X183785460Y-91948000D01*
X183765674Y-91759744D01*
X183707179Y-91579716D01*
X183612533Y-91415784D01*
X183485871Y-91275112D01*
X183485870Y-91275111D01*
X183332734Y-91163851D01*
X183332729Y-91163848D01*
X183159807Y-91086857D01*
X183159802Y-91086855D01*
X183036509Y-91060649D01*
X183001884Y-91053289D01*
X182940403Y-91020098D01*
X182906627Y-90958935D01*
X182911279Y-90889220D01*
X182952883Y-90833088D01*
X183001884Y-90810710D01*
X183159803Y-90777144D01*
X183332730Y-90700151D01*
X183485871Y-90588888D01*
X183612533Y-90448216D01*
X183707179Y-90284284D01*
X183765674Y-90104256D01*
X183785460Y-89916000D01*
X183765674Y-89727744D01*
X183707179Y-89547716D01*
X183705574Y-89544937D01*
X183705136Y-89543129D01*
X183704538Y-89541786D01*
X183704783Y-89541676D01*
X183689100Y-89477043D01*
X183711948Y-89411015D01*
X183766867Y-89367821D01*
X183836420Y-89361176D01*
X183885845Y-89382618D01*
X183951265Y-89430148D01*
X183951270Y-89430151D01*
X184124192Y-89507142D01*
X184124197Y-89507144D01*
X184309354Y-89546500D01*
X184309355Y-89546500D01*
X184498644Y-89546500D01*
X184498646Y-89546500D01*
X184683803Y-89507144D01*
X184856730Y-89430151D01*
X185009871Y-89318888D01*
X185136533Y-89178216D01*
X185231179Y-89014284D01*
X185289674Y-88834256D01*
X185309460Y-88646000D01*
X185289674Y-88457744D01*
X185231179Y-88277716D01*
X185136533Y-88113784D01*
X185009871Y-87973112D01*
X185009870Y-87973111D01*
X184856734Y-87861851D01*
X184856729Y-87861848D01*
X184683807Y-87784857D01*
X184683802Y-87784855D01*
X184521915Y-87750446D01*
X184498646Y-87745500D01*
X184309354Y-87745500D01*
X184286094Y-87750444D01*
X184124197Y-87784855D01*
X184124192Y-87784857D01*
X183951270Y-87861848D01*
X183951265Y-87861851D01*
X183798129Y-87973111D01*
X183671466Y-88113785D01*
X183576821Y-88277715D01*
X183576818Y-88277722D01*
X183532491Y-88414148D01*
X183518326Y-88457744D01*
X183498540Y-88646000D01*
X183518326Y-88834256D01*
X183518327Y-88834259D01*
X183576818Y-89014277D01*
X183576820Y-89014282D01*
X183576821Y-89014284D01*
X183578425Y-89017063D01*
X183578864Y-89018871D01*
X183579462Y-89020214D01*
X183579216Y-89020323D01*
X183594899Y-89084961D01*
X183572048Y-89150988D01*
X183517127Y-89194180D01*
X183447574Y-89200823D01*
X183398154Y-89179382D01*
X183383881Y-89169012D01*
X183332730Y-89131849D01*
X183332728Y-89131848D01*
X183332729Y-89131848D01*
X183159807Y-89054857D01*
X183159802Y-89054855D01*
X183014001Y-89023865D01*
X182974646Y-89015500D01*
X182785354Y-89015500D01*
X182752897Y-89022398D01*
X182600197Y-89054855D01*
X182600192Y-89054857D01*
X182427270Y-89131848D01*
X182427265Y-89131851D01*
X182274129Y-89243111D01*
X182147466Y-89383785D01*
X182052821Y-89547715D01*
X182052818Y-89547722D01*
X181994327Y-89727740D01*
X181994326Y-89727744D01*
X181974540Y-89916000D01*
X181994326Y-90104256D01*
X181994327Y-90104259D01*
X182052818Y-90284277D01*
X182052821Y-90284284D01*
X182147467Y-90448216D01*
X182250369Y-90562500D01*
X182274129Y-90588888D01*
X182427265Y-90700148D01*
X182427270Y-90700151D01*
X182600192Y-90777142D01*
X182600197Y-90777144D01*
X182758114Y-90810710D01*
X182819596Y-90843902D01*
X182853372Y-90905065D01*
X182848720Y-90974780D01*
X182807115Y-91030912D01*
X182758114Y-91053290D01*
X182600197Y-91086855D01*
X182600192Y-91086857D01*
X182427270Y-91163848D01*
X182427265Y-91163851D01*
X182274129Y-91275111D01*
X182147466Y-91415785D01*
X182052821Y-91579715D01*
X182052818Y-91579722D01*
X181994327Y-91759740D01*
X181994326Y-91759744D01*
X181974540Y-91948000D01*
X165583219Y-91948000D01*
X165552734Y-91925851D01*
X165552729Y-91925848D01*
X165379807Y-91848857D01*
X165379802Y-91848855D01*
X165221886Y-91815290D01*
X165194646Y-91809500D01*
X165005354Y-91809500D01*
X164978114Y-91815290D01*
X164820197Y-91848855D01*
X164820192Y-91848857D01*
X164647270Y-91925848D01*
X164647265Y-91925851D01*
X164494129Y-92037111D01*
X164367466Y-92177785D01*
X164272821Y-92341715D01*
X164272818Y-92341722D01*
X164214327Y-92521740D01*
X164214326Y-92521744D01*
X164194540Y-92710000D01*
X159909460Y-92710000D01*
X159889674Y-92521744D01*
X159831179Y-92341716D01*
X159736533Y-92177784D01*
X159609871Y-92037112D01*
X159609870Y-92037111D01*
X159456734Y-91925851D01*
X159456729Y-91925848D01*
X159283807Y-91848857D01*
X159283802Y-91848855D01*
X159160509Y-91822649D01*
X159125884Y-91815289D01*
X159064403Y-91782098D01*
X159030627Y-91720935D01*
X159035279Y-91651220D01*
X159076883Y-91595088D01*
X159125884Y-91572710D01*
X159283803Y-91539144D01*
X159456730Y-91462151D01*
X159609871Y-91350888D01*
X159736533Y-91210216D01*
X159831179Y-91046284D01*
X159889674Y-90866256D01*
X159909460Y-90678000D01*
X160638540Y-90678000D01*
X160658326Y-90866256D01*
X160658327Y-90866259D01*
X160716818Y-91046277D01*
X160716821Y-91046284D01*
X160811467Y-91210216D01*
X160869899Y-91275111D01*
X160938129Y-91350888D01*
X161091265Y-91462148D01*
X161091270Y-91462151D01*
X161264192Y-91539142D01*
X161264197Y-91539144D01*
X161449354Y-91578500D01*
X161449355Y-91578500D01*
X161638644Y-91578500D01*
X161638646Y-91578500D01*
X161823803Y-91539144D01*
X161996730Y-91462151D01*
X162149871Y-91350888D01*
X162276533Y-91210216D01*
X162371179Y-91046284D01*
X162429674Y-90866256D01*
X162449460Y-90678000D01*
X162429674Y-90489744D01*
X162371179Y-90309716D01*
X162276533Y-90145784D01*
X162149871Y-90005112D01*
X162149870Y-90005111D01*
X161996734Y-89893851D01*
X161996729Y-89893848D01*
X161823807Y-89816857D01*
X161823802Y-89816855D01*
X161678001Y-89785865D01*
X161638646Y-89777500D01*
X161449354Y-89777500D01*
X161416897Y-89784398D01*
X161264197Y-89816855D01*
X161264192Y-89816857D01*
X161091270Y-89893848D01*
X161091265Y-89893851D01*
X160938129Y-90005111D01*
X160811466Y-90145785D01*
X160716821Y-90309715D01*
X160716818Y-90309722D01*
X160658327Y-90489740D01*
X160658326Y-90489744D01*
X160638540Y-90678000D01*
X159909460Y-90678000D01*
X159889674Y-90489744D01*
X159831179Y-90309716D01*
X159736533Y-90145784D01*
X159609871Y-90005112D01*
X159609870Y-90005111D01*
X159456734Y-89893851D01*
X159456729Y-89893848D01*
X159283807Y-89816857D01*
X159283802Y-89816855D01*
X159138001Y-89785865D01*
X159098646Y-89777500D01*
X158909354Y-89777500D01*
X158876897Y-89784398D01*
X158724197Y-89816855D01*
X158724192Y-89816857D01*
X158551270Y-89893848D01*
X158551265Y-89893851D01*
X158398129Y-90005111D01*
X158271466Y-90145785D01*
X158176821Y-90309715D01*
X158176818Y-90309722D01*
X158118327Y-90489740D01*
X158118326Y-90489744D01*
X158098540Y-90678000D01*
X158118326Y-90866256D01*
X158118327Y-90866259D01*
X158176818Y-91046277D01*
X158176821Y-91046284D01*
X158271467Y-91210216D01*
X158329899Y-91275111D01*
X158398129Y-91350888D01*
X158551265Y-91462148D01*
X158551270Y-91462151D01*
X158724192Y-91539142D01*
X158724197Y-91539144D01*
X158882114Y-91572710D01*
X158943596Y-91605902D01*
X158977372Y-91667065D01*
X158972720Y-91736780D01*
X158931115Y-91792912D01*
X158882114Y-91815290D01*
X158724197Y-91848855D01*
X158724192Y-91848857D01*
X158551270Y-91925848D01*
X158551265Y-91925851D01*
X158398129Y-92037111D01*
X158271466Y-92177785D01*
X158176821Y-92341715D01*
X158176818Y-92341722D01*
X158118327Y-92521740D01*
X158118326Y-92521744D01*
X158098540Y-92710000D01*
X151622514Y-92710000D01*
X151608533Y-92685784D01*
X151481871Y-92545112D01*
X151457403Y-92527335D01*
X151328734Y-92433851D01*
X151328729Y-92433848D01*
X151155807Y-92356857D01*
X151155802Y-92356855D01*
X150992908Y-92322232D01*
X150970646Y-92317500D01*
X150781354Y-92317500D01*
X150759092Y-92322232D01*
X150596197Y-92356855D01*
X150596192Y-92356857D01*
X150423270Y-92433848D01*
X150423265Y-92433851D01*
X150270129Y-92545111D01*
X150143466Y-92685785D01*
X150048821Y-92849715D01*
X150048818Y-92849722D01*
X149990327Y-93029740D01*
X149990326Y-93029744D01*
X149970540Y-93218000D01*
X127864599Y-93218000D01*
X127784496Y-93103600D01*
X127759173Y-93078277D01*
X127662567Y-92981671D01*
X127629084Y-92920351D01*
X127634068Y-92850659D01*
X127675939Y-92794725D01*
X127706915Y-92777810D01*
X127838331Y-92728796D01*
X127953546Y-92642546D01*
X128039796Y-92527331D01*
X128090091Y-92392483D01*
X128096500Y-92332873D01*
X128096499Y-90537128D01*
X128090091Y-90477517D01*
X128079162Y-90448216D01*
X128039797Y-90342671D01*
X128039793Y-90342664D01*
X127953547Y-90227455D01*
X127953544Y-90227452D01*
X127838335Y-90141206D01*
X127838328Y-90141202D01*
X127703482Y-90090908D01*
X127703483Y-90090908D01*
X127643883Y-90084501D01*
X127643881Y-90084500D01*
X127643873Y-90084500D01*
X127643864Y-90084500D01*
X125848129Y-90084500D01*
X125848123Y-90084501D01*
X125788516Y-90090908D01*
X125653671Y-90141202D01*
X125653664Y-90141206D01*
X125538455Y-90227452D01*
X125538452Y-90227455D01*
X125452206Y-90342664D01*
X125452202Y-90342671D01*
X125401908Y-90477517D01*
X125397003Y-90523144D01*
X125395501Y-90537123D01*
X125395500Y-90537135D01*
X125395500Y-92332870D01*
X125395501Y-92332876D01*
X125401908Y-92392483D01*
X125452202Y-92527328D01*
X125452206Y-92527335D01*
X125538452Y-92642544D01*
X125538455Y-92642547D01*
X125653664Y-92728793D01*
X125653671Y-92728797D01*
X125785081Y-92777810D01*
X125841015Y-92819681D01*
X125865432Y-92885145D01*
X125850580Y-92953418D01*
X125829430Y-92981673D01*
X125707503Y-93103600D01*
X125571965Y-93297169D01*
X125571964Y-93297171D01*
X125472098Y-93511335D01*
X125472094Y-93511344D01*
X125410938Y-93739586D01*
X125410936Y-93739596D01*
X125390341Y-93974999D01*
X125390341Y-93975000D01*
X123209046Y-93975000D01*
X123209046Y-91471453D01*
X123227400Y-90840660D01*
X123227610Y-90837058D01*
X123227958Y-90833088D01*
X123282452Y-90210215D01*
X123282870Y-90206641D01*
X123325442Y-89916000D01*
X123362647Y-89662000D01*
X163178540Y-89662000D01*
X163198326Y-89850256D01*
X163198327Y-89850259D01*
X163256818Y-90030277D01*
X163256821Y-90030284D01*
X163351467Y-90194216D01*
X163365881Y-90210224D01*
X163478127Y-90334886D01*
X163478129Y-90334888D01*
X163631265Y-90446148D01*
X163631270Y-90446151D01*
X163804192Y-90523142D01*
X163804197Y-90523144D01*
X163989354Y-90562500D01*
X163989355Y-90562500D01*
X164178644Y-90562500D01*
X164178646Y-90562500D01*
X164363803Y-90523144D01*
X164536730Y-90446151D01*
X164689871Y-90334888D01*
X164816533Y-90194216D01*
X164911179Y-90030284D01*
X164969674Y-89850256D01*
X164989460Y-89662000D01*
X164969674Y-89473744D01*
X164911179Y-89293716D01*
X164816533Y-89129784D01*
X164689871Y-88989112D01*
X164689870Y-88989111D01*
X164536734Y-88877851D01*
X164536729Y-88877848D01*
X164363807Y-88800857D01*
X164363802Y-88800855D01*
X164218001Y-88769865D01*
X164178646Y-88761500D01*
X163989354Y-88761500D01*
X163956897Y-88768398D01*
X163804197Y-88800855D01*
X163804192Y-88800857D01*
X163631270Y-88877848D01*
X163631265Y-88877851D01*
X163478129Y-88989111D01*
X163351466Y-89129785D01*
X163256821Y-89293715D01*
X163256818Y-89293722D01*
X163212491Y-89430148D01*
X163198326Y-89473744D01*
X163178540Y-89662000D01*
X123362647Y-89662000D01*
X123374071Y-89584007D01*
X123374685Y-89580522D01*
X123501938Y-88964235D01*
X123502768Y-88960734D01*
X123665641Y-88352879D01*
X123666659Y-88349483D01*
X123864598Y-87752134D01*
X123865825Y-87748767D01*
X123913008Y-87630000D01*
X164448540Y-87630000D01*
X164468326Y-87818256D01*
X164468327Y-87818259D01*
X164526818Y-87998277D01*
X164526821Y-87998284D01*
X164621467Y-88162216D01*
X164748129Y-88302888D01*
X164901265Y-88414148D01*
X164901270Y-88414151D01*
X165074192Y-88491142D01*
X165074197Y-88491144D01*
X165259354Y-88530500D01*
X165259355Y-88530500D01*
X165448644Y-88530500D01*
X165448646Y-88530500D01*
X165633803Y-88491144D01*
X165806730Y-88414151D01*
X165959871Y-88302888D01*
X166086533Y-88162216D01*
X166181179Y-87998284D01*
X166239674Y-87818256D01*
X166259460Y-87630000D01*
X166239674Y-87441744D01*
X166181179Y-87261716D01*
X166086533Y-87097784D01*
X165959871Y-86957112D01*
X165959870Y-86957111D01*
X165806734Y-86845851D01*
X165806729Y-86845848D01*
X165633807Y-86768857D01*
X165633802Y-86768855D01*
X165488001Y-86737865D01*
X165448646Y-86729500D01*
X165259354Y-86729500D01*
X165226897Y-86736398D01*
X165074197Y-86768855D01*
X165074192Y-86768857D01*
X164901270Y-86845848D01*
X164901265Y-86845851D01*
X164748129Y-86957111D01*
X164621466Y-87097785D01*
X164526821Y-87261715D01*
X164526818Y-87261722D01*
X164468327Y-87441740D01*
X164468326Y-87441744D01*
X164448540Y-87630000D01*
X123913008Y-87630000D01*
X124098154Y-87163960D01*
X124099576Y-87160665D01*
X124114471Y-87128723D01*
X124365519Y-86590345D01*
X124367106Y-86587186D01*
X124665779Y-86033261D01*
X124667556Y-86030183D01*
X124997931Y-85494564D01*
X124999874Y-85491612D01*
X125103231Y-85344003D01*
X126439381Y-85344003D01*
X126459827Y-85616839D01*
X126459827Y-85616840D01*
X126520706Y-85883570D01*
X126520708Y-85883579D01*
X126520710Y-85883584D01*
X126620669Y-86138276D01*
X126757472Y-86375224D01*
X126843182Y-86482701D01*
X126928064Y-86589141D01*
X127016245Y-86670960D01*
X127128628Y-86775236D01*
X127354691Y-86929363D01*
X127354696Y-86929365D01*
X127354697Y-86929366D01*
X127354698Y-86929367D01*
X127485618Y-86992414D01*
X127601196Y-87048073D01*
X127601197Y-87048073D01*
X127601200Y-87048075D01*
X127862649Y-87128722D01*
X127862650Y-87128722D01*
X127862653Y-87128723D01*
X128133190Y-87169499D01*
X128133195Y-87169499D01*
X128133198Y-87169500D01*
X128133199Y-87169500D01*
X128406801Y-87169500D01*
X128406802Y-87169500D01*
X128406809Y-87169499D01*
X128677346Y-87128723D01*
X128677347Y-87128722D01*
X128677351Y-87128722D01*
X128938800Y-87048075D01*
X129185310Y-86929363D01*
X129411372Y-86775236D01*
X129611939Y-86589137D01*
X129782528Y-86375224D01*
X129919331Y-86138276D01*
X130019290Y-85883584D01*
X130080172Y-85616840D01*
X130094586Y-85424499D01*
X130100619Y-85344003D01*
X130100619Y-85343996D01*
X130080172Y-85071160D01*
X130080172Y-85071159D01*
X130019293Y-84804429D01*
X130019292Y-84804428D01*
X130019290Y-84804416D01*
X129919331Y-84549724D01*
X129782528Y-84312776D01*
X129611939Y-84098863D01*
X129611938Y-84098862D01*
X129611935Y-84098858D01*
X129585144Y-84074000D01*
X159368540Y-84074000D01*
X159388326Y-84262256D01*
X159388327Y-84262259D01*
X159446818Y-84442277D01*
X159446821Y-84442284D01*
X159541467Y-84606216D01*
X159622559Y-84696277D01*
X159668129Y-84746888D01*
X159821265Y-84858148D01*
X159821270Y-84858151D01*
X159994192Y-84935142D01*
X159994197Y-84935144D01*
X160179354Y-84974500D01*
X160179355Y-84974500D01*
X160368644Y-84974500D01*
X160368646Y-84974500D01*
X160553803Y-84935144D01*
X160726730Y-84858151D01*
X160879871Y-84746888D01*
X161006533Y-84606216D01*
X161101179Y-84442284D01*
X161159674Y-84262256D01*
X161179460Y-84074000D01*
X162924540Y-84074000D01*
X162944326Y-84262256D01*
X162944327Y-84262259D01*
X163002818Y-84442277D01*
X163002821Y-84442284D01*
X163097467Y-84606216D01*
X163178559Y-84696277D01*
X163224129Y-84746888D01*
X163377265Y-84858148D01*
X163377270Y-84858151D01*
X163550192Y-84935142D01*
X163550197Y-84935144D01*
X163735354Y-84974500D01*
X163735355Y-84974500D01*
X163924644Y-84974500D01*
X163924646Y-84974500D01*
X164109803Y-84935144D01*
X164282730Y-84858151D01*
X164435871Y-84746888D01*
X164562533Y-84606216D01*
X164657179Y-84442284D01*
X164715674Y-84262256D01*
X164735460Y-84074000D01*
X165522341Y-84074000D01*
X165542936Y-84309403D01*
X165542938Y-84309413D01*
X165604094Y-84537655D01*
X165604096Y-84537659D01*
X165604097Y-84537663D01*
X165684004Y-84709023D01*
X165703965Y-84751830D01*
X165703967Y-84751834D01*
X165778412Y-84858151D01*
X165839505Y-84945401D01*
X166006599Y-85112495D01*
X166103384Y-85180265D01*
X166200165Y-85248032D01*
X166200167Y-85248033D01*
X166200170Y-85248035D01*
X166414337Y-85347903D01*
X166642592Y-85409063D01*
X166819034Y-85424500D01*
X166877999Y-85429659D01*
X166878000Y-85429659D01*
X166878001Y-85429659D01*
X166936966Y-85424500D01*
X167113408Y-85409063D01*
X167341663Y-85347903D01*
X167555830Y-85248035D01*
X167749401Y-85112495D01*
X167916495Y-84945401D01*
X168046425Y-84759842D01*
X168101002Y-84716217D01*
X168170500Y-84709023D01*
X168232855Y-84740546D01*
X168249575Y-84759842D01*
X168379500Y-84945395D01*
X168379505Y-84945401D01*
X168546599Y-85112495D01*
X168643384Y-85180265D01*
X168740165Y-85248032D01*
X168740167Y-85248033D01*
X168740170Y-85248035D01*
X168954337Y-85347903D01*
X169182592Y-85409063D01*
X169359034Y-85424500D01*
X169417999Y-85429659D01*
X169418000Y-85429659D01*
X169418001Y-85429659D01*
X169476966Y-85424500D01*
X169653408Y-85409063D01*
X169881663Y-85347903D01*
X170095830Y-85248035D01*
X170289401Y-85112495D01*
X170456495Y-84945401D01*
X170586425Y-84759842D01*
X170641002Y-84716217D01*
X170710500Y-84709023D01*
X170772855Y-84740546D01*
X170789575Y-84759842D01*
X170919500Y-84945395D01*
X170919505Y-84945401D01*
X171086599Y-85112495D01*
X171183384Y-85180265D01*
X171280165Y-85248032D01*
X171280167Y-85248033D01*
X171280170Y-85248035D01*
X171494337Y-85347903D01*
X171722592Y-85409063D01*
X171899034Y-85424500D01*
X171957999Y-85429659D01*
X171958000Y-85429659D01*
X171958001Y-85429659D01*
X172016966Y-85424500D01*
X172193408Y-85409063D01*
X172421663Y-85347903D01*
X172635830Y-85248035D01*
X172829401Y-85112495D01*
X172996495Y-84945401D01*
X173126425Y-84759842D01*
X173181002Y-84716217D01*
X173250500Y-84709023D01*
X173312855Y-84740546D01*
X173329575Y-84759842D01*
X173459500Y-84945395D01*
X173459505Y-84945401D01*
X173626599Y-85112495D01*
X173723384Y-85180265D01*
X173820165Y-85248032D01*
X173820167Y-85248033D01*
X173820170Y-85248035D01*
X174034337Y-85347903D01*
X174262592Y-85409063D01*
X174439034Y-85424500D01*
X174497999Y-85429659D01*
X174498000Y-85429659D01*
X174498001Y-85429659D01*
X174556966Y-85424500D01*
X174733408Y-85409063D01*
X174961663Y-85347903D01*
X175175830Y-85248035D01*
X175369401Y-85112495D01*
X175536495Y-84945401D01*
X175666425Y-84759842D01*
X175721002Y-84716217D01*
X175790500Y-84709023D01*
X175852855Y-84740546D01*
X175869575Y-84759842D01*
X175999500Y-84945395D01*
X175999505Y-84945401D01*
X176166599Y-85112495D01*
X176263384Y-85180265D01*
X176360165Y-85248032D01*
X176360167Y-85248033D01*
X176360170Y-85248035D01*
X176574337Y-85347903D01*
X176802592Y-85409063D01*
X176979034Y-85424500D01*
X177037999Y-85429659D01*
X177038000Y-85429659D01*
X177038001Y-85429659D01*
X177096966Y-85424500D01*
X177273408Y-85409063D01*
X177501663Y-85347903D01*
X177715830Y-85248035D01*
X177909401Y-85112495D01*
X178031329Y-84990566D01*
X178092648Y-84957084D01*
X178162340Y-84962068D01*
X178218274Y-85003939D01*
X178235189Y-85034917D01*
X178284202Y-85166328D01*
X178284206Y-85166335D01*
X178370452Y-85281544D01*
X178370455Y-85281547D01*
X178485664Y-85367793D01*
X178485671Y-85367797D01*
X178620517Y-85418091D01*
X178620516Y-85418091D01*
X178627444Y-85418835D01*
X178680127Y-85424500D01*
X180475872Y-85424499D01*
X180535483Y-85418091D01*
X180670331Y-85367796D01*
X180785546Y-85281546D01*
X180871796Y-85166331D01*
X180922091Y-85031483D01*
X180928500Y-84971873D01*
X180928499Y-83176128D01*
X180922091Y-83116517D01*
X180920810Y-83113083D01*
X180871797Y-82981671D01*
X180871793Y-82981664D01*
X180785547Y-82866455D01*
X180785544Y-82866452D01*
X180670335Y-82780206D01*
X180670328Y-82780202D01*
X180535482Y-82729908D01*
X180535483Y-82729908D01*
X180475883Y-82723501D01*
X180475881Y-82723500D01*
X180475873Y-82723500D01*
X180475864Y-82723500D01*
X178680129Y-82723500D01*
X178680123Y-82723501D01*
X178620516Y-82729908D01*
X178485671Y-82780202D01*
X178485664Y-82780206D01*
X178370455Y-82866452D01*
X178370452Y-82866455D01*
X178284206Y-82981664D01*
X178284203Y-82981669D01*
X178235189Y-83113083D01*
X178193317Y-83169016D01*
X178127853Y-83193433D01*
X178059580Y-83178581D01*
X178031326Y-83157430D01*
X177909402Y-83035506D01*
X177909395Y-83035501D01*
X177715834Y-82899967D01*
X177715830Y-82899965D01*
X177715828Y-82899964D01*
X177501663Y-82800097D01*
X177501659Y-82800096D01*
X177501655Y-82800094D01*
X177273413Y-82738938D01*
X177273403Y-82738936D01*
X177038001Y-82718341D01*
X177037999Y-82718341D01*
X176802596Y-82738936D01*
X176802586Y-82738938D01*
X176574344Y-82800094D01*
X176574335Y-82800098D01*
X176360171Y-82899964D01*
X176360169Y-82899965D01*
X176166597Y-83035505D01*
X175999505Y-83202597D01*
X175869575Y-83388158D01*
X175814998Y-83431783D01*
X175745500Y-83438977D01*
X175683145Y-83407454D01*
X175666425Y-83388158D01*
X175536494Y-83202597D01*
X175369402Y-83035506D01*
X175369395Y-83035501D01*
X175175834Y-82899967D01*
X175175830Y-82899965D01*
X175175828Y-82899964D01*
X174961663Y-82800097D01*
X174961659Y-82800096D01*
X174961655Y-82800094D01*
X174733413Y-82738938D01*
X174733403Y-82738936D01*
X174498001Y-82718341D01*
X174497999Y-82718341D01*
X174262596Y-82738936D01*
X174262586Y-82738938D01*
X174034344Y-82800094D01*
X174034335Y-82800098D01*
X173820171Y-82899964D01*
X173820169Y-82899965D01*
X173626597Y-83035505D01*
X173459505Y-83202597D01*
X173329575Y-83388158D01*
X173274998Y-83431783D01*
X173205500Y-83438977D01*
X173143145Y-83407454D01*
X173126425Y-83388158D01*
X172996494Y-83202597D01*
X172829402Y-83035506D01*
X172829395Y-83035501D01*
X172635834Y-82899967D01*
X172635830Y-82899965D01*
X172635828Y-82899964D01*
X172421663Y-82800097D01*
X172421659Y-82800096D01*
X172421655Y-82800094D01*
X172193413Y-82738938D01*
X172193403Y-82738936D01*
X171958001Y-82718341D01*
X171957999Y-82718341D01*
X171722596Y-82738936D01*
X171722586Y-82738938D01*
X171494344Y-82800094D01*
X171494335Y-82800098D01*
X171280171Y-82899964D01*
X171280169Y-82899965D01*
X171086597Y-83035505D01*
X170919505Y-83202597D01*
X170789575Y-83388158D01*
X170734998Y-83431783D01*
X170665500Y-83438977D01*
X170603145Y-83407454D01*
X170586425Y-83388158D01*
X170456494Y-83202597D01*
X170289402Y-83035506D01*
X170289395Y-83035501D01*
X170095834Y-82899967D01*
X170095830Y-82899965D01*
X170095828Y-82899964D01*
X169881663Y-82800097D01*
X169881659Y-82800096D01*
X169881655Y-82800094D01*
X169653413Y-82738938D01*
X169653403Y-82738936D01*
X169418001Y-82718341D01*
X169417999Y-82718341D01*
X169182596Y-82738936D01*
X169182586Y-82738938D01*
X168954344Y-82800094D01*
X168954335Y-82800098D01*
X168740171Y-82899964D01*
X168740169Y-82899965D01*
X168546597Y-83035505D01*
X168379505Y-83202597D01*
X168249575Y-83388158D01*
X168194998Y-83431783D01*
X168125500Y-83438977D01*
X168063145Y-83407454D01*
X168046425Y-83388158D01*
X167916494Y-83202597D01*
X167749402Y-83035506D01*
X167749395Y-83035501D01*
X167555834Y-82899967D01*
X167555830Y-82899965D01*
X167555828Y-82899964D01*
X167341663Y-82800097D01*
X167341659Y-82800096D01*
X167341655Y-82800094D01*
X167113413Y-82738938D01*
X167113403Y-82738936D01*
X166878001Y-82718341D01*
X166877999Y-82718341D01*
X166642596Y-82738936D01*
X166642586Y-82738938D01*
X166414344Y-82800094D01*
X166414335Y-82800098D01*
X166200171Y-82899964D01*
X166200169Y-82899965D01*
X166006597Y-83035505D01*
X165839505Y-83202597D01*
X165703965Y-83396169D01*
X165703964Y-83396171D01*
X165604098Y-83610335D01*
X165604094Y-83610344D01*
X165542938Y-83838586D01*
X165542936Y-83838596D01*
X165522341Y-84073999D01*
X165522341Y-84074000D01*
X164735460Y-84074000D01*
X164715674Y-83885744D01*
X164657179Y-83705716D01*
X164562533Y-83541784D01*
X164435871Y-83401112D01*
X164435870Y-83401111D01*
X164282734Y-83289851D01*
X164282729Y-83289848D01*
X164109807Y-83212857D01*
X164109802Y-83212855D01*
X163948550Y-83178581D01*
X163924646Y-83173500D01*
X163735354Y-83173500D01*
X163711450Y-83178581D01*
X163550197Y-83212855D01*
X163550192Y-83212857D01*
X163377270Y-83289848D01*
X163377265Y-83289851D01*
X163224129Y-83401111D01*
X163097466Y-83541785D01*
X163002821Y-83705715D01*
X163002818Y-83705722D01*
X162959645Y-83838596D01*
X162944326Y-83885744D01*
X162924540Y-84074000D01*
X161179460Y-84074000D01*
X161159674Y-83885744D01*
X161101179Y-83705716D01*
X161006533Y-83541784D01*
X160879871Y-83401112D01*
X160879870Y-83401111D01*
X160726734Y-83289851D01*
X160726729Y-83289848D01*
X160553807Y-83212857D01*
X160553802Y-83212855D01*
X160392550Y-83178581D01*
X160368646Y-83173500D01*
X160179354Y-83173500D01*
X160155450Y-83178581D01*
X159994197Y-83212855D01*
X159994192Y-83212857D01*
X159821270Y-83289848D01*
X159821265Y-83289851D01*
X159668129Y-83401111D01*
X159541466Y-83541785D01*
X159446821Y-83705715D01*
X159446818Y-83705722D01*
X159403645Y-83838596D01*
X159388326Y-83885744D01*
X159368540Y-84074000D01*
X129585144Y-84074000D01*
X129411372Y-83912764D01*
X129371735Y-83885740D01*
X129185310Y-83758637D01*
X129185306Y-83758635D01*
X129185303Y-83758633D01*
X129185302Y-83758632D01*
X128938802Y-83639926D01*
X128938804Y-83639926D01*
X128677352Y-83559278D01*
X128677346Y-83559276D01*
X128406809Y-83518500D01*
X128406802Y-83518500D01*
X128133198Y-83518500D01*
X128133190Y-83518500D01*
X127862653Y-83559276D01*
X127862647Y-83559278D01*
X127601196Y-83639926D01*
X127354698Y-83758632D01*
X127354697Y-83758633D01*
X127128627Y-83912764D01*
X126928064Y-84098858D01*
X126757472Y-84312776D01*
X126620669Y-84549723D01*
X126520712Y-84804410D01*
X126520706Y-84804429D01*
X126459827Y-85071159D01*
X126459827Y-85071160D01*
X126439381Y-85343996D01*
X126439381Y-85344003D01*
X125103231Y-85344003D01*
X125360815Y-84976133D01*
X125362960Y-84973254D01*
X125753246Y-84479657D01*
X125755565Y-84476894D01*
X126055602Y-84139744D01*
X126173900Y-84006812D01*
X126176329Y-84004237D01*
X126621332Y-83559234D01*
X126623917Y-83556797D01*
X126999131Y-83222885D01*
X127093988Y-83138470D01*
X127096751Y-83136151D01*
X127224037Y-83035506D01*
X127590360Y-82745854D01*
X127593233Y-82743717D01*
X127612955Y-82729908D01*
X127737574Y-82642647D01*
X127869888Y-82550000D01*
X184768540Y-82550000D01*
X184788326Y-82738256D01*
X184788327Y-82738259D01*
X184846818Y-82918277D01*
X184846821Y-82918284D01*
X184941467Y-83082216D01*
X185026025Y-83176127D01*
X185068129Y-83222888D01*
X185221265Y-83334148D01*
X185221266Y-83334148D01*
X185221270Y-83334151D01*
X185360563Y-83396169D01*
X185361511Y-83396591D01*
X185414748Y-83441841D01*
X185435069Y-83508690D01*
X185416024Y-83575914D01*
X185383961Y-83610187D01*
X185322131Y-83655109D01*
X185322129Y-83655111D01*
X185195466Y-83795785D01*
X185100821Y-83959715D01*
X185100818Y-83959722D01*
X185055609Y-84098863D01*
X185042326Y-84139744D01*
X185022540Y-84328000D01*
X185042326Y-84516256D01*
X185042327Y-84516259D01*
X185100818Y-84696277D01*
X185100821Y-84696284D01*
X185195467Y-84860216D01*
X185299852Y-84976147D01*
X185322129Y-85000888D01*
X185475265Y-85112148D01*
X185475270Y-85112151D01*
X185648192Y-85189142D01*
X185648193Y-85189142D01*
X185648197Y-85189144D01*
X185829781Y-85227740D01*
X185891262Y-85260932D01*
X185925039Y-85322095D01*
X185928000Y-85349030D01*
X185928000Y-91440000D01*
X196596000Y-91440000D01*
X196596000Y-91186000D01*
X201844341Y-91186000D01*
X201864936Y-91421403D01*
X201864938Y-91421413D01*
X201926094Y-91649655D01*
X201926096Y-91649659D01*
X201926097Y-91649663D01*
X202018983Y-91848857D01*
X202025965Y-91863830D01*
X202025967Y-91863834D01*
X202134281Y-92018521D01*
X202161501Y-92057396D01*
X202161506Y-92057402D01*
X202283430Y-92179326D01*
X202316915Y-92240649D01*
X202311931Y-92310341D01*
X202270059Y-92366274D01*
X202239083Y-92383189D01*
X202107669Y-92432203D01*
X202107664Y-92432206D01*
X201992455Y-92518452D01*
X201992452Y-92518455D01*
X201906206Y-92633664D01*
X201906202Y-92633671D01*
X201855908Y-92768517D01*
X201852420Y-92800965D01*
X201849501Y-92828123D01*
X201849500Y-92828135D01*
X201849500Y-94623870D01*
X201849501Y-94623876D01*
X201855908Y-94683483D01*
X201906202Y-94818328D01*
X201906206Y-94818335D01*
X201992452Y-94933544D01*
X201992455Y-94933547D01*
X202107664Y-95019793D01*
X202107671Y-95019797D01*
X202242517Y-95070091D01*
X202242516Y-95070091D01*
X202249444Y-95070835D01*
X202302127Y-95076500D01*
X204097872Y-95076499D01*
X204157483Y-95070091D01*
X204292331Y-95019796D01*
X204407546Y-94933546D01*
X204493796Y-94818331D01*
X204544091Y-94683483D01*
X204550500Y-94623873D01*
X204550499Y-92828128D01*
X204544091Y-92768517D01*
X204530527Y-92732151D01*
X204493797Y-92633671D01*
X204493793Y-92633664D01*
X204407547Y-92518455D01*
X204407544Y-92518452D01*
X204292335Y-92432206D01*
X204292328Y-92432202D01*
X204160917Y-92383189D01*
X204104983Y-92341318D01*
X204080566Y-92275853D01*
X204095418Y-92207580D01*
X204116563Y-92179332D01*
X204238495Y-92057401D01*
X204374035Y-91863830D01*
X204473903Y-91649663D01*
X204535063Y-91421408D01*
X204555659Y-91186000D01*
X204535063Y-90950592D01*
X204473903Y-90722337D01*
X204374035Y-90508171D01*
X204372608Y-90506132D01*
X204238494Y-90314597D01*
X204071402Y-90147506D01*
X204071395Y-90147501D01*
X204068944Y-90145785D01*
X204032521Y-90120281D01*
X203877834Y-90011967D01*
X203877830Y-90011965D01*
X203863132Y-90005111D01*
X203663663Y-89912097D01*
X203663659Y-89912096D01*
X203663655Y-89912094D01*
X203435413Y-89850938D01*
X203435403Y-89850936D01*
X203200001Y-89830341D01*
X203199999Y-89830341D01*
X202964596Y-89850936D01*
X202964586Y-89850938D01*
X202736344Y-89912094D01*
X202736335Y-89912098D01*
X202522171Y-90011964D01*
X202522169Y-90011965D01*
X202328597Y-90147505D01*
X202161505Y-90314597D01*
X202025965Y-90508169D01*
X202025964Y-90508171D01*
X201926098Y-90722335D01*
X201926094Y-90722344D01*
X201864938Y-90950586D01*
X201864936Y-90950596D01*
X201844341Y-91185999D01*
X201844341Y-91186000D01*
X196596000Y-91186000D01*
X196596000Y-87474548D01*
X196615685Y-87407509D01*
X196668489Y-87361754D01*
X196737647Y-87351810D01*
X196745781Y-87353258D01*
X196886653Y-87383201D01*
X196886654Y-87383201D01*
X197075943Y-87383201D01*
X197075945Y-87383201D01*
X197261102Y-87343845D01*
X197434029Y-87266852D01*
X197587170Y-87155589D01*
X197713832Y-87014917D01*
X197808478Y-86850985D01*
X197866973Y-86670957D01*
X197886759Y-86482701D01*
X197866973Y-86294445D01*
X197808478Y-86114417D01*
X197713832Y-85950485D01*
X197587170Y-85809813D01*
X197587169Y-85809812D01*
X197434033Y-85698552D01*
X197434028Y-85698549D01*
X197261106Y-85621558D01*
X197261101Y-85621556D01*
X197115300Y-85590566D01*
X197075945Y-85582201D01*
X196886653Y-85582201D01*
X196745781Y-85612144D01*
X196676114Y-85606828D01*
X196620380Y-85564691D01*
X196596275Y-85499111D01*
X196596000Y-85490854D01*
X196596000Y-85344003D01*
X200099381Y-85344003D01*
X200119827Y-85616839D01*
X200119827Y-85616840D01*
X200180706Y-85883570D01*
X200180708Y-85883579D01*
X200180710Y-85883584D01*
X200280669Y-86138276D01*
X200417472Y-86375224D01*
X200503182Y-86482701D01*
X200588064Y-86589141D01*
X200676245Y-86670960D01*
X200788628Y-86775236D01*
X201014691Y-86929363D01*
X201014696Y-86929365D01*
X201014697Y-86929366D01*
X201014698Y-86929367D01*
X201145618Y-86992414D01*
X201261196Y-87048073D01*
X201261197Y-87048073D01*
X201261200Y-87048075D01*
X201522649Y-87128722D01*
X201522650Y-87128722D01*
X201522653Y-87128723D01*
X201793190Y-87169499D01*
X201793195Y-87169499D01*
X201793198Y-87169500D01*
X201793199Y-87169500D01*
X202066801Y-87169500D01*
X202066802Y-87169500D01*
X202066809Y-87169499D01*
X202337346Y-87128723D01*
X202337347Y-87128722D01*
X202337351Y-87128722D01*
X202598800Y-87048075D01*
X202845310Y-86929363D01*
X203071372Y-86775236D01*
X203271939Y-86589137D01*
X203442528Y-86375224D01*
X203579331Y-86138276D01*
X203679290Y-85883584D01*
X203740172Y-85616840D01*
X203754586Y-85424499D01*
X203760619Y-85344003D01*
X203760619Y-85343996D01*
X203740172Y-85071160D01*
X203740172Y-85071159D01*
X203679293Y-84804429D01*
X203679292Y-84804428D01*
X203679290Y-84804416D01*
X203579331Y-84549724D01*
X203442528Y-84312776D01*
X203271939Y-84098863D01*
X203271938Y-84098862D01*
X203271935Y-84098858D01*
X203071372Y-83912764D01*
X203031735Y-83885740D01*
X202845310Y-83758637D01*
X202845306Y-83758635D01*
X202845303Y-83758633D01*
X202845302Y-83758632D01*
X202598802Y-83639926D01*
X202598804Y-83639926D01*
X202337352Y-83559278D01*
X202337346Y-83559276D01*
X202066809Y-83518500D01*
X202066802Y-83518500D01*
X201793198Y-83518500D01*
X201793190Y-83518500D01*
X201522653Y-83559276D01*
X201522647Y-83559278D01*
X201261196Y-83639926D01*
X201014698Y-83758632D01*
X201014697Y-83758633D01*
X200788627Y-83912764D01*
X200588064Y-84098858D01*
X200417472Y-84312776D01*
X200280669Y-84549723D01*
X200180712Y-84804410D01*
X200180706Y-84804429D01*
X200119827Y-85071159D01*
X200119827Y-85071160D01*
X200099381Y-85343996D01*
X200099381Y-85344003D01*
X196596000Y-85344003D01*
X196596000Y-83820000D01*
X186737545Y-83820000D01*
X186670506Y-83800315D01*
X186645395Y-83778972D01*
X186627085Y-83758637D01*
X186533871Y-83655112D01*
X186533867Y-83655109D01*
X186380734Y-83543851D01*
X186380729Y-83543848D01*
X186240488Y-83481408D01*
X186187251Y-83436158D01*
X186166930Y-83369308D01*
X186185976Y-83302085D01*
X186218034Y-83267814D01*
X186279871Y-83222888D01*
X186406533Y-83082216D01*
X186501179Y-82918284D01*
X186559674Y-82738256D01*
X186579460Y-82550000D01*
X195690540Y-82550000D01*
X195710326Y-82738256D01*
X195710327Y-82738259D01*
X195768818Y-82918277D01*
X195768821Y-82918284D01*
X195863467Y-83082216D01*
X195948025Y-83176127D01*
X195990129Y-83222888D01*
X196143265Y-83334148D01*
X196143270Y-83334151D01*
X196316192Y-83411142D01*
X196316197Y-83411144D01*
X196501354Y-83450500D01*
X196501355Y-83450500D01*
X196690644Y-83450500D01*
X196690646Y-83450500D01*
X196875803Y-83411144D01*
X197048730Y-83334151D01*
X197201871Y-83222888D01*
X197328533Y-83082216D01*
X197423179Y-82918284D01*
X197481674Y-82738256D01*
X197501460Y-82550000D01*
X197481674Y-82361744D01*
X197423179Y-82181716D01*
X197328533Y-82017784D01*
X197201871Y-81877112D01*
X197201870Y-81877111D01*
X197048734Y-81765851D01*
X197048729Y-81765848D01*
X196875807Y-81688857D01*
X196875802Y-81688855D01*
X196730001Y-81657865D01*
X196690646Y-81649500D01*
X196501354Y-81649500D01*
X196468897Y-81656398D01*
X196316197Y-81688855D01*
X196316192Y-81688857D01*
X196143270Y-81765848D01*
X196143265Y-81765851D01*
X195990129Y-81877111D01*
X195863466Y-82017785D01*
X195768821Y-82181715D01*
X195768818Y-82181722D01*
X195710327Y-82361740D01*
X195710326Y-82361744D01*
X195690540Y-82550000D01*
X186579460Y-82550000D01*
X186559674Y-82361744D01*
X186501179Y-82181716D01*
X186406533Y-82017784D01*
X186279871Y-81877112D01*
X186279870Y-81877111D01*
X186126734Y-81765851D01*
X186126729Y-81765848D01*
X185953807Y-81688857D01*
X185953802Y-81688855D01*
X185808001Y-81657865D01*
X185768646Y-81649500D01*
X185579354Y-81649500D01*
X185546897Y-81656398D01*
X185394197Y-81688855D01*
X185394192Y-81688857D01*
X185221270Y-81765848D01*
X185221265Y-81765851D01*
X185068129Y-81877111D01*
X184941466Y-82017785D01*
X184846821Y-82181715D01*
X184846818Y-82181722D01*
X184788327Y-82361740D01*
X184788326Y-82361744D01*
X184768540Y-82550000D01*
X127869888Y-82550000D01*
X128108696Y-82382786D01*
X128111681Y-82380821D01*
X128647277Y-82050460D01*
X128650355Y-82048683D01*
X129204279Y-81750010D01*
X129207438Y-81748423D01*
X129777767Y-81482474D01*
X129781053Y-81481057D01*
X130365866Y-81248725D01*
X130369227Y-81247501D01*
X130966559Y-81049566D01*
X130969997Y-81048536D01*
X131577846Y-80885664D01*
X131581293Y-80884846D01*
X132197593Y-80757591D01*
X132201116Y-80756971D01*
X132356596Y-80734196D01*
X132823749Y-80665768D01*
X132827281Y-80665355D01*
X133454159Y-80610510D01*
X133457752Y-80610301D01*
X134088271Y-80591954D01*
X134088546Y-80591954D01*
X134136141Y-80591954D01*
X195803198Y-80591954D01*
X196433337Y-80610292D01*
G37*
G04 #@! TD.AperFunction*
M02*
