G04 #@! TF.GenerationSoftware,KiCad,Pcbnew,7.0.8*
G04 #@! TF.CreationDate,2024-04-12T14:18:42-07:00*
G04 #@! TF.ProjectId,2-channel-EEG,322d6368-616e-46e6-956c-2d4545472e6b,rev?*
G04 #@! TF.SameCoordinates,Original*
G04 #@! TF.FileFunction,Copper,L4,Bot*
G04 #@! TF.FilePolarity,Positive*
%FSLAX46Y46*%
G04 Gerber Fmt 4.6, Leading zero omitted, Abs format (unit mm)*
G04 Created by KiCad (PCBNEW 7.0.8) date 2024-04-12 14:18:42*
%MOMM*%
%LPD*%
G01*
G04 APERTURE LIST*
G04 #@! TA.AperFunction,ComponentPad*
%ADD10R,1.700000X1.700000*%
G04 #@! TD*
G04 #@! TA.AperFunction,ComponentPad*
%ADD11O,1.700000X1.700000*%
G04 #@! TD*
G04 #@! TA.AperFunction,ViaPad*
%ADD12C,0.800000*%
G04 #@! TD*
G04 #@! TA.AperFunction,Conductor*
%ADD13C,0.250000*%
G04 #@! TD*
G04 #@! TA.AperFunction,Conductor*
%ADD14C,0.200000*%
G04 #@! TD*
G04 APERTURE END LIST*
D10*
X196342000Y-102616000D03*
D11*
X193802000Y-102616000D03*
X191262000Y-102616000D03*
X188722000Y-102616000D03*
X186182000Y-102616000D03*
X183642000Y-102616000D03*
D10*
X126746000Y-114554000D03*
X203200000Y-100584000D03*
X139700000Y-112268000D03*
D11*
X139700000Y-109728000D03*
X137160000Y-112268000D03*
D10*
X182880000Y-107437000D03*
D11*
X182880000Y-109977000D03*
D10*
X203200000Y-108204000D03*
D11*
X203200000Y-110744000D03*
X203200000Y-113284000D03*
X126746000Y-93975000D03*
D10*
X126746000Y-91435000D03*
X126746000Y-99822000D03*
D11*
X126746000Y-102362000D03*
X126746000Y-104902000D03*
X126746000Y-107442000D03*
X126746000Y-109982000D03*
X203200000Y-91186000D03*
D10*
X203200000Y-93726000D03*
X182880000Y-114554000D03*
D11*
X182880000Y-117094000D03*
D10*
X179578000Y-84074000D03*
D11*
X177038000Y-84074000D03*
X174498000Y-84074000D03*
X171958000Y-84074000D03*
X169418000Y-84074000D03*
X166878000Y-84074000D03*
D12*
X185674000Y-82550000D03*
X196596000Y-82550000D03*
X156210000Y-107442000D03*
X163830000Y-84074000D03*
X150876000Y-110236000D03*
X156210000Y-102108000D03*
X191008000Y-115062000D03*
X145796000Y-103378000D03*
X179832000Y-105156000D03*
X151833000Y-105115000D03*
X160274000Y-84074000D03*
X159004000Y-92710000D03*
X188214000Y-112014000D03*
X141986000Y-101600000D03*
X196850000Y-93218000D03*
X161971500Y-116759500D03*
X146050000Y-110236000D03*
X162052000Y-106172000D03*
X185674000Y-115062000D03*
X150876000Y-93218000D03*
X135890000Y-94488000D03*
X170688000Y-100584000D03*
X185420000Y-110998000D03*
X156972000Y-112776000D03*
X168656000Y-99060000D03*
X189992000Y-119380000D03*
X151892000Y-115824000D03*
X151892000Y-113792000D03*
X179832000Y-99060000D03*
X159004000Y-90678000D03*
X192409000Y-112522000D03*
X148590000Y-97282000D03*
X192278000Y-118364000D03*
X161544000Y-90678000D03*
X151892000Y-103124000D03*
X176276000Y-112522000D03*
X168656000Y-109474000D03*
X184404000Y-88646000D03*
X182880000Y-89916000D03*
X171196000Y-111252000D03*
X156464000Y-106426000D03*
X139192000Y-100584000D03*
X184404000Y-93218000D03*
X165354000Y-87630000D03*
X166878000Y-113030000D03*
X143002000Y-100838000D03*
X191393000Y-112522000D03*
X168656000Y-111506000D03*
X182880000Y-91948000D03*
X174498000Y-116840000D03*
X165100000Y-92710000D03*
X168402000Y-100838000D03*
X189484000Y-118364000D03*
X176276000Y-117064500D03*
X166878000Y-102362000D03*
X152908000Y-106172000D03*
X186817000Y-94107000D03*
X152908000Y-115824000D03*
X187198000Y-118364000D03*
X179832000Y-102108000D03*
X175260000Y-104140000D03*
X150622000Y-106426000D03*
X185674000Y-112268000D03*
X164084000Y-89662000D03*
X190650973Y-117983198D03*
X174244000Y-103124000D03*
X152908000Y-105156000D03*
X176276000Y-111506000D03*
X144715500Y-113219500D03*
X163576000Y-105156000D03*
X167004000Y-95124000D03*
X180086000Y-113792000D03*
X168656000Y-101854000D03*
X163393000Y-115133000D03*
X144526000Y-101854000D03*
X168656000Y-112562250D03*
X156210000Y-109474000D03*
X174244000Y-98552000D03*
X151130000Y-101346000D03*
X170180000Y-121158000D03*
X154940000Y-97028000D03*
X145288000Y-105410000D03*
X139136755Y-106934000D03*
X145734991Y-106303982D03*
X138430000Y-107696000D03*
X185928000Y-84328000D03*
X196981299Y-86482701D03*
D13*
X185674000Y-82550000D02*
X196596000Y-82550000D01*
D14*
X143764000Y-106934000D02*
X145288000Y-105410000D01*
X139136755Y-106934000D02*
X143764000Y-106934000D01*
X144342973Y-107696000D02*
X145734991Y-106303982D01*
X138430000Y-107696000D02*
X144342973Y-107696000D01*
D13*
X194826598Y-84328000D02*
X185928000Y-84328000D01*
X196981299Y-86482701D02*
X194826598Y-84328000D01*
G04 #@! TA.AperFunction,Conductor*
G36*
X196433337Y-80610292D02*
G01*
X196436937Y-80610501D01*
X197063809Y-80665348D01*
X197067340Y-80665761D01*
X197531532Y-80733756D01*
X197689975Y-80756966D01*
X197693503Y-80757587D01*
X198309764Y-80884837D01*
X198313244Y-80885661D01*
X198695606Y-80988116D01*
X198921081Y-81048533D01*
X198924537Y-81049568D01*
X199521840Y-81247494D01*
X199525230Y-81248728D01*
X200110019Y-81481051D01*
X200113329Y-81482479D01*
X200683618Y-81748410D01*
X200686839Y-81750028D01*
X201240717Y-82048677D01*
X201243826Y-82050472D01*
X201779392Y-82380814D01*
X201782393Y-82382789D01*
X202297856Y-82743721D01*
X202300750Y-82745875D01*
X202794338Y-83136155D01*
X202797101Y-83138474D01*
X203267169Y-83556797D01*
X203269775Y-83559255D01*
X203714743Y-84004223D01*
X203717202Y-84006830D01*
X204135525Y-84476898D01*
X204137844Y-84479661D01*
X204528124Y-84973249D01*
X204530278Y-84976143D01*
X204891210Y-85491606D01*
X204893190Y-85494615D01*
X205174375Y-85950486D01*
X205223518Y-86030158D01*
X205225322Y-86033282D01*
X205523971Y-86587160D01*
X205525590Y-86590383D01*
X205791519Y-87160668D01*
X205792948Y-87163980D01*
X206025271Y-87748769D01*
X206026505Y-87752159D01*
X206224431Y-88349462D01*
X206225466Y-88352918D01*
X206388333Y-88960734D01*
X206389164Y-88964244D01*
X206516407Y-89580472D01*
X206517033Y-89584024D01*
X206608236Y-90206643D01*
X206608655Y-90210226D01*
X206663497Y-90837061D01*
X206663707Y-90840662D01*
X206682046Y-91470802D01*
X206682046Y-113053454D01*
X206663690Y-113684247D01*
X206663480Y-113687848D01*
X206608640Y-114314680D01*
X206608221Y-114318263D01*
X206517020Y-114940881D01*
X206516394Y-114944434D01*
X206389154Y-115560661D01*
X206388322Y-115564171D01*
X206225457Y-116171989D01*
X206224422Y-116175445D01*
X206026498Y-116772747D01*
X206025264Y-116776136D01*
X205792942Y-117360926D01*
X205791513Y-117364238D01*
X205525582Y-117934529D01*
X205523963Y-117937753D01*
X205225322Y-118491616D01*
X205223518Y-118494740D01*
X204893184Y-119030294D01*
X204891201Y-119033308D01*
X204530274Y-119548765D01*
X204528120Y-119551659D01*
X204137851Y-120045233D01*
X204135532Y-120047996D01*
X203717200Y-120518073D01*
X203714725Y-120520697D01*
X203269791Y-120965630D01*
X203267167Y-120968105D01*
X202797100Y-121386428D01*
X202794337Y-121388747D01*
X202300740Y-121779032D01*
X202297847Y-121781186D01*
X201782400Y-122142105D01*
X201779386Y-122144088D01*
X201243834Y-122474422D01*
X201240710Y-122476226D01*
X200686846Y-122774866D01*
X200683622Y-122776485D01*
X200113325Y-123042419D01*
X200110013Y-123043848D01*
X199525235Y-123276164D01*
X199521846Y-123277398D01*
X198924538Y-123475324D01*
X198921082Y-123476359D01*
X198313264Y-123639224D01*
X198309754Y-123640055D01*
X197845316Y-123735954D01*
X197693515Y-123767298D01*
X197689972Y-123767923D01*
X197067358Y-123859121D01*
X197063775Y-123859540D01*
X196436941Y-123914381D01*
X196433340Y-123914591D01*
X195937344Y-123929023D01*
X195802546Y-123932946D01*
X195802282Y-123932954D01*
X134088546Y-123932954D01*
X133457752Y-123914598D01*
X133454151Y-123914388D01*
X132890989Y-123865118D01*
X132827315Y-123859547D01*
X132823735Y-123859129D01*
X132201117Y-123767928D01*
X132197564Y-123767302D01*
X132063231Y-123739564D01*
X131581327Y-123640059D01*
X131577827Y-123639230D01*
X130970009Y-123476365D01*
X130966554Y-123475330D01*
X130369250Y-123277406D01*
X130365861Y-123276172D01*
X129781072Y-123043850D01*
X129777760Y-123042421D01*
X129207468Y-122776490D01*
X129204254Y-122774876D01*
X128650381Y-122476230D01*
X128647257Y-122474426D01*
X128575344Y-122430070D01*
X128111685Y-122144080D01*
X128108689Y-122142109D01*
X127593243Y-121781190D01*
X127590350Y-121779036D01*
X127096753Y-121388750D01*
X127093990Y-121386431D01*
X126837303Y-121158000D01*
X169274540Y-121158000D01*
X169294326Y-121346256D01*
X169294327Y-121346259D01*
X169352818Y-121526277D01*
X169352821Y-121526284D01*
X169447467Y-121690216D01*
X169528446Y-121780152D01*
X169574129Y-121830888D01*
X169727265Y-121942148D01*
X169727270Y-121942151D01*
X169900192Y-122019142D01*
X169900197Y-122019144D01*
X170085354Y-122058500D01*
X170085355Y-122058500D01*
X170274644Y-122058500D01*
X170274646Y-122058500D01*
X170459803Y-122019144D01*
X170632730Y-121942151D01*
X170785871Y-121830888D01*
X170912533Y-121690216D01*
X171007179Y-121526284D01*
X171065674Y-121346256D01*
X171085460Y-121158000D01*
X171065674Y-120969744D01*
X171007179Y-120789716D01*
X170912533Y-120625784D01*
X170785871Y-120485112D01*
X170785870Y-120485111D01*
X170632734Y-120373851D01*
X170632729Y-120373848D01*
X170459807Y-120296857D01*
X170459802Y-120296855D01*
X170314001Y-120265865D01*
X170274646Y-120257500D01*
X170085354Y-120257500D01*
X170052897Y-120264398D01*
X169900197Y-120296855D01*
X169900192Y-120296857D01*
X169727270Y-120373848D01*
X169727265Y-120373851D01*
X169574129Y-120485111D01*
X169447466Y-120625785D01*
X169352821Y-120789715D01*
X169352818Y-120789722D01*
X169294327Y-120969740D01*
X169294326Y-120969744D01*
X169274540Y-121158000D01*
X126837303Y-121158000D01*
X126623923Y-120968108D01*
X126621316Y-120965649D01*
X126176349Y-120520682D01*
X126173891Y-120518076D01*
X125755568Y-120048009D01*
X125753249Y-120045246D01*
X125362963Y-119551649D01*
X125360809Y-119548756D01*
X125110824Y-119191740D01*
X125064794Y-119126003D01*
X126439381Y-119126003D01*
X126459827Y-119398839D01*
X126459827Y-119398840D01*
X126520706Y-119665570D01*
X126520708Y-119665579D01*
X126520710Y-119665584D01*
X126620669Y-119920276D01*
X126757472Y-120157224D01*
X126868824Y-120296856D01*
X126928064Y-120371141D01*
X127117399Y-120546817D01*
X127128628Y-120557236D01*
X127354691Y-120711363D01*
X127354696Y-120711365D01*
X127354697Y-120711366D01*
X127354698Y-120711367D01*
X127485618Y-120774414D01*
X127601196Y-120830073D01*
X127601197Y-120830073D01*
X127601200Y-120830075D01*
X127862649Y-120910722D01*
X127862650Y-120910722D01*
X127862653Y-120910723D01*
X128133190Y-120951499D01*
X128133195Y-120951499D01*
X128133198Y-120951500D01*
X128133199Y-120951500D01*
X128406801Y-120951500D01*
X128406802Y-120951500D01*
X128406809Y-120951499D01*
X128677346Y-120910723D01*
X128677347Y-120910722D01*
X128677351Y-120910722D01*
X128938800Y-120830075D01*
X129185310Y-120711363D01*
X129411372Y-120557236D01*
X129609016Y-120373849D01*
X129611935Y-120371141D01*
X129611935Y-120371139D01*
X129611939Y-120371137D01*
X129782528Y-120157224D01*
X129919331Y-119920276D01*
X130019290Y-119665584D01*
X130080172Y-119398840D01*
X130081584Y-119380000D01*
X189086540Y-119380000D01*
X189106326Y-119568256D01*
X189106327Y-119568259D01*
X189164818Y-119748277D01*
X189164821Y-119748284D01*
X189259467Y-119912216D01*
X189380522Y-120046661D01*
X189386129Y-120052888D01*
X189539265Y-120164148D01*
X189539270Y-120164151D01*
X189712192Y-120241142D01*
X189712197Y-120241144D01*
X189897354Y-120280500D01*
X189897355Y-120280500D01*
X190086644Y-120280500D01*
X190086646Y-120280500D01*
X190271803Y-120241144D01*
X190444730Y-120164151D01*
X190597871Y-120052888D01*
X190724533Y-119912216D01*
X190819179Y-119748284D01*
X190877674Y-119568256D01*
X190897460Y-119380000D01*
X190877674Y-119191744D01*
X190819179Y-119011716D01*
X190724533Y-118847784D01*
X190597871Y-118707112D01*
X190597870Y-118707111D01*
X190444734Y-118595851D01*
X190444729Y-118595848D01*
X190271807Y-118518857D01*
X190271802Y-118518855D01*
X190126001Y-118487865D01*
X190086646Y-118479500D01*
X189897354Y-118479500D01*
X189864897Y-118486398D01*
X189712197Y-118518855D01*
X189712192Y-118518857D01*
X189539270Y-118595848D01*
X189539265Y-118595851D01*
X189386129Y-118707111D01*
X189259466Y-118847785D01*
X189164821Y-119011715D01*
X189164818Y-119011722D01*
X189121566Y-119144839D01*
X189106326Y-119191744D01*
X189086540Y-119380000D01*
X130081584Y-119380000D01*
X130095692Y-119191744D01*
X130100619Y-119126003D01*
X130100619Y-119125996D01*
X130080172Y-118853160D01*
X130080172Y-118853159D01*
X130019293Y-118586429D01*
X130019292Y-118586428D01*
X130019290Y-118586416D01*
X129919331Y-118331724D01*
X129782528Y-118094776D01*
X129611939Y-117880863D01*
X129611938Y-117880862D01*
X129611935Y-117880858D01*
X129411372Y-117694764D01*
X129185310Y-117540637D01*
X129185306Y-117540635D01*
X129185303Y-117540633D01*
X129185302Y-117540632D01*
X128938802Y-117421926D01*
X128938804Y-117421926D01*
X128677352Y-117341278D01*
X128677346Y-117341276D01*
X128406809Y-117300500D01*
X128406802Y-117300500D01*
X128133198Y-117300500D01*
X128133190Y-117300500D01*
X127862653Y-117341276D01*
X127862647Y-117341278D01*
X127601196Y-117421926D01*
X127354698Y-117540632D01*
X127354697Y-117540633D01*
X127128627Y-117694764D01*
X126928064Y-117880858D01*
X126757472Y-118094776D01*
X126620669Y-118331723D01*
X126520712Y-118586410D01*
X126520706Y-118586429D01*
X126459827Y-118853159D01*
X126459827Y-118853160D01*
X126439381Y-119125996D01*
X126439381Y-119126003D01*
X125064794Y-119126003D01*
X124999888Y-119033307D01*
X124997924Y-119030323D01*
X124667569Y-118494735D01*
X124665769Y-118491618D01*
X124632040Y-118429063D01*
X124367116Y-117937731D01*
X124365516Y-117934545D01*
X124099578Y-117364239D01*
X124098149Y-117360927D01*
X124070652Y-117291714D01*
X123934008Y-116947759D01*
X123865827Y-116776138D01*
X123864593Y-116772749D01*
X123864592Y-116772747D01*
X123860202Y-116759500D01*
X161066040Y-116759500D01*
X161085826Y-116947756D01*
X161085827Y-116947759D01*
X161144318Y-117127777D01*
X161144321Y-117127784D01*
X161238967Y-117291716D01*
X161356208Y-117421925D01*
X161365629Y-117432388D01*
X161518765Y-117543648D01*
X161518770Y-117543651D01*
X161691692Y-117620642D01*
X161691697Y-117620644D01*
X161876854Y-117660000D01*
X161876855Y-117660000D01*
X162066144Y-117660000D01*
X162066146Y-117660000D01*
X162251303Y-117620644D01*
X162424230Y-117543651D01*
X162577371Y-117432388D01*
X162704033Y-117291716D01*
X162798679Y-117127784D01*
X162809656Y-117094000D01*
X181524341Y-117094000D01*
X181544936Y-117329403D01*
X181544938Y-117329413D01*
X181606094Y-117557655D01*
X181606096Y-117557659D01*
X181606097Y-117557663D01*
X181693194Y-117744442D01*
X181705965Y-117771830D01*
X181705967Y-117771834D01*
X181782307Y-117880858D01*
X181841505Y-117965401D01*
X182008599Y-118132495D01*
X182070359Y-118175740D01*
X182202165Y-118268032D01*
X182202167Y-118268033D01*
X182202170Y-118268035D01*
X182416337Y-118367903D01*
X182644592Y-118429063D01*
X182832918Y-118445539D01*
X182879999Y-118449659D01*
X182880000Y-118449659D01*
X182880001Y-118449659D01*
X182919234Y-118446226D01*
X183115408Y-118429063D01*
X183343663Y-118367903D01*
X183352033Y-118364000D01*
X191372540Y-118364000D01*
X191392326Y-118552256D01*
X191392327Y-118552259D01*
X191450818Y-118732277D01*
X191450821Y-118732284D01*
X191545467Y-118896216D01*
X191666192Y-119030294D01*
X191672129Y-119036888D01*
X191825265Y-119148148D01*
X191825270Y-119148151D01*
X191998192Y-119225142D01*
X191998197Y-119225144D01*
X192183354Y-119264500D01*
X192183355Y-119264500D01*
X192372644Y-119264500D01*
X192372646Y-119264500D01*
X192557803Y-119225144D01*
X192730730Y-119148151D01*
X192883871Y-119036888D01*
X193010533Y-118896216D01*
X193024512Y-118872003D01*
X200099381Y-118872003D01*
X200119827Y-119144839D01*
X200119827Y-119144840D01*
X200180706Y-119411570D01*
X200180708Y-119411579D01*
X200180710Y-119411584D01*
X200280669Y-119666276D01*
X200417472Y-119903224D01*
X200555257Y-120076002D01*
X200588064Y-120117141D01*
X200739336Y-120257500D01*
X200788628Y-120303236D01*
X201014691Y-120457363D01*
X201014696Y-120457365D01*
X201014697Y-120457366D01*
X201014698Y-120457367D01*
X201140757Y-120518073D01*
X201261196Y-120576073D01*
X201261197Y-120576073D01*
X201261200Y-120576075D01*
X201522649Y-120656722D01*
X201522650Y-120656722D01*
X201522653Y-120656723D01*
X201793190Y-120697499D01*
X201793195Y-120697499D01*
X201793198Y-120697500D01*
X201793199Y-120697500D01*
X202066801Y-120697500D01*
X202066802Y-120697500D01*
X202066809Y-120697499D01*
X202337346Y-120656723D01*
X202337347Y-120656722D01*
X202337351Y-120656722D01*
X202598800Y-120576075D01*
X202793585Y-120482272D01*
X202845302Y-120457367D01*
X202845302Y-120457366D01*
X202845310Y-120457363D01*
X203071372Y-120303236D01*
X203227023Y-120158812D01*
X203271935Y-120117141D01*
X203271935Y-120117139D01*
X203271939Y-120117137D01*
X203442528Y-119903224D01*
X203579331Y-119666276D01*
X203679290Y-119411584D01*
X203740172Y-119144840D01*
X203750148Y-119011722D01*
X203760619Y-118872003D01*
X203760619Y-118871996D01*
X203740172Y-118599160D01*
X203740172Y-118599159D01*
X203679293Y-118332429D01*
X203679292Y-118332428D01*
X203679290Y-118332416D01*
X203579331Y-118077724D01*
X203442528Y-117840776D01*
X203271939Y-117626863D01*
X203271938Y-117626862D01*
X203271935Y-117626858D01*
X203071372Y-117440764D01*
X203043740Y-117421925D01*
X202845310Y-117286637D01*
X202845306Y-117286635D01*
X202845303Y-117286633D01*
X202845302Y-117286632D01*
X202598802Y-117167926D01*
X202598804Y-117167926D01*
X202337352Y-117087278D01*
X202337346Y-117087276D01*
X202066809Y-117046500D01*
X202066802Y-117046500D01*
X201793198Y-117046500D01*
X201793190Y-117046500D01*
X201522653Y-117087276D01*
X201522647Y-117087278D01*
X201261196Y-117167926D01*
X201014698Y-117286632D01*
X201014697Y-117286633D01*
X201014691Y-117286636D01*
X201014691Y-117286637D01*
X200994358Y-117300500D01*
X200788627Y-117440764D01*
X200588064Y-117626858D01*
X200417472Y-117840776D01*
X200280669Y-118077723D01*
X200180712Y-118332410D01*
X200180706Y-118332429D01*
X200119827Y-118599159D01*
X200119827Y-118599160D01*
X200099381Y-118871996D01*
X200099381Y-118872003D01*
X193024512Y-118872003D01*
X193105179Y-118732284D01*
X193163674Y-118552256D01*
X193183460Y-118364000D01*
X193163674Y-118175744D01*
X193105179Y-117995716D01*
X193010533Y-117831784D01*
X192883871Y-117691112D01*
X192841049Y-117660000D01*
X192730734Y-117579851D01*
X192730729Y-117579848D01*
X192557807Y-117502857D01*
X192557802Y-117502855D01*
X192412001Y-117471865D01*
X192372646Y-117463500D01*
X192183354Y-117463500D01*
X192150897Y-117470398D01*
X191998197Y-117502855D01*
X191998192Y-117502857D01*
X191825270Y-117579848D01*
X191825265Y-117579851D01*
X191672129Y-117691111D01*
X191545466Y-117831785D01*
X191450821Y-117995715D01*
X191450818Y-117995722D01*
X191392327Y-118175740D01*
X191392326Y-118175744D01*
X191372540Y-118364000D01*
X183352033Y-118364000D01*
X183557830Y-118268035D01*
X183751401Y-118132495D01*
X183918495Y-117965401D01*
X184054035Y-117771830D01*
X184153903Y-117557663D01*
X184215063Y-117329408D01*
X184235659Y-117094000D01*
X184215063Y-116858592D01*
X184153903Y-116630337D01*
X184054035Y-116416171D01*
X184036561Y-116391216D01*
X183918496Y-116222600D01*
X183867885Y-116171989D01*
X183796567Y-116100671D01*
X183763084Y-116039351D01*
X183768068Y-115969659D01*
X183809939Y-115913725D01*
X183840915Y-115896810D01*
X183972331Y-115847796D01*
X184087546Y-115761546D01*
X184173796Y-115646331D01*
X184224091Y-115511483D01*
X184230500Y-115451873D01*
X184230500Y-115062000D01*
X184768540Y-115062000D01*
X184788326Y-115250256D01*
X184788327Y-115250259D01*
X184846818Y-115430277D01*
X184846821Y-115430284D01*
X184941467Y-115594216D01*
X185005394Y-115665214D01*
X185068129Y-115734888D01*
X185221265Y-115846148D01*
X185221270Y-115846151D01*
X185394192Y-115923142D01*
X185394197Y-115923144D01*
X185579354Y-115962500D01*
X185579355Y-115962500D01*
X185768644Y-115962500D01*
X185768646Y-115962500D01*
X185953803Y-115923144D01*
X186126730Y-115846151D01*
X186279871Y-115734888D01*
X186406533Y-115594216D01*
X186501179Y-115430284D01*
X186559674Y-115250256D01*
X186579460Y-115062000D01*
X190102540Y-115062000D01*
X190122326Y-115250256D01*
X190122327Y-115250259D01*
X190180818Y-115430277D01*
X190180821Y-115430284D01*
X190275467Y-115594216D01*
X190339394Y-115665214D01*
X190402129Y-115734888D01*
X190555265Y-115846148D01*
X190555270Y-115846151D01*
X190728192Y-115923142D01*
X190728197Y-115923144D01*
X190913354Y-115962500D01*
X190913355Y-115962500D01*
X191102644Y-115962500D01*
X191102646Y-115962500D01*
X191287803Y-115923144D01*
X191460730Y-115846151D01*
X191613871Y-115734888D01*
X191740533Y-115594216D01*
X191835179Y-115430284D01*
X191893674Y-115250256D01*
X191913460Y-115062000D01*
X191893674Y-114873744D01*
X191835179Y-114693716D01*
X191740533Y-114529784D01*
X191613871Y-114389112D01*
X191613870Y-114389111D01*
X191460734Y-114277851D01*
X191460729Y-114277848D01*
X191287807Y-114200857D01*
X191287802Y-114200855D01*
X191142001Y-114169865D01*
X191102646Y-114161500D01*
X190913354Y-114161500D01*
X190880897Y-114168398D01*
X190728197Y-114200855D01*
X190728192Y-114200857D01*
X190555270Y-114277848D01*
X190555265Y-114277851D01*
X190402129Y-114389111D01*
X190275466Y-114529785D01*
X190180821Y-114693715D01*
X190180818Y-114693722D01*
X190122327Y-114873740D01*
X190122326Y-114873744D01*
X190102540Y-115062000D01*
X186579460Y-115062000D01*
X186559674Y-114873744D01*
X186501179Y-114693716D01*
X186406533Y-114529784D01*
X186279871Y-114389112D01*
X186279870Y-114389111D01*
X186126734Y-114277851D01*
X186126729Y-114277848D01*
X185953807Y-114200857D01*
X185953802Y-114200855D01*
X185808001Y-114169865D01*
X185768646Y-114161500D01*
X185579354Y-114161500D01*
X185546897Y-114168398D01*
X185394197Y-114200855D01*
X185394192Y-114200857D01*
X185221270Y-114277848D01*
X185221265Y-114277851D01*
X185068129Y-114389111D01*
X184941466Y-114529785D01*
X184846821Y-114693715D01*
X184846818Y-114693722D01*
X184788327Y-114873740D01*
X184788326Y-114873744D01*
X184768540Y-115062000D01*
X184230500Y-115062000D01*
X184230499Y-113656128D01*
X184224795Y-113603063D01*
X184224091Y-113596516D01*
X184173797Y-113461671D01*
X184173793Y-113461664D01*
X184087547Y-113346455D01*
X184087544Y-113346452D01*
X183972335Y-113260206D01*
X183972328Y-113260202D01*
X183837482Y-113209908D01*
X183837483Y-113209908D01*
X183777883Y-113203501D01*
X183777881Y-113203500D01*
X183777873Y-113203500D01*
X183777864Y-113203500D01*
X181982129Y-113203500D01*
X181982123Y-113203501D01*
X181922516Y-113209908D01*
X181787671Y-113260202D01*
X181787664Y-113260206D01*
X181672455Y-113346452D01*
X181672452Y-113346455D01*
X181586206Y-113461664D01*
X181586202Y-113461671D01*
X181535908Y-113596517D01*
X181531541Y-113637142D01*
X181529501Y-113656123D01*
X181529500Y-113656135D01*
X181529500Y-115451870D01*
X181529501Y-115451876D01*
X181535908Y-115511483D01*
X181586202Y-115646328D01*
X181586206Y-115646335D01*
X181672452Y-115761544D01*
X181672455Y-115761547D01*
X181787664Y-115847793D01*
X181787671Y-115847797D01*
X181919081Y-115896810D01*
X181975015Y-115938681D01*
X181999432Y-116004145D01*
X181984580Y-116072418D01*
X181963430Y-116100673D01*
X181841503Y-116222600D01*
X181705965Y-116416169D01*
X181705964Y-116416171D01*
X181606098Y-116630335D01*
X181606094Y-116630344D01*
X181544938Y-116858586D01*
X181544936Y-116858596D01*
X181524341Y-117093999D01*
X181524341Y-117094000D01*
X162809656Y-117094000D01*
X162857174Y-116947756D01*
X162876960Y-116759500D01*
X162857174Y-116571244D01*
X162798679Y-116391216D01*
X162704033Y-116227284D01*
X162577371Y-116086612D01*
X162512322Y-116039351D01*
X162424234Y-115975351D01*
X162424229Y-115975348D01*
X162251307Y-115898357D01*
X162251302Y-115898355D01*
X162105501Y-115867365D01*
X162066146Y-115859000D01*
X161876854Y-115859000D01*
X161844397Y-115865898D01*
X161691697Y-115898355D01*
X161691692Y-115898357D01*
X161518770Y-115975348D01*
X161518765Y-115975351D01*
X161365629Y-116086611D01*
X161238966Y-116227285D01*
X161144321Y-116391215D01*
X161144318Y-116391222D01*
X161095592Y-116541186D01*
X161085826Y-116571244D01*
X161066040Y-116759500D01*
X123860202Y-116759500D01*
X123766406Y-116476436D01*
X123666669Y-116175445D01*
X123665634Y-116171990D01*
X123593960Y-115904499D01*
X123502766Y-115564160D01*
X123501945Y-115560697D01*
X123479474Y-115451870D01*
X125395500Y-115451870D01*
X125395501Y-115451876D01*
X125401908Y-115511483D01*
X125452202Y-115646328D01*
X125452206Y-115646335D01*
X125538452Y-115761544D01*
X125538455Y-115761547D01*
X125653664Y-115847793D01*
X125653671Y-115847797D01*
X125788517Y-115898091D01*
X125788516Y-115898091D01*
X125795444Y-115898835D01*
X125848127Y-115904500D01*
X127643872Y-115904499D01*
X127703483Y-115898091D01*
X127838331Y-115847796D01*
X127870118Y-115824000D01*
X150986540Y-115824000D01*
X151006326Y-116012256D01*
X151006327Y-116012259D01*
X151064818Y-116192277D01*
X151064821Y-116192284D01*
X151159467Y-116356216D01*
X151213451Y-116416171D01*
X151286129Y-116496888D01*
X151439265Y-116608148D01*
X151439270Y-116608151D01*
X151612192Y-116685142D01*
X151612197Y-116685144D01*
X151797354Y-116724500D01*
X151797355Y-116724500D01*
X151986644Y-116724500D01*
X151986646Y-116724500D01*
X152171803Y-116685144D01*
X152344730Y-116608151D01*
X152497871Y-116496888D01*
X152624533Y-116356216D01*
X152719179Y-116192284D01*
X152777674Y-116012256D01*
X152797460Y-115824000D01*
X152777674Y-115635744D01*
X152719179Y-115455716D01*
X152624533Y-115291784D01*
X152497871Y-115151112D01*
X152472942Y-115133000D01*
X162487540Y-115133000D01*
X162507326Y-115321256D01*
X162507327Y-115321259D01*
X162565818Y-115501277D01*
X162565821Y-115501284D01*
X162660467Y-115665216D01*
X162747203Y-115761546D01*
X162787129Y-115805888D01*
X162940265Y-115917148D01*
X162940270Y-115917151D01*
X163113192Y-115994142D01*
X163113197Y-115994144D01*
X163298354Y-116033500D01*
X163298355Y-116033500D01*
X163487644Y-116033500D01*
X163487646Y-116033500D01*
X163672803Y-115994144D01*
X163845730Y-115917151D01*
X163998871Y-115805888D01*
X164125533Y-115665216D01*
X164220179Y-115501284D01*
X164278674Y-115321256D01*
X164298460Y-115133000D01*
X164278674Y-114944744D01*
X164220179Y-114764716D01*
X164125533Y-114600784D01*
X163998871Y-114460112D01*
X163998870Y-114460111D01*
X163845734Y-114348851D01*
X163845729Y-114348848D01*
X163672807Y-114271857D01*
X163672802Y-114271855D01*
X163527001Y-114240865D01*
X163487646Y-114232500D01*
X163298354Y-114232500D01*
X163265897Y-114239398D01*
X163113197Y-114271855D01*
X163113192Y-114271857D01*
X162940270Y-114348848D01*
X162940265Y-114348851D01*
X162787129Y-114460111D01*
X162660466Y-114600785D01*
X162565821Y-114764715D01*
X162565818Y-114764722D01*
X162507426Y-114944435D01*
X162507326Y-114944744D01*
X162487540Y-115133000D01*
X152472942Y-115133000D01*
X152344734Y-115039851D01*
X152344729Y-115039848D01*
X152171807Y-114962857D01*
X152171802Y-114962855D01*
X152048509Y-114936649D01*
X152013884Y-114929289D01*
X151952403Y-114896098D01*
X151918627Y-114834935D01*
X151923279Y-114765220D01*
X151964883Y-114709088D01*
X152013884Y-114686710D01*
X152171803Y-114653144D01*
X152344730Y-114576151D01*
X152497871Y-114464888D01*
X152624533Y-114324216D01*
X152719179Y-114160284D01*
X152777674Y-113980256D01*
X152797460Y-113792000D01*
X179180540Y-113792000D01*
X179200326Y-113980256D01*
X179200327Y-113980259D01*
X179258818Y-114160277D01*
X179258821Y-114160284D01*
X179353467Y-114324216D01*
X179375646Y-114348848D01*
X179480129Y-114464888D01*
X179633265Y-114576148D01*
X179633270Y-114576151D01*
X179806192Y-114653142D01*
X179806197Y-114653144D01*
X179991354Y-114692500D01*
X179991355Y-114692500D01*
X180180644Y-114692500D01*
X180180646Y-114692500D01*
X180365803Y-114653144D01*
X180538730Y-114576151D01*
X180691871Y-114464888D01*
X180818533Y-114324216D01*
X180913179Y-114160284D01*
X180971674Y-113980256D01*
X180991460Y-113792000D01*
X180971674Y-113603744D01*
X180913179Y-113423716D01*
X180818533Y-113259784D01*
X180691871Y-113119112D01*
X180657946Y-113094464D01*
X180538734Y-113007851D01*
X180538729Y-113007848D01*
X180365807Y-112930857D01*
X180365802Y-112930855D01*
X180220001Y-112899865D01*
X180180646Y-112891500D01*
X179991354Y-112891500D01*
X179958897Y-112898398D01*
X179806197Y-112930855D01*
X179806192Y-112930857D01*
X179633270Y-113007848D01*
X179633265Y-113007851D01*
X179480129Y-113119111D01*
X179353466Y-113259785D01*
X179258821Y-113423715D01*
X179258818Y-113423722D01*
X179202674Y-113596517D01*
X179200326Y-113603744D01*
X179180540Y-113792000D01*
X152797460Y-113792000D01*
X152777674Y-113603744D01*
X152719179Y-113423716D01*
X152624533Y-113259784D01*
X152497871Y-113119112D01*
X152463946Y-113094464D01*
X152344734Y-113007851D01*
X152344729Y-113007848D01*
X152171807Y-112930857D01*
X152171802Y-112930855D01*
X152026001Y-112899865D01*
X151986646Y-112891500D01*
X151797354Y-112891500D01*
X151764897Y-112898398D01*
X151612197Y-112930855D01*
X151612192Y-112930857D01*
X151439270Y-113007848D01*
X151439265Y-113007851D01*
X151286129Y-113119111D01*
X151159466Y-113259785D01*
X151064821Y-113423715D01*
X151064818Y-113423722D01*
X151008674Y-113596517D01*
X151006326Y-113603744D01*
X150986540Y-113792000D01*
X151006326Y-113980256D01*
X151006327Y-113980259D01*
X151064818Y-114160277D01*
X151064821Y-114160284D01*
X151159467Y-114324216D01*
X151181646Y-114348848D01*
X151286129Y-114464888D01*
X151439265Y-114576148D01*
X151439270Y-114576151D01*
X151612192Y-114653142D01*
X151612197Y-114653144D01*
X151770114Y-114686710D01*
X151831596Y-114719902D01*
X151865372Y-114781065D01*
X151860720Y-114850780D01*
X151819115Y-114906912D01*
X151770114Y-114929290D01*
X151612197Y-114962855D01*
X151612192Y-114962857D01*
X151439270Y-115039848D01*
X151439265Y-115039851D01*
X151286129Y-115151111D01*
X151159466Y-115291785D01*
X151064821Y-115455715D01*
X151064818Y-115455722D01*
X151029581Y-115564172D01*
X151006326Y-115635744D01*
X150986540Y-115824000D01*
X127870118Y-115824000D01*
X127953546Y-115761546D01*
X128039796Y-115646331D01*
X128090091Y-115511483D01*
X128096500Y-115451873D01*
X128096499Y-113656128D01*
X128090795Y-113603063D01*
X128090091Y-113596516D01*
X128039797Y-113461671D01*
X128039793Y-113461664D01*
X127953547Y-113346455D01*
X127953544Y-113346452D01*
X127838335Y-113260206D01*
X127838328Y-113260202D01*
X127703482Y-113209908D01*
X127703483Y-113209908D01*
X127643883Y-113203501D01*
X127643881Y-113203500D01*
X127643873Y-113203500D01*
X127643864Y-113203500D01*
X125848129Y-113203500D01*
X125848123Y-113203501D01*
X125788516Y-113209908D01*
X125653671Y-113260202D01*
X125653664Y-113260206D01*
X125538455Y-113346452D01*
X125538452Y-113346455D01*
X125452206Y-113461664D01*
X125452202Y-113461671D01*
X125401908Y-113596517D01*
X125397541Y-113637142D01*
X125395501Y-113656123D01*
X125395500Y-113656135D01*
X125395500Y-115451870D01*
X123479474Y-115451870D01*
X123374692Y-114944411D01*
X123374071Y-114940882D01*
X123324254Y-114600785D01*
X123282868Y-114318254D01*
X123282454Y-114314714D01*
X123227610Y-113687841D01*
X123227401Y-113684246D01*
X123209046Y-113053454D01*
X123209046Y-112268000D01*
X135804341Y-112268000D01*
X135824936Y-112503403D01*
X135824938Y-112503413D01*
X135886094Y-112731655D01*
X135886096Y-112731659D01*
X135886097Y-112731663D01*
X135978983Y-112930857D01*
X135985965Y-112945830D01*
X135985967Y-112945834D01*
X136061324Y-113053454D01*
X136121505Y-113139401D01*
X136288599Y-113306495D01*
X136385384Y-113374265D01*
X136482165Y-113442032D01*
X136482167Y-113442033D01*
X136482170Y-113442035D01*
X136696337Y-113541903D01*
X136924592Y-113603063D01*
X137101034Y-113618500D01*
X137159999Y-113623659D01*
X137160000Y-113623659D01*
X137160001Y-113623659D01*
X137218966Y-113618500D01*
X137395408Y-113603063D01*
X137623663Y-113541903D01*
X137837830Y-113442035D01*
X138031401Y-113306495D01*
X138153329Y-113184566D01*
X138214648Y-113151084D01*
X138284340Y-113156068D01*
X138340274Y-113197939D01*
X138357189Y-113228917D01*
X138406202Y-113360328D01*
X138406206Y-113360335D01*
X138492452Y-113475544D01*
X138492455Y-113475547D01*
X138607664Y-113561793D01*
X138607671Y-113561797D01*
X138742517Y-113612091D01*
X138742516Y-113612091D01*
X138749444Y-113612835D01*
X138802127Y-113618500D01*
X140597872Y-113618499D01*
X140657483Y-113612091D01*
X140792331Y-113561796D01*
X140907546Y-113475546D01*
X140993796Y-113360331D01*
X141044091Y-113225483D01*
X141044734Y-113219500D01*
X143810040Y-113219500D01*
X143829826Y-113407756D01*
X143829827Y-113407759D01*
X143888318Y-113587777D01*
X143888321Y-113587784D01*
X143982967Y-113751716D01*
X144109629Y-113892388D01*
X144262765Y-114003648D01*
X144262770Y-114003651D01*
X144435692Y-114080642D01*
X144435697Y-114080644D01*
X144620854Y-114120000D01*
X144620855Y-114120000D01*
X144810144Y-114120000D01*
X144810146Y-114120000D01*
X144995303Y-114080644D01*
X145168230Y-114003651D01*
X145321371Y-113892388D01*
X145448033Y-113751716D01*
X145542679Y-113587784D01*
X145601174Y-113407756D01*
X145620960Y-113219500D01*
X145601174Y-113031244D01*
X145542679Y-112851216D01*
X145499253Y-112776000D01*
X156066540Y-112776000D01*
X156086326Y-112964256D01*
X156086327Y-112964259D01*
X156144818Y-113144277D01*
X156144821Y-113144284D01*
X156239467Y-113308216D01*
X156359956Y-113442032D01*
X156366129Y-113448888D01*
X156519265Y-113560148D01*
X156519270Y-113560151D01*
X156692192Y-113637142D01*
X156692197Y-113637144D01*
X156877354Y-113676500D01*
X156877355Y-113676500D01*
X157066644Y-113676500D01*
X157066646Y-113676500D01*
X157251803Y-113637144D01*
X157424730Y-113560151D01*
X157577871Y-113448888D01*
X157704533Y-113308216D01*
X157799179Y-113144284D01*
X157857674Y-112964256D01*
X157877460Y-112776000D01*
X157857674Y-112587744D01*
X157849390Y-112562250D01*
X167750540Y-112562250D01*
X167770326Y-112750506D01*
X167770327Y-112750509D01*
X167828818Y-112930527D01*
X167828821Y-112930534D01*
X167923467Y-113094466D01*
X168041435Y-113225482D01*
X168050129Y-113235138D01*
X168203265Y-113346398D01*
X168203270Y-113346401D01*
X168376192Y-113423392D01*
X168376197Y-113423394D01*
X168561354Y-113462750D01*
X168561355Y-113462750D01*
X168750644Y-113462750D01*
X168750646Y-113462750D01*
X168935803Y-113423394D01*
X169108730Y-113346401D01*
X169261871Y-113235138D01*
X169388533Y-113094466D01*
X169483179Y-112930534D01*
X169541674Y-112750506D01*
X169561460Y-112562250D01*
X169557230Y-112522000D01*
X175370540Y-112522000D01*
X175390326Y-112710256D01*
X175390327Y-112710259D01*
X175448818Y-112890277D01*
X175448821Y-112890284D01*
X175543467Y-113054216D01*
X175601899Y-113119111D01*
X175670129Y-113194888D01*
X175823265Y-113306148D01*
X175823270Y-113306151D01*
X175996192Y-113383142D01*
X175996197Y-113383144D01*
X176181354Y-113422500D01*
X176181355Y-113422500D01*
X176370644Y-113422500D01*
X176370646Y-113422500D01*
X176555803Y-113383144D01*
X176728730Y-113306151D01*
X176881871Y-113194888D01*
X177008533Y-113054216D01*
X177103179Y-112890284D01*
X177161674Y-112710256D01*
X177181460Y-112522000D01*
X177161674Y-112333744D01*
X177103179Y-112153716D01*
X177058308Y-112075997D01*
X177043267Y-112014000D01*
X187308540Y-112014000D01*
X187328326Y-112202256D01*
X187328327Y-112202259D01*
X187386818Y-112382277D01*
X187386821Y-112382284D01*
X187481467Y-112546216D01*
X187535451Y-112606171D01*
X187608129Y-112686888D01*
X187761265Y-112798148D01*
X187761270Y-112798151D01*
X187934192Y-112875142D01*
X187934197Y-112875144D01*
X188119354Y-112914500D01*
X188119355Y-112914500D01*
X188308644Y-112914500D01*
X188308646Y-112914500D01*
X188493803Y-112875144D01*
X188666730Y-112798151D01*
X188819871Y-112686888D01*
X188946533Y-112546216D01*
X188960514Y-112522000D01*
X191503540Y-112522000D01*
X191523326Y-112710256D01*
X191523327Y-112710259D01*
X191581818Y-112890277D01*
X191581821Y-112890284D01*
X191676467Y-113054216D01*
X191734899Y-113119111D01*
X191803129Y-113194888D01*
X191956265Y-113306148D01*
X191956270Y-113306151D01*
X192129192Y-113383142D01*
X192129197Y-113383144D01*
X192314354Y-113422500D01*
X192314355Y-113422500D01*
X192503644Y-113422500D01*
X192503646Y-113422500D01*
X192688803Y-113383144D01*
X192861730Y-113306151D01*
X192892218Y-113284000D01*
X201844341Y-113284000D01*
X201864936Y-113519403D01*
X201864938Y-113519413D01*
X201926094Y-113747655D01*
X201926096Y-113747659D01*
X201926097Y-113747663D01*
X201927987Y-113751716D01*
X202025965Y-113961830D01*
X202025967Y-113961834D01*
X202134281Y-114116521D01*
X202161505Y-114155401D01*
X202328599Y-114322495D01*
X202423736Y-114389111D01*
X202522165Y-114458032D01*
X202522167Y-114458033D01*
X202522170Y-114458035D01*
X202736337Y-114557903D01*
X202964592Y-114619063D01*
X203152918Y-114635539D01*
X203199999Y-114639659D01*
X203200000Y-114639659D01*
X203200001Y-114639659D01*
X203239234Y-114636226D01*
X203435408Y-114619063D01*
X203663663Y-114557903D01*
X203877830Y-114458035D01*
X204071401Y-114322495D01*
X204238495Y-114155401D01*
X204374035Y-113961830D01*
X204473903Y-113747663D01*
X204535063Y-113519408D01*
X204555659Y-113284000D01*
X204535063Y-113048592D01*
X204473903Y-112820337D01*
X204374035Y-112606171D01*
X204361133Y-112587744D01*
X204238494Y-112412597D01*
X204071402Y-112245506D01*
X204071396Y-112245501D01*
X203885842Y-112115575D01*
X203842217Y-112060998D01*
X203835023Y-111991500D01*
X203866546Y-111929145D01*
X203885842Y-111912425D01*
X203976262Y-111849112D01*
X204071401Y-111782495D01*
X204238495Y-111615401D01*
X204374035Y-111421830D01*
X204473903Y-111207663D01*
X204535063Y-110979408D01*
X204555659Y-110744000D01*
X204535063Y-110508592D01*
X204473903Y-110280337D01*
X204374035Y-110066171D01*
X204361132Y-110047744D01*
X204238496Y-109872600D01*
X204208173Y-109842277D01*
X204116567Y-109750671D01*
X204083084Y-109689351D01*
X204088068Y-109619659D01*
X204129939Y-109563725D01*
X204160915Y-109546810D01*
X204292331Y-109497796D01*
X204407546Y-109411546D01*
X204493796Y-109296331D01*
X204544091Y-109161483D01*
X204550500Y-109101873D01*
X204550499Y-107306128D01*
X204544091Y-107246517D01*
X204529201Y-107206596D01*
X204493797Y-107111671D01*
X204493793Y-107111664D01*
X204407547Y-106996455D01*
X204407544Y-106996452D01*
X204292335Y-106910206D01*
X204292328Y-106910202D01*
X204157482Y-106859908D01*
X204157483Y-106859908D01*
X204097883Y-106853501D01*
X204097881Y-106853500D01*
X204097873Y-106853500D01*
X204097864Y-106853500D01*
X202302129Y-106853500D01*
X202302123Y-106853501D01*
X202242516Y-106859908D01*
X202107671Y-106910202D01*
X202107664Y-106910206D01*
X201992455Y-106996452D01*
X201992452Y-106996455D01*
X201906206Y-107111664D01*
X201906202Y-107111671D01*
X201855908Y-107246517D01*
X201849501Y-107306116D01*
X201849501Y-107306123D01*
X201849500Y-107306135D01*
X201849500Y-109101870D01*
X201849501Y-109101876D01*
X201855908Y-109161483D01*
X201906202Y-109296328D01*
X201906206Y-109296335D01*
X201992452Y-109411544D01*
X201992455Y-109411547D01*
X202107664Y-109497793D01*
X202107671Y-109497797D01*
X202239081Y-109546810D01*
X202295015Y-109588681D01*
X202319432Y-109654145D01*
X202304580Y-109722418D01*
X202283430Y-109750673D01*
X202161503Y-109872600D01*
X202025965Y-110066169D01*
X202025964Y-110066171D01*
X201926098Y-110280335D01*
X201926094Y-110280344D01*
X201864938Y-110508586D01*
X201864936Y-110508596D01*
X201844341Y-110743999D01*
X201844341Y-110744000D01*
X201864936Y-110979403D01*
X201864938Y-110979413D01*
X201926094Y-111207655D01*
X201926096Y-111207659D01*
X201926097Y-111207663D01*
X202001856Y-111370128D01*
X202025965Y-111421830D01*
X202025967Y-111421834D01*
X202161501Y-111615395D01*
X202161506Y-111615402D01*
X202328597Y-111782493D01*
X202328603Y-111782498D01*
X202514158Y-111912425D01*
X202557783Y-111967002D01*
X202564977Y-112036500D01*
X202533454Y-112098855D01*
X202514158Y-112115575D01*
X202328597Y-112245505D01*
X202161505Y-112412597D01*
X202025965Y-112606169D01*
X202025964Y-112606171D01*
X201926098Y-112820335D01*
X201926094Y-112820344D01*
X201864938Y-113048586D01*
X201864936Y-113048596D01*
X201844341Y-113283999D01*
X201844341Y-113284000D01*
X192892218Y-113284000D01*
X193014871Y-113194888D01*
X193141533Y-113054216D01*
X193236179Y-112890284D01*
X193294674Y-112710256D01*
X193314460Y-112522000D01*
X193294674Y-112333744D01*
X193236179Y-112153716D01*
X193141533Y-111989784D01*
X193014871Y-111849112D01*
X192982708Y-111825744D01*
X192861734Y-111737851D01*
X192861729Y-111737848D01*
X192688807Y-111660857D01*
X192688802Y-111660855D01*
X192543001Y-111629865D01*
X192503646Y-111621500D01*
X192314354Y-111621500D01*
X192281897Y-111628398D01*
X192129197Y-111660855D01*
X192129192Y-111660857D01*
X191956270Y-111737848D01*
X191956265Y-111737851D01*
X191803129Y-111849111D01*
X191676466Y-111989785D01*
X191581821Y-112153715D01*
X191581818Y-112153722D01*
X191523327Y-112333740D01*
X191523326Y-112333744D01*
X191503540Y-112522000D01*
X188960514Y-112522000D01*
X189041179Y-112382284D01*
X189099674Y-112202256D01*
X189119460Y-112014000D01*
X189099674Y-111825744D01*
X189041179Y-111645716D01*
X188946533Y-111481784D01*
X188819871Y-111341112D01*
X188819870Y-111341111D01*
X188666734Y-111229851D01*
X188666729Y-111229848D01*
X188493807Y-111152857D01*
X188493802Y-111152855D01*
X188348001Y-111121865D01*
X188308646Y-111113500D01*
X188119354Y-111113500D01*
X188086897Y-111120398D01*
X187934197Y-111152855D01*
X187934192Y-111152857D01*
X187761270Y-111229848D01*
X187761265Y-111229851D01*
X187608129Y-111341111D01*
X187481466Y-111481785D01*
X187386821Y-111645715D01*
X187386818Y-111645722D01*
X187335279Y-111804344D01*
X187328326Y-111825744D01*
X187308540Y-112014000D01*
X177043267Y-112014000D01*
X177041836Y-112008100D01*
X177058309Y-111952001D01*
X177103179Y-111874284D01*
X177161674Y-111694256D01*
X177181460Y-111506000D01*
X177161674Y-111317744D01*
X177103179Y-111137716D01*
X177008533Y-110973784D01*
X176881871Y-110833112D01*
X176849708Y-110809744D01*
X176728734Y-110721851D01*
X176728729Y-110721848D01*
X176555807Y-110644857D01*
X176555802Y-110644855D01*
X176410001Y-110613865D01*
X176370646Y-110605500D01*
X176181354Y-110605500D01*
X176148897Y-110612398D01*
X175996197Y-110644855D01*
X175996192Y-110644857D01*
X175823270Y-110721848D01*
X175823265Y-110721851D01*
X175670129Y-110833111D01*
X175543466Y-110973785D01*
X175448821Y-111137715D01*
X175448818Y-111137722D01*
X175392172Y-111312063D01*
X175390326Y-111317744D01*
X175370540Y-111506000D01*
X175390326Y-111694256D01*
X175390327Y-111694259D01*
X175448820Y-111874283D01*
X175493690Y-111952001D01*
X175510162Y-112019901D01*
X175493690Y-112075999D01*
X175448820Y-112153716D01*
X175390327Y-112333740D01*
X175390326Y-112333744D01*
X175370540Y-112522000D01*
X169557230Y-112522000D01*
X169541674Y-112373994D01*
X169483179Y-112193966D01*
X169388533Y-112030034D01*
X169261871Y-111889362D01*
X169241118Y-111874284D01*
X169108734Y-111778101D01*
X169108729Y-111778098D01*
X168935807Y-111701107D01*
X168935802Y-111701105D01*
X168790001Y-111670115D01*
X168750646Y-111661750D01*
X168561354Y-111661750D01*
X168528897Y-111668648D01*
X168376197Y-111701105D01*
X168376192Y-111701107D01*
X168203270Y-111778098D01*
X168203265Y-111778101D01*
X168050129Y-111889361D01*
X167923466Y-112030035D01*
X167828821Y-112193965D01*
X167828818Y-112193972D01*
X167770327Y-112373990D01*
X167770326Y-112373994D01*
X167750540Y-112562250D01*
X157849390Y-112562250D01*
X157799179Y-112407716D01*
X157704533Y-112243784D01*
X157577871Y-112103112D01*
X157572012Y-112098855D01*
X157424734Y-111991851D01*
X157424729Y-111991848D01*
X157251807Y-111914857D01*
X157251802Y-111914855D01*
X157106001Y-111883865D01*
X157066646Y-111875500D01*
X156877354Y-111875500D01*
X156844897Y-111882398D01*
X156692197Y-111914855D01*
X156692192Y-111914857D01*
X156519270Y-111991848D01*
X156519265Y-111991851D01*
X156366129Y-112103111D01*
X156239466Y-112243785D01*
X156144821Y-112407715D01*
X156144818Y-112407722D01*
X156086327Y-112587740D01*
X156086326Y-112587744D01*
X156066540Y-112776000D01*
X145499253Y-112776000D01*
X145448033Y-112687284D01*
X145321371Y-112546612D01*
X145320826Y-112546216D01*
X145168234Y-112435351D01*
X145168229Y-112435348D01*
X144995307Y-112358357D01*
X144995302Y-112358355D01*
X144849501Y-112327365D01*
X144810146Y-112319000D01*
X144620854Y-112319000D01*
X144588397Y-112325898D01*
X144435697Y-112358355D01*
X144435692Y-112358357D01*
X144262770Y-112435348D01*
X144262765Y-112435351D01*
X144109629Y-112546611D01*
X143982966Y-112687285D01*
X143888321Y-112851215D01*
X143888318Y-112851222D01*
X143829827Y-113031240D01*
X143829826Y-113031244D01*
X143810040Y-113219500D01*
X141044734Y-113219500D01*
X141050500Y-113165873D01*
X141050499Y-111370128D01*
X141044795Y-111317063D01*
X141044091Y-111310516D01*
X141022266Y-111252000D01*
X170290540Y-111252000D01*
X170310326Y-111440256D01*
X170310327Y-111440259D01*
X170368818Y-111620277D01*
X170368821Y-111620284D01*
X170463467Y-111784216D01*
X170521899Y-111849111D01*
X170590129Y-111924888D01*
X170743265Y-112036148D01*
X170743270Y-112036151D01*
X170916192Y-112113142D01*
X170916197Y-112113144D01*
X171101354Y-112152500D01*
X171101355Y-112152500D01*
X171290644Y-112152500D01*
X171290646Y-112152500D01*
X171475803Y-112113144D01*
X171648730Y-112036151D01*
X171801871Y-111924888D01*
X171928533Y-111784216D01*
X172023179Y-111620284D01*
X172081674Y-111440256D01*
X172101460Y-111252000D01*
X172081674Y-111063744D01*
X172023179Y-110883716D01*
X171928533Y-110719784D01*
X171801871Y-110579112D01*
X171801870Y-110579111D01*
X171648734Y-110467851D01*
X171648729Y-110467848D01*
X171475807Y-110390857D01*
X171475802Y-110390855D01*
X171330001Y-110359865D01*
X171290646Y-110351500D01*
X171101354Y-110351500D01*
X171068897Y-110358398D01*
X170916197Y-110390855D01*
X170916192Y-110390857D01*
X170743270Y-110467848D01*
X170743265Y-110467851D01*
X170590129Y-110579111D01*
X170463466Y-110719785D01*
X170368821Y-110883715D01*
X170368818Y-110883722D01*
X170310327Y-111063740D01*
X170310326Y-111063744D01*
X170290540Y-111252000D01*
X141022266Y-111252000D01*
X140993797Y-111175671D01*
X140993793Y-111175664D01*
X140907547Y-111060455D01*
X140907544Y-111060452D01*
X140792335Y-110974206D01*
X140792328Y-110974202D01*
X140660917Y-110925189D01*
X140604983Y-110883318D01*
X140580566Y-110817853D01*
X140595418Y-110749580D01*
X140616563Y-110721332D01*
X140738495Y-110599401D01*
X140874035Y-110405830D01*
X140953228Y-110236000D01*
X145144540Y-110236000D01*
X145164326Y-110424256D01*
X145164327Y-110424259D01*
X145222818Y-110604277D01*
X145222821Y-110604284D01*
X145317467Y-110768216D01*
X145437959Y-110902035D01*
X145444129Y-110908888D01*
X145597265Y-111020148D01*
X145597270Y-111020151D01*
X145770192Y-111097142D01*
X145770197Y-111097144D01*
X145955354Y-111136500D01*
X145955355Y-111136500D01*
X146144644Y-111136500D01*
X146144646Y-111136500D01*
X146329803Y-111097144D01*
X146502730Y-111020151D01*
X146655871Y-110908888D01*
X146782533Y-110768216D01*
X146877179Y-110604284D01*
X146935674Y-110424256D01*
X146955460Y-110236000D01*
X149970540Y-110236000D01*
X149990326Y-110424256D01*
X149990327Y-110424259D01*
X150048818Y-110604277D01*
X150048821Y-110604284D01*
X150143467Y-110768216D01*
X150263959Y-110902035D01*
X150270129Y-110908888D01*
X150423265Y-111020148D01*
X150423270Y-111020151D01*
X150596192Y-111097142D01*
X150596197Y-111097144D01*
X150781354Y-111136500D01*
X150781355Y-111136500D01*
X150970644Y-111136500D01*
X150970646Y-111136500D01*
X151155803Y-111097144D01*
X151328730Y-111020151D01*
X151481871Y-110908888D01*
X151608533Y-110768216D01*
X151703179Y-110604284D01*
X151761674Y-110424256D01*
X151781460Y-110236000D01*
X151761674Y-110047744D01*
X151703179Y-109867716D01*
X151608533Y-109703784D01*
X151481871Y-109563112D01*
X151470018Y-109554500D01*
X151359219Y-109474000D01*
X155304540Y-109474000D01*
X155324326Y-109662256D01*
X155324327Y-109662259D01*
X155382818Y-109842277D01*
X155382821Y-109842284D01*
X155477467Y-110006216D01*
X155531451Y-110066171D01*
X155604129Y-110146888D01*
X155757265Y-110258148D01*
X155757270Y-110258151D01*
X155930192Y-110335142D01*
X155930197Y-110335144D01*
X156115354Y-110374500D01*
X156115355Y-110374500D01*
X156304644Y-110374500D01*
X156304646Y-110374500D01*
X156489803Y-110335144D01*
X156662730Y-110258151D01*
X156815871Y-110146888D01*
X156942533Y-110006216D01*
X157037179Y-109842284D01*
X157095674Y-109662256D01*
X157115460Y-109474000D01*
X167750540Y-109474000D01*
X167770326Y-109662256D01*
X167770327Y-109662259D01*
X167828818Y-109842277D01*
X167828821Y-109842284D01*
X167923467Y-110006216D01*
X167977451Y-110066171D01*
X168050129Y-110146888D01*
X168203265Y-110258148D01*
X168203270Y-110258151D01*
X168376192Y-110335142D01*
X168376197Y-110335144D01*
X168561354Y-110374500D01*
X168561355Y-110374500D01*
X168750644Y-110374500D01*
X168750646Y-110374500D01*
X168935803Y-110335144D01*
X169108730Y-110258151D01*
X169261871Y-110146888D01*
X169388533Y-110006216D01*
X169405401Y-109977000D01*
X181524341Y-109977000D01*
X181544936Y-110212403D01*
X181544938Y-110212413D01*
X181606094Y-110440655D01*
X181606096Y-110440659D01*
X181606097Y-110440663D01*
X181682392Y-110604277D01*
X181705965Y-110654830D01*
X181705967Y-110654834D01*
X181784154Y-110766495D01*
X181841505Y-110848401D01*
X182008599Y-111015495D01*
X182077500Y-111063740D01*
X182202165Y-111151032D01*
X182202167Y-111151033D01*
X182202170Y-111151035D01*
X182416337Y-111250903D01*
X182644592Y-111312063D01*
X182832918Y-111328539D01*
X182879999Y-111332659D01*
X182880000Y-111332659D01*
X182880001Y-111332659D01*
X182919234Y-111329226D01*
X183115408Y-111312063D01*
X183343663Y-111250903D01*
X183557830Y-111151035D01*
X183751401Y-111015495D01*
X183768896Y-110998000D01*
X184514540Y-110998000D01*
X184534326Y-111186256D01*
X184534327Y-111186259D01*
X184592818Y-111366277D01*
X184592821Y-111366284D01*
X184687467Y-111530216D01*
X184805095Y-111660855D01*
X184814129Y-111670888D01*
X184967265Y-111782148D01*
X184967270Y-111782151D01*
X185140192Y-111859142D01*
X185140197Y-111859144D01*
X185325354Y-111898500D01*
X185325355Y-111898500D01*
X185514644Y-111898500D01*
X185514646Y-111898500D01*
X185699803Y-111859144D01*
X185872730Y-111782151D01*
X186025871Y-111670888D01*
X186152533Y-111530216D01*
X186247179Y-111366284D01*
X186305674Y-111186256D01*
X186325460Y-110998000D01*
X186305674Y-110809744D01*
X186247179Y-110629716D01*
X186152533Y-110465784D01*
X186025871Y-110325112D01*
X186025870Y-110325111D01*
X185872734Y-110213851D01*
X185872729Y-110213848D01*
X185699807Y-110136857D01*
X185699802Y-110136855D01*
X185554001Y-110105865D01*
X185514646Y-110097500D01*
X185325354Y-110097500D01*
X185292897Y-110104398D01*
X185140197Y-110136855D01*
X185140192Y-110136857D01*
X184967270Y-110213848D01*
X184967265Y-110213851D01*
X184814129Y-110325111D01*
X184687466Y-110465785D01*
X184592821Y-110629715D01*
X184592818Y-110629722D01*
X184534327Y-110809740D01*
X184534326Y-110809744D01*
X184514540Y-110998000D01*
X183768896Y-110998000D01*
X183918495Y-110848401D01*
X184054035Y-110654830D01*
X184153903Y-110440663D01*
X184215063Y-110212408D01*
X184235659Y-109977000D01*
X184215063Y-109741592D01*
X184153903Y-109513337D01*
X184054035Y-109299171D01*
X184052049Y-109296335D01*
X183918496Y-109105600D01*
X183863065Y-109050169D01*
X183796567Y-108983671D01*
X183763084Y-108922351D01*
X183768068Y-108852659D01*
X183809939Y-108796725D01*
X183840915Y-108779810D01*
X183972331Y-108730796D01*
X184087546Y-108644546D01*
X184173796Y-108529331D01*
X184224091Y-108394483D01*
X184230500Y-108334873D01*
X184230499Y-106539128D01*
X184224091Y-106479517D01*
X184195740Y-106403505D01*
X184173797Y-106344671D01*
X184173793Y-106344664D01*
X184087547Y-106229455D01*
X184087544Y-106229452D01*
X183972335Y-106143206D01*
X183972328Y-106143202D01*
X183837482Y-106092908D01*
X183837483Y-106092908D01*
X183777883Y-106086501D01*
X183777881Y-106086500D01*
X183777873Y-106086500D01*
X183777864Y-106086500D01*
X181982129Y-106086500D01*
X181982123Y-106086501D01*
X181922516Y-106092908D01*
X181787671Y-106143202D01*
X181787664Y-106143206D01*
X181672455Y-106229452D01*
X181672452Y-106229455D01*
X181586206Y-106344664D01*
X181586202Y-106344671D01*
X181535908Y-106479517D01*
X181529501Y-106539116D01*
X181529501Y-106539123D01*
X181529500Y-106539135D01*
X181529500Y-108334870D01*
X181529501Y-108334876D01*
X181535908Y-108394483D01*
X181586202Y-108529328D01*
X181586206Y-108529335D01*
X181672452Y-108644544D01*
X181672455Y-108644547D01*
X181787664Y-108730793D01*
X181787671Y-108730797D01*
X181919081Y-108779810D01*
X181975015Y-108821681D01*
X181999432Y-108887145D01*
X181984580Y-108955418D01*
X181963430Y-108983673D01*
X181841503Y-109105600D01*
X181705965Y-109299169D01*
X181705964Y-109299171D01*
X181606098Y-109513335D01*
X181606094Y-109513344D01*
X181544938Y-109741586D01*
X181544936Y-109741596D01*
X181524341Y-109976999D01*
X181524341Y-109977000D01*
X169405401Y-109977000D01*
X169483179Y-109842284D01*
X169541674Y-109662256D01*
X169561460Y-109474000D01*
X169541674Y-109285744D01*
X169483179Y-109105716D01*
X169388533Y-108941784D01*
X169261871Y-108801112D01*
X169243136Y-108787500D01*
X169108734Y-108689851D01*
X169108729Y-108689848D01*
X168935807Y-108612857D01*
X168935802Y-108612855D01*
X168777886Y-108579290D01*
X168750646Y-108573500D01*
X168561354Y-108573500D01*
X168534114Y-108579290D01*
X168376197Y-108612855D01*
X168376192Y-108612857D01*
X168203270Y-108689848D01*
X168203265Y-108689851D01*
X168050129Y-108801111D01*
X167923466Y-108941785D01*
X167828821Y-109105715D01*
X167828818Y-109105722D01*
X167777279Y-109264344D01*
X167770326Y-109285744D01*
X167750540Y-109474000D01*
X157115460Y-109474000D01*
X157095674Y-109285744D01*
X157037179Y-109105716D01*
X156942533Y-108941784D01*
X156815871Y-108801112D01*
X156797136Y-108787500D01*
X156662734Y-108689851D01*
X156662729Y-108689848D01*
X156489807Y-108612857D01*
X156489802Y-108612855D01*
X156366509Y-108586649D01*
X156331884Y-108579289D01*
X156270403Y-108546098D01*
X156236627Y-108484935D01*
X156241279Y-108415220D01*
X156282883Y-108359088D01*
X156331884Y-108336710D01*
X156489803Y-108303144D01*
X156662730Y-108226151D01*
X156815871Y-108114888D01*
X156942533Y-107974216D01*
X157037179Y-107810284D01*
X157095674Y-107630256D01*
X157115460Y-107442000D01*
X157095674Y-107253744D01*
X157037179Y-107073716D01*
X156942533Y-106909784D01*
X156815871Y-106769112D01*
X156815870Y-106769111D01*
X156662734Y-106657851D01*
X156662729Y-106657848D01*
X156489807Y-106580857D01*
X156489802Y-106580855D01*
X156344001Y-106549865D01*
X156304646Y-106541500D01*
X156115354Y-106541500D01*
X156082897Y-106548398D01*
X155930197Y-106580855D01*
X155930192Y-106580857D01*
X155757270Y-106657848D01*
X155757265Y-106657851D01*
X155604129Y-106769111D01*
X155477466Y-106909785D01*
X155382821Y-107073715D01*
X155382818Y-107073722D01*
X155326674Y-107246517D01*
X155324326Y-107253744D01*
X155304540Y-107442000D01*
X155324326Y-107630256D01*
X155324327Y-107630259D01*
X155382818Y-107810277D01*
X155382821Y-107810284D01*
X155477467Y-107974216D01*
X155558559Y-108064277D01*
X155604129Y-108114888D01*
X155757265Y-108226148D01*
X155757270Y-108226151D01*
X155930192Y-108303142D01*
X155930197Y-108303144D01*
X156079471Y-108334873D01*
X156088114Y-108336710D01*
X156149596Y-108369902D01*
X156183372Y-108431065D01*
X156178720Y-108500780D01*
X156137115Y-108556912D01*
X156088114Y-108579290D01*
X155930197Y-108612855D01*
X155930192Y-108612857D01*
X155757270Y-108689848D01*
X155757265Y-108689851D01*
X155604129Y-108801111D01*
X155477466Y-108941785D01*
X155382821Y-109105715D01*
X155382818Y-109105722D01*
X155331279Y-109264344D01*
X155324326Y-109285744D01*
X155304540Y-109474000D01*
X151359219Y-109474000D01*
X151328734Y-109451851D01*
X151328729Y-109451848D01*
X151155807Y-109374857D01*
X151155802Y-109374855D01*
X151010001Y-109343865D01*
X150970646Y-109335500D01*
X150781354Y-109335500D01*
X150748897Y-109342398D01*
X150596197Y-109374855D01*
X150596192Y-109374857D01*
X150423270Y-109451848D01*
X150423265Y-109451851D01*
X150270129Y-109563111D01*
X150143466Y-109703785D01*
X150048821Y-109867715D01*
X150048818Y-109867722D01*
X150003820Y-110006214D01*
X149990326Y-110047744D01*
X149970540Y-110236000D01*
X146955460Y-110236000D01*
X146935674Y-110047744D01*
X146877179Y-109867716D01*
X146782533Y-109703784D01*
X146655871Y-109563112D01*
X146644018Y-109554500D01*
X146502734Y-109451851D01*
X146502729Y-109451848D01*
X146329807Y-109374857D01*
X146329802Y-109374855D01*
X146184001Y-109343865D01*
X146144646Y-109335500D01*
X145955354Y-109335500D01*
X145922897Y-109342398D01*
X145770197Y-109374855D01*
X145770192Y-109374857D01*
X145597270Y-109451848D01*
X145597265Y-109451851D01*
X145444129Y-109563111D01*
X145317466Y-109703785D01*
X145222821Y-109867715D01*
X145222818Y-109867722D01*
X145177820Y-110006214D01*
X145164326Y-110047744D01*
X145144540Y-110236000D01*
X140953228Y-110236000D01*
X140973903Y-110191663D01*
X141035063Y-109963408D01*
X141055659Y-109728000D01*
X141035063Y-109492592D01*
X140973903Y-109264337D01*
X140874035Y-109050171D01*
X140827474Y-108983674D01*
X140738494Y-108856597D01*
X140571402Y-108689506D01*
X140571395Y-108689501D01*
X140377834Y-108553967D01*
X140377830Y-108553965D01*
X140332617Y-108532882D01*
X140280178Y-108486710D01*
X140261026Y-108419516D01*
X140281242Y-108352635D01*
X140334407Y-108307300D01*
X140385022Y-108296500D01*
X144299545Y-108296500D01*
X144307643Y-108297030D01*
X144342973Y-108301682D01*
X144342974Y-108301682D01*
X144395227Y-108294802D01*
X144499735Y-108281044D01*
X144645814Y-108220536D01*
X144672508Y-108200053D01*
X144771255Y-108124282D01*
X144792957Y-108095998D01*
X144798283Y-108089923D01*
X145647407Y-107240801D01*
X145708730Y-107207316D01*
X145735088Y-107204482D01*
X145829635Y-107204482D01*
X145829637Y-107204482D01*
X146014794Y-107165126D01*
X146187721Y-107088133D01*
X146340862Y-106976870D01*
X146467524Y-106836198D01*
X146562170Y-106672266D01*
X146620665Y-106492238D01*
X146640451Y-106303982D01*
X146626579Y-106172000D01*
X161146540Y-106172000D01*
X161166326Y-106360256D01*
X161166327Y-106360259D01*
X161224818Y-106540277D01*
X161224821Y-106540284D01*
X161319467Y-106704216D01*
X161446129Y-106844888D01*
X161599265Y-106956148D01*
X161599270Y-106956151D01*
X161772192Y-107033142D01*
X161772197Y-107033144D01*
X161957354Y-107072500D01*
X161957355Y-107072500D01*
X162146644Y-107072500D01*
X162146646Y-107072500D01*
X162331803Y-107033144D01*
X162504730Y-106956151D01*
X162657871Y-106844888D01*
X162784533Y-106704216D01*
X162879179Y-106540284D01*
X162937674Y-106360256D01*
X162957460Y-106172000D01*
X162946205Y-106064914D01*
X162958773Y-105996190D01*
X163006505Y-105945165D01*
X163074245Y-105928047D01*
X163119961Y-105938678D01*
X163296192Y-106017142D01*
X163296197Y-106017144D01*
X163481354Y-106056500D01*
X163481355Y-106056500D01*
X163670644Y-106056500D01*
X163670646Y-106056500D01*
X163855803Y-106017144D01*
X164028730Y-105940151D01*
X164181871Y-105828888D01*
X164308533Y-105688216D01*
X164403179Y-105524284D01*
X164461674Y-105344256D01*
X164481460Y-105156000D01*
X178926540Y-105156000D01*
X178946326Y-105344256D01*
X178946327Y-105344259D01*
X179004818Y-105524277D01*
X179004821Y-105524284D01*
X179099467Y-105688216D01*
X179226129Y-105828888D01*
X179379265Y-105940148D01*
X179379270Y-105940151D01*
X179552192Y-106017142D01*
X179552197Y-106017144D01*
X179737354Y-106056500D01*
X179737355Y-106056500D01*
X179926644Y-106056500D01*
X179926646Y-106056500D01*
X180111803Y-106017144D01*
X180284730Y-105940151D01*
X180437871Y-105828888D01*
X180564533Y-105688216D01*
X180659179Y-105524284D01*
X180717674Y-105344256D01*
X180737460Y-105156000D01*
X180717674Y-104967744D01*
X180659179Y-104787716D01*
X180564533Y-104623784D01*
X180437871Y-104483112D01*
X180437870Y-104483111D01*
X180284734Y-104371851D01*
X180284729Y-104371848D01*
X180111807Y-104294857D01*
X180111802Y-104294855D01*
X179966001Y-104263865D01*
X179926646Y-104255500D01*
X179737354Y-104255500D01*
X179704897Y-104262398D01*
X179552197Y-104294855D01*
X179552192Y-104294857D01*
X179379270Y-104371848D01*
X179379265Y-104371851D01*
X179226129Y-104483111D01*
X179099466Y-104623785D01*
X179004821Y-104787715D01*
X179004818Y-104787722D01*
X178946327Y-104967740D01*
X178946326Y-104967744D01*
X178926540Y-105156000D01*
X164481460Y-105156000D01*
X164461674Y-104967744D01*
X164403179Y-104787716D01*
X164308533Y-104623784D01*
X164181871Y-104483112D01*
X164181870Y-104483111D01*
X164028734Y-104371851D01*
X164028729Y-104371848D01*
X163855807Y-104294857D01*
X163855802Y-104294855D01*
X163710001Y-104263865D01*
X163670646Y-104255500D01*
X163481354Y-104255500D01*
X163448897Y-104262398D01*
X163296197Y-104294855D01*
X163296192Y-104294857D01*
X163123270Y-104371848D01*
X163123265Y-104371851D01*
X162970129Y-104483111D01*
X162843466Y-104623785D01*
X162748821Y-104787715D01*
X162748818Y-104787722D01*
X162690327Y-104967740D01*
X162690326Y-104967744D01*
X162682551Y-105041722D01*
X162672494Y-105137413D01*
X162670540Y-105156000D01*
X162681794Y-105263082D01*
X162669226Y-105331810D01*
X162621494Y-105382834D01*
X162553753Y-105399952D01*
X162508038Y-105389321D01*
X162331807Y-105310857D01*
X162331802Y-105310855D01*
X162186001Y-105279865D01*
X162146646Y-105271500D01*
X161957354Y-105271500D01*
X161924897Y-105278398D01*
X161772197Y-105310855D01*
X161772192Y-105310857D01*
X161599270Y-105387848D01*
X161599265Y-105387851D01*
X161446129Y-105499111D01*
X161319466Y-105639785D01*
X161224821Y-105803715D01*
X161224818Y-105803722D01*
X161178861Y-105945165D01*
X161166326Y-105983744D01*
X161146540Y-106172000D01*
X146626579Y-106172000D01*
X146620665Y-106115726D01*
X146562170Y-105935698D01*
X146467524Y-105771766D01*
X146340862Y-105631094D01*
X146270308Y-105579834D01*
X146240247Y-105557993D01*
X146197581Y-105502663D01*
X146189811Y-105444715D01*
X146193460Y-105410000D01*
X146173674Y-105221744D01*
X146115179Y-105041716D01*
X146020533Y-104877784D01*
X145893871Y-104737112D01*
X145893870Y-104737111D01*
X145740734Y-104625851D01*
X145740729Y-104625848D01*
X145567807Y-104548857D01*
X145567802Y-104548855D01*
X145422001Y-104517865D01*
X145382646Y-104509500D01*
X145193354Y-104509500D01*
X145160897Y-104516398D01*
X145008197Y-104548855D01*
X145008192Y-104548857D01*
X144835270Y-104625848D01*
X144835265Y-104625851D01*
X144682129Y-104737111D01*
X144555466Y-104877785D01*
X144460821Y-105041715D01*
X144460818Y-105041722D01*
X144402327Y-105221740D01*
X144402326Y-105221744D01*
X144383596Y-105399952D01*
X144382540Y-105410002D01*
X144382540Y-105414862D01*
X144362855Y-105481901D01*
X144346221Y-105502543D01*
X143551584Y-106297181D01*
X143490261Y-106330666D01*
X143463903Y-106333500D01*
X139863013Y-106333500D01*
X139795974Y-106313815D01*
X139770864Y-106292473D01*
X139742626Y-106261112D01*
X139742619Y-106261106D01*
X139589489Y-106149851D01*
X139589484Y-106149848D01*
X139416562Y-106072857D01*
X139416557Y-106072855D01*
X139270756Y-106041865D01*
X139231401Y-106033500D01*
X139042109Y-106033500D01*
X139009652Y-106040398D01*
X138856952Y-106072855D01*
X138856947Y-106072857D01*
X138684025Y-106149848D01*
X138684020Y-106149851D01*
X138530884Y-106261111D01*
X138404221Y-106401785D01*
X138309576Y-106565715D01*
X138309573Y-106565722D01*
X138249586Y-106750344D01*
X138210148Y-106808020D01*
X138157445Y-106833314D01*
X138150203Y-106834853D01*
X138150192Y-106834857D01*
X137977270Y-106911848D01*
X137977265Y-106911851D01*
X137824129Y-107023111D01*
X137697466Y-107163785D01*
X137602821Y-107327715D01*
X137602818Y-107327722D01*
X137544327Y-107507740D01*
X137544326Y-107507744D01*
X137524540Y-107696000D01*
X137544326Y-107884256D01*
X137544327Y-107884259D01*
X137602818Y-108064277D01*
X137602821Y-108064284D01*
X137697467Y-108228216D01*
X137793511Y-108334883D01*
X137824129Y-108368888D01*
X137977265Y-108480148D01*
X137977270Y-108480151D01*
X138150192Y-108557142D01*
X138150197Y-108557144D01*
X138335354Y-108596500D01*
X138335355Y-108596500D01*
X138524644Y-108596500D01*
X138524646Y-108596500D01*
X138619288Y-108576383D01*
X138688953Y-108581699D01*
X138744686Y-108623836D01*
X138768792Y-108689415D01*
X138753615Y-108757617D01*
X138732749Y-108785354D01*
X138661503Y-108856600D01*
X138525965Y-109050169D01*
X138525964Y-109050171D01*
X138426098Y-109264335D01*
X138426094Y-109264344D01*
X138364938Y-109492586D01*
X138364936Y-109492596D01*
X138344341Y-109727999D01*
X138344341Y-109728000D01*
X138364936Y-109963403D01*
X138364938Y-109963413D01*
X138426094Y-110191655D01*
X138426096Y-110191659D01*
X138426097Y-110191663D01*
X138518983Y-110390857D01*
X138525965Y-110405830D01*
X138525967Y-110405834D01*
X138634281Y-110560521D01*
X138661501Y-110599396D01*
X138661506Y-110599402D01*
X138783430Y-110721326D01*
X138816915Y-110782649D01*
X138811931Y-110852341D01*
X138770059Y-110908274D01*
X138739083Y-110925189D01*
X138607669Y-110974203D01*
X138607664Y-110974206D01*
X138492455Y-111060452D01*
X138492452Y-111060455D01*
X138406206Y-111175664D01*
X138406203Y-111175669D01*
X138357189Y-111307083D01*
X138315317Y-111363016D01*
X138249853Y-111387433D01*
X138181580Y-111372581D01*
X138153326Y-111351430D01*
X138031402Y-111229506D01*
X138031395Y-111229501D01*
X137837834Y-111093967D01*
X137837830Y-111093965D01*
X137773012Y-111063740D01*
X137623663Y-110994097D01*
X137623659Y-110994096D01*
X137623655Y-110994094D01*
X137395413Y-110932938D01*
X137395403Y-110932936D01*
X137160001Y-110912341D01*
X137159999Y-110912341D01*
X136924596Y-110932936D01*
X136924586Y-110932938D01*
X136696344Y-110994094D01*
X136696335Y-110994098D01*
X136482171Y-111093964D01*
X136482169Y-111093965D01*
X136288597Y-111229505D01*
X136121505Y-111396597D01*
X135985965Y-111590169D01*
X135985964Y-111590171D01*
X135886098Y-111804335D01*
X135886094Y-111804344D01*
X135824938Y-112032586D01*
X135824936Y-112032596D01*
X135804341Y-112267999D01*
X135804341Y-112268000D01*
X123209046Y-112268000D01*
X123209046Y-109982000D01*
X125390341Y-109982000D01*
X125410936Y-110217403D01*
X125410938Y-110217413D01*
X125472094Y-110445655D01*
X125472096Y-110445659D01*
X125472097Y-110445663D01*
X125564983Y-110644857D01*
X125571965Y-110659830D01*
X125571967Y-110659834D01*
X125647856Y-110768214D01*
X125707505Y-110853401D01*
X125874599Y-111020495D01*
X125931668Y-111060455D01*
X126068165Y-111156032D01*
X126068167Y-111156033D01*
X126068170Y-111156035D01*
X126282337Y-111255903D01*
X126510592Y-111317063D01*
X126688851Y-111332659D01*
X126745999Y-111337659D01*
X126746000Y-111337659D01*
X126746001Y-111337659D01*
X126803149Y-111332659D01*
X126981408Y-111317063D01*
X127209663Y-111255903D01*
X127423830Y-111156035D01*
X127617401Y-111020495D01*
X127784495Y-110853401D01*
X127920035Y-110659830D01*
X128019903Y-110445663D01*
X128081063Y-110217408D01*
X128101659Y-109982000D01*
X128101221Y-109976999D01*
X128097539Y-109934918D01*
X128081063Y-109746592D01*
X128029593Y-109554500D01*
X128019905Y-109518344D01*
X128019904Y-109518343D01*
X128019903Y-109518337D01*
X127920035Y-109304171D01*
X127914549Y-109296335D01*
X127784494Y-109110597D01*
X127617402Y-108943506D01*
X127617396Y-108943501D01*
X127431842Y-108813575D01*
X127388217Y-108758998D01*
X127381023Y-108689500D01*
X127412546Y-108627145D01*
X127431842Y-108610425D01*
X127523710Y-108546098D01*
X127617401Y-108480495D01*
X127784495Y-108313401D01*
X127920035Y-108119830D01*
X128019903Y-107905663D01*
X128081063Y-107677408D01*
X128101659Y-107442000D01*
X128081063Y-107206592D01*
X128019903Y-106978337D01*
X127920035Y-106764171D01*
X127910354Y-106750344D01*
X127784494Y-106570597D01*
X127617402Y-106403506D01*
X127617396Y-106403501D01*
X127431842Y-106273575D01*
X127388217Y-106218998D01*
X127381023Y-106149500D01*
X127412546Y-106087145D01*
X127431842Y-106070425D01*
X127555635Y-105983744D01*
X127617401Y-105940495D01*
X127784495Y-105773401D01*
X127920035Y-105579830D01*
X128019903Y-105365663D01*
X128081063Y-105137408D01*
X128101659Y-104902000D01*
X128081063Y-104666592D01*
X128031900Y-104483111D01*
X128019905Y-104438344D01*
X128019904Y-104438343D01*
X128019903Y-104438337D01*
X127920035Y-104224171D01*
X127913264Y-104214500D01*
X127784494Y-104030597D01*
X127617402Y-103863506D01*
X127617396Y-103863501D01*
X127431842Y-103733575D01*
X127388217Y-103678998D01*
X127381023Y-103609500D01*
X127412546Y-103547145D01*
X127431842Y-103530425D01*
X127455493Y-103513864D01*
X127617401Y-103400495D01*
X127784495Y-103233401D01*
X127920035Y-103039830D01*
X128019903Y-102825663D01*
X128081063Y-102597408D01*
X128101659Y-102362000D01*
X128081063Y-102126592D01*
X128029593Y-101934500D01*
X128019905Y-101898344D01*
X128019904Y-101898343D01*
X128019903Y-101898337D01*
X127920035Y-101684171D01*
X127914548Y-101676335D01*
X127861098Y-101600000D01*
X141080540Y-101600000D01*
X141100326Y-101788256D01*
X141100327Y-101788259D01*
X141158818Y-101968277D01*
X141158821Y-101968284D01*
X141253467Y-102132216D01*
X141320931Y-102207142D01*
X141380129Y-102272888D01*
X141533265Y-102384148D01*
X141533270Y-102384151D01*
X141706192Y-102461142D01*
X141706197Y-102461144D01*
X141891354Y-102500500D01*
X141891355Y-102500500D01*
X142080644Y-102500500D01*
X142080646Y-102500500D01*
X142265803Y-102461144D01*
X142438730Y-102384151D01*
X142591871Y-102272888D01*
X142718533Y-102132216D01*
X142813179Y-101968284D01*
X142850312Y-101854000D01*
X143620540Y-101854000D01*
X143640326Y-102042256D01*
X143640327Y-102042259D01*
X143698818Y-102222277D01*
X143698821Y-102222284D01*
X143793467Y-102386216D01*
X143851899Y-102451111D01*
X143920129Y-102526888D01*
X144073265Y-102638148D01*
X144073270Y-102638151D01*
X144246192Y-102715142D01*
X144246197Y-102715144D01*
X144431354Y-102754500D01*
X144431355Y-102754500D01*
X144620644Y-102754500D01*
X144620646Y-102754500D01*
X144805803Y-102715144D01*
X144905499Y-102670755D01*
X144974747Y-102661470D01*
X145038024Y-102691098D01*
X145075238Y-102750233D01*
X145074574Y-102820099D01*
X145063322Y-102846034D01*
X144968820Y-103009718D01*
X144968818Y-103009722D01*
X144910327Y-103189740D01*
X144910326Y-103189744D01*
X144890540Y-103378000D01*
X144910326Y-103566256D01*
X144910327Y-103566259D01*
X144968818Y-103746277D01*
X144968821Y-103746284D01*
X145063467Y-103910216D01*
X145118791Y-103971659D01*
X145190129Y-104050888D01*
X145343265Y-104162148D01*
X145343270Y-104162151D01*
X145516192Y-104239142D01*
X145516197Y-104239144D01*
X145701354Y-104278500D01*
X145701355Y-104278500D01*
X145890644Y-104278500D01*
X145890646Y-104278500D01*
X146075803Y-104239144D01*
X146248730Y-104162151D01*
X146401871Y-104050888D01*
X146528533Y-103910216D01*
X146623179Y-103746284D01*
X146681674Y-103566256D01*
X146701460Y-103378000D01*
X146681674Y-103189744D01*
X146623179Y-103009716D01*
X146528533Y-102845784D01*
X146401871Y-102705112D01*
X146401870Y-102705111D01*
X146248734Y-102593851D01*
X146248729Y-102593848D01*
X146075807Y-102516857D01*
X146075802Y-102516855D01*
X145910711Y-102481765D01*
X145890646Y-102477500D01*
X145701354Y-102477500D01*
X145681289Y-102481765D01*
X145516197Y-102516855D01*
X145416500Y-102561244D01*
X145347250Y-102570528D01*
X145283974Y-102540900D01*
X145246761Y-102481765D01*
X145247426Y-102411898D01*
X145258678Y-102385964D01*
X145259725Y-102384151D01*
X145353179Y-102222284D01*
X145411674Y-102042256D01*
X145431460Y-101854000D01*
X145411674Y-101665744D01*
X145353179Y-101485716D01*
X145272514Y-101346000D01*
X150224540Y-101346000D01*
X150244326Y-101534256D01*
X150244327Y-101534259D01*
X150302818Y-101714277D01*
X150302821Y-101714284D01*
X150397467Y-101878216D01*
X150478559Y-101968277D01*
X150524129Y-102018888D01*
X150677265Y-102130148D01*
X150677270Y-102130151D01*
X150850192Y-102207142D01*
X150850197Y-102207144D01*
X151035354Y-102246500D01*
X151035355Y-102246500D01*
X151191854Y-102246500D01*
X151258893Y-102266185D01*
X151304648Y-102318989D01*
X151314592Y-102388147D01*
X151285567Y-102451703D01*
X151284004Y-102453472D01*
X151159466Y-102591785D01*
X151064821Y-102755715D01*
X151064818Y-102755722D01*
X151020491Y-102892148D01*
X151006326Y-102935744D01*
X150986540Y-103124000D01*
X151006326Y-103312256D01*
X151006327Y-103312259D01*
X151064818Y-103492277D01*
X151064821Y-103492284D01*
X151159467Y-103656216D01*
X151229122Y-103733575D01*
X151286129Y-103796888D01*
X151439265Y-103908148D01*
X151439270Y-103908151D01*
X151612192Y-103985142D01*
X151612193Y-103985142D01*
X151612197Y-103985144D01*
X151644167Y-103991939D01*
X151705647Y-104025130D01*
X151739425Y-104086292D01*
X151734773Y-104156007D01*
X151693170Y-104212140D01*
X151644168Y-104234519D01*
X151553196Y-104253856D01*
X151553192Y-104253857D01*
X151380270Y-104330848D01*
X151380265Y-104330851D01*
X151227129Y-104442111D01*
X151100466Y-104582785D01*
X151005821Y-104746715D01*
X151005818Y-104746722D01*
X150947327Y-104926740D01*
X150947326Y-104926744D01*
X150927540Y-105115000D01*
X150947326Y-105303256D01*
X150947327Y-105303259D01*
X151005818Y-105483277D01*
X151005821Y-105483284D01*
X151100467Y-105647216D01*
X151137382Y-105688214D01*
X151227129Y-105787888D01*
X151380265Y-105899148D01*
X151380270Y-105899151D01*
X151553192Y-105976142D01*
X151553197Y-105976144D01*
X151738354Y-106015500D01*
X151738355Y-106015500D01*
X151927644Y-106015500D01*
X151927646Y-106015500D01*
X152112803Y-105976144D01*
X152285730Y-105899151D01*
X152438871Y-105787888D01*
X152565533Y-105647216D01*
X152660179Y-105483284D01*
X152718674Y-105303256D01*
X152738460Y-105115000D01*
X152718674Y-104926744D01*
X152660179Y-104746716D01*
X152565533Y-104582784D01*
X152438871Y-104442112D01*
X152433685Y-104438344D01*
X152285734Y-104330851D01*
X152285729Y-104330848D01*
X152112807Y-104253857D01*
X152112802Y-104253855D01*
X152080832Y-104247060D01*
X152019350Y-104213867D01*
X151985574Y-104152704D01*
X151990226Y-104082990D01*
X152031831Y-104026857D01*
X152080833Y-104004480D01*
X152171803Y-103985144D01*
X152344730Y-103908151D01*
X152497871Y-103796888D01*
X152624533Y-103656216D01*
X152719179Y-103492284D01*
X152777674Y-103312256D01*
X152797460Y-103124000D01*
X152777674Y-102935744D01*
X152719179Y-102755716D01*
X152624533Y-102591784D01*
X152497871Y-102451112D01*
X152497870Y-102451111D01*
X152344734Y-102339851D01*
X152344729Y-102339848D01*
X152171807Y-102262857D01*
X152171802Y-102262855D01*
X152026001Y-102231865D01*
X151986646Y-102223500D01*
X151830146Y-102223500D01*
X151763107Y-102203815D01*
X151717352Y-102151011D01*
X151711168Y-102108000D01*
X155304540Y-102108000D01*
X155324326Y-102296256D01*
X155324327Y-102296259D01*
X155382818Y-102476277D01*
X155382821Y-102476284D01*
X155477467Y-102640216D01*
X155604129Y-102780888D01*
X155757265Y-102892148D01*
X155757270Y-102892151D01*
X155930192Y-102969142D01*
X155930197Y-102969144D01*
X156115354Y-103008500D01*
X156115355Y-103008500D01*
X156304644Y-103008500D01*
X156304646Y-103008500D01*
X156489803Y-102969144D01*
X156662730Y-102892151D01*
X156815871Y-102780888D01*
X156942533Y-102640216D01*
X157037179Y-102476284D01*
X157095674Y-102296256D01*
X157115460Y-102108000D01*
X157095674Y-101919744D01*
X157074312Y-101854000D01*
X167750540Y-101854000D01*
X167770326Y-102042256D01*
X167770327Y-102042259D01*
X167828818Y-102222277D01*
X167828821Y-102222284D01*
X167923467Y-102386216D01*
X167981899Y-102451111D01*
X168050129Y-102526888D01*
X168203265Y-102638148D01*
X168203270Y-102638151D01*
X168376192Y-102715142D01*
X168376197Y-102715144D01*
X168561354Y-102754500D01*
X168561355Y-102754500D01*
X168750644Y-102754500D01*
X168750646Y-102754500D01*
X168935803Y-102715144D01*
X169108730Y-102638151D01*
X169139218Y-102616000D01*
X182286341Y-102616000D01*
X182306936Y-102851403D01*
X182306938Y-102851413D01*
X182368094Y-103079655D01*
X182368096Y-103079659D01*
X182368097Y-103079663D01*
X182439787Y-103233402D01*
X182467965Y-103293830D01*
X182467967Y-103293834D01*
X182542655Y-103400498D01*
X182603505Y-103487401D01*
X182770599Y-103654495D01*
X182859658Y-103716855D01*
X182964165Y-103790032D01*
X182964167Y-103790033D01*
X182964170Y-103790035D01*
X183178337Y-103889903D01*
X183406592Y-103951063D01*
X183583034Y-103966500D01*
X183641999Y-103971659D01*
X183642000Y-103971659D01*
X183642001Y-103971659D01*
X183700966Y-103966500D01*
X183877408Y-103951063D01*
X184105663Y-103889903D01*
X184319830Y-103790035D01*
X184513401Y-103654495D01*
X184680495Y-103487401D01*
X184810425Y-103301842D01*
X184865002Y-103258217D01*
X184934500Y-103251023D01*
X184996855Y-103282546D01*
X185013575Y-103301842D01*
X185143500Y-103487395D01*
X185143505Y-103487401D01*
X185310599Y-103654495D01*
X185399658Y-103716855D01*
X185504165Y-103790032D01*
X185504167Y-103790033D01*
X185504170Y-103790035D01*
X185718337Y-103889903D01*
X185946592Y-103951063D01*
X186123034Y-103966500D01*
X186181999Y-103971659D01*
X186182000Y-103971659D01*
X186182001Y-103971659D01*
X186240966Y-103966500D01*
X186417408Y-103951063D01*
X186645663Y-103889903D01*
X186859830Y-103790035D01*
X187053401Y-103654495D01*
X187220495Y-103487401D01*
X187350425Y-103301842D01*
X187405002Y-103258217D01*
X187474500Y-103251023D01*
X187536855Y-103282546D01*
X187553575Y-103301842D01*
X187683500Y-103487395D01*
X187683505Y-103487401D01*
X187850599Y-103654495D01*
X187939658Y-103716855D01*
X188044165Y-103790032D01*
X188044167Y-103790033D01*
X188044170Y-103790035D01*
X188258337Y-103889903D01*
X188486592Y-103951063D01*
X188663034Y-103966500D01*
X188721999Y-103971659D01*
X188722000Y-103971659D01*
X188722001Y-103971659D01*
X188780966Y-103966500D01*
X188957408Y-103951063D01*
X189185663Y-103889903D01*
X189399830Y-103790035D01*
X189593401Y-103654495D01*
X189760495Y-103487401D01*
X189890425Y-103301842D01*
X189945002Y-103258217D01*
X190014500Y-103251023D01*
X190076855Y-103282546D01*
X190093575Y-103301842D01*
X190223500Y-103487395D01*
X190223505Y-103487401D01*
X190390599Y-103654495D01*
X190479658Y-103716855D01*
X190584165Y-103790032D01*
X190584167Y-103790033D01*
X190584170Y-103790035D01*
X190798337Y-103889903D01*
X191026592Y-103951063D01*
X191203034Y-103966500D01*
X191261999Y-103971659D01*
X191262000Y-103971659D01*
X191262001Y-103971659D01*
X191320966Y-103966500D01*
X191497408Y-103951063D01*
X191725663Y-103889903D01*
X191939830Y-103790035D01*
X192133401Y-103654495D01*
X192300495Y-103487401D01*
X192430425Y-103301842D01*
X192485002Y-103258217D01*
X192554500Y-103251023D01*
X192616855Y-103282546D01*
X192633575Y-103301842D01*
X192763500Y-103487395D01*
X192763505Y-103487401D01*
X192930599Y-103654495D01*
X193019658Y-103716855D01*
X193124165Y-103790032D01*
X193124167Y-103790033D01*
X193124170Y-103790035D01*
X193338337Y-103889903D01*
X193566592Y-103951063D01*
X193743034Y-103966500D01*
X193801999Y-103971659D01*
X193802000Y-103971659D01*
X193802001Y-103971659D01*
X193860966Y-103966500D01*
X194037408Y-103951063D01*
X194265663Y-103889903D01*
X194479830Y-103790035D01*
X194673401Y-103654495D01*
X194795329Y-103532566D01*
X194856648Y-103499084D01*
X194926340Y-103504068D01*
X194982274Y-103545939D01*
X194999189Y-103576917D01*
X195048202Y-103708328D01*
X195048206Y-103708335D01*
X195134452Y-103823544D01*
X195134455Y-103823547D01*
X195249664Y-103909793D01*
X195249671Y-103909797D01*
X195384517Y-103960091D01*
X195384516Y-103960091D01*
X195391444Y-103960835D01*
X195444127Y-103966500D01*
X197239872Y-103966499D01*
X197299483Y-103960091D01*
X197434331Y-103909796D01*
X197549546Y-103823546D01*
X197635796Y-103708331D01*
X197686091Y-103573483D01*
X197692500Y-103513873D01*
X197692499Y-101718128D01*
X197686091Y-101658517D01*
X197684810Y-101655083D01*
X197635797Y-101523671D01*
X197635793Y-101523664D01*
X197604506Y-101481870D01*
X201849500Y-101481870D01*
X201849501Y-101481876D01*
X201855908Y-101541483D01*
X201906202Y-101676328D01*
X201906206Y-101676335D01*
X201992452Y-101791544D01*
X201992455Y-101791547D01*
X202107664Y-101877793D01*
X202107671Y-101877797D01*
X202242517Y-101928091D01*
X202242516Y-101928091D01*
X202249444Y-101928835D01*
X202302127Y-101934500D01*
X204097872Y-101934499D01*
X204157483Y-101928091D01*
X204292331Y-101877796D01*
X204407546Y-101791546D01*
X204493796Y-101676331D01*
X204544091Y-101541483D01*
X204550500Y-101481873D01*
X204550499Y-99686128D01*
X204544091Y-99626517D01*
X204493796Y-99491669D01*
X204493795Y-99491668D01*
X204493793Y-99491664D01*
X204407547Y-99376455D01*
X204407544Y-99376452D01*
X204292335Y-99290206D01*
X204292328Y-99290202D01*
X204157482Y-99239908D01*
X204157483Y-99239908D01*
X204097883Y-99233501D01*
X204097881Y-99233500D01*
X204097873Y-99233500D01*
X204097864Y-99233500D01*
X202302129Y-99233500D01*
X202302123Y-99233501D01*
X202242516Y-99239908D01*
X202107671Y-99290202D01*
X202107664Y-99290206D01*
X201992455Y-99376452D01*
X201992452Y-99376455D01*
X201906206Y-99491664D01*
X201906202Y-99491671D01*
X201855908Y-99626517D01*
X201849782Y-99683500D01*
X201849501Y-99686123D01*
X201849500Y-99686135D01*
X201849500Y-101481870D01*
X197604506Y-101481870D01*
X197549547Y-101408455D01*
X197549544Y-101408452D01*
X197434335Y-101322206D01*
X197434328Y-101322202D01*
X197299482Y-101271908D01*
X197299483Y-101271908D01*
X197239883Y-101265501D01*
X197239881Y-101265500D01*
X197239873Y-101265500D01*
X197239864Y-101265500D01*
X195444129Y-101265500D01*
X195444123Y-101265501D01*
X195384516Y-101271908D01*
X195249671Y-101322202D01*
X195249664Y-101322206D01*
X195134455Y-101408452D01*
X195134452Y-101408455D01*
X195048206Y-101523664D01*
X195048203Y-101523669D01*
X194999189Y-101655083D01*
X194957317Y-101711016D01*
X194891853Y-101735433D01*
X194823580Y-101720581D01*
X194795326Y-101699430D01*
X194673402Y-101577506D01*
X194673395Y-101577501D01*
X194670944Y-101575785D01*
X194621955Y-101541482D01*
X194479834Y-101441967D01*
X194479830Y-101441965D01*
X194415012Y-101411740D01*
X194265663Y-101342097D01*
X194265659Y-101342096D01*
X194265655Y-101342094D01*
X194037413Y-101280938D01*
X194037403Y-101280936D01*
X193802001Y-101260341D01*
X193801999Y-101260341D01*
X193566596Y-101280936D01*
X193566586Y-101280938D01*
X193338344Y-101342094D01*
X193338335Y-101342098D01*
X193124171Y-101441964D01*
X193124169Y-101441965D01*
X192930597Y-101577505D01*
X192763505Y-101744597D01*
X192633575Y-101930158D01*
X192578998Y-101973783D01*
X192509500Y-101980977D01*
X192447145Y-101949454D01*
X192430425Y-101930158D01*
X192300494Y-101744597D01*
X192133402Y-101577506D01*
X192133395Y-101577501D01*
X192130944Y-101575785D01*
X192081955Y-101541482D01*
X191939834Y-101441967D01*
X191939830Y-101441965D01*
X191875012Y-101411740D01*
X191725663Y-101342097D01*
X191725659Y-101342096D01*
X191725655Y-101342094D01*
X191497413Y-101280938D01*
X191497403Y-101280936D01*
X191262001Y-101260341D01*
X191261999Y-101260341D01*
X191026596Y-101280936D01*
X191026586Y-101280938D01*
X190798344Y-101342094D01*
X190798335Y-101342098D01*
X190584171Y-101441964D01*
X190584169Y-101441965D01*
X190390597Y-101577505D01*
X190223505Y-101744597D01*
X190093575Y-101930158D01*
X190038998Y-101973783D01*
X189969500Y-101980977D01*
X189907145Y-101949454D01*
X189890425Y-101930158D01*
X189760494Y-101744597D01*
X189593402Y-101577506D01*
X189593395Y-101577501D01*
X189590944Y-101575785D01*
X189541955Y-101541482D01*
X189399834Y-101441967D01*
X189399830Y-101441965D01*
X189335012Y-101411740D01*
X189185663Y-101342097D01*
X189185659Y-101342096D01*
X189185655Y-101342094D01*
X188957413Y-101280938D01*
X188957403Y-101280936D01*
X188722001Y-101260341D01*
X188721999Y-101260341D01*
X188486596Y-101280936D01*
X188486586Y-101280938D01*
X188258344Y-101342094D01*
X188258335Y-101342098D01*
X188044171Y-101441964D01*
X188044169Y-101441965D01*
X187850597Y-101577505D01*
X187683505Y-101744597D01*
X187553575Y-101930158D01*
X187498998Y-101973783D01*
X187429500Y-101980977D01*
X187367145Y-101949454D01*
X187350425Y-101930158D01*
X187220494Y-101744597D01*
X187053402Y-101577506D01*
X187053395Y-101577501D01*
X187050944Y-101575785D01*
X187001955Y-101541482D01*
X186859834Y-101441967D01*
X186859830Y-101441965D01*
X186795012Y-101411740D01*
X186645663Y-101342097D01*
X186645659Y-101342096D01*
X186645655Y-101342094D01*
X186417413Y-101280938D01*
X186417403Y-101280936D01*
X186182001Y-101260341D01*
X186181999Y-101260341D01*
X185946596Y-101280936D01*
X185946586Y-101280938D01*
X185718344Y-101342094D01*
X185718335Y-101342098D01*
X185504171Y-101441964D01*
X185504169Y-101441965D01*
X185310597Y-101577505D01*
X185143505Y-101744597D01*
X185013575Y-101930158D01*
X184958998Y-101973783D01*
X184889500Y-101980977D01*
X184827145Y-101949454D01*
X184810425Y-101930158D01*
X184680494Y-101744597D01*
X184513402Y-101577506D01*
X184513395Y-101577501D01*
X184510944Y-101575785D01*
X184461955Y-101541482D01*
X184319834Y-101441967D01*
X184319830Y-101441965D01*
X184255012Y-101411740D01*
X184105663Y-101342097D01*
X184105659Y-101342096D01*
X184105655Y-101342094D01*
X183877413Y-101280938D01*
X183877403Y-101280936D01*
X183642001Y-101260341D01*
X183641999Y-101260341D01*
X183406596Y-101280936D01*
X183406586Y-101280938D01*
X183178344Y-101342094D01*
X183178335Y-101342098D01*
X182964171Y-101441964D01*
X182964169Y-101441965D01*
X182770597Y-101577505D01*
X182603505Y-101744597D01*
X182467965Y-101938169D01*
X182467964Y-101938171D01*
X182368098Y-102152335D01*
X182368094Y-102152344D01*
X182306938Y-102380586D01*
X182306936Y-102380596D01*
X182286341Y-102615999D01*
X182286341Y-102616000D01*
X169139218Y-102616000D01*
X169261871Y-102526888D01*
X169388533Y-102386216D01*
X169483179Y-102222284D01*
X169541674Y-102042256D01*
X169561460Y-101854000D01*
X169541674Y-101665744D01*
X169483179Y-101485716D01*
X169388533Y-101321784D01*
X169261871Y-101181112D01*
X169250018Y-101172500D01*
X169108734Y-101069851D01*
X169108729Y-101069848D01*
X168935807Y-100992857D01*
X168935802Y-100992855D01*
X168790001Y-100961865D01*
X168750646Y-100953500D01*
X168561354Y-100953500D01*
X168528897Y-100960398D01*
X168376197Y-100992855D01*
X168376192Y-100992857D01*
X168203270Y-101069848D01*
X168203265Y-101069851D01*
X168050129Y-101181111D01*
X167923466Y-101321785D01*
X167828821Y-101485715D01*
X167828818Y-101485722D01*
X167772674Y-101658517D01*
X167770326Y-101665744D01*
X167750540Y-101854000D01*
X157074312Y-101854000D01*
X157037179Y-101739716D01*
X156942533Y-101575784D01*
X156815871Y-101435112D01*
X156783708Y-101411744D01*
X156662734Y-101323851D01*
X156662729Y-101323848D01*
X156489807Y-101246857D01*
X156489802Y-101246855D01*
X156344001Y-101215865D01*
X156304646Y-101207500D01*
X156115354Y-101207500D01*
X156082897Y-101214398D01*
X155930197Y-101246855D01*
X155930192Y-101246857D01*
X155757270Y-101323848D01*
X155757265Y-101323851D01*
X155604129Y-101435111D01*
X155477466Y-101575785D01*
X155382821Y-101739715D01*
X155382818Y-101739722D01*
X155331279Y-101898344D01*
X155324326Y-101919744D01*
X155304540Y-102108000D01*
X151711168Y-102108000D01*
X151707408Y-102081853D01*
X151736433Y-102018297D01*
X151737996Y-102016528D01*
X151770006Y-101980977D01*
X151862533Y-101878216D01*
X151957179Y-101714284D01*
X152015674Y-101534256D01*
X152035460Y-101346000D01*
X152015674Y-101157744D01*
X151957179Y-100977716D01*
X151862533Y-100813784D01*
X151735871Y-100673112D01*
X151735870Y-100673111D01*
X151613219Y-100584000D01*
X169782540Y-100584000D01*
X169802326Y-100772256D01*
X169802327Y-100772259D01*
X169860818Y-100952277D01*
X169860821Y-100952284D01*
X169955467Y-101116216D01*
X170064815Y-101237659D01*
X170082129Y-101256888D01*
X170235265Y-101368148D01*
X170235270Y-101368151D01*
X170408192Y-101445142D01*
X170408197Y-101445144D01*
X170593354Y-101484500D01*
X170593355Y-101484500D01*
X170782644Y-101484500D01*
X170782646Y-101484500D01*
X170967803Y-101445144D01*
X171140730Y-101368151D01*
X171293871Y-101256888D01*
X171420533Y-101116216D01*
X171515179Y-100952284D01*
X171573674Y-100772256D01*
X171593460Y-100584000D01*
X171573674Y-100395744D01*
X171515179Y-100215716D01*
X171420533Y-100051784D01*
X171293871Y-99911112D01*
X171293870Y-99911111D01*
X171140734Y-99799851D01*
X171140729Y-99799848D01*
X170967807Y-99722857D01*
X170967802Y-99722855D01*
X170822001Y-99691865D01*
X170782646Y-99683500D01*
X170593354Y-99683500D01*
X170560897Y-99690398D01*
X170408197Y-99722855D01*
X170408192Y-99722857D01*
X170235270Y-99799848D01*
X170235265Y-99799851D01*
X170082129Y-99911111D01*
X169955466Y-100051785D01*
X169860821Y-100215715D01*
X169860818Y-100215722D01*
X169802327Y-100395740D01*
X169802326Y-100395744D01*
X169782540Y-100584000D01*
X151613219Y-100584000D01*
X151582734Y-100561851D01*
X151582729Y-100561848D01*
X151409807Y-100484857D01*
X151409802Y-100484855D01*
X151264001Y-100453865D01*
X151224646Y-100445500D01*
X151035354Y-100445500D01*
X151002897Y-100452398D01*
X150850197Y-100484855D01*
X150850192Y-100484857D01*
X150677270Y-100561848D01*
X150677265Y-100561851D01*
X150524129Y-100673111D01*
X150397466Y-100813785D01*
X150302821Y-100977715D01*
X150302818Y-100977722D01*
X150257955Y-101115797D01*
X150244326Y-101157744D01*
X150224540Y-101346000D01*
X145272514Y-101346000D01*
X145258533Y-101321784D01*
X145131871Y-101181112D01*
X145120018Y-101172500D01*
X144978734Y-101069851D01*
X144978729Y-101069848D01*
X144805807Y-100992857D01*
X144805802Y-100992855D01*
X144660001Y-100961865D01*
X144620646Y-100953500D01*
X144431354Y-100953500D01*
X144398897Y-100960398D01*
X144246197Y-100992855D01*
X144246192Y-100992857D01*
X144073270Y-101069848D01*
X144073265Y-101069851D01*
X143920129Y-101181111D01*
X143793466Y-101321785D01*
X143698821Y-101485715D01*
X143698818Y-101485722D01*
X143642674Y-101658517D01*
X143640326Y-101665744D01*
X143620540Y-101854000D01*
X142850312Y-101854000D01*
X142871674Y-101788256D01*
X142891460Y-101600000D01*
X142871674Y-101411744D01*
X142813179Y-101231716D01*
X142718533Y-101067784D01*
X142591871Y-100927112D01*
X142574285Y-100914335D01*
X142438734Y-100815851D01*
X142438729Y-100815848D01*
X142265807Y-100738857D01*
X142265802Y-100738855D01*
X142120001Y-100707865D01*
X142080646Y-100699500D01*
X141891354Y-100699500D01*
X141858897Y-100706398D01*
X141706197Y-100738855D01*
X141706192Y-100738857D01*
X141533270Y-100815848D01*
X141533265Y-100815851D01*
X141380129Y-100927111D01*
X141253466Y-101067785D01*
X141158821Y-101231715D01*
X141158818Y-101231722D01*
X141100327Y-101411740D01*
X141100326Y-101411744D01*
X141080540Y-101600000D01*
X127861098Y-101600000D01*
X127784496Y-101490600D01*
X127729007Y-101435111D01*
X127662567Y-101368671D01*
X127629084Y-101307351D01*
X127634068Y-101237659D01*
X127675939Y-101181725D01*
X127706915Y-101164810D01*
X127838331Y-101115796D01*
X127953546Y-101029546D01*
X128039796Y-100914331D01*
X128090091Y-100779483D01*
X128096500Y-100719873D01*
X128096499Y-99060000D01*
X167750540Y-99060000D01*
X167770326Y-99248256D01*
X167770327Y-99248259D01*
X167828818Y-99428277D01*
X167828821Y-99428284D01*
X167923467Y-99592216D01*
X168041095Y-99722855D01*
X168050129Y-99732888D01*
X168203265Y-99844148D01*
X168203270Y-99844151D01*
X168376192Y-99921142D01*
X168376197Y-99921144D01*
X168561354Y-99960500D01*
X168561355Y-99960500D01*
X168750644Y-99960500D01*
X168750646Y-99960500D01*
X168935803Y-99921144D01*
X169108730Y-99844151D01*
X169261871Y-99732888D01*
X169388533Y-99592216D01*
X169483179Y-99428284D01*
X169541674Y-99248256D01*
X169561460Y-99060000D01*
X169541674Y-98871744D01*
X169483179Y-98691716D01*
X169402514Y-98552000D01*
X173338540Y-98552000D01*
X173358326Y-98740256D01*
X173358327Y-98740259D01*
X173416818Y-98920277D01*
X173416821Y-98920284D01*
X173511467Y-99084216D01*
X173638129Y-99224888D01*
X173791265Y-99336148D01*
X173791270Y-99336151D01*
X173964192Y-99413142D01*
X173964197Y-99413144D01*
X174149354Y-99452500D01*
X174149355Y-99452500D01*
X174338644Y-99452500D01*
X174338646Y-99452500D01*
X174523803Y-99413144D01*
X174696730Y-99336151D01*
X174849871Y-99224888D01*
X174976533Y-99084216D01*
X174990514Y-99060000D01*
X178926540Y-99060000D01*
X178946326Y-99248256D01*
X178946327Y-99248259D01*
X179004818Y-99428277D01*
X179004821Y-99428284D01*
X179099467Y-99592216D01*
X179217095Y-99722855D01*
X179226129Y-99732888D01*
X179379265Y-99844148D01*
X179379270Y-99844151D01*
X179552192Y-99921142D01*
X179552197Y-99921144D01*
X179737354Y-99960500D01*
X179737355Y-99960500D01*
X179926644Y-99960500D01*
X179926646Y-99960500D01*
X180111803Y-99921144D01*
X180284730Y-99844151D01*
X180437871Y-99732888D01*
X180564533Y-99592216D01*
X180659179Y-99428284D01*
X180717674Y-99248256D01*
X180737460Y-99060000D01*
X180717674Y-98871744D01*
X180659179Y-98691716D01*
X180564533Y-98527784D01*
X180437871Y-98387112D01*
X180405708Y-98363744D01*
X180284734Y-98275851D01*
X180284729Y-98275848D01*
X180111807Y-98198857D01*
X180111802Y-98198855D01*
X179966001Y-98167865D01*
X179926646Y-98159500D01*
X179737354Y-98159500D01*
X179704897Y-98166398D01*
X179552197Y-98198855D01*
X179552192Y-98198857D01*
X179379270Y-98275848D01*
X179379265Y-98275851D01*
X179226129Y-98387111D01*
X179099466Y-98527785D01*
X179004821Y-98691715D01*
X179004818Y-98691722D01*
X178948674Y-98864517D01*
X178946326Y-98871744D01*
X178926540Y-99060000D01*
X174990514Y-99060000D01*
X175071179Y-98920284D01*
X175129674Y-98740256D01*
X175149460Y-98552000D01*
X175129674Y-98363744D01*
X175071179Y-98183716D01*
X174976533Y-98019784D01*
X174849871Y-97879112D01*
X174849870Y-97879111D01*
X174696734Y-97767851D01*
X174696729Y-97767848D01*
X174523807Y-97690857D01*
X174523802Y-97690855D01*
X174378001Y-97659865D01*
X174338646Y-97651500D01*
X174149354Y-97651500D01*
X174116897Y-97658398D01*
X173964197Y-97690855D01*
X173964192Y-97690857D01*
X173791270Y-97767848D01*
X173791265Y-97767851D01*
X173638129Y-97879111D01*
X173511466Y-98019785D01*
X173416821Y-98183715D01*
X173416818Y-98183722D01*
X173386884Y-98275851D01*
X173358326Y-98363744D01*
X173338540Y-98552000D01*
X169402514Y-98552000D01*
X169388533Y-98527784D01*
X169261871Y-98387112D01*
X169229708Y-98363744D01*
X169108734Y-98275851D01*
X169108729Y-98275848D01*
X168935807Y-98198857D01*
X168935802Y-98198855D01*
X168790001Y-98167865D01*
X168750646Y-98159500D01*
X168561354Y-98159500D01*
X168528897Y-98166398D01*
X168376197Y-98198855D01*
X168376192Y-98198857D01*
X168203270Y-98275848D01*
X168203265Y-98275851D01*
X168050129Y-98387111D01*
X167923466Y-98527785D01*
X167828821Y-98691715D01*
X167828818Y-98691722D01*
X167772674Y-98864517D01*
X167770326Y-98871744D01*
X167750540Y-99060000D01*
X128096499Y-99060000D01*
X128096499Y-98924128D01*
X128090091Y-98864517D01*
X128039796Y-98729669D01*
X128039795Y-98729668D01*
X128039793Y-98729664D01*
X127953547Y-98614455D01*
X127953544Y-98614452D01*
X127838335Y-98528206D01*
X127838328Y-98528202D01*
X127703482Y-98477908D01*
X127703483Y-98477908D01*
X127643883Y-98471501D01*
X127643881Y-98471500D01*
X127643873Y-98471500D01*
X127643864Y-98471500D01*
X125848129Y-98471500D01*
X125848123Y-98471501D01*
X125788516Y-98477908D01*
X125653671Y-98528202D01*
X125653664Y-98528206D01*
X125538455Y-98614452D01*
X125538452Y-98614455D01*
X125452206Y-98729664D01*
X125452202Y-98729671D01*
X125401908Y-98864517D01*
X125395914Y-98920277D01*
X125395501Y-98924123D01*
X125395500Y-98924135D01*
X125395500Y-100719870D01*
X125395501Y-100719876D01*
X125401908Y-100779483D01*
X125452202Y-100914328D01*
X125452206Y-100914335D01*
X125538452Y-101029544D01*
X125538455Y-101029547D01*
X125653664Y-101115793D01*
X125653671Y-101115797D01*
X125785081Y-101164810D01*
X125841015Y-101206681D01*
X125865432Y-101272145D01*
X125850580Y-101340418D01*
X125829430Y-101368673D01*
X125707503Y-101490600D01*
X125571965Y-101684169D01*
X125571964Y-101684171D01*
X125472098Y-101898335D01*
X125472094Y-101898344D01*
X125410938Y-102126586D01*
X125410936Y-102126596D01*
X125390341Y-102361999D01*
X125390341Y-102362000D01*
X125410936Y-102597403D01*
X125410938Y-102597413D01*
X125472094Y-102825655D01*
X125472096Y-102825659D01*
X125472097Y-102825663D01*
X125557356Y-103008500D01*
X125571965Y-103039830D01*
X125571967Y-103039834D01*
X125707501Y-103233395D01*
X125707506Y-103233402D01*
X125874597Y-103400493D01*
X125874603Y-103400498D01*
X126060158Y-103530425D01*
X126103783Y-103585002D01*
X126110977Y-103654500D01*
X126079454Y-103716855D01*
X126060158Y-103733575D01*
X125874597Y-103863505D01*
X125707505Y-104030597D01*
X125571965Y-104224169D01*
X125571964Y-104224171D01*
X125472098Y-104438335D01*
X125472094Y-104438344D01*
X125410938Y-104666586D01*
X125410936Y-104666596D01*
X125390341Y-104901999D01*
X125390341Y-104902000D01*
X125410936Y-105137403D01*
X125410938Y-105137413D01*
X125472094Y-105365655D01*
X125472096Y-105365659D01*
X125472097Y-105365663D01*
X125561782Y-105557993D01*
X125571965Y-105579830D01*
X125571967Y-105579834D01*
X125707501Y-105773395D01*
X125707506Y-105773402D01*
X125874597Y-105940493D01*
X125874603Y-105940498D01*
X126060158Y-106070425D01*
X126103783Y-106125002D01*
X126110977Y-106194500D01*
X126079454Y-106256855D01*
X126060158Y-106273575D01*
X125874597Y-106403505D01*
X125707505Y-106570597D01*
X125571965Y-106764169D01*
X125571964Y-106764171D01*
X125472098Y-106978335D01*
X125472094Y-106978344D01*
X125410938Y-107206586D01*
X125410936Y-107206596D01*
X125390341Y-107441999D01*
X125390341Y-107442000D01*
X125410936Y-107677403D01*
X125410938Y-107677413D01*
X125472094Y-107905655D01*
X125472096Y-107905659D01*
X125472097Y-107905663D01*
X125558012Y-108089907D01*
X125571965Y-108119830D01*
X125571967Y-108119834D01*
X125707501Y-108313395D01*
X125707506Y-108313402D01*
X125874597Y-108480493D01*
X125874603Y-108480498D01*
X126060158Y-108610425D01*
X126103783Y-108665002D01*
X126110977Y-108734500D01*
X126079454Y-108796855D01*
X126060158Y-108813575D01*
X125874597Y-108943505D01*
X125707505Y-109110597D01*
X125571965Y-109304169D01*
X125571964Y-109304171D01*
X125503101Y-109451849D01*
X125474430Y-109513335D01*
X125472098Y-109518335D01*
X125472094Y-109518344D01*
X125410938Y-109746586D01*
X125410936Y-109746596D01*
X125390341Y-109981999D01*
X125390341Y-109982000D01*
X123209046Y-109982000D01*
X123209046Y-97282000D01*
X147684540Y-97282000D01*
X147704326Y-97470256D01*
X147704327Y-97470259D01*
X147762818Y-97650277D01*
X147762821Y-97650284D01*
X147857467Y-97814216D01*
X147915899Y-97879111D01*
X147984129Y-97954888D01*
X148137265Y-98066148D01*
X148137270Y-98066151D01*
X148310192Y-98143142D01*
X148310197Y-98143144D01*
X148495354Y-98182500D01*
X148495355Y-98182500D01*
X148684644Y-98182500D01*
X148684646Y-98182500D01*
X148869803Y-98143144D01*
X149042730Y-98066151D01*
X149195871Y-97954888D01*
X149322533Y-97814216D01*
X149417179Y-97650284D01*
X149475674Y-97470256D01*
X149495460Y-97282000D01*
X149475674Y-97093744D01*
X149454312Y-97028000D01*
X154034540Y-97028000D01*
X154054326Y-97216256D01*
X154054327Y-97216259D01*
X154112818Y-97396277D01*
X154112821Y-97396284D01*
X154207467Y-97560216D01*
X154288559Y-97650277D01*
X154334129Y-97700888D01*
X154487265Y-97812148D01*
X154487270Y-97812151D01*
X154660192Y-97889142D01*
X154660197Y-97889144D01*
X154845354Y-97928500D01*
X154845355Y-97928500D01*
X155034644Y-97928500D01*
X155034646Y-97928500D01*
X155219803Y-97889144D01*
X155392730Y-97812151D01*
X155545871Y-97700888D01*
X155672533Y-97560216D01*
X155767179Y-97396284D01*
X155825674Y-97216256D01*
X155845460Y-97028000D01*
X155825674Y-96839744D01*
X155767179Y-96659716D01*
X155672533Y-96495784D01*
X155545871Y-96355112D01*
X155545870Y-96355111D01*
X155392734Y-96243851D01*
X155392729Y-96243848D01*
X155219807Y-96166857D01*
X155219802Y-96166855D01*
X155074001Y-96135865D01*
X155034646Y-96127500D01*
X154845354Y-96127500D01*
X154812897Y-96134398D01*
X154660197Y-96166855D01*
X154660192Y-96166857D01*
X154487270Y-96243848D01*
X154487265Y-96243851D01*
X154334129Y-96355111D01*
X154207466Y-96495785D01*
X154112821Y-96659715D01*
X154112818Y-96659722D01*
X154054327Y-96839740D01*
X154054326Y-96839744D01*
X154034540Y-97028000D01*
X149454312Y-97028000D01*
X149417179Y-96913716D01*
X149322533Y-96749784D01*
X149195871Y-96609112D01*
X149195870Y-96609111D01*
X149042734Y-96497851D01*
X149042729Y-96497848D01*
X148869807Y-96420857D01*
X148869802Y-96420855D01*
X148724001Y-96389865D01*
X148684646Y-96381500D01*
X148495354Y-96381500D01*
X148462897Y-96388398D01*
X148310197Y-96420855D01*
X148310192Y-96420857D01*
X148137270Y-96497848D01*
X148137265Y-96497851D01*
X147984129Y-96609111D01*
X147857466Y-96749785D01*
X147762821Y-96913715D01*
X147762818Y-96913722D01*
X147704327Y-97093740D01*
X147704326Y-97093744D01*
X147684540Y-97282000D01*
X123209046Y-97282000D01*
X123209046Y-93975000D01*
X125390341Y-93975000D01*
X125410936Y-94210403D01*
X125410938Y-94210413D01*
X125472094Y-94438655D01*
X125472096Y-94438659D01*
X125472097Y-94438663D01*
X125558467Y-94623883D01*
X125571965Y-94652830D01*
X125571967Y-94652834D01*
X125644011Y-94755722D01*
X125707505Y-94846401D01*
X125874599Y-95013495D01*
X125964577Y-95076498D01*
X126068165Y-95149032D01*
X126068167Y-95149033D01*
X126068170Y-95149035D01*
X126282337Y-95248903D01*
X126510592Y-95310063D01*
X126698918Y-95326539D01*
X126745999Y-95330659D01*
X126746000Y-95330659D01*
X126746001Y-95330659D01*
X126785234Y-95327226D01*
X126981408Y-95310063D01*
X127209663Y-95248903D01*
X127423830Y-95149035D01*
X127617401Y-95013495D01*
X127784495Y-94846401D01*
X127920035Y-94652830D01*
X127996897Y-94488000D01*
X134984540Y-94488000D01*
X135004326Y-94676256D01*
X135004327Y-94676259D01*
X135062818Y-94856277D01*
X135062821Y-94856284D01*
X135157467Y-95020216D01*
X135284129Y-95160888D01*
X135437265Y-95272148D01*
X135437270Y-95272151D01*
X135610192Y-95349142D01*
X135610197Y-95349144D01*
X135795354Y-95388500D01*
X135795355Y-95388500D01*
X135984644Y-95388500D01*
X135984646Y-95388500D01*
X136169803Y-95349144D01*
X136342730Y-95272151D01*
X136495871Y-95160888D01*
X136529085Y-95124000D01*
X166098540Y-95124000D01*
X166118326Y-95312256D01*
X166118327Y-95312259D01*
X166176818Y-95492277D01*
X166176821Y-95492284D01*
X166271467Y-95656216D01*
X166398129Y-95796888D01*
X166551265Y-95908148D01*
X166551270Y-95908151D01*
X166724192Y-95985142D01*
X166724197Y-95985144D01*
X166909354Y-96024500D01*
X166909355Y-96024500D01*
X167098644Y-96024500D01*
X167098646Y-96024500D01*
X167283803Y-95985144D01*
X167456730Y-95908151D01*
X167609871Y-95796888D01*
X167736533Y-95656216D01*
X167831179Y-95492284D01*
X167889674Y-95312256D01*
X167909460Y-95124000D01*
X167889674Y-94935744D01*
X167831179Y-94755716D01*
X167736533Y-94591784D01*
X167609871Y-94451112D01*
X167592738Y-94438664D01*
X167456734Y-94339851D01*
X167456729Y-94339848D01*
X167283807Y-94262857D01*
X167283802Y-94262855D01*
X167138001Y-94231865D01*
X167098646Y-94223500D01*
X166909354Y-94223500D01*
X166876897Y-94230398D01*
X166724197Y-94262855D01*
X166724192Y-94262857D01*
X166551270Y-94339848D01*
X166551265Y-94339851D01*
X166398129Y-94451111D01*
X166271466Y-94591785D01*
X166176821Y-94755715D01*
X166176818Y-94755722D01*
X166144144Y-94856284D01*
X166118326Y-94935744D01*
X166098540Y-95124000D01*
X136529085Y-95124000D01*
X136622533Y-95020216D01*
X136717179Y-94856284D01*
X136775674Y-94676256D01*
X136795460Y-94488000D01*
X136775674Y-94299744D01*
X136717179Y-94119716D01*
X136622533Y-93955784D01*
X136495871Y-93815112D01*
X136495870Y-93815111D01*
X136342734Y-93703851D01*
X136342729Y-93703848D01*
X136169807Y-93626857D01*
X136169802Y-93626855D01*
X136024001Y-93595865D01*
X135984646Y-93587500D01*
X135795354Y-93587500D01*
X135762897Y-93594398D01*
X135610197Y-93626855D01*
X135610192Y-93626857D01*
X135437270Y-93703848D01*
X135437265Y-93703851D01*
X135284129Y-93815111D01*
X135157466Y-93955785D01*
X135062821Y-94119715D01*
X135062818Y-94119722D01*
X135016311Y-94262857D01*
X135004326Y-94299744D01*
X134984540Y-94488000D01*
X127996897Y-94488000D01*
X128019903Y-94438663D01*
X128081063Y-94210408D01*
X128101659Y-93975000D01*
X128081063Y-93739592D01*
X128019903Y-93511337D01*
X127920035Y-93297171D01*
X127881555Y-93242216D01*
X127864599Y-93218000D01*
X149970540Y-93218000D01*
X149990326Y-93406256D01*
X149990327Y-93406259D01*
X150048818Y-93586277D01*
X150048821Y-93586284D01*
X150143467Y-93750216D01*
X150201899Y-93815111D01*
X150270129Y-93890888D01*
X150423265Y-94002148D01*
X150423270Y-94002151D01*
X150596192Y-94079142D01*
X150596197Y-94079144D01*
X150781354Y-94118500D01*
X150781355Y-94118500D01*
X150970644Y-94118500D01*
X150970646Y-94118500D01*
X151155803Y-94079144D01*
X151328730Y-94002151D01*
X151481871Y-93890888D01*
X151608533Y-93750216D01*
X151703179Y-93586284D01*
X151761674Y-93406256D01*
X151781460Y-93218000D01*
X151761674Y-93029744D01*
X151703179Y-92849716D01*
X151622514Y-92710000D01*
X158098540Y-92710000D01*
X158118326Y-92898256D01*
X158118327Y-92898259D01*
X158176818Y-93078277D01*
X158176821Y-93078284D01*
X158271467Y-93242216D01*
X158320949Y-93297171D01*
X158398129Y-93382888D01*
X158551265Y-93494148D01*
X158551270Y-93494151D01*
X158724192Y-93571142D01*
X158724197Y-93571144D01*
X158909354Y-93610500D01*
X158909355Y-93610500D01*
X159098644Y-93610500D01*
X159098646Y-93610500D01*
X159283803Y-93571144D01*
X159456730Y-93494151D01*
X159609871Y-93382888D01*
X159736533Y-93242216D01*
X159750514Y-93218000D01*
X195944540Y-93218000D01*
X195964326Y-93406256D01*
X195964327Y-93406259D01*
X196022818Y-93586277D01*
X196022821Y-93586284D01*
X196117467Y-93750216D01*
X196175899Y-93815111D01*
X196244129Y-93890888D01*
X196397265Y-94002148D01*
X196397270Y-94002151D01*
X196570192Y-94079142D01*
X196570197Y-94079144D01*
X196755354Y-94118500D01*
X196755355Y-94118500D01*
X196944644Y-94118500D01*
X196944646Y-94118500D01*
X197129803Y-94079144D01*
X197302730Y-94002151D01*
X197455871Y-93890888D01*
X197582533Y-93750216D01*
X197677179Y-93586284D01*
X197735674Y-93406256D01*
X197755460Y-93218000D01*
X197735674Y-93029744D01*
X197677179Y-92849716D01*
X197582533Y-92685784D01*
X197455871Y-92545112D01*
X197431403Y-92527335D01*
X197302734Y-92433851D01*
X197302729Y-92433848D01*
X197129807Y-92356857D01*
X197129802Y-92356855D01*
X196984001Y-92325865D01*
X196944646Y-92317500D01*
X196755354Y-92317500D01*
X196722897Y-92324398D01*
X196570197Y-92356855D01*
X196570192Y-92356857D01*
X196397270Y-92433848D01*
X196397265Y-92433851D01*
X196244129Y-92545111D01*
X196117466Y-92685785D01*
X196022821Y-92849715D01*
X196022818Y-92849722D01*
X195964327Y-93029740D01*
X195964326Y-93029744D01*
X195944540Y-93218000D01*
X159750514Y-93218000D01*
X159831179Y-93078284D01*
X159889674Y-92898256D01*
X159909460Y-92710000D01*
X159889674Y-92521744D01*
X159831179Y-92341716D01*
X159736533Y-92177784D01*
X159609871Y-92037112D01*
X159609870Y-92037111D01*
X159456734Y-91925851D01*
X159456729Y-91925848D01*
X159283807Y-91848857D01*
X159283802Y-91848855D01*
X159160509Y-91822649D01*
X159125884Y-91815289D01*
X159064403Y-91782098D01*
X159030627Y-91720935D01*
X159035279Y-91651220D01*
X159076883Y-91595088D01*
X159125884Y-91572710D01*
X159283803Y-91539144D01*
X159456730Y-91462151D01*
X159609871Y-91350888D01*
X159736533Y-91210216D01*
X159831179Y-91046284D01*
X159889674Y-90866256D01*
X159909460Y-90678000D01*
X160638540Y-90678000D01*
X160658326Y-90866256D01*
X160658327Y-90866259D01*
X160716818Y-91046277D01*
X160716821Y-91046284D01*
X160811467Y-91210216D01*
X160938129Y-91350888D01*
X161091265Y-91462148D01*
X161091270Y-91462151D01*
X161264192Y-91539142D01*
X161264197Y-91539144D01*
X161449354Y-91578500D01*
X161449355Y-91578500D01*
X161638644Y-91578500D01*
X161638646Y-91578500D01*
X161823803Y-91539144D01*
X161996730Y-91462151D01*
X162149871Y-91350888D01*
X162276533Y-91210216D01*
X162371179Y-91046284D01*
X162429674Y-90866256D01*
X162449460Y-90678000D01*
X162429674Y-90489744D01*
X162371179Y-90309716D01*
X162276533Y-90145784D01*
X162149871Y-90005112D01*
X162149870Y-90005111D01*
X162027219Y-89916000D01*
X181974540Y-89916000D01*
X181994326Y-90104256D01*
X181994327Y-90104259D01*
X182052818Y-90284277D01*
X182052821Y-90284284D01*
X182147467Y-90448216D01*
X182274129Y-90588888D01*
X182427265Y-90700148D01*
X182427270Y-90700151D01*
X182600192Y-90777142D01*
X182600197Y-90777144D01*
X182785354Y-90816500D01*
X182785355Y-90816500D01*
X182974644Y-90816500D01*
X182974646Y-90816500D01*
X183159803Y-90777144D01*
X183332730Y-90700151D01*
X183485871Y-90588888D01*
X183612533Y-90448216D01*
X183707179Y-90284284D01*
X183765674Y-90104256D01*
X183785460Y-89916000D01*
X183765674Y-89727744D01*
X183707179Y-89547716D01*
X183705574Y-89544937D01*
X183705136Y-89543129D01*
X183704538Y-89541786D01*
X183704783Y-89541676D01*
X183689100Y-89477043D01*
X183711948Y-89411015D01*
X183766867Y-89367821D01*
X183836420Y-89361176D01*
X183885845Y-89382618D01*
X183951265Y-89430148D01*
X183951270Y-89430151D01*
X184124192Y-89507142D01*
X184124197Y-89507144D01*
X184309354Y-89546500D01*
X184309355Y-89546500D01*
X184498644Y-89546500D01*
X184498646Y-89546500D01*
X184683803Y-89507144D01*
X184856730Y-89430151D01*
X185009871Y-89318888D01*
X185136533Y-89178216D01*
X185231179Y-89014284D01*
X185289674Y-88834256D01*
X185309460Y-88646000D01*
X185289674Y-88457744D01*
X185231179Y-88277716D01*
X185136533Y-88113784D01*
X185009871Y-87973112D01*
X185009870Y-87973111D01*
X184856734Y-87861851D01*
X184856729Y-87861848D01*
X184683807Y-87784857D01*
X184683802Y-87784855D01*
X184521915Y-87750446D01*
X184498646Y-87745500D01*
X184309354Y-87745500D01*
X184286094Y-87750444D01*
X184124197Y-87784855D01*
X184124192Y-87784857D01*
X183951270Y-87861848D01*
X183951265Y-87861851D01*
X183798129Y-87973111D01*
X183671466Y-88113785D01*
X183576821Y-88277715D01*
X183576818Y-88277722D01*
X183518327Y-88457740D01*
X183518326Y-88457744D01*
X183498540Y-88646000D01*
X183518326Y-88834256D01*
X183518327Y-88834259D01*
X183576818Y-89014277D01*
X183576820Y-89014282D01*
X183576821Y-89014284D01*
X183578425Y-89017063D01*
X183578864Y-89018871D01*
X183579462Y-89020214D01*
X183579216Y-89020323D01*
X183594899Y-89084961D01*
X183572048Y-89150988D01*
X183517127Y-89194180D01*
X183447574Y-89200823D01*
X183398154Y-89179382D01*
X183383881Y-89169012D01*
X183332730Y-89131849D01*
X183332728Y-89131848D01*
X183332729Y-89131848D01*
X183159807Y-89054857D01*
X183159802Y-89054855D01*
X183014001Y-89023865D01*
X182974646Y-89015500D01*
X182785354Y-89015500D01*
X182752897Y-89022398D01*
X182600197Y-89054855D01*
X182600192Y-89054857D01*
X182427270Y-89131848D01*
X182427265Y-89131851D01*
X182274129Y-89243111D01*
X182147466Y-89383785D01*
X182052821Y-89547715D01*
X182052818Y-89547722D01*
X181994327Y-89727740D01*
X181994326Y-89727744D01*
X181974540Y-89916000D01*
X162027219Y-89916000D01*
X161996734Y-89893851D01*
X161996729Y-89893848D01*
X161823807Y-89816857D01*
X161823802Y-89816855D01*
X161678001Y-89785865D01*
X161638646Y-89777500D01*
X161449354Y-89777500D01*
X161416897Y-89784398D01*
X161264197Y-89816855D01*
X161264192Y-89816857D01*
X161091270Y-89893848D01*
X161091265Y-89893851D01*
X160938129Y-90005111D01*
X160811466Y-90145785D01*
X160716821Y-90309715D01*
X160716818Y-90309722D01*
X160658327Y-90489740D01*
X160658326Y-90489744D01*
X160638540Y-90678000D01*
X159909460Y-90678000D01*
X159889674Y-90489744D01*
X159831179Y-90309716D01*
X159736533Y-90145784D01*
X159609871Y-90005112D01*
X159609870Y-90005111D01*
X159456734Y-89893851D01*
X159456729Y-89893848D01*
X159283807Y-89816857D01*
X159283802Y-89816855D01*
X159138001Y-89785865D01*
X159098646Y-89777500D01*
X158909354Y-89777500D01*
X158876897Y-89784398D01*
X158724197Y-89816855D01*
X158724192Y-89816857D01*
X158551270Y-89893848D01*
X158551265Y-89893851D01*
X158398129Y-90005111D01*
X158271466Y-90145785D01*
X158176821Y-90309715D01*
X158176818Y-90309722D01*
X158118327Y-90489740D01*
X158118326Y-90489744D01*
X158098540Y-90678000D01*
X158118326Y-90866256D01*
X158118327Y-90866259D01*
X158176818Y-91046277D01*
X158176821Y-91046284D01*
X158271467Y-91210216D01*
X158398129Y-91350888D01*
X158551265Y-91462148D01*
X158551270Y-91462151D01*
X158724192Y-91539142D01*
X158724197Y-91539144D01*
X158882114Y-91572710D01*
X158943596Y-91605902D01*
X158977372Y-91667065D01*
X158972720Y-91736780D01*
X158931115Y-91792912D01*
X158882114Y-91815290D01*
X158724197Y-91848855D01*
X158724192Y-91848857D01*
X158551270Y-91925848D01*
X158551265Y-91925851D01*
X158398129Y-92037111D01*
X158271466Y-92177785D01*
X158176821Y-92341715D01*
X158176818Y-92341722D01*
X158118327Y-92521740D01*
X158118326Y-92521744D01*
X158098540Y-92710000D01*
X151622514Y-92710000D01*
X151608533Y-92685784D01*
X151481871Y-92545112D01*
X151457403Y-92527335D01*
X151328734Y-92433851D01*
X151328729Y-92433848D01*
X151155807Y-92356857D01*
X151155802Y-92356855D01*
X151010001Y-92325865D01*
X150970646Y-92317500D01*
X150781354Y-92317500D01*
X150748897Y-92324398D01*
X150596197Y-92356855D01*
X150596192Y-92356857D01*
X150423270Y-92433848D01*
X150423265Y-92433851D01*
X150270129Y-92545111D01*
X150143466Y-92685785D01*
X150048821Y-92849715D01*
X150048818Y-92849722D01*
X149990327Y-93029740D01*
X149990326Y-93029744D01*
X149970540Y-93218000D01*
X127864599Y-93218000D01*
X127784496Y-93103600D01*
X127759173Y-93078277D01*
X127662567Y-92981671D01*
X127629084Y-92920351D01*
X127634068Y-92850659D01*
X127675939Y-92794725D01*
X127706915Y-92777810D01*
X127838331Y-92728796D01*
X127953546Y-92642546D01*
X128039796Y-92527331D01*
X128090091Y-92392483D01*
X128096500Y-92332873D01*
X128096499Y-90537128D01*
X128090091Y-90477517D01*
X128079162Y-90448216D01*
X128039797Y-90342671D01*
X128039793Y-90342664D01*
X127953547Y-90227455D01*
X127953544Y-90227452D01*
X127838335Y-90141206D01*
X127838328Y-90141202D01*
X127703482Y-90090908D01*
X127703483Y-90090908D01*
X127643883Y-90084501D01*
X127643881Y-90084500D01*
X127643873Y-90084500D01*
X127643864Y-90084500D01*
X125848129Y-90084500D01*
X125848123Y-90084501D01*
X125788516Y-90090908D01*
X125653671Y-90141202D01*
X125653664Y-90141206D01*
X125538455Y-90227452D01*
X125538452Y-90227455D01*
X125452206Y-90342664D01*
X125452202Y-90342671D01*
X125401908Y-90477517D01*
X125398832Y-90506132D01*
X125395501Y-90537123D01*
X125395500Y-90537135D01*
X125395500Y-92332870D01*
X125395501Y-92332876D01*
X125401908Y-92392483D01*
X125452202Y-92527328D01*
X125452206Y-92527335D01*
X125538452Y-92642544D01*
X125538455Y-92642547D01*
X125653664Y-92728793D01*
X125653671Y-92728797D01*
X125785081Y-92777810D01*
X125841015Y-92819681D01*
X125865432Y-92885145D01*
X125850580Y-92953418D01*
X125829430Y-92981673D01*
X125707503Y-93103600D01*
X125571965Y-93297169D01*
X125571964Y-93297171D01*
X125472098Y-93511335D01*
X125472094Y-93511344D01*
X125410938Y-93739586D01*
X125410936Y-93739596D01*
X125390341Y-93974999D01*
X125390341Y-93975000D01*
X123209046Y-93975000D01*
X123209046Y-91471453D01*
X123227400Y-90840660D01*
X123227610Y-90837058D01*
X123253851Y-90537129D01*
X123282452Y-90210215D01*
X123282870Y-90206641D01*
X123325442Y-89916000D01*
X123374071Y-89584007D01*
X123374685Y-89580522D01*
X123501938Y-88964235D01*
X123502768Y-88960734D01*
X123665641Y-88352879D01*
X123666659Y-88349483D01*
X123864598Y-87752134D01*
X123865825Y-87748767D01*
X123867123Y-87745500D01*
X124098154Y-87163960D01*
X124099576Y-87160665D01*
X124114471Y-87128723D01*
X124365519Y-86590345D01*
X124367106Y-86587186D01*
X124665779Y-86033261D01*
X124667556Y-86030183D01*
X124997931Y-85494564D01*
X124999874Y-85491612D01*
X125103231Y-85344003D01*
X126439381Y-85344003D01*
X126459827Y-85616839D01*
X126459827Y-85616840D01*
X126520706Y-85883570D01*
X126520708Y-85883579D01*
X126520710Y-85883584D01*
X126620669Y-86138276D01*
X126757472Y-86375224D01*
X126843182Y-86482701D01*
X126928064Y-86589141D01*
X127016245Y-86670960D01*
X127128628Y-86775236D01*
X127354691Y-86929363D01*
X127354696Y-86929365D01*
X127354697Y-86929366D01*
X127354698Y-86929367D01*
X127485618Y-86992414D01*
X127601196Y-87048073D01*
X127601197Y-87048073D01*
X127601200Y-87048075D01*
X127862649Y-87128722D01*
X127862650Y-87128722D01*
X127862653Y-87128723D01*
X128133190Y-87169499D01*
X128133195Y-87169499D01*
X128133198Y-87169500D01*
X128133199Y-87169500D01*
X128406801Y-87169500D01*
X128406802Y-87169500D01*
X128406809Y-87169499D01*
X128677346Y-87128723D01*
X128677347Y-87128722D01*
X128677351Y-87128722D01*
X128938800Y-87048075D01*
X129185310Y-86929363D01*
X129411372Y-86775236D01*
X129611939Y-86589137D01*
X129782528Y-86375224D01*
X129919331Y-86138276D01*
X130019290Y-85883584D01*
X130080172Y-85616840D01*
X130094586Y-85424499D01*
X130100619Y-85344003D01*
X130100619Y-85343996D01*
X130080172Y-85071160D01*
X130080172Y-85071159D01*
X130019293Y-84804429D01*
X130019292Y-84804428D01*
X130019290Y-84804416D01*
X129919331Y-84549724D01*
X129782528Y-84312776D01*
X129611939Y-84098863D01*
X129611938Y-84098862D01*
X129611935Y-84098858D01*
X129585144Y-84074000D01*
X159368540Y-84074000D01*
X159388326Y-84262256D01*
X159388327Y-84262259D01*
X159446818Y-84442277D01*
X159446821Y-84442284D01*
X159541467Y-84606216D01*
X159622559Y-84696277D01*
X159668129Y-84746888D01*
X159821265Y-84858148D01*
X159821270Y-84858151D01*
X159994192Y-84935142D01*
X159994197Y-84935144D01*
X160179354Y-84974500D01*
X160179355Y-84974500D01*
X160368644Y-84974500D01*
X160368646Y-84974500D01*
X160553803Y-84935144D01*
X160726730Y-84858151D01*
X160879871Y-84746888D01*
X161006533Y-84606216D01*
X161101179Y-84442284D01*
X161159674Y-84262256D01*
X161179460Y-84074000D01*
X162924540Y-84074000D01*
X162944326Y-84262256D01*
X162944327Y-84262259D01*
X163002818Y-84442277D01*
X163002821Y-84442284D01*
X163097467Y-84606216D01*
X163178559Y-84696277D01*
X163224129Y-84746888D01*
X163377265Y-84858148D01*
X163377270Y-84858151D01*
X163550192Y-84935142D01*
X163550197Y-84935144D01*
X163735354Y-84974500D01*
X163735355Y-84974500D01*
X163924644Y-84974500D01*
X163924646Y-84974500D01*
X164109803Y-84935144D01*
X164282730Y-84858151D01*
X164435871Y-84746888D01*
X164562533Y-84606216D01*
X164657179Y-84442284D01*
X164715674Y-84262256D01*
X164735460Y-84074000D01*
X165522341Y-84074000D01*
X165542936Y-84309403D01*
X165542938Y-84309413D01*
X165604094Y-84537655D01*
X165604096Y-84537659D01*
X165604097Y-84537663D01*
X165684004Y-84709023D01*
X165703965Y-84751830D01*
X165703967Y-84751834D01*
X165778412Y-84858151D01*
X165839505Y-84945401D01*
X166006599Y-85112495D01*
X166103384Y-85180265D01*
X166200165Y-85248032D01*
X166200167Y-85248033D01*
X166200170Y-85248035D01*
X166414337Y-85347903D01*
X166642592Y-85409063D01*
X166819034Y-85424500D01*
X166877999Y-85429659D01*
X166878000Y-85429659D01*
X166878001Y-85429659D01*
X166936966Y-85424500D01*
X167113408Y-85409063D01*
X167341663Y-85347903D01*
X167555830Y-85248035D01*
X167749401Y-85112495D01*
X167916495Y-84945401D01*
X168046425Y-84759842D01*
X168101002Y-84716217D01*
X168170500Y-84709023D01*
X168232855Y-84740546D01*
X168249575Y-84759842D01*
X168379500Y-84945395D01*
X168379505Y-84945401D01*
X168546599Y-85112495D01*
X168643384Y-85180265D01*
X168740165Y-85248032D01*
X168740167Y-85248033D01*
X168740170Y-85248035D01*
X168954337Y-85347903D01*
X169182592Y-85409063D01*
X169359034Y-85424500D01*
X169417999Y-85429659D01*
X169418000Y-85429659D01*
X169418001Y-85429659D01*
X169476966Y-85424500D01*
X169653408Y-85409063D01*
X169881663Y-85347903D01*
X170095830Y-85248035D01*
X170289401Y-85112495D01*
X170456495Y-84945401D01*
X170586425Y-84759842D01*
X170641002Y-84716217D01*
X170710500Y-84709023D01*
X170772855Y-84740546D01*
X170789575Y-84759842D01*
X170919500Y-84945395D01*
X170919505Y-84945401D01*
X171086599Y-85112495D01*
X171183384Y-85180265D01*
X171280165Y-85248032D01*
X171280167Y-85248033D01*
X171280170Y-85248035D01*
X171494337Y-85347903D01*
X171722592Y-85409063D01*
X171899034Y-85424500D01*
X171957999Y-85429659D01*
X171958000Y-85429659D01*
X171958001Y-85429659D01*
X172016966Y-85424500D01*
X172193408Y-85409063D01*
X172421663Y-85347903D01*
X172635830Y-85248035D01*
X172829401Y-85112495D01*
X172996495Y-84945401D01*
X173126425Y-84759842D01*
X173181002Y-84716217D01*
X173250500Y-84709023D01*
X173312855Y-84740546D01*
X173329575Y-84759842D01*
X173459500Y-84945395D01*
X173459505Y-84945401D01*
X173626599Y-85112495D01*
X173723384Y-85180265D01*
X173820165Y-85248032D01*
X173820167Y-85248033D01*
X173820170Y-85248035D01*
X174034337Y-85347903D01*
X174262592Y-85409063D01*
X174439034Y-85424500D01*
X174497999Y-85429659D01*
X174498000Y-85429659D01*
X174498001Y-85429659D01*
X174556966Y-85424500D01*
X174733408Y-85409063D01*
X174961663Y-85347903D01*
X175175830Y-85248035D01*
X175369401Y-85112495D01*
X175536495Y-84945401D01*
X175666425Y-84759842D01*
X175721002Y-84716217D01*
X175790500Y-84709023D01*
X175852855Y-84740546D01*
X175869575Y-84759842D01*
X175999500Y-84945395D01*
X175999505Y-84945401D01*
X176166599Y-85112495D01*
X176263384Y-85180265D01*
X176360165Y-85248032D01*
X176360167Y-85248033D01*
X176360170Y-85248035D01*
X176574337Y-85347903D01*
X176802592Y-85409063D01*
X176979034Y-85424500D01*
X177037999Y-85429659D01*
X177038000Y-85429659D01*
X177038001Y-85429659D01*
X177096966Y-85424500D01*
X177273408Y-85409063D01*
X177501663Y-85347903D01*
X177715830Y-85248035D01*
X177909401Y-85112495D01*
X178031329Y-84990566D01*
X178092648Y-84957084D01*
X178162340Y-84962068D01*
X178218274Y-85003939D01*
X178235189Y-85034917D01*
X178284202Y-85166328D01*
X178284206Y-85166335D01*
X178370452Y-85281544D01*
X178370455Y-85281547D01*
X178485664Y-85367793D01*
X178485671Y-85367797D01*
X178620517Y-85418091D01*
X178620516Y-85418091D01*
X178627444Y-85418835D01*
X178680127Y-85424500D01*
X180475872Y-85424499D01*
X180535483Y-85418091D01*
X180670331Y-85367796D01*
X180785546Y-85281546D01*
X180871796Y-85166331D01*
X180922091Y-85031483D01*
X180928500Y-84971873D01*
X180928499Y-83176128D01*
X180922091Y-83116517D01*
X180920810Y-83113083D01*
X180871797Y-82981671D01*
X180871793Y-82981664D01*
X180785547Y-82866455D01*
X180785544Y-82866452D01*
X180670335Y-82780206D01*
X180670328Y-82780202D01*
X180535482Y-82729908D01*
X180535483Y-82729908D01*
X180475883Y-82723501D01*
X180475881Y-82723500D01*
X180475873Y-82723500D01*
X180475864Y-82723500D01*
X178680129Y-82723500D01*
X178680123Y-82723501D01*
X178620516Y-82729908D01*
X178485671Y-82780202D01*
X178485664Y-82780206D01*
X178370455Y-82866452D01*
X178370452Y-82866455D01*
X178284206Y-82981664D01*
X178284203Y-82981669D01*
X178235189Y-83113083D01*
X178193317Y-83169016D01*
X178127853Y-83193433D01*
X178059580Y-83178581D01*
X178031326Y-83157430D01*
X177909402Y-83035506D01*
X177909395Y-83035501D01*
X177715834Y-82899967D01*
X177715830Y-82899965D01*
X177715828Y-82899964D01*
X177501663Y-82800097D01*
X177501659Y-82800096D01*
X177501655Y-82800094D01*
X177273413Y-82738938D01*
X177273403Y-82738936D01*
X177038001Y-82718341D01*
X177037999Y-82718341D01*
X176802596Y-82738936D01*
X176802586Y-82738938D01*
X176574344Y-82800094D01*
X176574335Y-82800098D01*
X176360171Y-82899964D01*
X176360169Y-82899965D01*
X176166597Y-83035505D01*
X175999505Y-83202597D01*
X175869575Y-83388158D01*
X175814998Y-83431783D01*
X175745500Y-83438977D01*
X175683145Y-83407454D01*
X175666425Y-83388158D01*
X175536494Y-83202597D01*
X175369402Y-83035506D01*
X175369395Y-83035501D01*
X175175834Y-82899967D01*
X175175830Y-82899965D01*
X175175828Y-82899964D01*
X174961663Y-82800097D01*
X174961659Y-82800096D01*
X174961655Y-82800094D01*
X174733413Y-82738938D01*
X174733403Y-82738936D01*
X174498001Y-82718341D01*
X174497999Y-82718341D01*
X174262596Y-82738936D01*
X174262586Y-82738938D01*
X174034344Y-82800094D01*
X174034335Y-82800098D01*
X173820171Y-82899964D01*
X173820169Y-82899965D01*
X173626597Y-83035505D01*
X173459505Y-83202597D01*
X173329575Y-83388158D01*
X173274998Y-83431783D01*
X173205500Y-83438977D01*
X173143145Y-83407454D01*
X173126425Y-83388158D01*
X172996494Y-83202597D01*
X172829402Y-83035506D01*
X172829395Y-83035501D01*
X172635834Y-82899967D01*
X172635830Y-82899965D01*
X172635828Y-82899964D01*
X172421663Y-82800097D01*
X172421659Y-82800096D01*
X172421655Y-82800094D01*
X172193413Y-82738938D01*
X172193403Y-82738936D01*
X171958001Y-82718341D01*
X171957999Y-82718341D01*
X171722596Y-82738936D01*
X171722586Y-82738938D01*
X171494344Y-82800094D01*
X171494335Y-82800098D01*
X171280171Y-82899964D01*
X171280169Y-82899965D01*
X171086597Y-83035505D01*
X170919505Y-83202597D01*
X170789575Y-83388158D01*
X170734998Y-83431783D01*
X170665500Y-83438977D01*
X170603145Y-83407454D01*
X170586425Y-83388158D01*
X170456494Y-83202597D01*
X170289402Y-83035506D01*
X170289395Y-83035501D01*
X170095834Y-82899967D01*
X170095830Y-82899965D01*
X170095828Y-82899964D01*
X169881663Y-82800097D01*
X169881659Y-82800096D01*
X169881655Y-82800094D01*
X169653413Y-82738938D01*
X169653403Y-82738936D01*
X169418001Y-82718341D01*
X169417999Y-82718341D01*
X169182596Y-82738936D01*
X169182586Y-82738938D01*
X168954344Y-82800094D01*
X168954335Y-82800098D01*
X168740171Y-82899964D01*
X168740169Y-82899965D01*
X168546597Y-83035505D01*
X168379505Y-83202597D01*
X168249575Y-83388158D01*
X168194998Y-83431783D01*
X168125500Y-83438977D01*
X168063145Y-83407454D01*
X168046425Y-83388158D01*
X167916494Y-83202597D01*
X167749402Y-83035506D01*
X167749395Y-83035501D01*
X167555834Y-82899967D01*
X167555830Y-82899965D01*
X167555828Y-82899964D01*
X167341663Y-82800097D01*
X167341659Y-82800096D01*
X167341655Y-82800094D01*
X167113413Y-82738938D01*
X167113403Y-82738936D01*
X166878001Y-82718341D01*
X166877999Y-82718341D01*
X166642596Y-82738936D01*
X166642586Y-82738938D01*
X166414344Y-82800094D01*
X166414335Y-82800098D01*
X166200171Y-82899964D01*
X166200169Y-82899965D01*
X166006597Y-83035505D01*
X165839505Y-83202597D01*
X165703965Y-83396169D01*
X165703964Y-83396171D01*
X165604098Y-83610335D01*
X165604094Y-83610344D01*
X165542938Y-83838586D01*
X165542936Y-83838596D01*
X165522341Y-84073999D01*
X165522341Y-84074000D01*
X164735460Y-84074000D01*
X164715674Y-83885744D01*
X164657179Y-83705716D01*
X164562533Y-83541784D01*
X164435871Y-83401112D01*
X164435870Y-83401111D01*
X164282734Y-83289851D01*
X164282729Y-83289848D01*
X164109807Y-83212857D01*
X164109802Y-83212855D01*
X163948550Y-83178581D01*
X163924646Y-83173500D01*
X163735354Y-83173500D01*
X163711450Y-83178581D01*
X163550197Y-83212855D01*
X163550192Y-83212857D01*
X163377270Y-83289848D01*
X163377265Y-83289851D01*
X163224129Y-83401111D01*
X163097466Y-83541785D01*
X163002821Y-83705715D01*
X163002818Y-83705722D01*
X162959645Y-83838596D01*
X162944326Y-83885744D01*
X162924540Y-84074000D01*
X161179460Y-84074000D01*
X161159674Y-83885744D01*
X161101179Y-83705716D01*
X161006533Y-83541784D01*
X160879871Y-83401112D01*
X160879870Y-83401111D01*
X160726734Y-83289851D01*
X160726729Y-83289848D01*
X160553807Y-83212857D01*
X160553802Y-83212855D01*
X160392550Y-83178581D01*
X160368646Y-83173500D01*
X160179354Y-83173500D01*
X160155450Y-83178581D01*
X159994197Y-83212855D01*
X159994192Y-83212857D01*
X159821270Y-83289848D01*
X159821265Y-83289851D01*
X159668129Y-83401111D01*
X159541466Y-83541785D01*
X159446821Y-83705715D01*
X159446818Y-83705722D01*
X159403645Y-83838596D01*
X159388326Y-83885744D01*
X159368540Y-84074000D01*
X129585144Y-84074000D01*
X129411372Y-83912764D01*
X129371735Y-83885740D01*
X129185310Y-83758637D01*
X129185306Y-83758635D01*
X129185303Y-83758633D01*
X129185302Y-83758632D01*
X128938802Y-83639926D01*
X128938804Y-83639926D01*
X128677352Y-83559278D01*
X128677346Y-83559276D01*
X128406809Y-83518500D01*
X128406802Y-83518500D01*
X128133198Y-83518500D01*
X128133190Y-83518500D01*
X127862653Y-83559276D01*
X127862647Y-83559278D01*
X127601196Y-83639926D01*
X127354698Y-83758632D01*
X127354697Y-83758633D01*
X127128627Y-83912764D01*
X126928064Y-84098858D01*
X126757472Y-84312776D01*
X126620669Y-84549723D01*
X126520712Y-84804410D01*
X126520706Y-84804429D01*
X126459827Y-85071159D01*
X126459827Y-85071160D01*
X126439381Y-85343996D01*
X126439381Y-85344003D01*
X125103231Y-85344003D01*
X125360815Y-84976133D01*
X125362960Y-84973254D01*
X125753246Y-84479657D01*
X125755565Y-84476894D01*
X126055602Y-84139744D01*
X126173900Y-84006812D01*
X126176329Y-84004237D01*
X126621332Y-83559234D01*
X126623917Y-83556797D01*
X126999131Y-83222885D01*
X127093988Y-83138470D01*
X127096751Y-83136151D01*
X127224037Y-83035506D01*
X127590360Y-82745854D01*
X127593233Y-82743717D01*
X127612955Y-82729908D01*
X127737574Y-82642647D01*
X127869888Y-82550000D01*
X184768540Y-82550000D01*
X184788326Y-82738256D01*
X184788327Y-82738259D01*
X184846818Y-82918277D01*
X184846821Y-82918284D01*
X184941467Y-83082216D01*
X185041608Y-83193433D01*
X185068129Y-83222888D01*
X185221265Y-83334148D01*
X185221266Y-83334148D01*
X185221270Y-83334151D01*
X185360563Y-83396169D01*
X185361511Y-83396591D01*
X185414748Y-83441841D01*
X185435069Y-83508690D01*
X185416024Y-83575914D01*
X185383961Y-83610187D01*
X185322131Y-83655109D01*
X185322129Y-83655111D01*
X185195466Y-83795785D01*
X185100821Y-83959715D01*
X185100818Y-83959722D01*
X185055609Y-84098863D01*
X185042326Y-84139744D01*
X185022540Y-84328000D01*
X185042326Y-84516256D01*
X185042327Y-84516259D01*
X185100818Y-84696277D01*
X185100821Y-84696284D01*
X185195467Y-84860216D01*
X185299852Y-84976147D01*
X185322129Y-85000888D01*
X185475265Y-85112148D01*
X185475270Y-85112151D01*
X185648192Y-85189142D01*
X185648193Y-85189142D01*
X185648197Y-85189144D01*
X185829781Y-85227740D01*
X185891262Y-85260932D01*
X185925039Y-85322095D01*
X185928000Y-85349030D01*
X185928000Y-91440000D01*
X196596000Y-91440000D01*
X196596000Y-91186000D01*
X201844341Y-91186000D01*
X201864936Y-91421403D01*
X201864938Y-91421413D01*
X201926094Y-91649655D01*
X201926096Y-91649659D01*
X201926097Y-91649663D01*
X202018983Y-91848857D01*
X202025965Y-91863830D01*
X202025967Y-91863834D01*
X202134281Y-92018521D01*
X202161501Y-92057396D01*
X202161506Y-92057402D01*
X202283430Y-92179326D01*
X202316915Y-92240649D01*
X202311931Y-92310341D01*
X202270059Y-92366274D01*
X202239083Y-92383189D01*
X202107669Y-92432203D01*
X202107664Y-92432206D01*
X201992455Y-92518452D01*
X201992452Y-92518455D01*
X201906206Y-92633664D01*
X201906202Y-92633671D01*
X201855908Y-92768517D01*
X201853091Y-92794725D01*
X201849501Y-92828123D01*
X201849500Y-92828135D01*
X201849500Y-94623870D01*
X201849501Y-94623876D01*
X201855908Y-94683483D01*
X201906202Y-94818328D01*
X201906206Y-94818335D01*
X201992452Y-94933544D01*
X201992455Y-94933547D01*
X202107664Y-95019793D01*
X202107671Y-95019797D01*
X202242517Y-95070091D01*
X202242516Y-95070091D01*
X202249444Y-95070835D01*
X202302127Y-95076500D01*
X204097872Y-95076499D01*
X204157483Y-95070091D01*
X204292331Y-95019796D01*
X204407546Y-94933546D01*
X204493796Y-94818331D01*
X204544091Y-94683483D01*
X204550500Y-94623873D01*
X204550499Y-92828128D01*
X204544091Y-92768517D01*
X204529276Y-92728797D01*
X204493797Y-92633671D01*
X204493793Y-92633664D01*
X204407547Y-92518455D01*
X204407544Y-92518452D01*
X204292335Y-92432206D01*
X204292328Y-92432202D01*
X204160917Y-92383189D01*
X204104983Y-92341318D01*
X204080566Y-92275853D01*
X204095418Y-92207580D01*
X204116563Y-92179332D01*
X204238495Y-92057401D01*
X204374035Y-91863830D01*
X204473903Y-91649663D01*
X204535063Y-91421408D01*
X204555659Y-91186000D01*
X204535063Y-90950592D01*
X204473903Y-90722337D01*
X204374035Y-90508171D01*
X204372608Y-90506132D01*
X204238494Y-90314597D01*
X204071402Y-90147506D01*
X204071395Y-90147501D01*
X204068944Y-90145785D01*
X204032521Y-90120281D01*
X203877834Y-90011967D01*
X203877830Y-90011965D01*
X203863132Y-90005111D01*
X203663663Y-89912097D01*
X203663659Y-89912096D01*
X203663655Y-89912094D01*
X203435413Y-89850938D01*
X203435403Y-89850936D01*
X203200001Y-89830341D01*
X203199999Y-89830341D01*
X202964596Y-89850936D01*
X202964586Y-89850938D01*
X202736344Y-89912094D01*
X202736335Y-89912098D01*
X202522171Y-90011964D01*
X202522169Y-90011965D01*
X202328597Y-90147505D01*
X202161505Y-90314597D01*
X202025965Y-90508169D01*
X202025964Y-90508171D01*
X201926098Y-90722335D01*
X201926094Y-90722344D01*
X201864938Y-90950586D01*
X201864936Y-90950596D01*
X201844341Y-91185999D01*
X201844341Y-91186000D01*
X196596000Y-91186000D01*
X196596000Y-87474548D01*
X196615685Y-87407509D01*
X196668489Y-87361754D01*
X196737647Y-87351810D01*
X196745781Y-87353258D01*
X196886653Y-87383201D01*
X196886654Y-87383201D01*
X197075943Y-87383201D01*
X197075945Y-87383201D01*
X197261102Y-87343845D01*
X197434029Y-87266852D01*
X197587170Y-87155589D01*
X197713832Y-87014917D01*
X197808478Y-86850985D01*
X197866973Y-86670957D01*
X197886759Y-86482701D01*
X197866973Y-86294445D01*
X197808478Y-86114417D01*
X197713832Y-85950485D01*
X197587170Y-85809813D01*
X197587169Y-85809812D01*
X197434033Y-85698552D01*
X197434028Y-85698549D01*
X197261106Y-85621558D01*
X197261101Y-85621556D01*
X197115300Y-85590566D01*
X197075945Y-85582201D01*
X197075944Y-85582201D01*
X197016752Y-85582201D01*
X196949713Y-85562516D01*
X196929071Y-85545882D01*
X196727192Y-85344003D01*
X200099381Y-85344003D01*
X200119827Y-85616839D01*
X200119827Y-85616840D01*
X200180706Y-85883570D01*
X200180708Y-85883579D01*
X200180710Y-85883584D01*
X200280669Y-86138276D01*
X200417472Y-86375224D01*
X200503182Y-86482701D01*
X200588064Y-86589141D01*
X200676245Y-86670960D01*
X200788628Y-86775236D01*
X201014691Y-86929363D01*
X201014696Y-86929365D01*
X201014697Y-86929366D01*
X201014698Y-86929367D01*
X201145618Y-86992414D01*
X201261196Y-87048073D01*
X201261197Y-87048073D01*
X201261200Y-87048075D01*
X201522649Y-87128722D01*
X201522650Y-87128722D01*
X201522653Y-87128723D01*
X201793190Y-87169499D01*
X201793195Y-87169499D01*
X201793198Y-87169500D01*
X201793199Y-87169500D01*
X202066801Y-87169500D01*
X202066802Y-87169500D01*
X202066809Y-87169499D01*
X202337346Y-87128723D01*
X202337347Y-87128722D01*
X202337351Y-87128722D01*
X202598800Y-87048075D01*
X202845310Y-86929363D01*
X203071372Y-86775236D01*
X203271939Y-86589137D01*
X203442528Y-86375224D01*
X203579331Y-86138276D01*
X203679290Y-85883584D01*
X203740172Y-85616840D01*
X203754586Y-85424499D01*
X203760619Y-85344003D01*
X203760619Y-85343996D01*
X203740172Y-85071160D01*
X203740172Y-85071159D01*
X203679293Y-84804429D01*
X203679292Y-84804428D01*
X203679290Y-84804416D01*
X203579331Y-84549724D01*
X203442528Y-84312776D01*
X203271939Y-84098863D01*
X203271938Y-84098862D01*
X203271935Y-84098858D01*
X203071372Y-83912764D01*
X203031735Y-83885740D01*
X202845310Y-83758637D01*
X202845306Y-83758635D01*
X202845303Y-83758633D01*
X202845302Y-83758632D01*
X202598802Y-83639926D01*
X202598804Y-83639926D01*
X202337352Y-83559278D01*
X202337346Y-83559276D01*
X202066809Y-83518500D01*
X202066802Y-83518500D01*
X201793198Y-83518500D01*
X201793190Y-83518500D01*
X201522653Y-83559276D01*
X201522647Y-83559278D01*
X201261196Y-83639926D01*
X201014698Y-83758632D01*
X201014697Y-83758633D01*
X200788627Y-83912764D01*
X200588064Y-84098858D01*
X200417472Y-84312776D01*
X200280669Y-84549723D01*
X200180712Y-84804410D01*
X200180706Y-84804429D01*
X200119827Y-85071159D01*
X200119827Y-85071160D01*
X200099381Y-85343996D01*
X200099381Y-85344003D01*
X196727192Y-85344003D01*
X196632319Y-85249130D01*
X196598834Y-85187807D01*
X196596000Y-85161449D01*
X196596000Y-83820000D01*
X195234689Y-83820000D01*
X195167650Y-83800315D01*
X195158689Y-83793980D01*
X195147530Y-83785324D01*
X195104766Y-83766818D01*
X195099520Y-83764248D01*
X195058691Y-83741803D01*
X195058690Y-83741802D01*
X195039291Y-83736822D01*
X195020879Y-83730518D01*
X195002496Y-83722562D01*
X195002490Y-83722560D01*
X194956472Y-83715272D01*
X194950750Y-83714087D01*
X194905619Y-83702500D01*
X194905617Y-83702500D01*
X194885582Y-83702500D01*
X194866184Y-83700973D01*
X194858760Y-83699797D01*
X194846403Y-83697840D01*
X194846402Y-83697840D01*
X194800014Y-83702225D01*
X194794176Y-83702500D01*
X186631748Y-83702500D01*
X186564709Y-83682815D01*
X186539600Y-83661474D01*
X186533873Y-83655114D01*
X186533869Y-83655110D01*
X186380734Y-83543851D01*
X186380729Y-83543848D01*
X186240488Y-83481408D01*
X186187251Y-83436158D01*
X186166930Y-83369308D01*
X186185976Y-83302085D01*
X186218034Y-83267814D01*
X186279871Y-83222888D01*
X186282570Y-83219890D01*
X186285600Y-83216526D01*
X186345087Y-83179879D01*
X186377748Y-83175500D01*
X195892252Y-83175500D01*
X195959291Y-83195185D01*
X195984400Y-83216526D01*
X195990126Y-83222885D01*
X195990130Y-83222889D01*
X196143265Y-83334148D01*
X196143270Y-83334151D01*
X196316192Y-83411142D01*
X196316197Y-83411144D01*
X196501354Y-83450500D01*
X196501355Y-83450500D01*
X196690644Y-83450500D01*
X196690646Y-83450500D01*
X196875803Y-83411144D01*
X197048730Y-83334151D01*
X197201871Y-83222888D01*
X197328533Y-83082216D01*
X197423179Y-82918284D01*
X197481674Y-82738256D01*
X197501460Y-82550000D01*
X197481674Y-82361744D01*
X197423179Y-82181716D01*
X197328533Y-82017784D01*
X197201871Y-81877112D01*
X197201870Y-81877111D01*
X197048734Y-81765851D01*
X197048729Y-81765848D01*
X196875807Y-81688857D01*
X196875802Y-81688855D01*
X196730001Y-81657865D01*
X196690646Y-81649500D01*
X196501354Y-81649500D01*
X196468897Y-81656398D01*
X196316197Y-81688855D01*
X196316192Y-81688857D01*
X196143270Y-81765848D01*
X196143265Y-81765851D01*
X195990130Y-81877110D01*
X195990126Y-81877114D01*
X195984400Y-81883474D01*
X195924913Y-81920121D01*
X195892252Y-81924500D01*
X186377748Y-81924500D01*
X186310709Y-81904815D01*
X186285600Y-81883474D01*
X186279873Y-81877114D01*
X186279869Y-81877110D01*
X186126734Y-81765851D01*
X186126729Y-81765848D01*
X185953807Y-81688857D01*
X185953802Y-81688855D01*
X185808001Y-81657865D01*
X185768646Y-81649500D01*
X185579354Y-81649500D01*
X185546897Y-81656398D01*
X185394197Y-81688855D01*
X185394192Y-81688857D01*
X185221270Y-81765848D01*
X185221265Y-81765851D01*
X185068129Y-81877111D01*
X184941466Y-82017785D01*
X184846821Y-82181715D01*
X184846818Y-82181722D01*
X184788327Y-82361740D01*
X184788326Y-82361744D01*
X184768540Y-82550000D01*
X127869888Y-82550000D01*
X128108696Y-82382786D01*
X128111681Y-82380821D01*
X128647277Y-82050460D01*
X128650355Y-82048683D01*
X129204279Y-81750010D01*
X129207438Y-81748423D01*
X129777767Y-81482474D01*
X129781053Y-81481057D01*
X130365866Y-81248725D01*
X130369227Y-81247501D01*
X130966559Y-81049566D01*
X130969997Y-81048536D01*
X131577846Y-80885664D01*
X131581293Y-80884846D01*
X132197593Y-80757591D01*
X132201116Y-80756971D01*
X132356596Y-80734196D01*
X132823749Y-80665768D01*
X132827281Y-80665355D01*
X133454159Y-80610510D01*
X133457752Y-80610301D01*
X134088271Y-80591954D01*
X134088546Y-80591954D01*
X134136141Y-80591954D01*
X195803198Y-80591954D01*
X196433337Y-80610292D01*
G37*
G04 #@! TD.AperFunction*
M02*
